<svg xmlns="http://www.w3.org/2000/svg" width="153.015" height="86.728" viewBox="0 0 153.015 86.728">
  <g id="Group_485" data-name="Group 485" transform="translate(-187.358 -66.136)">
    <path id="Path_258" data-name="Path 258" d="M306.718,126.465v-6.679h3.42a10.059,10.059,0,0,0,0-20.118h-10.1v36.793l-6.68-.079v-43.4h16.779a16.739,16.739,0,0,1,0,33.478Z" transform="translate(-106)" fill="#3b543c"/>
    <path id="Path_259" data-name="Path 259" d="M351.731,103.006v6.682h-3.42a10.079,10.079,0,0,0-10.019,10.019v16.777h-6.679V119.707a16.8,16.8,0,0,1,16.7-16.7h3.42Z" transform="translate(-106)" fill="#3b543c"/>
    <rect id="Rectangle_159" data-name="Rectangle 159" width="6.681" height="6.681" transform="translate(250.504 92.987)" fill="#3b543c"/>
    <rect id="Rectangle_160" data-name="Rectangle 160" width="6.681" height="33.478" transform="translate(250.504 103.006)" fill="#3b543c"/>
    <path id="Path_260" data-name="Path 260" d="M380.124,136.484l-12.166-33.478h7.156l9.542,26.322,9.621-26.322h7.079l-12.168,33.478Z" transform="translate(-106)" fill="#3b543c"/>
    <path id="Path_261" data-name="Path 261" d="M434.917,103.006v33.478h-6.681v-26.8H418.217a10.059,10.059,0,1,0,0,20.117h3.341v6.679h-3.341a16.739,16.739,0,1,1,0-33.478Z" transform="translate(-106)" fill="#3b543c"/>
    <rect id="Rectangle_161" data-name="Rectangle 161" width="6.679" height="50.255" transform="translate(333.694 86.229)" fill="#3b543c"/>
    <path id="Path_263" data-name="Path 263" d="M313.276,88.46l-5.188,1.18h2.05A19.938,19.938,0,0,1,322.721,94.1l1.762-.36,79.3-16.285L395.48,99.726h7.03L414.7,66.5l.133-.36Z" transform="translate(-106)" fill="#3b543c"/>
    <path id="Path_264" data-name="Path 264" d="M298.126,148.191h-3.477v-3.657h-1.291v8.187h1.291v-3.345h3.477v3.345h1.289v-8.187h-1.289Z" transform="translate(-106)" fill="#3b543c"/>
    <path id="Path_265" data-name="Path 265" d="M333.167,144.523a4.1,4.1,0,1,0,4,4.088,4,4,0,0,0-4-4.088m2.718,4.088a2.671,2.671,0,1,1-5.332,0,2.669,2.669,0,1,1,5.332,0" transform="translate(-106)" fill="#3b543c"/>
    <path id="Path_266" data-name="Path 266" d="M370.014,149.6l-2.107-5.01-.024-.053h-1.466v8.187h1.277v-5.171l2.237,5.128.079.185,2.4-5.327v5.185h1.279v-8.187h-1.455Z" transform="translate(-106)" fill="#3b543c"/>
    <path id="Path_267" data-name="Path 267" d="M443.9,147.869c-.037-.005-.093-.009-.167-.017-.1-.009-.233-.022-.4-.041-.683-.092-1.031-.409-1.031-.942a1.072,1.072,0,0,1,1.02-1.09h.169a1.993,1.993,0,0,1,1.485.772l.085.094.6-1.114-.037-.047a2.812,2.812,0,0,0-2.133-.916h-.172a2.3,2.3,0,0,0-2.242,2.3c0,1.091.831,1.9,2.229,2.176.082.012.154.02.222.028a1.821,1.821,0,0,1,.317.051c.933.143,1.368.508,1.368,1.148a1.309,1.309,0,0,1-1.355,1.287h-.291a2.432,2.432,0,0,1-1.892-.937l-.08-.116-.529.9-.011.1.016.023a3.084,3.084,0,0,0,2.48,1.183h.309a2.465,2.465,0,0,0,2.507-2.439c0-1.3-.924-2.194-2.472-2.4" transform="translate(-106)" fill="#3b543c"/>
    <path id="Path_268" data-name="Path 268" d="M405.683,149.318h2.877v-1.242h-2.877V145.79h3.623v-1.255h-4.9v8.2h4.955v-1.242h-3.679Z" transform="translate(-106)" fill="#3b543c"/>
  </g>
</svg>
