<?xml version="1.0" encoding="utf-8"?>
<!-- Generator: Adobe Illustrator 28.3.0, SVG Export Plug-In . SVG Version: 6.00 Build 0)  -->
<svg version="1.1" id="Layer_1" xmlns="http://www.w3.org/2000/svg" xmlns:xlink="http://www.w3.org/1999/xlink" x="0px" y="0px"
	 viewBox="0 0 1365.5 404.7" style="enable-background:new 0 0 1365.5 404.7;" xml:space="preserve">
<style type="text/css">
	.st0{fill:#1E6396;}
	.st1{fill:#C51122;}
	.st2{fill:#878787;}
	.st3{fill:#1866AD;}
</style>
<g>
	<g>
		<path class="st0" d="M0,266.2c2.4-3.1,4.5-6.4,7.2-9.2c3.7-4,7.7-7.7,11.6-11.5c2.2-2.2,2.5-7.1,0.5-9.7c-0.9-1.1-1.9-2.5-2-3.8
			c-0.7-10.4-1.3-20.9-1.7-31.4c-0.2-4.9,0.5-5.2,5.4-5.2c11.3-0.1,22.6-0.4,33.9-0.5c5.3-0.1,6.9,1.3,6.5,6.4
			c-0.8,9.8,2.1,19,4.5,28.2c1.8,6.8,3.3,13.9,6.5,20c5.3,9.9,11.8,19.2,18,28.6c6.5,9.8,15,18,24.3,25c7.2,5.4,14.1,11.3,23.1,14
			c4.8,1.5,9.1,4.7,13.9,6.3c7.1,2.3,14.5,3.9,21.8,5.8c12.8,3.3,25.9,2.7,38.9,1.9c16.7-1,32.4-5.7,47.3-12.8
			c13.5-6.5,25.8-14.8,36.5-25.5c9.6-9.7,18.4-20.1,24.7-32.1c4.5-8.5,8-17.6,11.4-26.7c5.2-13.6,6.2-28.1,5.8-42.4
			c-0.3-11.4-1.6-23.1-4.2-34.2c-2.2-9.1-7-17.7-10.8-26.4c-5.2-12.1-13.1-22.4-22.1-32c-8.9-9.4-18.5-17.9-29.8-24.3
			c-5-2.8-10-5.5-15.1-8c-1.8-0.9-3.9-1.1-5.8-1.7c-6-2.1-11.9-4.3-17.9-6.4c-0.4-0.1-0.8-0.3-1.2-0.4c-5.5-0.8-11-1.4-16.3-2.7
			c-1.4-0.3-3.5-2.6-3.5-3.9c0.2-9.4,0.9-18.7,1.4-28c0.1-2.7,0.1-5.5,0.1-8.2c0.1-4.1,1.7-5.9,5.7-5.6c6.5,0.4,13,0.7,19.4,1.8
			c4.6,0.8,9,2.9,13.5,4.3c2.2,0.6,4.5,0.8,6.7,1.3c4.4,0.9,7.5-1.3,10.6-4c4.2-3.7,8.5-7.3,12.6-11c3-2.7,5.7-3,9.1-0.6
			c2.2,1.5,5.1,2.3,7.6,3.4c0.6,0.3,1.2,0.6,1.8,0.9c5.1,3.7,10.3,7.4,15.3,11.2c1.2,0.9,2.5,2.5,2.5,3.8c0.1,4.1-0.3,8.2-0.8,12.2
			c-0.6,4.4-1.7,8.7-2.1,13.1c-0.1,1.4,1.1,3.3,2.2,4.5c7.6,7.7,15.4,15.2,23,23c2.4,2.5,4.6,3.1,8,2.2c7-1.8,14.2-3.2,21.4-4.2
			c1.6-0.2,4.2,1.4,5.2,3c5.2,8.4,10.2,16.9,14.8,25.6c0.7,1.4-0.1,4.3-1.3,5.8c-4.2,5.5-8.6,10.7-13.3,15.8
			c-2.4,2.6-2.6,5.1-1.7,8.2c2.9,10.1,6.5,20.1,8.3,30.3c1.2,7,5.9,8.2,10.8,10c5.3,1.9,10.8,3.4,16,5.5c1.1,0.4,2.1,2.6,2.1,3.9
			c0,8.6-0.3,17.2-0.5,25.8c0,0.9-0.2,2,0,2.8c1.1,3.9-1.2,6-4.2,7.3c-4.9,2-10,3.9-15.1,5.5c-7.5,2.3-8.2,3.5-9.8,10.9
			c-1.7,8.1-4.5,16.1-6.6,24.1c-2.1,8.3-4,7.1,2.5,13.6c3.8,3.8,7.6,7.5,11.4,11.2c2,2,2.5,3.8,0.9,6.5c-4.3,7.2-8,14.7-12.3,21.9
			c-5.2,8.8-5.9,8.9-16,6.7c-4.5-1-9.1-1.4-13.6-2.2c-3.5-0.6-6,0.7-8.6,3.3c-7.6,7.8-15.5,15.2-23.4,22.6c-1.9,1.8-2.1,3-1.5,5.6
			c1.8,6.7,2.5,13.8,4.4,20.5c1.4,4.8-0.3,7.2-4.5,8.8c-1,0.4-1.8,1.2-2.8,1.7c-7.2,3.9-14.5,7.8-21.7,11.8c-3.4,1.9-6,1.4-8.7-1.3
			c-5.2-5.1-10.6-10.1-16.1-15c-1-0.9-2.8-1.7-3.9-1.4c-6.8,1.7-13.5,3.9-20.3,5.6c-5.2,1.3-10.5,2.8-15.9,3
			c-6.8,0.3-9.7,4.3-11.9,9.7c-1.5,3.7-2.9,7.5-4.7,11.1c-0.8,1.7-2.4,3.2-3.6,4.7c-0.8,0-1.6,0-2.5,0c-1.2-0.2-2.3-0.6-3.5-0.7
			c-8-0.3-16-0.7-23.9-0.8c-4.2-0.1-6.4-1.6-7.3-5.9c-1.5-6.8-3.6-13.6-5.6-20.3c-0.3-1.1-1.5-2.3-2.5-2.7
			c-4.2-1.4-8.6-2.4-12.7-3.9c-7.3-2.7-14.4-5.8-21.7-8.3c-2-0.7-5-1-6.5,0c-5.8,3.8-11.4,8.1-16.8,12.5c-3,2.4-5.7,2.9-8.8,0.8
			c-7.4-5-14.8-9.9-22.1-15c-5.3-3.6-5.5-5.2-3-11.2c1.5-3.6,3.1-7.3,3.7-11.1c0.6-3.7,1-7.8-0.1-11.2c-0.9-2.9-4.1-5.2-6.4-7.7
			c-4.6-5.1-9.9-9.7-13.6-15.4c-3.7-5.7-9.1-4.4-13.9-4.7c-5-0.4-10.2,0.8-15.3,1.4c-2.9,0.4-4.5-0.8-5.8-3.3
			c-5.1-9.6-10.5-19.2-15.7-28.7C0,267.9,0,267,0,266.2z"/>
		<path class="st1" d="M110.2,144.2c1,1.2,0.6,5.6,0.3,8c-4.3,28.9,11.5,62.3,41,70.2c24.3,8.2,51.5-1,68.6-19.4
			c7.1-8.6,10.9-19.9,12.1-30.9c2.1-26.7-21.4-45.2-34.6-65.7c-9.4-12-17.5-25-16.4-40.4c0.1-3.8,0-9.8,2.5-12
			c5.6-2,12.1,14.4,16.7,17.8c14.6,14.2,34.5,21.9,52.2,31.4c26,13.2,42.7,35.6,51.4,63.2c10.9,43.5-4.3,94-40,121.9
			c-67.3,55.1-178.2,7.5-177.8-81.5c0.1-19.5,5.9-39.1,15.7-56c1.7-2.3,5-8.1,8-6.8L110.2,144.2z"/>
		<path class="st2" d="M20.6,182.2c1.7-9.1,2.9-18.4,5.3-27.4c2.9-10.9,6.4-21.8,10.7-32.2c3.5-8.4,8-16.6,13.2-24.2
			c6.8-9.8,14-19.4,22.2-27.9c7.6-7.9,16.3-14.8,25.3-21.2c7.8-5.6,16.2-10.4,24.9-14.6c8.1-3.9,16.6-7.1,25.3-9.6
			c9.9-2.9,20.1-5.5,30.3-6.9c8.2-1.1,16.6-0.5,24.9-0.4c2.9,0,3.4,2.3,3.1,4.7c-0.3,2.6-1.9,3.6-4.5,3.6c-5.6,0-11.2,0.3-16.8,0.5
			c-2.5,0.1-5,0.1-7.4,0.4c-6.1,0.8-12.4,1.3-18.4,2.8c-6.8,1.7-13.6,3.8-20,6.6c-9.8,4.2-19.6,8.7-28.7,14
			c-7.8,4.5-15.2,10-22.1,15.9c-15.6,13.2-28.3,28.9-38.1,46.9c-6.1,11.2-10.9,22.9-14.5,35.2c-3.6,12.6-5.2,25.4-6.5,38.3
			c-0.3,2.7-1.5,4-4,4.1c-2.6,0.1-3.6-1.5-3.5-4c0-1.5,0-3,0-4.5C21,182.3,20.8,182.2,20.6,182.2z"/>
		<path class="st2" d="M196,44.3c-10,1.6-20.1,3.2-30.1,4.7c-14.1,2-27,7.6-39.3,14.4c-7,3.9-13.4,8.9-20.1,13.2
			c-1.2,0.7-3,0.4-4.6,0.5c0.2-1.5-0.2-3.8,0.6-4.4c5.2-4,10.4-8,16-11.3c7.5-4.4,15.2-8.6,23.1-12c5.9-2.6,12.3-4.3,18.7-5.8
			c7.9-1.9,15.9-3.4,23.9-4.9c2.5-0.5,5.1-0.3,7.7-0.5c2.9-0.2,5.9-0.2,8.8-0.5c2-0.2,4.6-1.3,4.6,1.6c0,2.4-0.7,5.6-4.3,5.8
			c-1.6,0.1-3.3,0-4.9,0C196.1,44.8,196,44.5,196,44.3z"/>
		<path class="st2" d="M43.2,184.5c0.9-6.9,1.3-13.9,2.9-20.7c2-8.8,4.4-17.6,7.7-26c5-12.7,11.4-24.8,19.8-35.7
			c0.6-0.7,0.9-1.9,1.6-2.3c1.4-0.6,3.3-1.4,4.5-1c2.2,0.9,1.4,2.8,0.3,4.4c-4.4,6.7-9.1,13.3-13,20.3c-7.8,14.1-12.8,29.3-16,45.1
			c-1.1,5.5-1.4,11.2-1.7,16.9c-0.1,2.2,0.1,4.4-2.7,4.4c-3,0-3.3-2.3-3.1-4.6c0-0.3,0-0.5,0-0.8C43.3,184.5,43.3,184.5,43.2,184.5z
			"/>
	</g>
	<g>
		<g>
			<path class="st1" d="M513.2,66.8v66.3h95.3v23.4h-95.3v76.9h-27.2V43.2h134.2v23.6H513.2z"/>
			<path class="st1" d="M647.4,44.8c0-9.5,7.6-17.1,17.7-17.1c10,0,17.7,7.3,17.7,16.6c0,9.8-7.3,17.4-17.7,17.4
				C655,61.6,647.4,54.3,647.4,44.8z M652,89.3h26.1v143.9H652V89.3z"/>
			<path class="st1" d="M805.2,88v25.3c-2.2-0.3-4.1-0.3-6-0.3c-28,0-45.4,17.1-45.4,48.6v71.7h-26.1V89.3h25v24.2
				C762,96.7,780,88,805.2,88z"/>
			<path class="st1" d="M965.5,170H848.7c3.3,25.3,23.6,42.1,52.1,42.1c16.8,0,31-5.7,41.6-17.4l14.4,16.8
				c-13,15.2-32.9,23.4-56.8,23.4c-46.4,0-77.4-30.7-77.4-73.6c0-42.6,30.7-73.3,72.2-73.3c41.6,0,71.2,29.9,71.2,74.1
				C966,164.3,965.7,167.5,965.5,170z M848.7,151.3H941c-2.7-24.2-20.9-41.3-46.2-41.3C869.9,110,851.4,126.8,848.7,151.3z"/>
			<path class="st3" d="M1002.1,31.7h26.1v201.5h-26.1V31.7z"/>
			<path class="st3" d="M1207.5,170h-116.8c3.3,25.3,23.6,42.1,52.1,42.1c16.8,0,31-5.7,41.6-17.4l14.4,16.8
				c-13,15.2-32.9,23.4-56.8,23.4c-46.4,0-77.4-30.7-77.4-73.6c0-42.6,30.7-73.3,72.2-73.3c41.6,0,71.2,29.9,71.2,74.1
				C1208,164.3,1207.7,167.5,1207.5,170z M1090.7,151.3h92.3c-2.7-24.2-20.9-41.3-46.2-41.3C1111.9,110,1093.4,126.8,1090.7,151.3z"
				/>
			<path class="st3" d="M1230.8,161.3c0-42.9,31.8-73.3,76-73.3c25.8,0,47.3,10.6,58.7,30.7l-19.8,12.8
				c-9.2-14.1-23.4-20.6-39.1-20.6c-28.2,0-49.4,19.8-49.4,50.5c0,31.2,21.2,50.8,49.4,50.8c15.8,0,29.9-6.5,39.1-20.6l19.8,12.5
				c-11.4,20.1-32.9,31-58.7,31C1262.6,234.9,1230.8,204.2,1230.8,161.3z"/>
		</g>
		<g>
			<path class="st2" d="M533.2,332.7h-41v33.8h44.9l-0.9,5.7H486v-80.4h49.3v5.7h-43.1v29.4h41V332.7z"/>
			<path class="st2" d="M549.8,372.2v-84.7h5.7v84.7H549.8z"/>
			<path class="st2" d="M575.6,344.2c0.1,14.8,7.6,24,18.6,24c10.8,0,14.5-6.1,16.5-10.8h5.9c-2.4,7.6-8.5,16.2-22.6,16.2
				c-17.5,0-24.2-15-24.2-29.6c0-16.4,8.2-30.6,24.9-30.6c17.7,0,23.3,15.3,23.3,26.1c0,1.6,0,3.2-0.1,4.7H575.6z M612,339.1
				c-0.1-11.4-6.3-20.3-17.6-20.3c-11.8,0-17.2,8.3-18.5,20.3H612z"/>
			<path class="st2" d="M674.8,355.3c-2.8,10.1-9.4,18.3-22.3,18.3c-14.4,0-24.6-10.7-24.6-29.9c0-15.7,8.4-30.3,25.3-30.3
				c14.6,0,20.6,10.3,21.6,18.4H669c-1.7-6.7-6.1-13-15.9-13c-12.2,0-19.1,10.3-19.1,24.7c0,13.7,6.4,24.7,18.5,24.7
				c8.4,0,13.4-4.3,16.4-12.9H674.8z"/>
			<path class="st2" d="M680.9,314.7h10.7v-17.9h5.7v17.9H711v5.4h-13.7v37.3c0,6.4,1.4,10.1,6.9,10.1c1.7,0,4.1-0.1,6-0.7v5.1
				c-2,0.8-4.7,1-7.1,1c-7.4,0-11.5-3.7-11.5-12.9v-40h-10.7V314.7z"/>
			<path class="st2" d="M721.7,330.4c0-9.6-0.1-13.8-0.1-15.6h5.6c0.1,1.8,0.2,5.5,0.2,12.9c3.3-8.6,10.7-13.8,20-14.2v6.2
				c-11.9,0.8-20,9.1-20,22.7v29.9h-5.7V330.4z"/>
			<path class="st2" d="M804.5,343.3c0,16-8.8,30.2-26,30.2c-15.5,0-25.2-12.8-25.2-30.1c0-16.4,9.1-30.1,25.7-30.1
				C794.4,313.4,804.5,325.3,804.5,343.3z M759.5,343.5c0,13.7,7.4,24.7,19.5,24.7c12.4,0,19.4-10.2,19.4-24.7
				c0-13.6-6.9-24.7-19.6-24.7C765.7,318.8,759.5,329.7,759.5,343.5z"/>
			<path class="st2" d="M818.8,329.6c0-4.9,0-10.3-0.1-14.8h5.6c0.1,2,0.3,6.9,0.2,10.2c2.4-5.7,7.7-11.6,17.2-11.6
				c8,0,14.4,4,16.7,11.4c2.9-6,8.6-11.4,18.7-11.4c8.8,0,18,5.1,18,21v37.8h-5.7v-37.1c0-7.7-2.8-16.1-13.4-16.1
				c-11.1,0-16.2,9-16.2,20.1v33.1h-5.6v-37c0-8.4-2.5-16.2-13.1-16.2c-11.1,0-16.5,9.9-16.5,21.6v31.6h-5.7V329.6z"/>
			<path class="st2" d="M915.3,344.2c0.1,14.8,7.6,24,18.6,24c10.8,0,14.5-6.1,16.5-10.8h5.9c-2.4,7.6-8.5,16.2-22.6,16.2
				c-17.5,0-24.2-15-24.2-29.6c0-16.4,8.2-30.6,24.9-30.6c17.7,0,23.3,15.3,23.3,26.1c0,1.6,0,3.2-0.1,4.7H915.3z M951.7,339.1
				c-0.1-11.4-6.3-20.3-17.6-20.3c-11.8,0-17.2,8.3-18.5,20.3H951.7z"/>
			<path class="st2" d="M1014.5,355.3c-2.8,10.1-9.4,18.3-22.3,18.3c-14.4,0-24.6-10.7-24.6-29.9c0-15.7,8.4-30.3,25.3-30.3
				c14.6,0,20.6,10.3,21.6,18.4h-5.9c-1.7-6.7-6.1-13-15.9-13c-12.2,0-19.1,10.3-19.1,24.7c0,13.7,6.4,24.7,18.5,24.7
				c8.4,0,13.4-4.3,16.4-12.9H1014.5z"/>
			<path class="st2" d="M1033.6,287.5v36.9c3.2-6,8.8-11,19-11c8.2,0,19.4,4.1,19.4,22.3v36.5h-5.7v-35.4c0-11.4-5.2-17.8-14.7-17.8
				c-11.4,0-17.9,7-17.9,21.1v32h-5.7v-84.7H1033.6z"/>
			<path class="st2" d="M1129.5,361.3c0,5.1,0.5,9.1,0.8,10.9h-5.5c-0.5-1.4-0.8-3.9-1-8.8c-2,4.3-7,10.2-18.8,10.2
				c-13.3,0-19.1-8.6-19.1-17.2c0-12.6,9.8-18.4,27-18.4c4.8,0,8.6,0,10.9,0v-5.9c0-5.7-1.7-13.4-14.8-13.4
				c-11.6,0-13.3,6.1-14.6,10.8h-5.7c0.7-6.3,4.6-16.1,20.4-16.1c13.1,0,20.4,5.5,20.4,18.1V361.3z M1123.9,342.9
				c-2.2,0-7.5,0-11.3,0c-12.8,0-20.7,3.3-20.7,13.2c0,7.2,5.2,12.2,13.2,12.2c16.4,0,18.7-10.9,18.7-23.3V342.9z"/>
			<path class="st2" d="M1148.4,329.2c0-5.1,0-9.9-0.1-14.5h5.6c0.2,1.8,0.3,9.3,0.2,10.9c2.5-5.9,7.2-12.3,19.1-12.3
				c10.2,0,19.3,5.7,19.3,21.6v37.2h-5.7v-36.3c0-10.2-4.2-16.9-14.2-16.9c-13.7,0-18.4,11.4-18.4,23.9v29.3h-5.7V329.2z"/>
			<path class="st2" d="M1211.4,287.5h5.7v11.1h-5.7V287.5z M1211.4,314.7h5.7v57.4h-5.7V314.7z"/>
			<path class="st2" d="M1278.2,355.3c-2.8,10.1-9.4,18.3-22.3,18.3c-14.4,0-24.6-10.7-24.6-29.9c0-15.7,8.4-30.3,25.3-30.3
				c14.6,0,20.6,10.3,21.6,18.4h-5.9c-1.7-6.7-6.1-13-15.9-13c-12.2,0-19.1,10.3-19.1,24.7c0,13.7,6.4,24.7,18.5,24.7
				c8.4,0,13.4-4.3,16.4-12.9H1278.2z"/>
			<path class="st2" d="M1331.4,361.3c0,5.1,0.5,9.1,0.8,10.9h-5.5c-0.5-1.4-0.8-3.9-1-8.8c-2,4.3-7,10.2-18.8,10.2
				c-13.3,0-19.1-8.6-19.1-17.2c0-12.6,9.8-18.4,27-18.4c4.8,0,8.6,0,10.9,0v-5.9c0-5.7-1.7-13.4-14.8-13.4
				c-11.6,0-13.3,6.1-14.6,10.8h-5.7c0.7-6.3,4.6-16.1,20.4-16.1c13.1,0,20.4,5.5,20.4,18.1V361.3z M1325.8,342.9
				c-2.2,0-7.5,0-11.3,0c-12.8,0-20.7,3.3-20.7,13.2c0,7.2,5.2,12.2,13.2,12.2c16.4,0,18.7-10.9,18.7-23.3V342.9z"/>
			<path class="st2" d="M1350.4,372.2v-84.7h5.7v84.7H1350.4z"/>
		</g>
	</g>
</g>
</svg>
