<?xml version="1.0" encoding="utf-8"?>
<!-- Generator: Adobe Illustrator 28.3.0, SVG Export Plug-In . SVG Version: 6.00 Build 0)  -->
<svg version="1.1" id="Layer_1" xmlns="http://www.w3.org/2000/svg" xmlns:xlink="http://www.w3.org/1999/xlink" x="0px" y="0px"
	 viewBox="0 0 1508.6 623.2" style="enable-background:new 0 0 1508.6 623.2;" xml:space="preserve">
<style type="text/css">
	.st0{fill:#4D4D4E;}
	.st1{fill:#C6C1BB;}
	.st2{fill-rule:evenodd;clip-rule:evenodd;fill:#4D4D4E;}
	.st3{fill-rule:evenodd;clip-rule:evenodd;fill:#D04152;}
	.st4{opacity:0.5;}
	.st5{clip-path:url(#SVGID_00000067223846230705276850000007004862689353460631_);}
	.st6{filter:url(#Adobe_OpacityMaskFilter);}
	.st7{clip-path:url(#SVGID_00000059280408678701837170000010471890278527396994_);}
	.st8{enable-background:new    ;}
	
		.st9{clip-path:url(#SVGID_00000066479592772242916480000014183514104079622022_);fill:url(#SVGID_00000064346489308105770870000012602452978226687387_);}
	
		.st10{clip-path:url(#SVGID_00000059280408678701837170000010471890278527396994_);mask:url(#SVGID_00000005982738156405829130000003836527596120069789_);}
	.st11{clip-path:url(#SVGID_00000026873998497474002500000005525623264815133118_);}
	
		.st12{clip-path:url(#SVGID_00000124862343095640352940000004664418326168050328_);fill:url(#SVGID_00000124123939995034350550000006793413780106759553_);}
</style>
<g>
	<polygon class="st0" points="712.4,309.8 597.6,508.6 368.3,508.6 347.8,472.9 577.2,473 691.9,274.3 	"/>
	<path class="st0" d="M614.5,146.9c-12.7,1.6-25.4,3.3-38.1,5.3L495.9,12.6h41L614.5,146.9z"/>
	<polygon class="st0" points="558.6,571.7 538,607.3 350,607.4 308.9,607.4 194.1,408.6 214.6,373.1 329.4,571.7 	"/>
	<path class="st0" d="M509,163.9c-12.1,2.4-24.2,5.1-36.4,7.8L402.5,50.3l-229,0.1L193.8,15L423,15.1L509,163.9z"/>
	<polygon class="st0" points="383.9,149.2 154.7,149.2 39.9,347.8 19.5,312.4 134.1,113.8 363.5,113.8 	"/>
	<path class="st0" d="M148.4,285.9c-0.5,0.2-1,0.5-1.5,0.7l44.2-76.6l40.8,0.1l-29.4,51C184.5,268.9,166.4,277.2,148.4,285.9"/>
	<path class="st1" d="M534.7,379.6c1.6-26,1.8-53-0.5-78.7l8.8,8.4c-93.8,2.3-182.5,1.7-275.4,16.3c91.8-20.1,181.3-25.2,274.6-33
		l9.2-0.7C549.8,321.8,542.4,350.8,534.7,379.6"/>
	<path class="st2" d="M232,607.2l-40.8,0.1L76.5,408.7l24.8-42.7c12-4,25.2-8.2,39-12.3c3.5-1,7-2,10.6-3.1l-33.4,58L232,607.2z"/>
	<path class="st0" d="M877.3,551.9h-37.8c1.4-2,2.5-4.1,3.2-6.5c0.8-2.4,1.2-4.9,1.2-7.6v-70.2c2.4-1.3,4.8-2.6,7.2-3.9
		c0.8-0.5,1.7-1,2.5-1.4c5.4-2.9,10.9-5.6,16.5-8.3c1-0.5,2.1-1,3.2-1.5v85.8c0,2.7,0.3,5.2,1.2,7.3
		C875.2,547.9,876.1,549.9,877.3,551.9"/>
	<path class="st0" d="M842.8,350.7c-0.7-2.2-1.8-4.4-3.2-6.5h37.7c-1.2,1.9-2.1,4-2.8,6.2c-0.8,2.1-1.2,4.5-1.2,7V439
		c-0.1,0-0.1,0.1-0.2,0.1c-2.5,1.1-5,2.3-7.2,3.4c-5.7,2.6-11.4,5.4-16.7,8.3c-1.1,0.5-2,1.1-2.8,1.5c-0.8,0.5-1.5,0.8-2.4,1.3
		v-95.4C844,355.5,843.6,353,842.8,350.7"/>
	<path class="st0" d="M1008.6,545.7c0.8,2.1,1.8,4.1,3,6.2h-37.7c1.3-2,2.4-4.1,3.2-6.5c0.7-2.4,1.2-4.8,1.2-7.6V500
		c11.7-9.9,21.5-22.5,29.2-37.6v76.1C1007.4,541.1,1007.8,543.6,1008.6,545.7"/>
	<path class="st0" d="M977,350.7c-0.8-2.2-1.9-4.4-3.2-6.5h37.7c-1.2,1.9-2.1,4-3,6.2c-0.7,2.1-1.2,4.5-1.2,7v61.5
		c-9.8,0.7-19.5,1.9-29.2,3.4v-64C978.1,355.5,977.7,353,977,350.7"/>
	<path class="st0" d="M1099.3,538.4v-181c0-2.5,0.4-4.9,1.2-7c0.7-2.1,1.7-4.3,2.8-6.1h-37.7c1.4,2.1,2.5,4.3,3.2,6.5
		c0.8,2.3,1.2,4.7,1.2,7.6v179.5c0,2.7-0.4,5.2-1.2,7.6c-0.7,2.4-1.8,4.5-3.2,6.5h37.7c-1.2-2-2.1-4-2.8-6.2
		C1099.7,543.6,1099.3,541.1,1099.3,538.4"/>
	<path class="st0" d="M1241.2,452.6c9-1.2,17.3-3.1,25-5.4c7.6-2.5,14.2-5.7,19.8-9.8c5.6-4.1,9.9-9.1,13-14.9
		c3.1-5.9,4.7-12.8,4.7-20.8c0-9.3-2.1-17.6-6.2-24.7c-4.1-7.2-9.5-13.1-16-18.1c-6.6-4.9-14-8.5-22.2-10.9
		c-8.4-2.5-16.7-3.7-25.1-3.7h-76.8c1.4,2.1,2.5,4.3,3.3,6.3c0.7,2,1.2,4.6,1.2,7.8v179.5c0,3-0.5,5.6-1.2,7.7
		c-0.8,2.3-1.9,4.4-3.3,6.4h37.9c-1.4-2.1-2.5-4.4-3.4-6.5c-0.8-2.1-1.3-4.9-1.3-8.2V355h38.3c4.5,0,9.3,0.5,14.6,1.5
		c5.2,1,10.1,3.1,14.7,6.3c4.5,3.2,8.4,7.8,11.4,13.7c3.1,6,4.6,13.8,4.6,23.5c0,8.9-1.9,16.2-5.4,22.4c-3.7,6-8,10.9-13.4,14.5
		c-5.2,3.8-10.8,6.4-16.7,7.9c-5.8,1.5-11,2.4-15.5,2.4h-22.6l76.4,95.5c2.1,2.7,5,5,8.5,6.6c3.5,1.6,7,2.5,10.5,2.5h23.4
		L1241.2,452.6z"/>
	<path class="st0" d="M1501.5,551.9l-11.7-18.5c-13.5,2.5-24.5,4.1-33,4.9c-8.4,0.6-16.3,0.9-23.5,0.9h-48.3l115.1-195h-155.8
		l14.6,20.1c8.4-1.9,15.7-3.6,22-4.7c6.3-1.3,11.8-2.3,16.6-3c4.7-0.7,9.1-1.2,13-1.3c3.9-0.2,7.7-0.4,11.5-0.4h39.8l-120.3,196.9
		H1501.5z"/>
	<path class="st0" d="M1485.4,205.6c-1.3-80.7-43.6-165.7-113-165.7c-43.6,0-64.1,24-79.4,48.8c-6.5,10-10.9,13.5-17.4,17l17.9,32.7
		c13.5-44.9,38.8-83.3,77.6-83.3c35.3,0,69.8,51.9,71.1,150.5h-191.9h-8.3h-143.1c3.9-22.2,4.8-46.2,4.8-69.8v-33.6l-58,10.9
		c19.2,6.1,19.6,9.2,19.6,19.6v35.8c-3.5,82-34.9,113-98.1,130c16.1,1.3,25.7,1.7,31.4,1.7c61.1,0,86.8-34,97.3-78.5H1242h8.3h241.2
		l10-16.1H1485.4z"/>
	<path class="st0" d="M928.8,130.5c0-10-0.4-13.5-19.6-19.2l58-10.9v36.9c0,78.1-7.4,161.1-105.1,161.1c-5.7,0-15.3-0.9-31.4-2.2
		c63.2-17,94.6-48,98.1-130V130.5z"/>
	<path class="st2" d="M1007.4,416.6v17.9c-7.9,22.4-19.8,42.3-37.2,56.7c9.2-23.8,12.7-47.8,12.7-47.8c-39.7,1.6-77,7.6-105.7,14.9
		c-1.3,0.3-2.6,0.7-3.8,1c-2.6,0.7-5,1.3-7.4,2.1c-5.1,1.5-9.9,3-14.2,4.5c-0.2,0.1-0.4,0.1-0.5,0.2c-2.5,0.9-4.9,1.7-7.2,2.6v-1
		c2.4-1.3,4.8-2.6,7.2-3.9c0.8-0.5,1.7-0.9,2.5-1.4c5.4-2.9,10.9-5.6,16.5-8.3c1-0.5,2.1-1,3.2-1.5c1.3-0.6,2.6-1.2,3.8-1.7
		C918.7,432,962.1,420.2,1007.4,416.6"/>
	
		<rect x="924.6" y="39.3" transform="matrix(0.7071 -0.7071 0.7071 0.7071 235.7176 682.9548)" class="st0" width="35.3" height="35.3"/>
	<polygon class="st0" points="839.6,586 842.6,586 850.4,603.5 858.2,586 861.2,586 861.2,607.2 858.4,607.2 858.4,591.4 
		851.4,607.2 849.4,607.2 842.4,591.4 842.4,607.2 839.6,607.2 	"/>
	<path class="st0" d="M881.3,602.4H872l-1.7,4.7h-2.9L875,586h3.2l7.7,21.2H883L881.3,602.4z M876.6,589.4l-3.8,10.8h7.7
		L876.6,589.4z"/>
	<polygon class="st0" points="908.8,585.8 908.8,607.2 906,607.2 894.8,590.2 894.8,607.2 892,607.2 892,585.8 894.8,585.8 
		906,602.8 906,585.8 	"/>
	<path class="st0" d="M928.9,602.4h-9.3l-1.7,4.7h-2.9l7.7-21.2h3.2l7.7,21.2h-2.9L928.9,602.4z M924.2,589.4l-3.8,10.8h7.7
		L924.2,589.4z"/>
	<path class="st0" d="M959.1,592h-3.3c-1.2-2.5-3.5-3.9-6.5-3.9c-4.5,0-7.9,3.2-7.9,8.4c0,5.1,3.4,8.4,7.9,8.4
		c4.2,0,7.1-2.7,7.5-6.9h-8.5v-2.3h11.5v2.1c-0.5,5.3-4.7,9.5-10.4,9.5c-6,0-10.7-4.5-10.7-10.9c0-6.4,4.7-10.9,10.7-10.9
		C953.8,585.6,957.5,588,959.1,592"/>
	<polygon class="st0" points="977.6,588.1 969,588.1 969,595.3 976.7,595.3 976.7,597.6 969,597.6 969,604.9 977.6,604.9 
		977.6,607.2 966.2,607.2 966.2,585.8 977.6,585.8 	"/>
	<polygon class="st0" points="984.6,586 987.6,586 995.4,603.5 1003.3,586 1006.2,586 1006.2,607.2 1003.5,607.2 1003.5,591.4 
		996.4,607.2 994.5,607.2 987.4,591.4 987.4,607.2 984.6,607.2 	"/>
	<polygon class="st0" points="1025.2,588.1 1016.5,588.1 1016.5,595.3 1024.2,595.3 1024.2,597.6 1016.5,597.6 1016.5,604.9 
		1025.2,604.9 1025.2,607.2 1013.7,607.2 1013.7,585.8 1025.2,585.8 	"/>
	<polygon class="st0" points="1048.9,585.8 1048.9,607.2 1046.1,607.2 1034.9,590.2 1034.9,607.2 1032.1,607.2 1032.1,585.8 
		1034.9,585.8 1046.1,602.8 1046.1,585.8 	"/>
	<polygon class="st0" points="1055.1,585.9 1069.5,585.9 1069.5,588.1 1063.7,588.1 1063.7,607.2 1060.9,607.2 1060.9,588.1 
		1055.1,588.1 	"/>
	<path class="st0" d="M1099.2,602.4h-9.3l-1.7,4.7h-2.9l7.7-21.2h3.2l7.7,21.2h-2.9L1099.2,602.4z M1094.5,589.4l-3.8,10.8h7.7
		L1094.5,589.4z"/>
	<polygon class="st0" points="1126.7,585.8 1126.7,607.2 1123.9,607.2 1112.7,590.2 1112.7,607.2 1110,607.2 1110,585.8 
		1112.7,585.8 1123.9,602.8 1123.9,585.8 	"/>
	<path class="st0" d="M1152.2,596.6c0,6.6-4.3,10.6-11.3,10.6h-6.6v-21.3h6.6C1147.8,585.9,1152.2,590,1152.2,596.6 M1140.8,604.9
		c5.6,0,8.5-3.1,8.5-8.3c0-5.2-2.9-8.4-8.5-8.4h-3.9v16.7H1140.8z"/>
	<path class="st0" d="M1179.1,585.6c4.6,0,8.3,2.3,9.9,6.5h-3.3c-1.2-2.6-3.4-4-6.5-4c-4.5,0-7.8,3.2-7.8,8.5c0,5.2,3.3,8.4,7.8,8.4
		c3.1,0,5.4-1.4,6.5-4h3.3c-1.6,4.1-5.3,6.4-9.9,6.4c-6,0-10.6-4.5-10.6-10.9C1168.5,590.1,1173.1,585.6,1179.1,585.6"/>
	<path class="st0" d="M1205.5,607.4c-6,0-10.7-4.5-10.7-10.9c0-6.4,4.7-10.9,10.7-10.9c6,0,10.7,4.5,10.7,10.9
		C1216.2,602.9,1211.5,607.4,1205.5,607.4 M1205.5,605c4.5,0,7.9-3.3,7.9-8.5c0-5.2-3.4-8.5-7.9-8.5c-4.5,0-7.9,3.2-7.9,8.5
		C1197.7,601.7,1201,605,1205.5,605"/>
	<polygon class="st0" points="1239.4,585.8 1239.4,607.2 1236.6,607.2 1225.4,590.2 1225.4,607.2 1222.7,607.2 1222.7,585.8 
		1225.4,585.8 1236.6,602.8 1236.6,585.8 	"/>
	<path class="st0" d="M1253.7,607.4c-4.3,0-7.3-2.4-7.4-5.9h3c0.2,1.8,1.4,3.5,4.4,3.5c2.7,0,4.3-1.5,4.3-3.5
		c0-5.7-11.5-2.1-11.5-10c0-3.5,2.8-5.9,7.1-5.9c4.1,0,6.7,2.2,7.1,5.5h-3.1c-0.2-1.4-1.5-3.1-4.1-3.1c-2.3-0.1-4.1,1.1-4.1,3.4
		c0,5.5,11.5,2.1,11.5,10C1260.7,604.4,1258.3,607.4,1253.7,607.4"/>
	<path class="st0" d="M1267.5,585.9h2.8v13.5c0,3.9,2.1,5.6,5.3,5.6c3.2,0,5.2-1.7,5.2-5.6v-13.5h2.8v13.4c0,5.5-3.6,8.1-8,8.1
		c-4.4,0-8-2.5-8-8.1V585.9z"/>
	<polygon class="st0" points="1293.8,585.9 1293.8,604.9 1301.2,604.9 1301.2,607.2 1291,607.2 1291,585.9 	"/>
	<polygon class="st0" points="1305.6,585.9 1320.1,585.9 1320.1,588.1 1314.3,588.1 1314.3,607.2 1311.5,607.2 1311.5,588.1 
		1305.6,588.1 	"/>
	<path class="st0" d="M1338.8,602.4h-9.3l-1.7,4.7h-2.9l7.7-21.2h3.2l7.7,21.2h-2.9L1338.8,602.4z M1334.2,589.4l-3.8,10.8h7.7
		L1334.2,589.4z"/>
	<polygon class="st0" points="1366.4,585.8 1366.4,607.2 1363.6,607.2 1352.4,590.2 1352.4,607.2 1349.6,607.2 1349.6,585.8 
		1352.4,585.8 1363.6,602.8 1363.6,585.8 	"/>
	<path class="st0" d="M1383.5,585.6c4.6,0,8.3,2.3,9.9,6.5h-3.3c-1.2-2.6-3.4-4-6.5-4c-4.5,0-7.8,3.2-7.8,8.5c0,5.2,3.3,8.4,7.8,8.4
		c3.1,0,5.4-1.4,6.5-4h3.3c-1.6,4.1-5.3,6.4-9.9,6.4c-6,0-10.6-4.5-10.6-10.9C1372.8,590.1,1377.5,585.6,1383.5,585.6"/>
	<polygon class="st0" points="1398.4,585.9 1401.5,585.9 1406.8,596.7 1412.1,585.9 1415.1,585.9 1408.2,599.1 1408.2,607.2 
		1405.4,607.2 1405.4,599.1 	"/>
	<polygon class="st0" points="1434.5,585.9 1434.5,604.9 1442,604.9 1442,607.2 1431.7,607.2 1431.7,585.9 	"/>
	<path class="st0" d="M1448.6,607.4c-1.1,0-1.9-0.8-1.9-1.9c0-1.1,0.8-1.9,1.9-1.9c1,0,1.8,0.8,1.8,1.9
		C1450.4,606.5,1449.6,607.4,1448.6,607.4"/>
	<polygon class="st0" points="1459.7,585.9 1459.7,604.9 1467.1,604.9 1467.1,607.2 1456.9,607.2 1456.9,585.9 	"/>
	<path class="st0" d="M1473.7,607.4c-1.1,0-1.9-0.8-1.9-1.9c0-1.1,0.8-1.9,1.9-1.9c1,0,1.8,0.8,1.8,1.9
		C1475.6,606.5,1474.7,607.4,1473.7,607.4"/>
	<path class="st0" d="M1491.6,585.6c4.6,0,8.3,2.3,9.9,6.5h-3.3c-1.2-2.6-3.4-4-6.5-4c-4.5,0-7.8,3.2-7.8,8.5c0,5.2,3.3,8.4,7.8,8.4
		c3.1,0,5.4-1.4,6.5-4h3.3c-1.6,4.1-5.3,6.4-9.9,6.4c-6,0-10.6-4.5-10.6-10.9C1481,590.1,1485.7,585.6,1491.6,585.6"/>
	<path class="st3" d="M698.6,164.6c-27.8,112.6-78.5,215.9-161.9,285c34.8-90.4,48-181.5,48-181.5c-171.5,6.6-331.2,35.5-444.5,68.1
		c-19.5,5.7-37.6,11.4-54.1,17.1c-19.8,6.9-37.4,13.8-52.5,20.5c1.7-1.2,3.5-2.4,5.5-3.5c18.1-10.4,36.3-20.4,54.5-29.9
		c20.7-11,41.6-21.5,62.6-31.4C328.7,226.7,509.2,176.9,698.6,164.6"/>
	<g class="st4">
		<g>
			<defs>
				<rect id="SVGID_1_" x="151.5" y="15.8" width="590.9" height="522.5"/>
			</defs>
			<clipPath id="SVGID_00000061429823579442226900000018413033172719726472_">
				<use xlink:href="#SVGID_1_"  style="overflow:visible;"/>
			</clipPath>
			<g style="clip-path:url(#SVGID_00000061429823579442226900000018413033172719726472_);">
				<defs>
					<path id="SVGID_00000128485246954368225650000006535931306531895188_" d="M673.8,185.4C520.5,198.2,368.4,236.9,220,300.7
						c151.5-44.9,285-68.1,404.6-65.9c-9,35.5-19.7,83.1-37.2,133.9C624.3,319.1,653.4,257.6,673.8,185.4z"/>
				</defs>
				<clipPath id="SVGID_00000142897994567211245990000006006873415243751575_">
					<use xlink:href="#SVGID_00000128485246954368225650000006535931306531895188_"  style="overflow:visible;"/>
				</clipPath>
				<defs>
					<filter id="Adobe_OpacityMaskFilter" filterUnits="userSpaceOnUse" x="-43.8" y="-205" width="981.4" height="964.1">
						<feColorMatrix  type="matrix" values="1 0 0 0 0  0 1 0 0 0  0 0 1 0 0  0 0 0 1 0"/>
					</filter>
				</defs>
				
					<mask maskUnits="userSpaceOnUse" x="-43.8" y="-205" width="981.4" height="964.1" id="SVGID_00000176010555793391133910000004640629472284709047_">
					<g class="st6">
						
							<rect x="151.5" y="15.8" style="clip-path:url(#SVGID_00000142897994567211245990000006006873415243751575_);" width="590.9" height="522.5"/>
						<g class="st8">
							<g>
								<defs>
									
										<rect id="SVGID_00000179648403863995063460000013332788450513185929_" x="270.3" y="32.5" transform="matrix(0.4096 -0.9123 0.9123 0.4096 11.1191 571.2513)" width="353.2" height="489.1"/>
								</defs>
								
									<clipPath id="SVGID_00000152237522955160725590000017558526184620265657_" style="clip-path:url(#SVGID_00000142897994567211245990000006006873415243751575_);">
									<use xlink:href="#SVGID_00000179648403863995063460000013332788450513185929_"  style="overflow:visible;"/>
								</clipPath>
								
									<linearGradient id="SVGID_00000069399099377063361280000005360980944296448646_" gradientUnits="userSpaceOnUse" x1="2281.6909" y1="1999.3729" x2="2290.4189" y2="1999.3729" gradientTransform="matrix(-22.4589 50.0225 -50.0225 -22.4589 151877.3906 -69339.4062)">
									<stop  offset="0" style="stop-color:#FFFFFF"/>
									<stop  offset="1" style="stop-color:#1D1D1B"/>
								</linearGradient>
								
									<polygon style="clip-path:url(#SVGID_00000152237522955160725590000017558526184620265657_);fill:url(#SVGID_00000069399099377063361280000005360980944296448646_);" points="
									250.6,-205 -43.8,450.6 643.2,759.1 937.6,103.4 								"/>
							</g>
						</g>
					</g>
				</mask>
				
					<g style="clip-path:url(#SVGID_00000142897994567211245990000006006873415243751575_);mask:url(#SVGID_00000176010555793391133910000004640629472284709047_);">
					<g>
						<defs>
							<rect id="SVGID_00000086693137247028025140000016921547955612467599_" x="151.5" y="15.8" width="590.9" height="522.5"/>
						</defs>
						<clipPath id="SVGID_00000107570937372402458140000002381615379952509615_">
							<use xlink:href="#SVGID_00000086693137247028025140000016921547955612467599_"  style="overflow:visible;"/>
						</clipPath>
						<g style="clip-path:url(#SVGID_00000107570937372402458140000002381615379952509615_);">
							<defs>
								
									<rect id="SVGID_00000124130682650801856960000017827593784369121156_" x="270.3" y="32.5" transform="matrix(0.4096 -0.9123 0.9123 0.4096 11.123 571.2488)" width="353.2" height="489.1"/>
							</defs>
							<clipPath id="SVGID_00000012470476993691464050000001843714046956613774_">
								<use xlink:href="#SVGID_00000124130682650801856960000017827593784369121156_"  style="overflow:visible;"/>
							</clipPath>
							
								<linearGradient id="SVGID_00000117643311732039933480000001751101716673135270_" gradientUnits="userSpaceOnUse" x1="2281.6909" y1="1999.3729" x2="2290.4189" y2="1999.3729" gradientTransform="matrix(-22.4589 50.0225 -50.0225 -22.4589 151877.3906 -69339.4062)">
								<stop  offset="0" style="stop-color:#FFFFFF"/>
								<stop  offset="1" style="stop-color:#FFFFFF"/>
							</linearGradient>
							
								<polygon style="clip-path:url(#SVGID_00000012470476993691464050000001843714046956613774_);fill:url(#SVGID_00000117643311732039933480000001751101716673135270_);" points="
								250.6,-205 -43.8,450.6 643.2,759.1 937.6,103.4 							"/>
						</g>
					</g>
				</g>
			</g>
		</g>
	</g>
</g>
</svg>
