<?xml version="1.0" encoding="utf-8"?>
<!-- Generator: Adobe Illustrator 28.3.0, SVG Export Plug-In . SVG Version: 6.00 Build 0)  -->
<svg version="1.1" id="Layer_1" xmlns="http://www.w3.org/2000/svg" xmlns:xlink="http://www.w3.org/1999/xlink" x="0px" y="0px"
	 viewBox="0 0 1120.7 622.4" style="enable-background:new 0 0 1120.7 622.4;" xml:space="preserve">
<style type="text/css">
	.st0{fill:#EA2127;}
	.st1{fill:#C62430;}
	.st2{fill:#231F20;}
	.st3{fill:#706E71;}
</style>
<g>
	<path class="st0" d="M75.9,496.7c-0.4,6.3,2.7,4.1,3.2,5C78.6,491.3,75.1,496.9,75.9,496.7"/>
	<polygon class="st0" points="93.2,386.2 93.6,388.5 96.9,371.7 	"/>
	<path class="st0" d="M143.1,292.2c-10.7,5-20.4,33-30.7,48.9l-2.4,2.3l-0.1,9.5C118.7,331.7,132.5,304.6,143.1,292.2"/>
	<path class="st0" d="M187,255.1c-3.8,1.2,6.8-10.2-9.1,9.3c0.9-0.7,1.3-1,1.9-1.4C181.4,261.4,183.4,259.1,187,255.1"/>
	<path class="st0" d="M179.8,263C172.6,271.3,185.9,258.7,179.8,263"/>
	<path class="st0" d="M214.1,225.4l-9.4,11.2c3.1-1.2,12.7-9.8,9.8-5.9C224.7,219.9,221.7,221,214.1,225.4"/>
	<path class="st0" d="M221.7,213.2l-5,5.7C218,218.3,219.6,217.1,221.7,213.2"/>
	<path class="st0" d="M206,231l10.7-12.2c-2.1,0.8-3.4-0.2-5,5.5C211.6,222.4,210.2,225.6,206,231"/>
	<path class="st0" d="M198.8,236.7c-6.3,5.3-13.9,12.8-5.4,0.6C175.2,258.8,180.7,258,198.8,236.7"/>
	<path class="st0" d="M141.9,284.7l-7.9,8.2c-0.2-0.1-3.8,9.1-3.8,9.1C131.5,297,143.8,285.2,141.9,284.7"/>
	<path class="st0" d="M286.6,170.7c0.2-1.4-5.8,0.2-7.5-0.4c-0.2-0.3-8,7.4-8,7.4C275.6,174.7,285,169.6,286.6,170.7"/>
	<path class="st0" d="M279,170.3l12.8-10.2C279.3,167.6,277.5,169.8,279,170.3"/>
	<polygon class="st0" points="219.8,207.1 202.8,228.3 223.6,203.5 	"/>
	<polygon class="st0" points="339.5,138.9 332.5,145.2 345.3,134.5 	"/>
	<path class="st0" d="M375.9,119.8c-5.1,5,9.8-1.1,4,3.4c9.5-5.8,18.1-10.1,25.3-15.2C397.3,112.6,387.7,115.2,375.9,119.8"/>
	<path class="st0" d="M417.8,100.4c-4.1,2.2-8.1,4.8-12.5,7.7C409.6,105.7,413.8,103.3,417.8,100.4"/>
	<path class="st0" d="M315.6,145.7c1.4-0.1,4.3,0,12.5-4c-0.1-0.2-7,0.6-7,0.6C319.3,143.4,317.5,144.5,315.6,145.7"/>
	<path class="st0" d="M320.8,142.4h0.2c5.8-3.9,10.4-5.6,12.2-6.7C331.8,136.7,327.6,138,320.8,142.4"/>
	<path class="st0" d="M314.2,146.5l1.4-0.8C314.9,145.8,314.5,145.9,314.2,146.5"/>
	<path class="st0" d="M254.9,182.1c6.5-7.2,21.5-21.1,4.4-11.3C255.1,176.8,264.8,171.2,254.9,182.1"/>
	<path class="st0" d="M305.4,147.5l-15.1,8.7c0.7,0.6,4-0.2,0.4,3.2L305.4,147.5z"/>
	<polygon class="st0" points="312.1,142.1 305.4,147.5 311,144.3 	"/>
	<path class="st0" d="M389,108.9c6.4-4.1,14-7.3,22.6-11c-9.5,3.2-19.2,6.8-28.4,10.5C382.5,109.9,379.2,113.1,389,108.9"/>
	<path class="st0" d="M355.5,124.5l1.4-0.9C355.9,123.8,355.1,124.1,355.5,124.5"/>
	<polygon class="st0" points="447.3,43.5 448.8,43.8 448.9,43.2 	"/>
	<path class="st0" d="M381.5,108.6c-6.9,2.8-10.6,5.6-14,8.4c4.8-2.8,10-5.8,15.8-8.5C383.7,107.8,383.7,107.4,381.5,108.6"/>
	<path class="st0" d="M440.9,89.5c-4.1,1.1-8.3,2.2-12.6,3.3C432.1,92.2,439.8,90.7,440.9,89.5"/>
	<path class="st0" d="M359.5,123.2l-0.9,0.7C361.1,123.3,360.7,123.2,359.5,123.2"/>
	<path class="st0" d="M359.5,123.2c3.2-2.1,5.6-4.2,8-6.2c-3.9,2.3-7.5,4.6-10.7,6.6C357.9,123.3,358.8,123.2,359.5,123.2"/>
	<path class="st0" d="M424.3,71.5c0.2-3,18.7-13.3,36.5-13c16.2-5.8,2.5-12.5-12-14.7c-0.2,0.7-0.2,1.3-2.2,2.4
		c-0.9,0.9-8.9,3.2-16,6.9c1.7-0.2,4.8-0.8,8.5-1.7c6.7-1,8.5-0.9,12.7-1.3c6.9-0.4,11.5-0.3,4.7,2.6c-5.4,1.6-9.4,2.6-12.3,3.2
		c-3.1,0.7-5.3,1.1-7.4,1.6c-3.3,0.4-5.3,0.1-10.9,1.3c10.2,0.2-26.5,14.8-19.9,18.1l18.7-8.5C425.3,69,418.6,72.7,424.3,71.5"/>
	<path class="st0" d="M465.2,75.8l-6.3,2.8c6.4-2,11.4-2.9,19.2-4.1l-11.5-37.7c-1.3,0-2.8,0-4.4,0c-10.5,3.7-12.7,5.3-13.2,6.4
		l18.3-3.8l9.9,32.5l-14,5.1L465.2,75.8z"/>
	<path class="st0" d="M428.5,90.6c3.9-5,19.4-12.7,8.5-11.9c-19.4,8.1-12.8,7.9-23.9,13.9c31.1-13.4-8.3,5.3,14.9-2.2
		c-5.9,3-11.4,5.4-16.5,7.6c5.7-1.8,11.2-3.6,16.6-5.2l-0.8,0.1l-0.2,0.1v-0.1c-1.4,0.2-2,0.2-0.4-0.3c0.2-0.1,0.4-0.2,0.6-0.3
		C427.6,91.8,428,91.2,428.5,90.6c9.3-3.1,1.7,0.2-1,1.7c0,0.2-0.2,0.4-0.2,0.6h0.2c0,0,7.7-3.6,15.3-7.2c8-3.5,16.1-7.2,16.1-7.2
		c-3.7,1.2-6,1.8-12.7,4.6C441.5,85.1,435.8,87.5,428.5,90.6"/>
	<path class="st0" d="M270.1,154.6c1.1-0.3,1.2-0.1,1.3,0C273.1,153.1,273.6,152.4,270.1,154.6"/>
	<path class="st0" d="M283.1,148.6c-1.8,1.7-2.9,3.8-9.9,7.9c-6.5,2.9-0.8-1.3-1.7-1.9c-3.8,3.1-12.6,11.7,0.7,4.1l1.8-1.6
		c12.3-6.5,29.2-12.5,27.4-10.8C296.4,145.9,292.3,146.1,283.1,148.6"/>
	<path class="st0" d="M355.1,114.6l24.6-14.1l-14,4l1.3,1.2C352.3,112.3,356.3,112.6,355.1,114.6"/>
	<path class="st0" d="M444,42.7l2.8-4c0,0-0.9,0.4-2.2,1.2c-0.7,0.3-1.4,0.8-2.3,1.3c-1,0.3,0.4,0.2-2.6,1l-2.5,1
		c-4.4,2.7-7.6,5.1-7.6,5.1l5.9-2.8c1.4-0.8,3.8-1.4,6.5-2.2C443.3,42.9,444,42.7,444,42.7"/>
	<polygon class="st0" points="406,55.5 406.4,52.4 397.5,57.3 	"/>
	<path class="st1" d="M236,447.1l5.5,1.6C239,448,237.3,447.5,236,447.1"/>
	<path class="st0" d="M219.2,411l-1.4-1.2C218.6,412.1,219.2,413,219.2,411"/>
	<path class="st1" d="M269.6,602.2c12.9-1.8,27.7-3.7,25-6l-4.8-1.4C281.8,598.8,275.3,600.8,269.6,602.2"/>
	<path class="st0" d="M569.7,138.5l2.7,2.5c3.1,0.4,6,1.2,8.6,1.8C577.6,141.3,573.8,139.6,569.7,138.5"/>
	<path class="st0" d="M557.6,147.6c0.3-0.3-12.5-5.2-12.8-4.9C547.9,143.9,552.2,145.1,557.6,147.6"/>
	<path class="st0" d="M452.4,295l0.6,11.8C457.1,289.4,453.6,296.7,452.4,295"/>
	<path class="st0" d="M83.6,267.2c-7.3,8.3-12.7,15.3-17.2,21.6C75.5,278.8,83.7,271.7,83.6,267.2"/>
	<path class="st1" d="M196.7,454.9c4.3,5.5,7,7.1,7.3,6.5C199,456.5,196.6,453.2,196.7,454.9"/>
	<path class="st0" d="M49.8,316.2c1.3-1.7,2.3-3.1,3.5-4.8c3.4-7.4,7.1-14.7,13.2-22.6C59.4,296,53.1,305.5,49.8,316.2"/>
	<path class="st1" d="M435,492.5l-2.4,1.4C432.6,494.5,433.6,493.7,435,492.5"/>
	<path class="st0" d="M110.7,573c2.7,1.2,7.3,2.8,11.7,4.2C120.4,576.1,116.5,575.4,110.7,573"/>
	<path class="st0" d="M265.4,114.9C272.4,110.9,266.4,114,265.4,114.9"/>
	<path class="st0" d="M305.7,107.8c-1.4,0.9-2.4,1.9-2.3,2.7C303.7,109.5,304.5,108.7,305.7,107.8"/>
	<path class="st0" d="M36.3,397.7l-0.2,0.7C37.3,396.2,37.1,396.6,36.3,397.7"/>
	<path class="st0" d="M276.8,110.4c-2.9,1.1-6,2.5-9.5,4.1C268.9,113.8,271.8,112.5,276.8,110.4"/>
	<path class="st0" d="M274.7,109.8c2.5-1.2,4.5-2.2,6.4-3.1C281.7,105.8,280.7,105.9,274.7,109.8"/>
	<path class="st0" d="M255.6,120.4c4.1-2.3,7.9-4.2,11.7-5.9c-1.5,0.5-2.2,0.7-1.9,0.4C263.4,116.1,260.4,117.7,255.6,120.4"/>
	<path class="st0" d="M343,220.9c0.4-0.3,0.9-0.6,1.5-0.9C349.9,213.6,347.2,216.1,343,220.9"/>
	<polygon class="st1" points="430.9,471 430.3,471.6 431.3,471 	"/>
	<path class="st1" d="M450.7,451.4c-6.3,10.7-11.9,14.7-19.4,19.6l12.9,1.2L450.7,451.4z"/>
	<path class="st1" d="M350.2,412.5c0,0-15.4,9.4-16,8.6c14.8-16.4,26.4-25.4,11.7-17.9c1.1,2.3-1.6,6.2-6.1,11
		c-4.6,4.9-12.7,8.7-19.9,13.4c-7.3,5.1-15.1,8.3-21,11.1c-5.8,3-9.7,6-9.6,8.5c-0.1,0.4-11.5,1.7-11.4,1.3c3.1-0.6,3.4-1.3,6.5-1.9
		c-11,0.4-14,2.3-18.5,4.9c-4,2.2-10.8,5.7-23.3,1.8c-8.4-3.4-11.3-8.1-6.4-6.3c0,0-4.1-1.4-7.5-3.9c-3.4-2.4-6.2-5.9-6.2-5.9
		c-2.2-4.7-0.1-4.1,2.1,0.2c0,0-3.6-5.1-5.3-12.4c-1.8-7.2-1.7-15.6-1.7-15.6l0.3,0.3c-1.7-4.5-2.5-15.9-1.9-21.6
		c3.7-8.4-0.1,4.6,1.7,2.7c-0.5,0.1,3.2-19.5,3.6-19.5c5.5-6.6,0.9,9.6-1.8,22.1c6.7-7.4,7.3-11,8.5-17.6c1.3-6.4,3.2-16.2,16-32.2
		c0,0-2.1,4.2-4.2,8.5c-1.9,4.2-3.7,8.5-3.7,8.5c10.2-8,15.6-21.5,31.2-36.6c-4.9,2.4-31,30.6-21.3,10.9c4.1-4.8,8.8-11.4,14.6-22.2
		c2.9,2.1,9.2-7.7,19-18.9l2.8,3.8c9.7-12.7,7.2-13.3,12.3-21.6c13-12.4,18.4-12.2,23.5-12.8c21.7-18.5-18.7,8.9,6-14.3
		c19.4-14.3,31.3-26.1,53.7-44.5c15-7.8-0.9,3.9,4.9,1.8l10.6-11c3.2-1.8,2.7-0.3,2.5,0.6c10.1-7.5-1.6-4.7,15.1-15.5
		c2.4-7.4,39.3-12.3,60-25.3c6-0.7-1.7,3.6,0.6,4.7c29.9-13.5,25.6-11.3,51.4-20c0.3-0.6,22.5,2.5,22,3.2c-15.7-4.1,5-9.9,24.8-4.3
		c-4.9-4.3-9.9-7.3-13.4-8.8c0,0,8.3,1.2,16.1,4.4c7.9,3.2,14.9,8.3,14.9,8.3c2.6,3.4-1,2-6.4,0.4c1.9,1.1,3.8,2.1,5.3,2.9
		c7.2,9.4,0.8,6.5-6.5,3.6c-2.2-3-4.7-5.8-7.4-8.4c-8.2-1.2-15.4,0.1-14.8,3.1c1.9,0,5.3,0.8,8.8,2.2c-1.9-0.1-3.2,0.1-2.7,0.9
		c0.7,0.8,3.6,0.9,8,2.3c0.2,0,1.9,7.7,1.7,7.7l2.3-0.7c0,0,6.1,6.1,9.8,13.7c3.9,7.4,5.6,16,5.6,16c11.4,22.2,21.5,50.4,8.5,95.7
		c0.1-12.2-5.1-4.3-9.1-6.4c8.6-10.2,8-33.9,8.6-55.9c-0.6,11.8-3,9-3.5,6c0,0,0.8,9.8,0.2,20c-0.5,10-2.4,20.3-2.4,20.3
		c-3.3-1.9-4.9,7.6-10.3,17c10.2-5-7,30.6-14.9,46.2c-2.7-0.4-2.3-5,7.7-23.1c-15.1,17.4-6.8,30.4-23.6,46.9
		c2.9-4.3,4.8-6.3,4.8-8.7c-4.6,11.4-24.1,33.8-21.6,26.9l3.1-4.1c-20.4,27.5-70.4,77-70.7,84.6c-0.8-0.4-1.6-8.6-0.9-10.9
		c0,0-7.8,14.2-16.3,28.2c-8.5,14-17.9,27.7-17.9,27.7c0.9-7.5-23.1-4.7-2.4-24.7c-6.9,4.6-15.3,10-28.2,21.7
		c4.9-2.6,15.8-2.1,10,2.8c-20.6,7.6-13.8,6.3-38,16.4c7.5-3.7,4.5,8.5-7,15.4c1.1-2.2-5.3-6.4-1.7-9.7c0,0-5.9,6.1-11.9,12.1
		c-6.2,5.9-12.3,11.9-12.3,11.9c6.5-5.4-2.2-6.7-9.7-5.2c3.8-0.1-25,13.3-32.6,17.4l13.3-4.4c-33.8,14.8-28.4,26.5-64,38.6
		c3.8-3.1,7.2-13.1-10.8-8.6c-6.5,6.2-31,31-66.8,35.1l-6.7-2.6l-26.7,0.8c8.8-3,24.7-5.2,40.5-10.9c15.8-5.6,31.1-13.2,41.8-18.5
		c-13.6,1.1-4.3-1.6-23.9,2c-7.2-1.2,10.1-4.9,15.7-6.4c0,0-11.3,2.2-22.5,3.1c-11.2,0.9-22.1,0.5-22.1,0.5
		c2.1,4.8-34.8,2.7-33.7,6.1c0.3,1,50.3-1,49.8-2.8c3.1,5-29,16.6-63,7.9c-7.9-3.8,8.2-7,7.7-8.8c-4.5,1-31.2-3.8-32.4-7.2
		c-0.1,0.3,13.1,2.2,13.1,2.2c-14.8-6.7-29.2-4.9-40.8-23.2c-4.9-5.5-7.7-20.4-10.5-19.9c1.1,12.3-10.2,25.6-19.3,20.1
		c-0.7-1.4-6-11.7-9.1-23.5c-3.3-11.7-4.3-24.5-3.7-29.2c1.6-13.3,14.3,16.7,15.6,5.1c-1.5-0.1-4.6-6.3-5.5-9.1
		c0.1-8,4.2,2.6,1.9-14.3c-5.8-2.3,0.3-35.5-4.6-7.9c-1.4-17.4,1.3-18.5,3.5-38.8c-4.2,6.3-8.2-20.3-4.2-38.4
		c0.9,1.4,3.6-2.1,4.7-3.8c11.7-35.1,22.3-52.2,39.2-81.7c2.2-2.4,13-15,10.8-8.1c2.1-4.4,3.2-9.1,9-17.8
		c14.9-14.1-12.7,19.5,0.3,9.8c-1.9-2.9,12-24.5,20.9-36.6c-3.2,0.3-9,6.8-15,14.8c-5.5,8.4-10.5,18.5-14.1,25.1
		c-5-3,3.5-29.4,26.1-58.8c18.6-22.6,11.6-6.4,14.4-10.8c39.2-37.4,27.2-39.5,65.2-65.1c17.4-6.8,5.3,5.9,10.3,5.9
		c-17.9,15-29.7,20.4-42.2,30.3l16.4-10.9c-4.8,5.9-16.8,15.8-23.4,21.2c6.2-4.3,24.5-17.7,44.7-34.1c21.9-14,45.5-31.7,65-39.3
		c5.8-4.6,16.3-11.9,10.3-10.4l-11.3,6.7c-12.3,3.1,19.7-15.6,4.3-8.9c14.6-10.2,30.3-23.9,54.4-31.6l6.1,2.2c-1-1-16,4.2-21.9,8.2
		c8.8-6,37.5-9.9,45.7-19.8l-17.3,4.2c15.4-9.5,34.1-22.8,55.9-28.2c-11.2-0.7-4.7,2.2-21.5,2.7c14.8,0.1-53,22-30,19.5
		c-17.3,1.2-27,8.7-48.6,13.4c1.2,1,8-1.1-9,7.3c-0.6,0.8-2.1,2.2-3.1,3.1c-0.5,0.2-0.7,0.3-1.2,0.5l1-0.3c-0.6,0.6-0.7,0.7,0.4-0.2
		c4.3-1.6,7.8-2.6,9.5-2.5c-6.7,7.4-33,21.6-40.9,27.9c-10.2,4.7,3.3-3.7-2.9-2.1c-0.2-0.3-11.4,10.3-11.4,10.3
		c-2.9-2-27.8,11.9-6.7-4.4l-20,13.1c-13.1,5.7-29,17.2-37.3,26c-9.4,6.6-20,20.7-14,12.6c-0.6-0.8-26.2,27.1-26.2,27.1l-0.8-0.3
		c-27.5,25.6-47.3,60.1-73.9,93.9c-5.6,11.5-11.2,23.2-20.2,42.4l-4.3,2.7c-5.8,15.3-18.8,46-17.1,53.8c-5.9,7.7-10.4,27.8-11.4,50
		C-1.1,482.2,3,507.5,7,522.9l3.9,0.1c6.1,20.8,16.6,39.7,36.4,58.1l1.2-3.4c8.7,7.3,19.7,17.1,34.2,24.9
		c14.8,8.3,31.1,11.5,47.9,15.5c-2.4,0.7-11-1.6-16.8-3.7c9.5,4.3,19.9,7.2,30.6,7.3c10.7,0.5,21.4,1.4,32-0.2
		c21.3-2.5,40.5-8.3,58.7-10.4c8.4-3.5,14.6-5,20.9-6.3c-0.8,0.3-1.5,0.6-2.1,0.9c0.9-0.3,2.2-0.7,3.4-1.1c3.9-0.8,8.2-1.7,12.3-2.4
		c-3.7,0.5-7.3,1.1-10.4,1.8c6.5-2.3,16.2-6.2,25.2-10.8l5.4,1.6c0.7-0.3,1.3-0.7,2.2-1c9.7-2.8,6.7-4.7,0.7-5
		c4.5-2.6,8.5-5.1,11.4-7.3c9.8,1.8,23-13.1,35.3-12.9c4.9-5.4,42.9-27.1,43.8-35.6c0.7,0.5,3.4-0.7-1.1,2.2
		c9.8-5.4,19.4-11.1,26.5-18.3l6.4,0.9l16-19.3c13.3-6.8,19.1-9.5,9.7,2.3c24.5-26.4,21.4-19.6,40.4-43.6l0.9,3.2
		c8-7.3,17.6-22,23.8-25c10.4-6.7,31.6-27.9,52.8-55.6c21.5-27.6,42-62,55.1-91.7c-11.8,9.3,13.2-27.5,6.2-32.3
		c2.7-3.2,5.3-12.3,5.2-1.3c3.5-33.6,6.9-51.9-4.4-74.9c0.8-4.6,4.9,6.7,5.1,2.8c-1.1-2.8-5-10.7-5.4-14.7c-0.4-4.1,3.7,4.5,6.2,10
		c-5.8-18.6-14.4-27.3-19.8-30.8c-5.8-3.5-9.2-2.4-12.1-1.4c-11-14.8-21.6-18.9-34.7-18.8c-5.3-3.1-15.6-8,6.5-2.8
		c-5.9-2.7-25.5-7.2-42.3-5.7c-17,1-31.8,5.3-31.8,7.7c-3.9-0.4-15.8,3.8-18.5,5.3c-24.4,8-26.5,8.6-49.2,19.4l6.6-2.3
		c-6.5,9.3-18.2,9.9-35.4,20.3l0.2-0.8c-41.6,20.4-16.4,11.2-56.2,33.4l4.1,1.3c1.1,8.2-34.7,20.6-52,41.3l8.3-5
		c-8.9,11.3-36.1,20.5-46.7,31.2c-2.6,2,2.6-4.4,5.3-8c-29,26-0.2,6.4-17.8,29.2c-5.2,2.7-0.7-9.5-13,5.9
		c-8.2,6.7-25.9,51.2-37.3,77c3.7-5.5,7.3-10.4,4.5,3.3c-2.7,10.2-7.4,24.5-7.6,39.8c-0.8,15,4.7,32.3,14.5,39.6
		c1.6,2.9,2.1,4.1,1.8,4.6c6.8,7.3,20.9,15.7,34.5,17.7c13.5,2.4,25.2,0.8,30.1-1.2c4.1,2.8,12.9,3,23,0.4c9.7-3,20.6-8.4,31-13.3
		c19.4-12.3,36-24.1,38.7-20.3c0,0,9.4-8,18.9-16.1c4.7-3.9,9.4-8.1,12.4-11.8c3.1-3.6,5-5.9,5-5.9v1.7
		c20.7-23.9,23.1-35.8,26.2-46.4c3.9-6,2.5-0.9,2.7-0.1c11.5-19.9,15.6-32.5,17.9-44.2c2.2-11.8,2.8-23.5-1.3-42.8l1-1.3l-13.4-0.8
		c2.4,0.9,3.9,1.8,3.8,2c0.1-0.3,1.8-0.8,4.6-1.2l5.2-0.9c1.1-0.2,0.4-0.1,0.7-0.2l0.4-0.4l-22.4,0.3l-0.7,0.6
		c0.5,4.4-2.7,18.5-10.4,35.3c-7.6,16.9-19.3,36.2-29.2,54.2c-0.1-0.6-0.2-1.7,1.2-4.7c-20.8,44.3-81.8,66.9-90.4,82.8
		c0,0-6.3,3.6-12.9,6c-6.5,2.6-13.3,3.6-13.3,3.6c36.3-4.8-4.8,7.2,10.8,6.7c-16.6,4.5-39.3-7-21-4l2.8,0.9c3.8-3.4-8.9-3.6-17.3-9
		c-8.8-4.8-10.5-16.3-8.1-16.3c-2.8-14.9,1.7-34.2,10.9-50.7l12.4-25.3c4.7-8.2,10.8-15.6,16.1-23.4c5.5-7.6,10.7-15.4,16.4-22.8
		l19.1-20.6c12.4-13.6,25-27.8,38.5-39.9l-9.8,2c0,0,4.7-4.4,9.4-8.7c4.8-4.2,9.7-8.4,9.7-8.4c5.9-3.4,9.4-2.8-4.3,9
		c8.9-4.3,21.5-21.6,21.4-22.8c30.4-18.9-7.6,12.9,1.6,6.8c0,0,2.8-2.3,5.7-4.7c3-2.2,6-4.3,6-4.3l-3.2,1.3
		c8.7-8.3,8.3-10.8,26.9-22.6c12.2-6.8,7.6-1.1,12.3-3.9c0.2,0.3,1.8-0.5,7-4.4c0,0,6.6-4.5,13.8-7.8l14.3-6.8l-13.3,1.7
		c11.7-8.3,27.5-12.3,11.9-10.7c11.4-1,39.4-12.8,66.6-14.6c13.4-0.9,27,0.3,35.7,3.9c9,3.4,13.7,8.3,14.8,10.7
		c12.7,9.5,15.8,30.4,12.5,53.5c1.3-5.7,7.1-9,3.3,11.9c-4.2-4.6-6.6,4.6-10.5,16.5c-3.8,11.9-9.6,26.5-16.1,32.7
		c5-6-0.1,7.8-5.9,20.1c-6.3,12.2-12.3,23.6-3.3,15c-9.6,14.8-3.7-0.9-12.4,9.4c-10,18.3-24,37-39.7,56.4
		c-7.8,9.6-16.2,18.3-24.5,27.8c-9.3,8.4-17.6,17.6-27.4,26.4c0.2,1.5,8.2-2.9,0.9,6l-25.1,13.4c-7.5,7.2-2.6,11.8-20.1,20.5
		c2.7-0.9,6.9-2.2,1.7,2.6c-41.6,30.1-84.2,60.2-132.3,80.6c-24.1,11.2-48.9,18-73.8,23c-12.6,0.6-25.1,2-37.6,1.5
		c-12.5-0.9-24.7-3.4-35.5-7.6c11.7,5.3,3.5,3.8-6,1.3c5.9,2.3-1,3.1-0.3,5.1c0,0-9.6-4.1-17.4-9.8c-8.1-5.5-13.3-12.9-13.3-12.9
		c-4.2-0.4-10.7-8.3-14.6-17.3c-4-9-5.7-18.8-8.3-20.6c0,0,3.3,12.4,3.6,12.2c-4.8-7.4-6.5-1.2-6.8,7.9c-0.3,9,2.8,20.4-0.8,21.1
		c8.8,8,17.5,20.6,32.2,30.2c14.4,9.6,33.4,15.5,51.8,12.5c7.8,2.2-7,1.6-2.9,3.6c9.6-2,20.3-1.8,40.7-2.9l-2.3,1
		c29.1-1.4,47.9-9.2,68.9-13.6c20.1-6,40.3-13,69.4-26.3l-5.7-0.8c12.1-6.2,15.1-6.6,21.1-8.9c11-12.2-33.5,18.3-23.7,6.3
		c9.2-1.4,30.8-12.4,49.8-24.9c19.6-11.8,37.2-26.2,44.8-26.3c16-12.9-7,0.8,8.8-12.2l5.5-1.8l2.2-5.4c10.6-8.2,17.6-10.4,19.1-9.4
		c-2.7,1.9-6.8,6.3-9.4,8.7c15.3-8.9,36.8-33,42-36.1l-15.8,12c20.8-18.2,43.7-42.3,62.9-67.1c17.9-24.7,36.5-49.7,48.4-75l-3.5,2.8
		c9.9-19.3,13.4-26.1,17.6-34.3c4.1-8,9-16.5,14.8-39.3l-0.1,1.8c0.9-9.5,3.1-21.8,4.8-34.6c0.7,12.4,5.8-22.4,6.5-6.3
		c-0.1-24.5-3.2-31.1-4.7-35c-2-3.6-2.7-6.2-12.9-19.8c0.3,0-2.3-8.1-2.3-8.1c-4.8-3.8-7.8-5.2-12.1-7.7c-4.4-2.1-10.2-5.6-22-8.5
		c20.3,3.8-14.5-8.9,9-4.7c-26.1-11.8-46.3-7-61.2-3.7c-15,3.9-25.6,8.3-37.8,8.2c-9.2,7.5,1,4.4,12.3,1.1
		c11.3-3.4,24.3-6.4,18.3-4.3c10.7-0.1-16.8,9.3-30.7,14.5c-13.6,6-29-0.3-61.6,21.4c3.3-2.1,3.2-2.7,6.4-4.8
		c-13.2,6.4-22.5,17.8-39.1,25.1c-5.9,8.9-19.3,13-17.8,19.5c0,0,6.4-6.1,13.8-11l14.4-10.3c-16.3,12-27.3,28.1-53.2,48.1
		c1-2.6,7.2-10.4,11.7-15.4c-8.4,5-13,13.2-21.4,19c-2.2-6.3,30.2-30.9,45.8-46.2c-10.7,3.5-29.6,28.9-25.2,16.9
		c-6.5,16.1-30,25-42.6,48.9l-1.3-3.6c-2.4,3.5-6.9,11.1-12,16.7l5.9-13.4c-10.9,18.9-31.1,27.9-40.3,47.3
		c11.9-18.3,15.1-18.8,15.5-17.6c0.7,1.4-0.5,5.2,6.4-0.7c-14.9,21.7-19.5,27.7-26.9,33c-6.5,5.9-16.3,10.5-28,39.9
		c3.1-8,15.3-27.6,11-15c-5.6,10.3-13.3,23.8-18,29.8c-13.9,39.7,4.9-5.4,1,12.2c-7.9,12.5-4.8,20.5-3.3,39.9l-3.5,0.3
		c0.1,13.8,4.6,22.9,8,27.1c3.6,4.4,5.6,5.2,7.4,5.8c1.8,0.6,3.4,1.1,7.2,3.2c3.7,1.9,9.9,5.9,21.2,8.6c0,0-5,0.5-10.5-0.3
		c-5.5-0.5-11.4-2.8-11.4-2.8s6.7,3.9,13.3,5.4c6.5,1.7,12.7,2,12.7,2l-5.8,3.1c27.2,0.7,37.2-1.9,59.9-9.8
		c-6.3-0.2,0.9-6.4,18-16.9c12.7-5.7-4.4,7.4,18.9-9.3c-3.9,5.5-8.3,12.2-21,15.9c-0.5,1.7-4.7,5.2-5.4,6.8
		c15.3-5,33-20.2,40.9-26.9c-3.2,2.4-7.2,5.3-9.4,6.3c0,0,7.7-7.3,14.7-14.9c3.6-4,7-8,9.7-11c2.6-3.3,4.2-5.4,4.2-5.4
		c5.5-4.1,2.7,0.6-0.3,5.2c6-6.7,8.5-12.2,15.9-22c0.2,4.2,3.4,5.5-7.5,20.1c0,0,6.3-8.2,11.8-16.6c5.5-8.4,10.4-17.1,10.4-17.1
		c2.7-1.3,14.1-15.3,12.2-10.4c13.4-18.3,22.5-50.2,30.6-80.6c-0.1-1.7-0.2-5.1,0.3-11.9l0.4-2.6l-37,0.5l0.3,2.4l0.5,2.2
		c0.1,0.3,0.6,1.7,1.2,2.9c0.3,0.9,1.4,2.8,2.4,3.8c0.1,0.3,2.6,2.8,4.3,3.8c2.1,1.2,3.4,2,7.2,2.7c3.1,0.6,7.4-0.1,9.3-0.9
		c1.6-0.6,3.1-1.4,4.4-2.4c3.3-2.6,2.4-2.2,3.7-3.5c1.4-1.9,1.4-2.1,2-3l0.9-1.9l-35.7-5.2c0.5,20.4-5.5,38.1-13.1,63.4
		c0,0-2.8,2.9-5.8,5.9c-2.8,2.9-6,5.7-6,5.7c-10.3,19.4,17-15.4-0.8,17.3c-14.1,22.6-9.3,5.4-15.9,11.9
		c-5.3,11.7-18.8,30.7-41.3,40.9C339.9,421.2,344.8,417.5,350.2,412.5 M245.5,335.3c-2.4,5-5.8,15.3-9.4,17.8
		C235.5,345.8,239.6,342.5,245.5,335.3 M594,171.5c-2.8-2.9-5.2-8.1-8.8-14C588.7,160.9,592,165.6,594,171.5 M191.4,164l-0.4,0.5
		C179.8,171.5,183.7,168.9,191.4,164 M215.1,150.1c2-1.9,1.6-2.2,0.3-2c-1.1,1.8-6.2,5.2-12.2,8.9
		C205.4,156.7,208.8,155.3,215.1,150.1 M425.1,191.5l-4.7,1.9C429.4,186.4,427.2,188.9,425.1,191.5"/>
	<path class="st0" d="M559,146.5c-1.1-0.9-1.3-1.7-1.4-2.4C555.7,144,555.5,144.7,559,146.5"/>
	<path class="st0" d="M452.3,292.9l-0.3,1c0.1,0.6,0.3,0.9,0.4,1.2L452.3,292.9z"/>
	<path class="st0" d="M40.3,500.2c0.4,4.9,0.4,7.8,0.2,9.7C41.5,509.9,41.5,507.6,40.3,500.2"/>
	<path class="st0" d="M340.1,77.3l-15.6,7.9c7.7-3.5,10.8-4.1,14.9-5.3C338.7,79.3,335.2,79.6,340.1,77.3"/>
	<path class="st0" d="M454.8,61.9c-2.2,1.3-4.9,1.9-7.1,3.2l1.3,1.3C458.8,62.5,465.3,58.6,454.8,61.9"/>
	<path class="st0" d="M359.3,81.6c2.3,1.9,12-2.8,23.2-7.2l-2,0.7C382.5,70.3,370.6,75.3,359.3,81.6"/>
	<path class="st0" d="M385.1,73.4c3.5-1.4,7-2.7,10.5-3.8C396.4,67.7,391.2,70.8,385.1,73.4"/>
	<path class="st0" d="M243.3,129.7c5.4-2.1,1.3-5,4.8-5.5C251.5,117.2,216.9,147.7,243.3,129.7"/>
	<path class="st0" d="M371.9,87l-5.3-1.9l-5.1,5.4C361.5,90.5,371.8,86.8,371.9,87"/>
	<path class="st0" d="M284.7,123.9l17.3-8.3c-0.5-0.4,1.5-1.8,4.2-3.3C295.5,117.4,284,123.3,284.7,123.9"/>
	<path class="st0" d="M306.2,112.4c5.7-2.4,11-4.8,13.9-6.8C317.1,107,310.5,110,306.2,112.4"/>
	<polygon class="st0" points="348.3,98.3 342.8,99.8 330.3,105.1 	"/>
	<path class="st0" d="M119.4,246.2l-12.8,16.8c-0.4,2.4,3.8-1.4,8.5-7.7C117.7,250.8,122.4,244.5,119.4,246.2"/>
	<path class="st0" d="M171.7,209.8c-4.8,2.9-5.7,2.6-8.9,3.6l2.6,3.8L171.7,209.8z"/>
	<path class="st0" d="M129,251.9c-0.4,2.4-16.4,25,0.1,5.1C129.1,254.3,142.9,239,129,251.9"/>
	<polygon class="st0" points="37.3,532.7 35.2,527.9 28.6,531.4 	"/>
	<path class="st1" d="M273.6,560.1c-22.7,7-3.6,6.5-24.5,11.8c-4.7,3.6,17.2-4.2,12.3-0.9C274.3,564.2,281.6,562.1,273.6,560.1"/>
	<path class="st1" d="M261.4,571c-2,1.1-4.1,2.3-6.5,3.6C258.6,572.8,260.3,571.8,261.4,571"/>
	<path class="st0" d="M82,538c-0.3,0.1-2.4-12.6-2.2-12.7c-0.2,0.1-0.4,8.8-0.2,8.8C79.6,534.1,81.8,538.2,82,538"/>
	<path class="st0" d="M70.9,513.9l4.5-3.7l-4.7-8.5C71.2,505,71.7,511.4,70.9,513.9"/>
	<path class="st0" d="M278,307.7l-0.2-1.6c-2.4,1-4.8,3.6-9.2,8.9L278,307.7z"/>
	<path class="st1" d="M250.3,447l-2.5-0.6c-0.2,0.1,4.1,5.1,4.3,5L250.3,447z"/>
	<path class="st0" d="M377.4,371c-3.9,5.2-7.9,11.9-12.4,16.7C373.6,376.6,382.7,372.6,377.4,371"/>
	<path class="st0" d="M430.9,49.4c6.7-2.4,3.2-4.3,4.1-5.2C424,49.3,431.4,50,430.9,49.4"/>
	<polygon class="st0" points="328,105.9 329.3,103.8 315.9,115.2 	"/>
	<path class="st0" d="M237,166.2c11.3-2.1,31.1-24.5,48.8-33.3l3.3-0.8l5.1-8.3c-9.5,6.9-20.6,15-30.9,22.6
		C253.4,154.4,244.2,161.7,237,166.2"/>
	<path class="st0" d="M184.9,195.9c4.1-1.1-8.2,10.2,10.5-9.1c-1.1,0.7-1.5,0.9-2.2,1.3C191.4,189.7,189.1,192,184.9,195.9"/>
	<path class="st0" d="M193.2,188.1C201.9,180.1,186.4,192,193.2,188.1"/>
	<path class="st0" d="M155.6,227.4l9.2-12.7c-3.2,1.4-12.6,11.7-9.8,7.2C144.9,234.5,148.1,232.7,155.6,227.4"/>
	<path class="st0" d="M148.7,240.8l4.8-6.4C152.1,235,150.5,236.5,148.7,240.8"/>
	<path class="st0" d="M163.6,220.6l-10.2,13.8c2.2-1.1,3.5-0.1,4.8-6.2C158.4,230.2,159.5,226.8,163.6,220.6"/>
	<path class="st0" d="M170.9,214.3c7-5.2,15.5-12.4,5.7-0.4C197.2,193,191.6,193.3,170.9,214.3"/>
	<path class="st0" d="M235.8,173.7l10-5.5l6.8-7.3C249.2,164.5,234.3,172.8,235.8,173.7"/>
	<path class="st0" d="M94.9,303.4c0.4,1.4,5.3-2.9,7.1-3.2l5-10.5C103.3,294.4,96.7,303.6,94.9,303.4"/>
	<path class="st0" d="M102,300.2l-7.4,15.6C102.8,302.9,103.6,300,102,300.2"/>
	<polygon class="st0" points="151.2,246.7 166.8,223.2 147.7,250.6 	"/>
	<path class="st0" d="M64.5,362.7c-0.2-0.1,1.3-10.3,1.5-10.2c-0.5-0.2-2.9,18-2.9,18L64.5,362.7z"/>
	<path class="st0" d="M50.4,404.7c-0.3-7.8-5.8,8.9-5.2,0.9c-2.5,12-3.1,22.6-3.6,31.9C42.9,427.7,45.5,417.4,50.4,404.7"/>
	<path class="st0" d="M41.1,453.2c-0.1-4.9,0.1-10.1,0.5-15.7C40.7,442.7,40.3,447.9,41.1,453.2"/>
	<path class="st0" d="M80.7,341.6c-1.2,0.9-3.9,2.4-8.8,10.9l5.8-4.8C78.6,345.9,79.7,343.7,80.7,341.6"/>
	<path class="st0" d="M77.9,347.5l-0.2,0.2c-3.2,6.5-5.5,11.1-6.4,13.1C71.9,359.1,74,355.2,77.9,347.5"/>
	<path class="st0" d="M81.4,340.1l-0.7,1.6C81.2,341.2,81.5,340.9,81.4,340.1"/>
	<path class="st0" d="M121.5,279.8c-5,8.7-13.5,27.9-1.1,12.2C122.6,284.9,114.7,293.4,121.5,279.8"/>
	<path class="st0" d="M88.6,334.3c0,0,8.6-15.9,9-15.7c-0.9-0.1-3.7,2.1-1.8-2.6C95.4,315.8,88.6,334.3,88.6,334.3"/>
	<polygon class="st0" points="85.6,342.7 88.6,334.3 85.4,340.2 	"/>
	<path class="st0" d="M50.4,422.8c-0.4,8-2.6,16.5-4.2,26.1c2.7-10.4,5.4-20.7,8-30.6C53.6,416.7,52.9,411.9,50.4,422.8"/>
	<path class="st0" d="M62.2,385.6c-0.2,0.6-0.3,1.2-0.4,1.7C62.3,386.4,62.7,385.6,62.2,385.6"/>
	<polygon class="st0" points="47.2,548.8 47.3,546.9 46.7,546.7 	"/>
	<path class="st0" d="M55.1,416.8c2.5-7.4,2.4-12.3,3.2-16.8c-1.7,5.6-2.5,11.9-4.1,18.4C54.4,419.1,54.7,419.3,55.1,416.8"/>
	<path class="st0" d="M39.4,480.3c1.1-4.3,2.1-8.8,3.3-13.5C41.3,470.7,38.8,478.8,39.4,480.3"/>
	<path class="st0" d="M60,389.6l0.3-1.2C58.7,390.6,59.2,390.4,60,389.6"/>
	<path class="st0" d="M60,389.6c-0.9,3.9-1.3,7.2-1.7,10.4c1.4-4.6,2.6-8.9,3.4-12.7C61.2,388.2,60.6,389,60,389.6"/>
	<path class="st0" d="M79.3,565.4c-1.7,0.7-6.5-2.1-10.2-8.7c-1.9-3.1-4.3-6.6-5.9-10.6c-0.9-4.3-1.6-8.8-1.8-13.1
		c-5.9-15.9-13.2-4.9-14,13.9c1.8,0.1,0.7,0.4,12.6,17.5c-0.7-3.7-6.8-13.5-6.5-21.5c-0.9-7.9-0.8-12.7,2.3-5.4
		c2.9,11.9,6,16,7.1,19.5c1.1,3.4,1.2,5.7,3.7,11.5c-4.5-8.8,26.4,19.2,25.9,9.3c-0.9,1.4-16.2-11.5-16.2-11.5
		C76.6,565.6,82.6,569.7,79.3,565.4"/>
	<path class="st0" d="M42.1,509.7l-0.6-7.9c0,9.1-1.9,15.3-2.4,28c4.6,13.8,6.4,16.2,7.6,16.8c0,0-2.3-10-4.6-20.1
		c-0.3-9.8-0.6-19.5-0.6-19.5L42.1,509.7z"/>
	<path class="st0" d="M44.4,468.2c2.4,6.2,1.8,23.7,6.4,13.4c2.2-21.3-0.9-15.2-0.7-28.2c-3.3,34.8-0.6-10.3-5.3,14.6
		c0.3-7,0.8-13.2,1.4-19c-1.2,6.1-2.4,12.1-3.5,17.9l0.2-0.8l0.1-0.2c0.6-1.4,0.9-1.8,0.4-0.2c0,0.2,0,0.6-0.1,0.8
		C43.8,466.8,44.2,467.5,44.4,468.2c-1.8,10-1.1,1.5-1.1-1.7c-0.1-0.1-0.2-0.4-0.4-0.6l-0.1,0.2c0,0-0.5,8.9-1.1,17.7
		c-0.3,4.4-0.5,8.8-0.7,12.2c0.3,3.5,0.4,5.9,0.4,5.9C41.2,493.6,43.3,484.9,44.4,468.2"/>
	<path class="st0" d="M116.5,311.1c-0.8,0.8-0.9,0.6-1.2,0.6C114.5,313.7,114.3,314.6,116.5,311.1"/>
	<path class="st0" d="M107.5,322.1c0.9-2.3,0.9-4.7,5.4-11.4c4.6-5.4,1.3,0.8,2.4,1.1c1.8-4.5,7-15.6-2.3-3.5l-0.9,2.3
		c-8.6,10.8-20.2,24.9-19.3,22.7C97.3,330.9,100.1,328.3,107.5,322.1"/>
	<path class="st0" d="M69.3,392.4l-4,13.9c-1.3,7.1-2.6,14.2-2.6,14.2l5.9-13.5l-1.7,0.3C72.7,392.1,69.9,394.8,69.3,392.4"/>
	<path class="st0" d="M46.7,553l-4.3-3.3c0,0,2,4.5,5.9,8.6l6.9,8L46.7,553z"/>
	<path class="st0" d="M74.4,590l-3.1,1.1c-0.3,0.8,11.2,5.9,11.3,5.6C82.6,596.7,74,590.6,74.4,590"/>
	<path class="st0" d="M233.4,299.5l4.7-7.3C235.8,295.7,234.3,297.9,233.4,299.5"/>
	<path class="st0" d="M198.5,352.2l0.6,2.1C199.7,351.2,199.7,349.8,198.5,352.2"/>
	<path class="st0" d="M427.5,150.1c-12.5,3.4-27,7-23.9,9.1l4.9,0.7C415.8,154.9,422.2,152.2,427.5,150.1"/>
	<path class="st0" d="M426.6,328.2l-1.7,3.2c0.4,3.2,0.7,6.1,0.6,8.7C426.4,336.6,426.4,332.4,426.6,328.2"/>
	<path class="st0" d="M415.7,317.2c0,0,5.3-14.3,4.8-14.4C419.7,306.1,417.9,310.7,415.7,317.2"/>
	<path class="st0" d="M508.5,109.7l9.6-5.4C501.8,107.7,509.5,108,508.5,109.7"/>
	<path class="st1" d="M438.3,484.2c9-5.9,15.6-11.5,21.4-16.3C448.7,475.2,439.5,480.3,438.3,484.2"/>
	<path class="st0" d="M246.4,338.3c2.3-4.3,2.9-6.4,2.3-6.7C246.3,336.1,245.2,338.8,246.4,338.3"/>
	<path class="st1" d="M482,446.3c-1.6,1.3-2.9,2.3-4.6,3.5c-4.9,6.2-10.4,11.9-17.8,18C467.9,462.7,476.4,455.6,482,446.3"/>
	<path class="st0" d="M63.4,298.7l1.9-2.1C65.2,296.2,64.4,297.2,63.4,298.7"/>
	<path class="st0" d="M354.3,112.7c-3.1,1.5-8,3.8-12.6,6C344.1,118,347.9,115.9,354.3,112.7"/>
	<path class="st1" d="M233.7,596.9C226.1,599.5,232.5,597.6,233.7,596.9"/>
	<path class="st1" d="M192.8,594.7c1.6-0.6,2.7-1.4,2.8-2.2C195.2,593.4,194.2,594.2,192.8,594.7"/>
	<path class="st0" d="M518.1,373.8l0.4-0.6C516.6,374.8,516.9,374.6,518.1,373.8"/>
	<path class="st1" d="M221.7,599c3.1-0.3,6.4-1.2,10.2-2.1C230,597.3,226.9,598,221.7,599"/>
	<path class="st1" d="M223.6,600.1c-2.8,0.6-4.9,1-7,1.4C215.7,602.2,216.7,602.4,223.6,600.1"/>
	<path class="st1" d="M244.4,593.3c-4.4,1.4-8.5,2.6-12.6,3.7c1.6-0.3,2.2-0.3,1.9-0.1C236,596.1,239.1,595,244.4,593.3"/>
	<path class="st1" d="M392.6,517.2c-0.6,0.2-1,0.4-1.7,0.7C384.7,523.1,387.7,521.2,392.6,517.2"/>
	<polygon class="st0" points="290.2,301.7 290.7,300.9 289.8,301.7 	"/>
	<path class="st0" d="M275.3,323.9c3.5-11.4,8.2-16.3,14.5-22.3l-12.8,1c0,0-0.8,5.3-1.1,10.7C275.7,318.7,275.3,323.9,275.3,323.9"
		/>
	<path class="st1" d="M338.3,195.7L320.7,206c16-19.1,32.2-28.1,14-20c1.8,4.9-13.9,17-28.5,30.2c-15,12.8-28.6,27.2-26.2,31.5
		l-10.8,8c2.7-2.7,2.7-3.5,5.4-6.2c-21.4,15.4-8.5,18.5-31.2,42.7c-7.8,8.7-14,14.2-10,7.2c0,0-3.5,5.5-7,11
		c-3.3,5.7-6.5,11.5-6.5,11.5c-4.4,6.1-4.9,3.7-0.4-2.6c0,0-5.9,8-10.7,17.2c-5,8.9-9.6,18-9.6,18l-0.1-0.4
		c-0.9,6.4-5,18.8-5.4,25.7c-4.4,9.8,0.6-5.4-1.4-3.2c0,0-4.6,22.9-3.5,23.3c-1.8,4.7-2.8,2.1-2.9-4.1c-0.1-6.1,2.6-14.7,5-22.6
		c-7.7,9.2-9.4,14.1-9.5,23c0.7,8.9-3.6,20.8,5.4,49.2c0,0-3.4-6.2-5.8-12.7c-1.2-6.6-2.3-13.2-2.3-13.2c-6,17,6.7,44.3,31.4,62.9
		c-1.7-1.5-5-4.7-9-8.4c-3.7-4.9-7.5-11-10.3-15.9c-2.9-4.6-3.1-9.4-2.7-10.6c0.9-1.4,1.6,1.3,7,6.6c2.4,3.5,5.5,7.4,9.7,11.7
		c4.3,3.8,10.3,6.4,17.1,9.6c-1.8,3.3,12.2,10.1,30,12.6l-2.1,4.4c20.3,2.1,18.5-2.5,29.7-4.2c20.6-1.9,25.6-0.1,31.2,1.4
		c32.4-9.5-23.4,1.6,13.4-11.5c25.6-8.8,41.2-21.2,61.9-44.5c14.2-11.8-0.2,4.3,5.4,0.6c0.3,0.2,8.2-14.7,8.2-14.7
		c2.7-2.9,2.7-1.3,2.7-0.4c7.8-11.3-2.6-3.7,8.7-21.5c-0.2-3.6,6.5-11.8,14.5-22.9c7.3-11.3,14.9-26.2,14.9-39.9
		c3-5.9,1.9,3.8,4.2,2.3c3.8-35.3,2.8-32.1-0.9-59h-18.4c0.2-0.1,0.2,0.9,0.3,1.9l-5.4,22.5c4.9-16.3,8.1,5.5,6.2,25.4
		c2.9-5.6,5.6-10.5,7-14c0,0-4.4,31.6-5.6,31.4c-2.1,3.4-2.4-0.2-2.5-5.5c-0.4,2.1-0.7,4.1-0.9,5.7c-5.5,10-5.9,3.4-5.8-4.7
		c2.2-3.2,4.5-6.4,6-9.7c-1.1-8.3-2.6-15.6-5.6-14.7c0.1,2-0.3,5.7-0.9,9.8c-0.3-2.1-0.7-3.4-1.3-2.7c-0.7,0.9-0.4,4.2-0.3,9.3
		l-7.2,4.7l1.4,2.2c0,0-3.6,8.9-8.4,17c-5.2,7.9-10.2,15.5-10.2,15.5c-9.8,23.9-21.9,50.4-65,68.5c9.5-7.2,0.3-6.5-0.5-10.9
		c12.8,0.3,30-14.9,46.1-29.1c-8.8,7.3-8.5,3.5-6.7,1.4c0,0-1.7,1.6-4.3,4.2c-2.7,2.4-5.9,6.2-10,8.8c-3.9,2.8-7.8,6-10.9,7.9
		c-3.2,1.8-5.4,2.9-5.4,2.9c-0.7-3.9-8.5,1.2-18.7,1.9c4.6,2.1-1.8,6.4-12.2,8.1c-10.2,2.7-23.6,2.2-31.6,2.3
		c-0.5-3.1,3.2-3.3,22.2-3.8c-10.7-2.1-16.9-0.6-24,0.8c-6.8,1.1-14.6,1.8-22.7-4.5c4.2,1.6,6.3,2.9,8.3,2.4
		c-2.2-0.4-5.2-1.4-8.3-2.5c-2.8-1.4-5.4-3.5-7.8-5.2c-4.7-4.7-4.7-10.9-2.9-8.5l1.7,2.9c-2.8-4.4-4.5-12.8-3.8-22.6
		c0.6-9.8,4.1-20.5,7.3-30.4c7.4-19.8,16.9-35.8,15.6-39.7c0.8,0.3,3.8,7.9,3.8,10.2c0,0,3.5-15.1,8.9-30.3
		c5.5-15.1,12.2-30.1,12.2-30.1c0.4,7.5,23.1,1,6.9,23.7c5.5-5.7,13.1-12,23.4-25.5c-4.4,3.3-14.9,4.6-10.2-1.3
		c19-10.3,12.3-8.2,34.5-21.5c-6.9,4.5-5.7-7.7,4.5-16.2c-0.8,2.3,6.2,5.5,3.1,9.3c0,0,4.6-7.1,9.7-13.6c5-6.7,10.1-13.4,10.1-13.4
		c-5.4,6.3,3.1,6.2,10.3,3.7c-3.7,0.7,22.3-16.4,29.1-21.5l-12.3,6c30.7-18.9,23.8-29.7,57.2-45.8c-3.4,3.5-5.3,13.9,11.5,7.3
		c5.8-6.3,26.7-34.4,62.9-39.6c0-0.2,6.8,2.3,6.8,2.3c-0.3-0.9,27.6-0.3,27.8,1.2c-9.7-0.1-26.2,2.9-41.2,9.4
		c-15.1,6.4-29.4,15.1-39.2,21.2c13.1-1.9,4.3,0.9,22.9-3.8c7,0.8-9.3,5.4-14.5,7.6c0,0,10.8-3,21.4-4.7c10.6-1.7,20.6-1.5,20.6-1.5
		c-1.1-2.2,7-4.1,14.4-3.7c7.7-0.1,14.4,1.9,14.6-0.1c0,0-10.1-3-21.5-2.4c-11.2,0.3-22.8,3.6-22.8,3.6c-1.3-2.3,5-7,16.3-9.9
		c11-3.1,28.4-2.9,40.7,7c4.5,5.8-9.7,3.6-9.6,5.8c0.8,0.1,2.5,0.8,4.7,1.8c1.9,1.3,3.4,3.4,5.5,5.3c3.7,4.2,5.1,10.8,5.3,11.7
		l-6.4-9c3.9,11.6,13.1,22.7,6.8,43.5c-1.6,7.4-9.8,20.2-7.8,22c8.5-10,25.2-10.2,28-0.3c-0.3,1.4-4.8,11.5-9.4,22.1
		c-5.2,10.4-11.7,20.9-14.4,24.7c-8.8,10.3-2.7-22.1-10.2-13.2c1.1,0.9,0.1,8.1-0.4,11.1c-4.6,6.9-2.4-4.7-9.4,11.4
		c3.6,5-16.6,31.9,0.2,9.4c-6.7,16.1-9.7,15.9-19.7,33.6c6.2-4-0.5,21.6-10,37c-0.4-1.6-4.1,0.7-5.9,1.8
		c-21.9,29-37.2,41.7-60.8,65.8c-2.9,1.5-16.1,11.1-12.4,4.9c-3,3.9-5.2,8-12.8,15.1c-17.6,10.1,16.7-15.9,1.9-9.6
		c0.5,1.6-3.8,6.7-9.4,13c-6.2,5.8-13.2,12.5-18.8,17.8c6.4,0.9,27.6-20.3,37-32c4.2,4.5-10.5,27.1-37.8,51.1
		c-23,17.2-12.6,3.6-16.3,7.1c-45.3,28.1-33.5,33.7-75.4,50.2c-17.6,4.2-4.1-6.7-8.8-7.5c20.2-11.1,32.7-13.6,46.4-21.4l-17.8,7.6
		c6-4.5,18.9-12.8,26.6-16.2c-13.8,5.2-79.2,42.3-119.5,51.3c-6.4,3.4-18,8.5-11.9,8.2l12.2-4.5c12.5-0.6-22.1,11.6-5.8,8
		c-16,7.5-34.6,16.4-60.1,18.1l-5.2-3.7c0.6,1.2,16.5,0.1,23.2-2.4c-5,1.8-14.8,1.9-24.4,2.4c-9.9-0.6-19.5-0.3-25.4,2.5
		c-0.1,0.4,18,2.3,18,2.3c-17.5,4.1-42.7,7.8-66.6-3.3c9.4,8.9,5.4,1.6,21.9,11.7c-3.6-2.6-1.3-2.8,3.6-1.9c5,0.3,12.3,0.8,19.5,1.3
		c14.3,0.6,26.8-1.1,15.1-3.5c17.5,5.3,29.4-0.1,51.7,0.2c-1-1.3-8.2-0.9,10.6-4.8c0.7-0.6,2.6-1.6,3.8-2.3c0.6-0.1,0.7-0.1,1.3-0.2
		l-1.1,0.1c0.7-0.4,0.8-0.4-0.4,0.1c-4.6,0.4-8.3,0.6-10,0.2c8.5-5.1,36.8-13.9,45.4-19.2c10.5-3.2-3.7,3.2,2.5,2.5l13-7.7
		c2.7,2.8,29.1-6.5,5.8,5.7l21.8-9.2c13.4-3.9,31-11.5,40.7-18.4c10.2-4.5,22.8-16.6,15.7-9.5c0,0,7.7-5.1,15.4-10.2
		c7.9-4.9,15.1-10.8,15.1-10.8l0.7,0.5c31.7-19.1,57.4-48.3,91.2-73.1c8-9.5,16.5-18.8,30.3-34.1l4.8-1.2
		c9.9-12.3,31.5-36,32.9-43.4c16.8-9.4,42.3-65.3,52.5-92.2l-3.1-2.3c7.4-18.1,11.5-37.2,13.5-62.4l-3.4,1.2
		c-0.6-11,0.8-24.7-1.7-41.6c-3-16.5-16.7-38-36.1-44.5c3-0.3,12.4,4.7,17.8,10.3c-18.5-19.4-45.9-20.6-66.5-17.1
		c-21.6,3.4-40,11-57.8,14.8c-7.9,4.3-14,6.4-19.9,8.4c0.7-0.3,1.4-0.7,1.9-1.1c-0.8,0.4-2,0.9-3.3,1.6c-3.8,1.2-7.8,2.2-11.9,3.8
		c3.6-1.1,7.2-1.9,10.1-2.9c-6.3,2.8-15.1,8.2-23.6,13.7l-5.4-0.9c-0.7,0.5-1.2,0.8-2,1.3c-9.2,4.1-5.9,5.5-0.1,5.1
		c-4,3.1-7.7,6.1-10.3,8.7c-9.7-0.3-20.7,15.9-32.7,17.7c-4.2,5.8-37.7,33-37.3,41.3c-0.8-0.4-3.2,1.2,0.7-2.3
		c-8.8,6.5-17.3,13.6-23.1,21.7h-6.5c0,0-3.4,5.2-6.4,10.7c-3.1,5.4-6.1,10.8-6.1,10.8c-12,8.7-16.9,12.8-9.9-0.7
		c-19,30.4-17.6,23.1-30.5,50.9l-1.6-2.8c-6.2,9-11,26.2-15.7,31.2c-4.1,5.2-9.5,15.8-13.3,31c-1.5,7.7-2.8,16.5-1.6,26.6
		c0.8,9.7,4.6,21.8,14.5,30.7c33,25.2,73.9,20.3,103.8,14.3c-7.4-2.7,0.4-2.9,9.5-5.5c9.4-2.1,20.4-6.3,19.8-10.2
		c4.2-0.1,12.9-3.8,4.4,3.1c27.6-19.4,42.9-30.2,51.8-52.5c4-2.1-1.8,7.5,1.2,5.4c1.5-2.4,4.8-9.8,7.3-12.4
		c2.5-2.6-0.5,5.4-3.2,10.3c17.9-30.7,11-37.1,6.9-41.2c8.8-14.5,9.6-23.3,8.5-35.5c3.1-5.2,7.2-14.4,3.4,5.7
		c2.3-6,5.4-26.5,6.9-43.8h-24.8c-0.3,12.7,0.4,23.5,2.1,24.1c-1.7,3-2.4,14.3-2.3,17.1c-5.5,22.6-6.7,24.4-15.5,45.5
		c0.2,0.1,3.3-5.4,3.3-5.4c1.1,10.5-6.8,18.4-17.3,33.6l-0.2-0.7c-14.4,15.9-17.6,19-20.4,22.6c-3.4,2.9-5.4,7.9-23.7,18.1l3.9,1.4
		c1.5,9.5-33.6,17.9-55.5,25.4l8.8-0.6c-5.9,3.7-15.9,2.8-25,1.1c-9.1-2.7-17.1-5.8-22.5-7.7c-2.3-1,4-0.4,7.4-0.4
		c-14.1-4.2-14.8-3.6-15.4-2c-0.6,1.8-0.2,4.4-11.3,1.2c-2.4-4,6.5-3.2-4.5-10.6c-0.9-1.4-4.7-2.3-6.8-4.9c-1.4-1.2-3.1-2.4-5-3.8
		c-1.7-1.5-2.3-3.7-3.9-5.7c-5.4-8.4-5.9-23.7,0-33.5c-3.2,4.1-6.5,8.5-4.6-2.8c4.1-17.7,26.1-41.2,31.5-57.8
		c1.8-1.7,2.7-2.1,3.2-1.9c6.8-12.7,27.2-38.2,31-46.8c9.1-0.8,23.5-18,38-33.3c14.5-15.2,28.5-28.6,31.9-24c0,0,8.5-7.3,17.5-13.8
		c8.9-6.8,18-12.8,18-12.8l-0.4,1.6c24.2-14.3,32.3-20.9,40-28c6.3-2.3,2.4,0.8,2.2,1.6c38.6-16.2,41.9-18,73.3-34.2l4.5,2.4
		c4.2-2.2,19-5.4,37-6c18-0.8,37.9,2,49.1,11c-0.6,0.2-1.2-0.1-3.4-0.9c15,7.9,15.6,35.6,10.9,57c-4.3,22.3-10.8,40.3-7.3,50.3
		c0.6,0.1-8.3,29.1-8.3,29.1c16.5-35.7,2.9,7.7,11.3-6.4c-5.1,15.1-21.6,34.7-13.2,17.4l2-2.4c-2.4-9-25.4,42.1-29.9,38.1
		c-42.3,64.7-100.7,116.1-160,155.8l9.9-0.2l-21.4,13.5c-6.4,2.3-9.7,1.1,5.6-8.2c-9.3,2.5-24.5,17.5-24.5,18.8
		c-32.2,15,9.2-12-0.5-6.9l-12.7,7.3l3.2-1.1c-9.5,7.4-9.4,10.2-29.2,19.4c-12.9,5-7.8,0-12.8,2.1c-0.1-0.3-1.8,0.3-7.5,3.3
		c0,0-7.4,3-14.8,6c-7.4,2.9-14.8,5.7-14.8,5.7l13.4-0.8c-12.4,7.4-28.2,10.7-12.6,9.9c-11.5,0.4-39.7,10.4-67.5,17.1
		c-27.7,7.2-54.8,10.2-61.2,9.2c-19,3.9-38.8,3.1-59.8-5.2c5.1,2.2,6.4,9.4-11.8,0.1c5.4-2.7-2.3-7.3-10.2-15
		c-8.5-7.3-14.9-20.3-15-28c0.9,6.8-5.5-4.5-8.6-17c-3.8-12.1-4.6-24.7-7-12.8c-0.9-16.9,3.3-1.4,4.7-14.1
		c-5.3-40.2,10.7-88.8,31-133.6c-0.8-1.3-6,5.6-3.3-5.2c-0.8-0.5,18.6-20.1,18.6-20.1c4.6-8.6-2.3-12.2,12.4-24.4
		c-2.4,1.4-6,3.7-2.4-2.1c62-77.2,146-147.4,243.8-181.1c-13.5,3.7-5.3-0.5,4.2-5.1c-6.5,2.4-1.2-2.9-3.2-3.9c0,0,10.2-3.8,20.6-6.7
		c10.3-3.2,20.7-6.3,20.7-6.3c5.4-7.5,42.8-17.2,45.7-22.6l-12.7,5.3c15.3-11.5-28.1-2.2-28.2-9.4c-16.9,13-54.3,12.8-81.2,36
		c-7.3,2.3,4.7-5,0.4-4.6c-6.3,6.8-15.2,12.2-33,20.1l1.6-1.7c-46.8,28-68.2,38-117.5,75.7l5.8-0.3c-10.4,8.3-13.3,9.3-18.6,12.7
		c-8.1,13.7,28.6-23.9,21.8-10.5c-9.1,2.8-26.9,18.1-42.8,34.3c-16,16.1-30.2,33.1-37.2,35.3c-12.2,16.8,6.7-2.4-5.4,14.3l-4.9,3.2
		l-0.8,5.8c-8.5,10.5-13.6,15.5-15.6,14.9c2-2.7,4.2-8.6,6.2-11.5c-11.7,13.7-24.8,43.7-27.1,49.3c0,0,9.4-17.8,9.9-17.5
		C20,381,1,451.1,12,507.4l1.2-4.4c3.8,21.1,6.9,29.5,9.5,38.5c3.1,8.6,5.8,19.8,24.4,37.1l-1.6-1c8.2,6.2,20,12.4,32.1,17.8
		c-12.5-2.4,20.8,11.2,4.7,7.8c24.2,5.6,30,3.8,33.9,3.7c3.8-0.7,5.9-1.7,20.8-4.6l7,2.5c10-3.1,10.8-3.9,32.9-7.8
		c-18,4.9,15,1.9-5.2,8c48.9-1.8,67.1-21.7,90.3-20.1c18.1-13.8-40.1,8.9-29.1,3.4c-10.4,0.6,15.4-10.4,29.3-14.6
		c13.9-5.1,27.4,0.6,62-15.2c-3.5,1.6-3.5,2.2-6.9,3.7c13.8-4.1,24.1-14,40.9-19.1c6.6-8.4,20.1-10.5,19.7-16.9
		c0,0-7.4,4.4-14.8,8.9c-7.5,4.3-15.1,8.5-15.1,8.5c16.8-10.4,29.9-24.2,58.5-39.3c-1.4,2.3-8.5,9-13.9,13.1
		c9-3.5,14.8-10.9,23.9-15c1.1,6.7-34.7,24.7-51.5,37.8c10.3-2.5,32.9-23.4,26.8-12.6c9.2-14.5,32.8-19.6,49.6-40.3l0.8,3.8
		c2.9-3,8.7-9.4,14.4-14.2l-7.8,12.1c14-16,33.3-23.5,46.4-39.1c-30.8,28.9-9.8,3.4-24.5,13.6c34.2-38.6,28.6-13,66.8-57.5
		c-4.8,6.4-21.1,20.9-14.1,10.6c7.8-7.8,18.5-18,24.1-22.3c23.6-30.8-6.4,2.4,2.1-11.8c11.3-7.9,10.2-16.1,18.5-30.7l3,1.9
		c25.6-36.1,0.6-13.3,22.3-46.4c0,0-0.8,4.3-1.7,8.7c-1.1,4.2-2,8.4-2,8.4s2.5-4.6,4.5-9.4l4.2-9.5l1.6,5.7
		c4.4-11.5,6.9-18.1,9.4-24.7c3-6.8,6.3-13.5,10.3-24c-4.4,3.9-4.2-4.5,0.3-23.7c5-12.7,2.1,8.4,7.1-19.5c1.2,6.6,2.4,14.4-4,25.5
		c0.8,1.6,0.6,6.7,1.3,8.4c6.4-13.8,9.7-36.2,10.2-47.1c-0.5,4.2-1.3,9-2.3,11.3c0,0,0.3-10.6-0.1-21.3c-0.6-5.5-1.2-10.9-1.7-15
		c-0.9-4.2-1.5-6.9-1.5-6.9c0.6-7.1,2.3-1.8,3.8,3.8c-1.4-9.2-3.2-15.4-9.1-28.7c3.6,2.3,7.9,0.4,13.2,20.6c0,0-2-11.4-8-22.8
		c-2.4-5.7-7-10.9-9.8-14.7c-3.6-3.4-5.9-5.8-5.9-5.8c-0.6-1.9-5.4-6.7-9.5-10.6c-4.2-3.4-7.8-6-4.4-4.9c-13-7.9-30.4-9.5-45.9-8
		c-15.9,1.4-31,5.3-45.4,7.7c-1.3,0.9-4.2,2.1-10,4.1c-26,6.9-49.6,12.5-76.2,29.7l-18.2,3.4c-21.1,12.6,24.1-5.7-10.8,15.4
		c-24.1,15.9-11.5,1.7-21.1,5.7c-11.5,10-28.4,28.7-51.5,42.2C326.3,204.8,332.1,201,338.3,195.7 M194.9,453.8
		c-4.8-5.1-13.6-19.4-11.7-25c2.2,3.7,4.3,6.8,5.9,10.8C190.9,443.4,191.3,448.7,194.9,453.8 M405.7,365.1c0.8-4.1,4.5-9.1,7.8-15.4
		C412.3,354.7,409.7,360,405.7,365.1 M314.3,561.9l0.4-0.4C327,557,322.6,558.6,314.3,561.9 M289.1,571.6c-2.3,1.6-1.9,1.9-0.7,1.9
		c1.4-1.6,6.9-4,13.4-6.5C299.6,566.9,296.1,567.7,289.1,571.6 M308.3,534.5l4.9-1.2C303.3,538.8,305.8,536.7,308.3,534.5"/>
	<path class="st0" d="M417,318.5c0.9-1.3,1.6-1.6,2.4-1.8C419.3,314.5,418.6,314.4,417,318.5"/>
	<path class="st0" d="M506.8,110.7l0.9-0.2c0.5-0.3,0.7-0.6,0.8-0.8L506.8,110.7z"/>
	<path class="st0" d="M558.1,278.3c2.3-4.6,3.9-7.1,5.2-8.7C562.6,269,561.1,271,558.1,278.3"/>
	<path class="st1" d="M149.5,613.7l18.5-1.9c-8.9,0.7-12.2,0.1-16.7-0.2C151.7,612.4,155.3,613.4,149.5,613.7"/>
	<path class="st0" d="M58.7,504.4c-0.5-2.5-0.2-5.2-0.7-7.6l-1.6,0.6C56.8,508,58.3,515.2,58.7,504.4"/>
	<path class="st1" d="M132.8,601.5c-1.2-3.1-12.3-2.3-24.9-5.9l2.2,0.6C105.2,598.6,119.3,602.8,132.8,601.5"/>
	<path class="st0" d="M105,594.9c-4-0.6-7.6-2.6-11-4.6C92,590.5,98.1,593.9,105,594.9"/>
	<path class="st1" d="M258,586.1c-5.6,1.3-2.1,4.8-5.5,4.9C247.8,596.8,286.9,573.1,258,586.1"/>
	<polygon class="st1" points="124.1,591 127.8,595 134.8,592.6 	"/>
	<path class="st1" d="M216.7,584.1l-18.6,3.5c0.3,0.5-1.9,1.4-4.7,2.4C204.8,587.4,217.4,585.1,216.7,584.1"/>
	<path class="st1" d="M193.4,590.1c-6,0.9-11.8,1.9-15,3.1C181.6,592.6,188.7,591.3,193.4,590.1"/>
	<polygon class="st1" points="149.7,591.2 155.3,591.7 168.6,591.1 	"/>
	<path class="st1" d="M399.5,496.7c0,0,4.1-3.2,8-6.7c3.9-3.3,7.8-6.7,7.8-6.7c0.9-2.3-4,0.6-9.8,5.6
		C402.3,492.8,396.1,497.5,399.5,496.7"/>
	<path class="st1" d="M341.8,521.3c5.1-2.1,5.8-1.6,9.2-2.1l-1.8-4.2L341.8,521.3z"/>
	<path class="st1" d="M391.2,488.9c1.3-1.7,21.1-20.7,1.2-4.8C391.5,486.3,375.2,498.4,391.2,488.9"/>
	<polygon class="st0" points="580.3,253.5 578.9,258.5 586.2,260.2 	"/>
	<path class="st0" d="M429.1,192.1c21.2-9.3,2.6-7,22.3-14.3c4.1-4.1-16.2,5.9-11.9,2.2C427.8,188.2,421.1,191.3,429.1,192.1"/>
	<path class="st0" d="M439.5,180c1.8-1.3,3.7-2.7,5.9-4.3C442,177.9,440.4,179.2,439.5,180"/>
	<polygon class="st0" points="408,95 423,91.1 412.8,92.2 	"/>
	<path class="st0" d="M434,79.8l4.9,3.3l7.4-7.1C443.1,77.3,436.9,80,434,79.8"/>
	<path class="st1" d="M235.9,492.7l1.8-0.6c-2.6-2.3-7-3.6-15.6-7.4C221.9,485,235.9,492.7,235.9,492.7"/>
	<polygon class="st0" points="242.8,280.7 240.2,283.5 248.2,280.9 	"/>
	<path class="st0" d="M380.9,156.1c-6.8,3.6-14,9.2-20.7,13.4C374.2,159.5,385.4,159.8,380.9,156.1"/>
	<path class="st2" d="M484.1,1.1c1.9-0.5,2.2-0.6,4.1-1.1c1.4,2.1,2.3,4.1,4.4,7.5c1.9-0.4,4.8-1.8,6.2-1c0.3,0.2,1.1,2.4,0.7,2.7
		c-0.8,1-1.6,1.3-3.8,1.9c6.5,9.7,13.9,19.2,20.5,28.4c5.7-1.5,24.7-6,27.9-5.8c0.3,0,3.8-0.5,4.4,1.9c0.7,2.5-1.5,3.3-2.8,3.9
		c-4.2,1.9-18.1,6.3-27.2,8.7c-0.3,4.3-2.6,29.6-3.4,37.1c1.6-0.3,3.2-0.7,4.3-0.4c0.6,0.2,1.4,2.8,0.7,3.1
		c-1.1,0.6-3.6,1.7-5.6,2.2c-0.6,3.8-0.6,7.5-0.6,7.5l-4.2,1l-10.7-38c0,0-3.8-0.9-3.7-2.3c-1.7-0.2-1.6-1.6-2.2-3.6
		c-5.1,1.3-10.3,1.6-14.7,2.3c-0.7,4.1-1.3,8-1.9,12.8c-1,0.4-1.3,0.5-2.3,0.9c-1.1-4.1-1.7-6.4-3.2-11.9c-0.5-1.6-4.2,0.1-4.7-1.9
		c-0.5-2,3.9-2.1,3.2-3.9c-1.3-5.2-2.3-9-3.3-12.7c1.4-0.2,2-0.3,3.2-0.3c2.8,4,4,5.8,7.5,11.1c3.8-1.8,9-3.9,14-5.2
		c-0.3-1-1.3-3.4,0.3-3.8c-0.6-2,2.1-3.6,2.1-3.6S484.7,3.3,484.1,1.1"/>
	<path class="st1" d="M744.2,577.2c-4.6,2.8-17.8,9.9-20.6,11.2c-6.2,2.7-11.2,3.9-14.9,3.9c-4.3,0-6.4-1.7-6.4-5
		c0-2.3,1.2-5.1,3.6-8.2c2.3-3.1,38.4-53.7,39.8-56.6c1.4-2.8,2.2-5.4,2.2-7.8c0-9-4.9-13.5-14.9-13.5h-0.7h-9.2
		c0,0-2.9-0.3-2.9-2.2c0-1.4,0.4-2.3,1.4-2.8c1.4-2.3,2.3-4.2,2.8-5.3c0.4-1.2,0.7-2.9,0.7-5.3c0-6.7-3.8-9.9-11.4-9.9
		c-5.7,0-10.8,2.2-15.3,6.7c-4.5,4.5-6.7,9.8-6.7,16c0,4.7,1.6,8.3,4.9,10.6c3.1,11-63.5,60.6-78.1,69.5c-15.4,9.3-27.9,14-37.3,14
		c-10.5,0-15.6-4.7-15.6-14c0-2.8,0.7-5.5,2.1-8.4c16.6-7.9,30-14.6,40.2-20.3c10.2-5.6,18.1-10.4,23.8-14.4
		c5.7-3.9,9.5-7.6,11.4-10.9c1.9-3.3,2.9-6.8,2.9-10.5c0-9.5-4.8-14.2-14.3-14.2c-5.2,0-11.3,1.1-18.1,3.2c-6.9,2.1-13.9,5.1-21,8.9
		c-7.1,3.8-13.9,8-20.3,12.8c-6.4,4.8-12.2,9.9-17.4,15.6c-1.5,1.6-2.8,3.2-4.2,4.8c-7.7,7.5-14,12.9-18.6,16.1
		c-5.2,3.5-9.9,5.4-14.3,5.4c-7,0-10.6-3.9-10.6-11.4c0-1.8,0.3-3.9,1-6c0.7-2.1,2.3-5,4.7-8.9c4.7-6.7,10-20.4,10-24.2
		c0-9.9-4.3-14.9-12.8-14.9c-13.3,0-19.7,38.2-19.3,40.5c-1.8,5.3-6.4,11.5-13.5,18.9c-7.2,7.3-15.4,14.1-24.9,20.3
		c-6.7,4.3-13.3,7.7-19.9,10.3c-6.6,2.6-12.1,3.9-16.4,3.9c-5.2,0-7.8-2.4-7.8-7.1c0-3.3,3.3-9.3,10-17.8l49.8-65.4h-27.1
		c-32.6,19.3-48.9,39.8-131.2,72.5c-32,12.8-81,28.4-134.4,32.6c0.3,2.3,73.5,1.3,142.1-23.3c16.1-5.8,81-29.9,81-29.9l-4.3,4.9
		c-5.7,6.7-9.3,11.8-10.7,15.3c-1.4,3.6-2.2,7.2-2.2,11c0,12.3,9,18.5,27,18.5c11.9,0,25.9-4.1,42-12.4c16.1-8.3,31-18.6,44.8-30.9
		c4.7,8.5,11.6,12.8,20.6,12.8c6.6,0,13-1.7,19.1-5c0.6-0.2,1.1-0.6,1.7-0.9c-1.6,4.9-2.3,9.7-2.3,14.5c0,14.7,9.7,22,29.1,22
		c15.1,0,30.5-4.5,45.9-13.6c15.4-9,76-50,95.9-80.2h4.3l10.7-0.7c2.9,0,4.3,1.4,4.3,4.3c0,1.4-1.1,3.5-3.2,6.4
		c-2.1,2.9-6.7,7.6-13.9,14.3c-13.3,13.3-22.5,23.6-27.7,30.9c-5.3,7.4-7.9,14.4-7.9,21c0,11.8,6.7,17.8,20,17.8
		c12.8,0,26.9-5.3,43-14.6c13.3-7.6,28.9-20,34-24.1h-9.9C754.9,570.2,747.3,575.4,744.2,577.2 M587.1,539.6c4-4.7,8-9,12.1-12.8
		c4-3.8,7.9-6.9,11.7-9.3c3.8-2.3,7.2-3.6,9.9-3.6c3.3,0,5,1.7,5,5c0,4.8-4.5,10.3-13.5,16.4c-9,6.2-21.1,12.6-36.3,19.2
		C579.3,549.4,583.1,544.4,587.1,539.6"/>
	<path class="st3" d="M1072.2,560.1c5.7-0.8,29.5,0.2,48.5-21.4c-6.2,2.1-11.9,3.2-11.9,3.2s2.5,0.5,3.4,2.6
		c-15.4,10.2-30.7,11.7-34.2,11.4C1075.2,558.4,1072.2,560.1,1072.2,560.1"/>
	<path class="st3" d="M1090.7,486.8c-10.9,0-17.3,6.3-19,19l-1.3,1.3l-9.8,9.3c0,0-19.6,18.3-24.5,22.1c-3.4,2.7-6.7,5-9.9,7.2
		c-3.6,0.3-6.5,1.2-8.9,2.5c-2.4,1.4-3.8,3.2-4.2,5.3c-1.2,0.6-2.4,1.1-3.5,1.7c-3.7,1.6-6.7,2.4-9,2.4c-3,0-4.4-1.1-4.4-3.1
		c0-1.2,1.6-4.1,4.8-8.8l28.1-42.4h-15.6l-7.7,11.9c0.3-1.4,0.5-2.6,0.5-3.5v-2.2c0-5.3-3.3-8-9.8-8c-2.7,0-5.8,0.6-9.3,1.8
		c-3.5,1.2-7.2,2.7-11,4.7c-3.8,1.9-7.6,4.2-11.5,6.9c-3.8,2.6-7.4,5.4-10.6,8.3c-2.9,2.9-5.3,5.8-7.5,8.9
		c-7.7,6.7-15.4,12.4-23.1,17.1c-9.6,5.8-17.3,8.7-23.2,8.7c-6.5,0-9.8-2.9-9.8-8.7c0-1.8,0.4-3.5,1.3-5.3
		c10.3-4.9,18.6-9.1,25-12.6s11.3-6.4,14.8-8.9c3.6-2.4,5.9-4.7,7.1-6.8c1.2-2,1.7-4.2,1.7-6.5c0-5.9-2.9-8.8-8.8-8.8
		c-3.3,0-7,0.7-11.3,2c-4.3,1.3-8.6,3.2-13,5.5c-4.4,2.3-8.7,5-12.5,7.9c-4.1,2.9-7.7,6.2-10.9,9.7c-0.4,0.5-0.8,1-1.2,1.4l-0.1-0.1
		c-4.1,3.9-7.8,7.1-10.8,9.7c-3.1,2.7-6.1,4.9-9.1,6.7c-2.9,1.8-5.9,3.3-8.8,4.7c-2.9,1.3-6.5,2.6-10.6,3.7
		c2.9-4.1,4.9-7.7,5.9-10.8c1.1-3.1,1.6-6.7,1.6-10.8c0-3.3-0.3-6.5-1.1-9.9c-0.8-3.4-2.3-7.5-4.7-12.6c1.4-1.5,2.7-2.7,3.8-3.5
		c1.1-0.9,1.8-1.6,2.4-2.2c3.3-2.3,5.3-4.3,6.2-5.7c0.9-1.5,1.3-2.9,1.3-4.4c0-2.9-1.9-4.4-5.8-4.4c-10.9,0-17.2,6.3-19,19l-1.3,1.3
		l-9.7,9.3L786.2,546c-2.6,0.4-4.8,1.2-6.7,2.2c-2.9,1.8-4.4,4.1-4.4,6.7v0.1l-9.9,8h9.5l3.1-2.5c1.3,1.2,3.1,2.2,5.3,2.9
		c5.3,1.9,12.5,2.9,21.6,2.9c5.3,0,10.2-0.5,14.6-1.6c4.4-1.1,9.1-3.2,14.1-6.4c6.5-0.9,11.3-1.8,14.6-2.7c3.2-0.9,6.8-2.2,10.6-4
		c4.4-2.4,8.5-4.8,12.4-7.5c0.5-0.4,1.1-0.8,1.7-1.2c-1.1,3.2-1.7,6.4-1.7,9.5c0,9.2,6,13.7,18.1,13.7c9.4,0,19-2.8,28.6-8.5
		c6.4-3.8,13.9-8.8,22.5-14.9c-1.6,3.9-2.4,7.4-2.4,10.5c0,8.5,4.1,12.8,12.3,12.8c4.2,0,8.5-0.9,13.3-2.9
		c4.7-1.9,10.5-5.4,17.3-10.4c-1.2,2.7-1.8,4.7-1.8,6.2c0,2.4,0.9,4.2,2.9,5.3c1.9,1.2,4.5,1.8,7.7,1.8c7.5,0,15.8-2.6,24.5-7.6
		c1.3,1.9,3.6,3.5,6.9,4.7c5.3,1.9,12.5,2.9,21.6,2.9c5.3,0,28.6-2.3,41.7-23.1c6.4-10.5,3.9-20.1,3.2-23.5
		c-0.7-3.4-2.3-7.5-4.7-12.6c1.5-1.5,2.7-2.7,3.8-3.5c1-0.9,1.8-1.6,2.4-2.2c3.2-2.3,5.3-4.3,6.2-5.7c0.9-1.5,1.3-2.9,1.3-4.4
		C1096.5,488.3,1094.5,486.8,1090.7,486.8 M904,524.9c2.5-2.9,5-5.6,7.5-8c2.5-2.3,4.9-4.2,7.3-5.7c2.3-1.5,4.4-2.3,6.2-2.3
		c2,0,3.1,1.1,3.1,3.1c0,3-2.8,6.4-8.4,10.2c-5.6,3.8-13.2,7.8-22.5,11.9C899.2,530.8,901.5,527.8,904,524.9 M806.5,560.7
		c-8.5,0-12.8-1.5-12.8-4.4c0-2.1,1.7-3.1,4.9-3.1c0.6,0,1.2,0.1,1.9,0.2c0.8,0.2,1.4,0.2,2,0.2l5.8,1.3l6.2,1.3l4.9,1.3
		C814,559.7,809.7,560.7,806.5,560.7 M833.1,531c-0.3,4.1-0.7,7.4-1.3,9.9c-0.6,2.5-1.3,4.6-2.2,6.2c-0.9,1.7-2.2,3.2-4,4.7
		c-2.3-0.3-4.1-0.6-5.3-0.9c-1.2-0.3-3.4-0.7-6.7-1.3c-7.2-1.9-13-3.1-17.6-3.7l38-30.8C833.6,521.6,833.3,526.9,833.1,531
		 M986.4,539c-4.1,5.3-8.6,9.5-13.4,12.8c-4.9,3.3-9,4.9-12.6,4.9c-3.3,0-4.9-1.3-4.9-4c0-3.5,2-8.5,6-15
		c3.9-6.4,8.6-12.2,13.9-17.2c6.5-6.8,12.9-10.9,19-12.4h0.9c3.6,0,5.3,1.8,5.3,5.3c0,2.7-1.3,6.2-4,10.6
		C993.9,528.4,990.5,533.4,986.4,539 M1044.3,560.7c-8.5,0-12.8-1.5-12.8-4.4c0-2.1,1.7-2.9,4.8-3.1c2.2-0.1,22,3.7,22,3.7
		C1053.2,559.8,1047.5,560.7,1044.3,560.7 M1070.8,531c-0.3,4.1-0.7,7.4-1.3,9.9c-0.6,2.5-1.3,4.6-2.2,6.2c-0.9,1.7-2.2,3.2-3.9,4.7
		c-2.1-0.2-22.4-4.7-31-5.9c14.6-11,32.7-25.5,32.7-25.5l6.7-5.3C1071.4,521.6,1071.1,526.9,1070.8,531"/>
	<polygon class="st2" points="780.5,587.4 780.5,602.5 775.3,602.5 775.3,587.4 769.9,587.4 769.9,582.1 785.9,582.1 785.9,587.4 	
		"/>
	<polygon class="st2" points="903.7,595.8 900.8,602.5 895.2,602.5 903.7,582.1 912.1,602.5 906.5,602.5 	"/>
	<polygon class="st2" points="963.9,602.5 954.4,582.1 960.2,582.1 963.9,590 967.5,582.1 973.2,582.1 	"/>
	<polygon class="st2" points="1025.2,587.4 1025.2,589.6 1031,589.6 1031,594.9 1025.2,594.9 1025.2,597.2 1033.4,597.2 
		1033.4,602.5 1019.9,602.5 1019.9,582.1 1033.4,582.1 1033.4,587.4 	"/>
	<polygon class="st2" points="1081.1,602.5 1081.1,582.1 1086.4,582.1 1086.4,597.2 1093.9,597.2 1093.9,602.5 	"/>
	<path class="st2" d="M845.9,595.2c1.9-1.6,2.8-3.5,2.8-5.8c0-2.1-0.7-3.8-2.2-5.2c-1.5-1.4-3.2-2.1-5.3-2.1h-8.3v5.1h5.3h2.6
		c0.8,0,1.4,0.2,1.9,0.7c0.6,0.4,0.8,0.9,0.8,1.6c0,0.7-0.2,1.2-0.8,1.7c-0.5,0.4-1.1,0.7-1.9,0.7h-2.6h-5.3v10.7h5.3V597h2.6
		l2.8,5.5h5.9L845.9,595.2z"/>
	<rect x="1019.9" y="594.9" class="st0" width="13.4" height="2.3"/>
</g>
</svg>
