<?xml version="1.0" encoding="utf-8"?>
<!-- Generator: Adobe Illustrator 28.3.0, SVG Export Plug-In . SVG Version: 6.00 Build 0)  -->
<svg version="1.1" id="Layer_1" xmlns="http://www.w3.org/2000/svg" xmlns:xlink="http://www.w3.org/1999/xlink" x="0px" y="0px"
	 viewBox="0 0 1508.6 654" style="enable-background:new 0 0 1508.6 654;" xml:space="preserve">
<style type="text/css">
	
		.st0{clip-path:url(#SVGID_00000093175353378166920470000007439991522590710921_);fill:url(#SVGID_00000155825586146623278360000013316694730742875536_);}
	.st1{clip-path:url(#SVGID_00000075874418831702388390000014693942347690041261_);}
	
		.st2{clip-path:url(#SVGID_00000061432779860213611960000002282799072134401934_);fill:url(#SVGID_00000103964536026110358720000008746236591270572945_);}
	.st3{clip-path:url(#SVGID_00000160183651525457817920000018376904146170597049_);}
	.st4{clip-path:url(#SVGID_00000176737385629963082050000011823903752423035554_);}
	.st5{clip-path:url(#SVGID_00000126284449270596593980000000073776255601054353_);}
	.st6{clip-path:url(#SVGID_00000165197034505141420140000016632631455091517616_);}
	.st7{clip-path:url(#SVGID_00000001641086212728029330000004413032610403611032_);}
	.st8{clip-path:url(#SVGID_00000119817692901288796290000016960392711832098239_);}
	
		.st9{clip-path:url(#SVGID_00000106135357619142336590000011569119021339656367_);fill:url(#SVGID_00000115492657431827554400000017116669545569889923_);}
	.st10{clip-path:url(#SVGID_00000097464661102715906590000011162678726472219066_);}
	
		.st11{clip-path:url(#SVGID_00000021085644470867071120000014275443864005175703_);fill:url(#SVGID_00000099664404801099158860000001498266793812559800_);}
	.st12{clip-path:url(#SVGID_00000034053066621226611870000017507712086130226072_);}
	.st13{clip-path:url(#SVGID_00000132056890890083357370000012589773875262545823_);}
	.st14{fill:#7D7C7B;}
	.st15{fill:#474848;}
</style>
<g>
	<g>
		<defs>
			<path id="SVGID_1_" d="M362,654h39.9c-22.2-0.9-50.5-3.6-82-10.8C333.3,648.2,347.4,651.8,362,654 M283.6,385.2
				c3.2,68.6,35.8,180.9,205.7,226.4c0,0-42.5,12.3-94.7,12.3c-17.9,0-37.1-1.5-56.1-5.4c46.8,31.6,93.2,34.2,107.2,34.2
				c2.8,0,4.2-0.1,4.2-0.1s-6.6,0.9-18.4,1.4h17.3c81.9-9.9,154.2-41.7,154.2-41.7s-6,0.5-16.4,0.5c-21.2,0-60.4-1.9-103.2-13.3
				c-52.4-14.2-110.2-42.7-146.2-99.9c-0.2-0.3-0.4-0.6-0.6-0.9c-0.1-0.1-0.1-0.2-0.2-0.4c-0.1-0.1-0.2-0.3-0.3-0.5
				c-0.1-0.1-0.1-0.3-0.2-0.4c-0.1-0.2-0.2-0.3-0.2-0.5c-0.1-0.1-0.2-0.3-0.3-0.4c-0.1-0.2-0.2-0.4-0.2-0.6
				c-0.1-0.1-0.1-0.3-0.2-0.4s-0.2-0.3-0.2-0.4c-0.1-0.2-0.2-0.3-0.2-0.4c-0.1-0.2-0.2-0.3-0.3-0.4c-0.1-0.2-0.1-0.3-0.2-0.4
				c-0.1-0.1-0.2-0.3-0.4-0.5c-0.1-0.1-0.1-0.3-0.2-0.4c-0.1-0.2-0.2-0.3-0.3-0.5c-0.1-0.1-0.1-0.2-0.2-0.4
				c-0.1-0.1-0.2-0.3-0.3-0.5c-0.1-0.1-0.1-0.3-0.2-0.4c-0.1-0.2-0.2-0.3-0.2-0.5c-0.1-0.1-0.2-0.3-0.2-0.4
				c-0.1-0.2-0.2-0.4-0.2-0.6c-0.1-0.1-0.2-0.2-0.2-0.4c-0.1-0.1-0.1-0.3-0.2-0.4c-0.1-0.1-0.1-0.3-0.2-0.4
				c-0.1-0.2-0.2-0.4-0.2-0.5c-0.1-0.1-0.2-0.3-0.2-0.4c-0.1-0.1-0.2-0.3-0.3-0.5c0-0.1-0.1-0.2-0.1-0.4c-0.1-0.2-0.2-0.3-0.3-0.5
				c-0.1-0.1-0.1-0.2-0.2-0.4c-0.1-0.2-0.2-0.4-0.3-0.6c-0.1-0.1-0.1-0.2-0.1-0.3c-0.1-0.2-0.2-0.4-0.3-0.6
				c-0.1-0.1-0.1-0.2-0.2-0.3c-0.1-0.3-0.2-0.5-0.3-0.7c-0.1-0.1-0.1-0.1-0.1-0.2c-0.1-0.3-0.2-0.6-0.4-0.9
				c-0.1-0.1-0.1-0.2-0.2-0.3c-0.1-0.3-0.2-0.4-0.2-0.7c-0.1-0.1-0.1-0.1-0.2-0.3c-0.1-0.2-0.2-0.4-0.3-0.6
				c-0.1-0.1-0.1-0.3-0.1-0.4c-0.1-0.2-0.2-0.4-0.2-0.6c-0.1-0.1-0.2-0.2-0.2-0.4c-0.1-0.2-0.1-0.3-0.2-0.4
				c-0.1-0.2-0.1-0.3-0.2-0.4c-0.1-0.2-0.1-0.3-0.2-0.5c-0.1-0.1-0.1-0.3-0.2-0.4c-0.1-0.2-0.2-0.3-0.2-0.5
				c-0.1-0.1-0.1-0.2-0.1-0.4c-0.1-0.2-0.2-0.4-0.2-0.4c-0.1-0.2-0.1-0.3-0.2-0.5c-0.1-0.1-0.1-0.3-0.1-0.4
				c-0.1-0.1-0.1-0.3-0.2-0.4c-0.1-0.2-0.2-0.3-0.2-0.5c-0.1-0.1-0.1-0.3-0.1-0.4c-0.1-0.2-0.2-0.3-0.2-0.5
				c-0.1-0.1-0.1-0.2-0.2-0.4c-0.1-0.1-0.1-0.3-0.1-0.4c-0.1-0.2-0.2-0.4-0.2-0.4c-0.1-0.2-0.1-0.3-0.2-0.5c0-0.1-0.1-0.3-0.1-0.4
				c-0.1-0.2-0.1-0.3-0.2-0.4c-0.1-0.1-0.1-0.2-0.2-0.4c-0.1-0.2-0.1-0.4-0.2-0.5c-0.1-0.1-0.1-0.3-0.2-0.4
				c-0.1-0.1-0.1-0.2-0.2-0.4c-0.1-0.2-0.1-0.3-0.1-0.4c-0.1-0.1-0.1-0.3-0.2-0.4c-0.1-0.2-0.1-0.4-0.2-0.5s-0.1-0.3-0.2-0.4
				c0-0.2-0.1-0.3-0.1-0.4c-0.1-0.1-0.1-0.2-0.1-0.2c-0.2-0.5-0.3-0.9-0.5-1.4c0-0.1-0.1-0.1-0.1-0.1c-0.1-0.3-0.1-0.4-0.2-0.6
				c-0.1-0.1-0.1-0.2-0.1-0.3c0-0.2-0.1-0.4-0.2-0.5c0-0.1-0.1-0.3-0.1-0.4c-0.1-0.1-0.1-0.3-0.2-0.4c0-0.2-0.1-0.4-0.1-0.4
				c-0.1-0.2-0.1-0.3-0.1-0.4c-0.1-0.2-0.1-0.3-0.2-0.4c-0.1-0.1-0.1-0.3-0.1-0.5c-0.1-0.1-0.1-0.3-0.1-0.4
				c-0.1-0.2-0.1-0.4-0.2-0.5c-0.1-0.1-0.1-0.3-0.1-0.4c-0.1-0.1-0.1-0.3-0.1-0.5c-0.1-0.1-0.1-0.2-0.1-0.3
				c-0.1-0.3-0.2-0.4-0.2-0.6c0-0.1-0.1-0.3-0.1-0.4c-0.1-0.1-0.1-0.3-0.2-0.5c0-0.1-0.1-0.2-0.1-0.3c-0.1-0.3-0.1-0.4-0.2-0.6
				c-0.1-0.1-0.1-0.2-0.1-0.4c-0.1-0.1-0.1-0.3-0.2-0.5c0-0.1,0-0.2-0.1-0.3c-0.1-0.2-0.1-0.4-0.2-0.6c0-0.1-0.1-0.2-0.1-0.3
				c-0.1-0.1-0.1-0.4-0.2-0.5c0-0.1,0-0.3-0.1-0.3c-0.1-0.3-0.1-0.4-0.2-0.6c0-0.1-0.1-0.2-0.1-0.2c-0.1-0.3-0.1-0.4-0.2-0.6
				c-0.1-0.1-0.1-0.2-0.1-0.2c-0.6-2-1.1-3.8-1.5-5.8c-0.1-0.3-0.1-0.5-0.2-0.7c0-0.1,0-0.1,0-0.2c-0.1-0.3-0.1-0.4-0.2-0.7
				c0-0.1,0-0.1,0-0.1c-0.1-0.2-0.1-0.4-0.2-0.7c0,0,0-0.1-0.1-0.1c0-0.3-0.1-0.4-0.1-0.7c-0.1-0.1-0.1-0.1-0.1-0.2
				c0-0.2-0.1-0.4-0.1-0.7c-0.1,0-0.1-0.1-0.1-0.1c-0.1-0.3-0.1-0.5-0.2-0.8c0-0.1,0-0.1,0-0.1c-0.1-0.2-0.1-0.5-0.2-0.7
				c0-0.1,0-0.1,0-0.1c0-0.3-0.1-0.5-0.1-0.7c0-0.1,0-0.1,0-0.1c-0.1-0.3-0.1-0.5-0.2-0.8c0,0,0,0,0-0.1
				c-7.8-40.9,1.1-80.4,17.1-115.3c0.1-0.3,0.2-0.4,0.3-0.6c0-0.1,0.1-0.1,0.1-0.1c0.1-0.2,0.1-0.4,0.2-0.6c0,0,0.1-0.1,0.1-0.1
				c0.1-0.2,0.2-0.4,0.2-0.5c0.1-0.1,0.1-0.2,0.1-0.3c0-0.1,0.1-0.3,0.2-0.4c0.1-0.1,0.1-0.2,0.2-0.3c0.1-0.1,0.1-0.3,0.2-0.4
				c0-0.1,0.1-0.2,0.1-0.3c0.1-0.2,0.1-0.3,0.2-0.4c0.1-0.1,0.1-0.2,0.2-0.4c0.1-0.1,0.1-0.2,0.1-0.3c0.1-0.2,0.2-0.4,0.2-0.5
				c0.1-0.1,0.1-0.1,0.1-0.3c0.1-0.2,0.1-0.3,0.2-0.5c0.1-0.1,0.1-0.1,0.1-0.2c0.1-0.3,0.2-0.4,0.3-0.6c0-0.1,0-0.1,0-0.1
				c0.1-0.2,0.2-0.4,0.4-0.6l0.1-0.1c3.1-6.3,6.5-12.5,10-18.5C321.1,325.4,299.8,355.2,283.6,385.2"/>
		</defs>
		<clipPath id="SVGID_00000005981641161321615790000015918970910594195607_">
			<use xlink:href="#SVGID_1_"  style="overflow:visible;"/>
		</clipPath>
		
			<linearGradient id="SVGID_00000074442609915318188870000004069532886504588944_" gradientUnits="userSpaceOnUse" x1="589.0334" y1="1480.0188" x2="651.1262" y2="1480.0188" gradientTransform="matrix(6.1954 0 0 6.1954 -3430.9424 -8693.3623)">
			<stop  offset="0" style="stop-color:#272764"/>
			<stop  offset="1" style="stop-color:#95D9F2"/>
		</linearGradient>
		
			<rect x="283.6" y="298" style="clip-path:url(#SVGID_00000005981641161321615790000015918970910594195607_);fill:url(#SVGID_00000074442609915318188870000004069532886504588944_);" width="319.5" height="355.9"/>
	</g>
	<g>
		<defs>
			<path id="SVGID_00000168824761682912014910000014240669835559686539_" d="M264.7,531.8c20.7,41.4,47.3,68.7,73.8,86.7
				c9.4,1.9,18.7,3.2,27.9,4.1c0.1,0,0.1,0.1,0.1,0.1c0.3,0,0.5,0,0.8,0.1c0.1,0,0.2,0,0.2,0c0.2,0.1,0.4,0.1,0.6,0.1
				c0.1,0,0.2,0,0.4,0.1c0.1,0,0.4,0,0.6,0c0.1,0.1,0.2,0.1,0.3,0.1c0.2,0,0.4,0,0.4,0c0.2,0,0.4,0,0.6,0c0.1,0.1,0.1,0.1,0.2,0.1
				c0.2,0,0.4,0,0.7,0.1c0.1,0,0.1,0,0.2,0c0.2,0,0.5,0.1,0.7,0.1c0.1,0,0.1,0,0.2,0c0.2,0,0.4,0.1,0.7,0.1c0.1,0,0.1,0,0.1,0
				c0.2,0.1,0.5,0.1,0.8,0.1c0.2,0,0.6,0.1,0.9,0.1c6.7,0.4,13.3,0.6,19.7,0.6c52,0,94.3-12.2,94.7-12.3c-0.5-0.1-0.9-0.3-1.4-0.4
				c-0.1,0-0.2-0.1-0.3-0.1c-0.4-0.1-0.9-0.2-1.3-0.3c-0.4-0.2-0.9-0.3-1.3-0.4c-0.1-0.1-0.2-0.1-0.4-0.1c-0.4-0.1-0.8-0.3-1.2-0.3
				c-0.1,0-0.1,0-0.1,0c-0.4-0.1-0.9-0.3-1.4-0.4c-0.1,0-0.2-0.1-0.2-0.1c-0.4-0.1-0.8-0.2-1.2-0.3c-0.1-0.1-0.1-0.1-0.1-0.1
				c-0.4-0.1-0.9-0.3-1.2-0.4c-0.1,0-0.2,0-0.3-0.1c-0.4-0.1-0.7-0.3-1.2-0.3c-0.1-0.1-0.1-0.1-0.1-0.1c-0.4-0.1-0.9-0.3-1.2-0.4
				c-0.1,0-0.2-0.1-0.4-0.1c-0.3-0.1-0.7-0.2-1.1-0.3c-0.1,0-0.1-0.1-0.2-0.1c-0.4-0.1-0.8-0.3-1.2-0.4c-0.1-0.1-0.2-0.1-0.4-0.1
				c-0.3-0.1-0.6-0.2-1.1-0.3c-0.1,0-0.1-0.1-0.1-0.1c-0.5-0.1-0.9-0.3-1.2-0.4c-0.1,0-0.2,0-0.4,0l-1-0.4c-0.1-0.1-0.2-0.1-0.2-0.1
				c-0.4-0.1-0.9-0.2-1.2-0.4c-0.1,0-0.2-0.1-0.3-0.1c-0.3-0.1-0.7-0.3-1-0.3c-0.1,0-0.2-0.1-0.2-0.1c-0.4-0.2-0.8-0.3-1.2-0.4
				c-0.1,0-0.2-0.1-0.3-0.1c-0.3-0.1-0.7-0.3-0.9-0.4c-0.1-0.1-0.2-0.1-0.4-0.1c-0.4-0.1-0.7-0.3-1.1-0.4c-0.1,0-0.2-0.1-0.4-0.1
				c-0.2-0.1-0.6-0.2-0.9-0.3c-0.1-0.1-0.2-0.1-0.3-0.1c-0.4-0.1-0.7-0.3-1.2-0.4c-0.1-0.1-0.2-0.1-0.2-0.1
				c-0.3-0.1-0.6-0.2-0.9-0.3c-0.1,0-0.2-0.1-0.4-0.1c-0.4-0.1-0.8-0.3-1.1-0.4c-0.1,0-0.2-0.1-0.2-0.1c-0.4-0.1-0.7-0.3-1-0.4
				c-0.1,0-0.2-0.1-0.3-0.1c-0.3-0.1-0.7-0.3-1.1-0.4c-0.1,0-0.2-0.1-0.2-0.1c-0.3-0.1-0.6-0.1-0.9-0.3c-0.1,0-0.2-0.1-0.3-0.1
				c-0.4-0.1-0.7-0.3-1.1-0.4c-0.1-0.1-0.2-0.1-0.3-0.1c-0.3-0.1-0.6-0.2-0.9-0.3c-0.1-0.1-0.2-0.1-0.3-0.1
				c-0.4-0.1-0.7-0.3-1.1-0.4c-0.1,0-0.1,0-0.1,0c-0.4-0.2-0.7-0.3-1.1-0.4c-0.1,0-0.1-0.1-0.2-0.1c-0.4-0.2-0.7-0.4-1.1-0.5
				c-0.1,0-0.1,0-0.1,0c-0.3-0.1-0.7-0.3-1.1-0.4c-0.1-0.1-0.2-0.1-0.3-0.1c-0.3-0.1-0.7-0.3-1.1-0.4c0,0-0.1,0-0.1-0.1
				c-0.3-0.1-0.7-0.2-1-0.4c-0.1,0-0.2-0.1-0.3-0.1c-0.3-0.1-0.7-0.3-0.9-0.4c-0.1-0.1-0.2-0.1-0.3-0.1c-0.3-0.1-0.6-0.2-0.9-0.4
				c-0.1-0.1-0.2-0.1-0.4-0.1c-0.2-0.1-0.6-0.3-0.9-0.4c-0.1-0.1-0.2-0.1-0.2-0.1c-0.4-0.1-0.6-0.3-1-0.4c-0.1-0.1-0.2-0.1-0.3-0.2
				c-0.3-0.1-0.6-0.3-0.9-0.3c0-0.1-0.1-0.1-0.2-0.1c-0.4-0.1-0.7-0.3-1-0.4c-0.1,0-0.2-0.1-0.4-0.1c-0.2-0.1-0.6-0.3-0.7-0.4
				c-0.1-0.1-0.2-0.1-0.4-0.1c-0.2-0.1-0.6-0.3-0.9-0.4c-0.1-0.1-0.3-0.1-0.4-0.1c-0.2-0.1-0.5-0.2-0.7-0.3
				c-0.2-0.1-0.3-0.2-0.4-0.2c-0.3-0.1-0.6-0.3-0.9-0.4c-0.1-0.1-0.2-0.1-0.4-0.2c-0.2-0.1-0.4-0.1-0.7-0.3c-0.1,0-0.2-0.1-0.3-0.2
				c-0.4-0.1-0.7-0.2-1-0.4c-0.1-0.1-0.2-0.1-0.4-0.2c-0.2-0.1-0.5-0.2-0.7-0.3c-0.1-0.1-0.2-0.1-0.3-0.1c-0.2-0.1-0.6-0.3-0.9-0.4
				c-0.1-0.1-0.2-0.1-0.4-0.2c-0.2-0.1-0.4-0.2-0.7-0.3c-0.1-0.1-0.2-0.1-0.3-0.2c-0.3-0.1-0.7-0.3-0.9-0.4
				c-0.1-0.1-0.2-0.1-0.4-0.1c-0.2-0.1-0.5-0.2-0.7-0.4c-0.1-0.1-0.2-0.1-0.4-0.1c-0.3-0.2-0.6-0.3-0.9-0.4
				c-0.1-0.1-0.2-0.1-0.3-0.2c-0.3-0.1-0.5-0.2-0.7-0.3c-0.2-0.1-0.3-0.1-0.4-0.2c-0.2-0.2-0.6-0.3-0.9-0.4
				c-0.1-0.1-0.2-0.1-0.3-0.2c-0.2-0.1-0.5-0.2-0.7-0.3c-0.1-0.1-0.2-0.1-0.4-0.2c-0.3-0.2-0.6-0.3-0.9-0.4
				c-0.1-0.1-0.2-0.1-0.3-0.2c-0.2-0.1-0.5-0.2-0.7-0.3c-0.1-0.1-0.2-0.1-0.4-0.2c-0.2-0.2-0.5-0.3-0.8-0.4
				c-0.1-0.1-0.2-0.1-0.3-0.2c-0.2-0.1-0.5-0.2-0.6-0.3c-0.1-0.1-0.3-0.1-0.5-0.2c-0.2-0.1-0.6-0.3-0.8-0.4
				c-0.1-0.1-0.2-0.1-0.3-0.2c-0.2-0.1-0.4-0.1-0.6-0.3c-0.1-0.1-0.2-0.1-0.4-0.2c-0.2-0.1-0.6-0.3-0.9-0.4
				c-0.1-0.1-0.2-0.1-0.3-0.2c-0.2-0.1-0.4-0.2-0.6-0.3c-0.1-0.1-0.2-0.1-0.4-0.2c-0.2-0.1-0.6-0.3-0.8-0.4
				c-0.1-0.1-0.2-0.1-0.3-0.1c-0.2-0.1-0.4-0.3-0.6-0.4c-0.1-0.1-0.2-0.1-0.4-0.3c-0.2-0.1-0.4-0.2-0.7-0.4
				c-0.1-0.1-0.2-0.1-0.3-0.2c-0.2-0.1-0.4-0.3-0.6-0.4c-0.2-0.1-0.2-0.1-0.4-0.3c-0.2-0.1-0.4-0.2-0.6-0.3
				c-0.2-0.1-0.3-0.2-0.4-0.3c-0.2-0.1-0.4-0.2-0.6-0.4c-0.1-0.1-0.3-0.1-0.4-0.2c-0.2-0.1-0.4-0.2-0.6-0.3
				c-0.2-0.1-0.4-0.3-0.6-0.3c-0.2-0.1-0.4-0.3-0.6-0.4c-0.1-0.1-0.3-0.1-0.4-0.2c-0.2-0.1-0.4-0.3-0.6-0.4
				c-0.1-0.1-0.3-0.1-0.5-0.3c-0.2-0.1-0.4-0.3-0.6-0.4c-0.1-0.1-0.2-0.1-0.4-0.2c-0.2-0.1-0.3-0.2-0.5-0.4
				c-0.2-0.1-0.4-0.2-0.6-0.3c-0.2-0.1-0.4-0.2-0.5-0.3c-0.2-0.1-0.4-0.2-0.5-0.3c-0.1-0.1-0.2-0.1-0.4-0.2
				c-0.2-0.1-0.4-0.3-0.7-0.4c-0.1-0.1-0.3-0.2-0.5-0.3c-0.1-0.1-0.3-0.3-0.4-0.3c-0.2-0.1-0.2-0.2-0.4-0.3
				c-0.2-0.1-0.4-0.3-0.6-0.4c-0.2-0.1-0.3-0.2-0.5-0.3c-0.1-0.1-0.2-0.3-0.4-0.3c-0.1-0.1-0.3-0.1-0.4-0.3
				c-0.2-0.1-0.4-0.3-0.6-0.4c-0.2-0.1-0.4-0.2-0.6-0.3c-0.1-0.1-0.2-0.2-0.4-0.3c-0.1-0.1-0.2-0.1-0.3-0.3
				c-0.3-0.1-0.5-0.2-0.7-0.4c-0.1-0.1-0.2-0.2-0.4-0.3c-0.2-0.1-0.3-0.2-0.5-0.3c-0.1-0.1-0.2-0.1-0.3-0.2
				c-0.6-0.3-1.1-0.6-1.7-1.1c-0.1-0.1-0.1-0.1-0.2-0.1c-0.6-0.4-1.1-0.7-1.6-1.1c-0.1-0.1-0.2-0.1-0.3-0.1
				c-0.2-0.1-0.3-0.3-0.5-0.4c0-0.1,0-0.1-0.1-0.1c-0.3-0.2-0.7-0.4-1.1-0.7c-0.1-0.1-0.2-0.1-0.2-0.2c-0.6-0.4-1.1-0.8-1.6-1.1
				c-0.1-0.1-0.1-0.1-0.2-0.2c-0.2-0.1-0.4-0.2-0.5-0.3c-0.1-0.1-0.1-0.1-0.1-0.1c-0.4-0.2-0.7-0.4-0.9-0.7
				c-0.1-0.1-0.2-0.1-0.3-0.1c-0.2-0.1-0.3-0.3-0.5-0.4v-0.1c-0.4-0.2-0.7-0.4-1-0.7c-0.1-0.1-0.2-0.1-0.3-0.2
				c-0.2-0.1-0.2-0.3-0.4-0.4c-0.1,0-0.2-0.1-0.2-0.1c-0.2-0.3-0.6-0.4-0.9-0.6c-0.1-0.1-0.1-0.1-0.2-0.2c-0.1-0.1-0.3-0.3-0.5-0.4
				c-0.1-0.1-0.1-0.1-0.2-0.1c-0.2-0.2-0.6-0.4-0.9-0.7c-0.1-0.1-0.2-0.1-0.2-0.1c-0.2-0.1-0.3-0.3-0.5-0.4
				c-0.1-0.1-0.1-0.1-0.2-0.2c-0.3-0.2-0.6-0.4-0.9-0.6c-0.1,0-0.2-0.1-0.2-0.1c-0.2-0.1-0.4-0.3-0.6-0.4v-0.1
				c-0.4-0.3-0.6-0.5-1-0.8c-0.1,0-0.1-0.1-0.1-0.1c-0.2-0.1-0.4-0.2-0.5-0.3c-0.1-0.1-0.1-0.1-0.1-0.2c-0.4-0.2-0.7-0.4-1-0.7
				c-0.1,0-0.1,0-0.1,0c-0.2-0.2-0.4-0.3-0.6-0.4c0-0.1,0-0.1-0.1-0.1c-0.5-0.4-1.1-0.8-1.6-1.2c-0.1,0-0.1,0-0.1-0.1
				c-0.6-0.4-1.1-0.9-1.7-1.3c0,0,0,0,0-0.1c-0.4-0.3-0.7-0.6-1.1-0.8c-0.1-0.2-0.4-0.3-0.5-0.4c-0.1,0-0.1-0.1-0.1-0.1
				c-0.6-0.4-1.1-0.9-1.6-1.3c-0.1-0.1-0.1-0.1-0.1-0.1c-0.5-0.4-1-0.9-1.5-1.3c0,0,0,0-0.1-0.1c-1-0.9-2-1.8-3-2.7h-0.1
				c-0.5-0.5-1.1-0.9-1.6-1.4c-0.5-0.5-1-0.9-1.4-1.4c-0.1,0-0.1,0-0.1-0.1c-42-39.3-59.9-85.2-66.7-124.4v-0.1
				c-0.1-0.4-0.2-0.9-0.2-1.3c0,0,0,0,0-0.1c-0.1-0.4-0.2-0.9-0.2-1.2c0-0.1,0-0.1-0.1-0.2c0-0.2,0-0.3,0-0.4v-0.1
				c0-0.2-0.1-0.6-0.1-0.8c0,0,0,0,0-0.1c-0.1-0.1-0.1-0.3-0.1-0.4c-0.1-0.1-0.1-0.1-0.1-0.2c0-0.2-0.1-0.4-0.1-0.5
				c0-0.1,0-0.2,0-0.4c-0.1-0.1-0.1-0.1-0.1-0.2c-0.1-0.2-0.1-0.4-0.1-0.5c-0.1-0.1-0.1-0.1-0.1-0.2c0-0.2-0.1-0.4-0.1-0.5
				c0-0.1,0-0.1,0-0.1c0-0.2,0-0.4-0.1-0.6c0-0.1,0-0.1,0-0.2c-0.1-0.1-0.1-0.3-0.1-0.5c0-0.1,0-0.1,0-0.1c-0.1-0.4-0.1-0.8-0.2-1.2
				v-0.1c-1-7.7-1.6-15-1.9-21.9C255.8,436.4,243.1,488.6,264.7,531.8"/>
		</defs>
		<clipPath id="SVGID_00000047774669823888553050000002238097299036137377_">
			<use xlink:href="#SVGID_00000168824761682912014910000014240669835559686539_"  style="overflow:visible;"/>
		</clipPath>
		<g style="clip-path:url(#SVGID_00000047774669823888553050000002238097299036137377_);">
			<defs>
				<rect id="SVGID_00000058583373602700735480000011982338687547987098_" x="236" y="379.7" width="258.4" height="250.8"/>
			</defs>
			<clipPath id="SVGID_00000042016011761150468120000002042257549272543141_">
				<use xlink:href="#SVGID_00000058583373602700735480000011982338687547987098_"  style="overflow:visible;"/>
			</clipPath>
			<g transform="matrix(1 0 0 1 0 0)" style="clip-path:url(#SVGID_00000042016011761150468120000002042257549272543141_);">
				
					<image style="overflow:visible;" width="68" height="66" xlink:href="84540A8392001693.jpg"  transform="matrix(3.8005 0 0 -3.8005 235.9755 630.4943)">
				</image>
			</g>
		</g>
	</g>
	<g>
		<defs>
			<path id="SVGID_00000183213505271763089970000002056348433329842085_" d="M449.9,652.6L449.9,652.6L449.9,652.6z M332.9,178.6
				C395.6,116.4,451,54.1,487.2,54.1c3.9,0,7.6,0.7,11.1,2.3c65.9,29.2-22.7,112.7-51.2,134.2c-28.5,21.5-255,204.2-190.5,341.2
				c43,91.3,128.9,112.8,128.9,112.8s-257.7-16.1-282-346.5c10.2,3.4,20.4,5,30.9,5C200.1,303.1,270.2,240.9,332.9,178.6 M151.9,290
				C84.4,306.9,36.6,233.5,13.8,187.6c0-0.1,0-0.1-0.1-0.2c-0.5-0.9-0.9-1.8-1.3-2.7c-0.1-0.1-0.1-0.3-0.2-0.4c-0.7-1.4-1.3-2.8-2-4
				c-2.2-4.8-4.2-9.2-5.8-13c-0.1-0.3-0.2-0.5-0.3-0.8c-0.1-0.2-0.2-0.4-0.3-0.6c-0.2-0.7-0.5-1.2-0.7-1.8c-0.1-0.5-0.3-0.8-0.5-1.2
				c-0.2-0.6-0.4-1.1-0.6-1.5c-0.9-2.1-1.6-3.7-2-5.1v24.8c18.3,325.1,186,428.5,311.3,460c0.1,0,0.1,0,0.2,0
				c0.2,0.1,0.4,0.1,0.7,0.2c0.1,0.1,0.1,0.1,0.1,0.1c0.2,0,0.3,0,0.5,0.1c0.1,0,0.1,0.1,0.2,0.1c0.2,0.1,0.4,0.1,0.6,0.2
				c0.1,0,0.2,0.1,0.2,0.1c0.1,0.1,0.2,0.1,0.4,0.1c0.4,0.1,0.9,0.1,1.4,0.3c0,0,0,0.1,0.1,0.1c6.1,1.4,12.2,2.7,18,3.9
				c0.1,0,0.1,0,0.1,0c0.2,0.1,0.6,0.1,0.8,0.2c0.1,0,0.1,0,0.1,0c0.3,0.1,0.6,0.1,0.9,0.1c0.1,0,0.1,0.1,0.2,0.1
				c0.2,0.1,0.5,0.1,0.7,0.2c0.1,0,0.1,0,0.2,0c0.2,0.1,0.5,0.1,0.7,0.2c0.1,0,0.1,0,0.1,0c1.1,0.2,2.2,0.4,3.2,0.6
				c0.1,0,0.1,0,0.1,0c0.3,0.1,0.6,0.1,0.9,0.1c0.2,0.1,0.6,0.1,0.8,0.1c0.1,0,0.1,0.1,0.1,0.1c0.6,0.1,1.1,0.2,1.6,0.3
				c0.1,0,0.2,0,0.2,0c0.1,0.1,0.2,0.1,0.4,0.1c0.1,0,0.2,0,0.2,0c0.2,0.1,0.4,0.1,0.6,0.1c0.1,0.1,0.3,0.1,0.4,0.1
				c0.1,0.1,0.2,0.1,0.4,0.1c0.2,0,0.2,0.1,0.4,0.1c0.1,0,0.3,0.1,0.4,0.1c0.2,0,0.4,0,0.5,0.1c0.1,0,0.2,0,0.4,0.1
				c0.1,0,0.2,0,0.4,0.1c0.2,0,0.4,0.1,0.6,0.1c0.1,0,0.2,0,0.3,0c0.1,0.1,0.2,0.1,0.4,0.1c0.2,0.1,0.4,0.1,0.6,0.1
				c0.1,0,0.2,0,0.3,0.1c0.2,0,0.4,0.1,0.6,0.1c0.1,0,0.2,0,0.3,0c0.1,0,0.2,0.1,0.4,0.1c0.2,0.1,0.3,0.1,0.4,0.1
				c0.1,0,0.2,0,0.3,0.1c0.2,0,0.4,0,0.5,0.1c0.1,0,0.3,0,0.4,0.1c0.1,0,0.2,0,0.4,0.1c0.2,0,0.4,0.1,0.5,0.1c0.1,0,0.2,0,0.2,0.1
				c0.2,0,0.4,0,0.6,0c0.2,0,0.2,0.1,0.3,0.1c0.2,0,0.4,0.1,0.6,0.1c0.1,0.1,0.2,0.1,0.4,0.1c0.1,0.1,0.3,0.1,0.5,0.1
				c0.1,0,0.2,0,0.2,0c0.2,0.1,0.4,0.1,0.6,0.1c0.1,0,0.1,0,0.2,0c0.2,0.1,0.4,0.1,0.6,0.1c0.1,0,0.1,0,0.2,0
				c0.2,0.1,0.4,0.1,0.6,0.1c0.1,0,0.1,0,0.1,0c0.3,0,0.5,0.1,0.7,0.1c0.1,0,0.1,0,0.1,0c0.2,0,0.5,0.1,0.7,0.1
				c0.3,0,0.5,0.1,0.8,0.1h0.1c0.2,0,0.5,0.1,0.7,0.1c0.1,0,0.1,0.1,0.1,0.1c0.3,0,0.5,0,0.8,0h0.1c1.1,0.2,2,0.3,3.1,0.4h0.1
				c12.7,1.5,24.4,2.3,34.6,2.7h29.7c11.2-0.4,17.8-1.3,18.4-1.4c-0.2,0-1.7,0.1-4.2,0.1h-0.3h-0.2c-12.7-0.1-48.2-2.3-87.2-22.6
				c-0.4-0.2-0.7-0.4-1.1-0.6c-0.1,0-0.1-0.1-0.1-0.1c-0.1-0.1-0.2-0.1-0.3-0.2c-0.1,0-0.1-0.1-0.2-0.1c-0.1-0.1-0.1-0.1-0.2-0.1
				c-0.1-0.1-0.2-0.1-0.2-0.2c-0.2-0.1-0.4-0.2-0.5-0.3c-0.1,0-0.1-0.1-0.1-0.1c-0.1,0-0.2-0.1-0.3-0.1c-0.1-0.1-0.1-0.1-0.2-0.1
				c-0.1-0.1-0.2-0.1-0.3-0.1c-0.1-0.1-0.1-0.1-0.2-0.2c-0.1-0.1-0.1-0.1-0.2-0.1c-0.2-0.1-0.3-0.2-0.4-0.3c-0.1,0-0.1-0.1-0.2-0.1
				c-0.1-0.1-0.2-0.2-0.4-0.2c-0.1,0-0.1-0.1-0.1-0.1c-0.2-0.1-0.3-0.2-0.4-0.3c-0.1-0.1-0.1-0.1-0.1-0.1c-0.6-0.3-1.1-0.6-1.6-0.9
				c-29.1-16.8-59.4-44.1-83-88.5c-0.1-0.2-0.2-0.6-0.4-0.9c-0.3-0.6-0.7-1.2-1-1.8c0-0.1,0-0.1-0.1-0.1c-0.3-0.6-0.6-1.2-0.9-1.7
				c0-0.1-0.1-0.2-0.1-0.3c-0.1-0.2-0.3-0.6-0.4-0.8c-0.1-0.3-0.2-0.5-0.3-0.7c-0.1-0.1-0.1-0.2-0.1-0.3c-0.1-0.2-0.2-0.4-0.2-0.6
				c0,0-0.1,0-0.1-0.1c-0.1-0.2-0.2-0.4-0.3-0.6c-0.1-0.1-0.1-0.1-0.1-0.2c-0.1-0.2-0.1-0.4-0.2-0.6c0-0.1-0.1-0.1-0.1-0.2
				c-0.1-0.2-0.2-0.4-0.2-0.6c0-0.1-0.1-0.2-0.1-0.2c-0.1-0.2-0.1-0.4-0.2-0.5c-0.1-0.1-0.1-0.2-0.2-0.3c0-0.2-0.1-0.3-0.2-0.5
				c0-0.1-0.1-0.2-0.1-0.3c-0.1-0.1-0.1-0.2-0.2-0.4c-0.1-0.1-0.1-0.3-0.1-0.4c-0.1-0.1-0.1-0.3-0.2-0.4c-0.1-0.1-0.1-0.3-0.2-0.4
				c0-0.1-0.1-0.2-0.1-0.3c0-0.3-0.1-0.4-0.2-0.7c-0.1-0.1-0.1-0.1-0.1-0.3c-0.1-0.1-0.1-0.3-0.2-0.4c0-0.1-0.1-0.2-0.1-0.3
				c-0.1-0.2-0.2-0.5-0.2-0.7c-0.1-0.1-0.1-0.1-0.1-0.3c-0.1-0.1-0.1-0.2-0.2-0.4c0-0.1,0-0.1-0.1-0.2c0-0.3-0.1-0.6-0.2-0.8
				l-0.1-0.1c-0.1-0.2-0.1-0.4-0.2-0.4c0-0.1,0-0.1,0-0.2c-0.2-0.5-0.3-1-0.5-1.4c0-0.1-0.1-0.1-0.1-0.1c-0.1-0.5-0.3-1.1-0.4-1.6
				c-0.1,0-0.1,0-0.1,0c-15.3-49.2,7.7-107.9,43.8-163.1c0,0,0,0,0.1,0c0.1-0.1,0.2-0.4,0.3-0.6c0.1-0.1,0.1-0.1,0.2-0.2
				c0.1-0.3,0.2-0.4,0.3-0.6c0.1-0.1,0.2-0.3,0.3-0.4c0.1-0.1,0.1-0.2,0.2-0.3c0.1-0.3,0.3-0.6,0.5-0.9c0,0,0-0.1,0.1-0.1
				c0.1-0.2,0.3-0.5,0.5-0.7c0-0.1,0-0.1,0.1-0.1c11.9-17.8,25.1-35.3,38.9-51.8c4.3-5.2,8.6-10.3,13-15.3c0.2-0.3,0.4-0.5,0.6-0.8
				l0.1-0.1c0.2-0.3,0.4-0.4,0.6-0.7c0.1-0.1,0.1-0.1,0.2-0.2c0.2-0.2,0.3-0.4,0.5-0.6c0.1-0.1,0.1-0.2,0.2-0.3
				c0.1-0.2,0.2-0.3,0.4-0.4c0.1-0.1,0.2-0.3,0.3-0.4c0.1-0.1,0.2-0.3,0.3-0.4c0.1-0.1,0.2-0.3,0.3-0.4c0.1-0.1,0.2-0.1,0.3-0.3
				c0.2-0.2,0.2-0.3,0.4-0.5c0.1-0.1,0.1-0.1,0.2-0.2c47.8-54.2,96.8-96.1,111.8-107.6c0.1-0.1,0.1-0.1,0.2-0.1c0,0,0,0,0-0.1
				c0.1,0,0.1-0.1,0.2-0.1c0.1,0,0.1,0,0.1,0c0.1-0.1,0.1-0.1,0.2-0.1c0-0.1,0.1-0.1,0.1-0.1c0.1,0,0.1,0,0.1-0.1
				c0.1,0,0.1-0.1,0.1-0.1c0.1,0,0.2-0.1,0.2-0.1c21.4-16.1,53.6-50,53.7-80.5c0-15.2-8-29.6-29.6-40.4c-3.8-2-8.2-2.9-12.9-2.9
				C411.8,45.6,242.8,267.4,151.9,290"/>
		</defs>
		<clipPath id="SVGID_00000001631175323608564080000009023137042036587148_">
			<use xlink:href="#SVGID_00000183213505271763089970000002056348433329842085_"  style="overflow:visible;"/>
		</clipPath>
		
			<linearGradient id="SVGID_00000096748355542094316720000011968902940829693853_" gradientUnits="userSpaceOnUse" x1="532.3162" y1="1278.4865" x2="594.4091" y2="1278.4865" gradientTransform="matrix(1.7294 -9.8076 9.8076 1.7294 -13226.5078 3638.2007)">
			<stop  offset="0" style="stop-color:#394CA0"/>
			<stop  offset="0.2382" style="stop-color:#5890C7"/>
			<stop  offset="0.4721" style="stop-color:#75CFEB"/>
			<stop  offset="0.5696" style="stop-color:#72CCEA"/>
			<stop  offset="0.6455" style="stop-color:#68C3E6"/>
			<stop  offset="0.7142" style="stop-color:#58B4DF"/>
			<stop  offset="0.7782" style="stop-color:#409ED6"/>
			<stop  offset="0.7905" style="stop-color:#3B99D4"/>
			<stop  offset="0.8373" style="stop-color:#3B95D1"/>
			<stop  offset="0.8887" style="stop-color:#3B87C8"/>
			<stop  offset="0.9424" style="stop-color:#3B71B9"/>
			<stop  offset="0.9973" style="stop-color:#3B53A4"/>
			<stop  offset="1" style="stop-color:#3B51A3"/>
		</linearGradient>
		
			<polygon style="clip-path:url(#SVGID_00000001631175323608564080000009023137042036587148_);fill:url(#SVGID_00000096748355542094316720000011968902940829693853_);" points="
			547.2,750.5 668.3,63.9 17,-51 -104.1,635.6 		"/>
	</g>
	<g>
		<defs>
			<line id="SVGID_00000162331028376264072810000015024409690203916447_" x1="103.6" y1="298.1" x2="103.6" y2="298.1"/>
		</defs>
		<clipPath id="SVGID_00000068654155509780160450000012391400582649964442_">
			<use xlink:href="#SVGID_00000162331028376264072810000015024409690203916447_"  style="overflow:visible;"/>
		</clipPath>
		<g style="clip-path:url(#SVGID_00000068654155509780160450000012391400582649964442_);">
			<defs>
				<path id="SVGID_00000079468587119990324790000003432665490634502037_" d="M332.9,178.6c-72.6,72.1-155.2,144.2-229.3,119.5
					c24.2,330.3,282,346.4,282,346.4s-85.9-21.4-128.9-112.8c-64.5-137,162-319.7,190.5-341.1s117-104.9,51.2-134.2
					c-3.5-1.6-7.2-2.3-11.1-2.3C451,54.1,395.6,116.4,332.9,178.6"/>
			</defs>
			<clipPath id="SVGID_00000177465427865644610800000012262846024758994823_">
				<use xlink:href="#SVGID_00000079468587119990324790000003432665490634502037_"  style="overflow:visible;"/>
			</clipPath>
			<g style="clip-path:url(#SVGID_00000177465427865644610800000012262846024758994823_);">
				<defs>
					<rect id="SVGID_00000177468414683601196710000013103523120605098906_" x="99.2" y="292.3" width="292.6" height="357.2"/>
				</defs>
				<clipPath id="SVGID_00000069373829112087862870000009517616378063838349_">
					<use xlink:href="#SVGID_00000177468414683601196710000013103523120605098906_"  style="overflow:visible;"/>
				</clipPath>
				<g style="clip-path:url(#SVGID_00000069373829112087862870000009517616378063838349_);">
					<defs>
						<rect id="SVGID_00000044146467440473970950000016663761530268288912_" x="99.2" y="292.3" width="292.6" height="357.3"/>
					</defs>
					<clipPath id="SVGID_00000149380968324825017900000014246966680174209171_">
						<use xlink:href="#SVGID_00000044146467440473970950000016663761530268288912_"  style="overflow:visible;"/>
					</clipPath>
					<g style="clip-path:url(#SVGID_00000149380968324825017900000014246966680174209171_);">
						<defs>
							<rect id="SVGID_00000031891870595581285220000005842112425462544804_" x="99.2" y="292.3" width="292.6" height="357.3"/>
						</defs>
						<clipPath id="SVGID_00000101092681382980071710000002774429745934507170_">
							<use xlink:href="#SVGID_00000031891870595581285220000005842112425462544804_"  style="overflow:visible;"/>
						</clipPath>
						<g style="clip-path:url(#SVGID_00000101092681382980071710000002774429745934507170_);">
							<defs>
								<rect id="SVGID_00000015344316465381596650000009630881087030378912_" x="99.2" y="292.2" width="292.6" height="357.3"/>
							</defs>
							<clipPath id="SVGID_00000126300387795944617820000004600026049697398155_">
								<use xlink:href="#SVGID_00000015344316465381596650000009630881087030378912_"  style="overflow:visible;"/>
							</clipPath>
							<g transform="matrix(1 0 0 1 0 0)" style="clip-path:url(#SVGID_00000126300387795944617820000004600026049697398155_);">
								
									<image style="overflow:visible;" width="77" height="94" xlink:href="84540A8392001691.jpg"  transform="matrix(3.8005 0 0 -3.8005 99.1559 649.4966)">
								</image>
							</g>
						</g>
					</g>
				</g>
			</g>
		</g>
	</g>
	<g>
		<defs>
			<path id="SVGID_00000139289822811253941980000004236099969961479086_" d="M332.9,178.6c-70.2,69.6-149.6,139.2-221.7,121.7
				c-2.5-0.6-5.1-1.4-7.6-2.2c24.2,330.3,282,346.5,282,346.5s-85.9-21.5-128.9-112.8c-7.9-16.9-11.5-34.5-11.5-52.3
				c-0.2-127.2,177-270.1,202-288.9c21.1-15.9,75.1-65.8,75.1-102.5c-0.1-12.9-6.8-24.1-23.9-31.7c-3.4-1.6-7.1-2.3-11.1-2.3
				C451,54.1,395.6,116.4,332.9,178.6"/>
		</defs>
		<clipPath id="SVGID_00000053538405863613460960000000767169423700034188_">
			<use xlink:href="#SVGID_00000139289822811253941980000004236099969961479086_"  style="overflow:visible;"/>
		</clipPath>
		<g style="clip-path:url(#SVGID_00000053538405863613460960000000767169423700034188_);">
			<defs>
				<rect id="SVGID_00000008117509868311273210000014827949050979002787_" x="99.2" y="49" width="433.3" height="600.5"/>
			</defs>
			<clipPath id="SVGID_00000040560060723124967330000000665943644062678201_">
				<use xlink:href="#SVGID_00000008117509868311273210000014827949050979002787_"  style="overflow:visible;"/>
			</clipPath>
			<g style="clip-path:url(#SVGID_00000040560060723124967330000000665943644062678201_);">
				
					<image style="overflow:visible;" width="114" height="158" xlink:href="84540A8392001697.jpg"  transform="matrix(3.8005 0 0 -3.8005 99.1558 649.4966)">
				</image>
			</g>
		</g>
	</g>
	<g>
		<defs>
			<path id="SVGID_00000004531152388110945380000013186412889772546184_" d="M35.3,77.7c10.1-29.8,22.7-39.4,33-39.4
				c10.1,0,18,9.3,19.2,18.2c2.5,17.9-32.2,49-27.2,113.7C60.1,169.9,15.3,136.5,35.3,77.7 M23,96.7c-0.4,5.2-0.7,10.2-0.7,15
				c0,77.3,57.1,105.9,57.1,105.9c-4.9-18-6.8-35.3-6.9-51.8c0-58.1,24-104.4,24-127c-0.1-2.5-0.4-4.7-1-6.6
				C92.8,24,84.3,18.5,74.1,18.5C54.5,18.5,28.3,38.5,23,96.7"/>
		</defs>
		<clipPath id="SVGID_00000153696471126876121340000001693979054565685128_">
			<use xlink:href="#SVGID_00000004531152388110945380000013186412889772546184_"  style="overflow:visible;"/>
		</clipPath>
		
			<linearGradient id="SVGID_00000071557397415626189850000013798538019742993814_" gradientUnits="userSpaceOnUse" x1="191.2393" y1="1424.3549" x2="253.3322" y2="1424.3549" gradientTransform="matrix(1.7203 -1.2046 1.2046 1.7203 -2028.1852 -2074.4402)">
			<stop  offset="0" style="stop-color:#394CA0"/>
			<stop  offset="0.2382" style="stop-color:#5890C7"/>
			<stop  offset="0.4721" style="stop-color:#75CFEB"/>
			<stop  offset="1" style="stop-color:#75CFEB"/>
		</linearGradient>
		
			<polygon style="clip-path:url(#SVGID_00000153696471126876121340000001693979054565685128_);fill:url(#SVGID_00000071557397415626189850000013798538019742993814_);" points="
			42,255.7 190,152.1 69.8,-19.7 -78.2,84 		"/>
	</g>
	<g>
		<defs>
			<path id="SVGID_00000155860723098539355100000015453961923825691288_" d="M35.3,77.7c-7.9,23.3-5.7,42.6-0.1,57.4
				c0.1,0.1,0.1,0.3,0.2,0.4c0,0.1,0,0.1,0,0.1c0.1,0.1,0.1,0.3,0.2,0.4l0.1,0.1c0,0.1,0,0.3,0.1,0.4c0,0,0,0,0.1,0.1
				c0.1,0.1,0.1,0.2,0.1,0.3c0.1,0.1,0.1,0.1,0.1,0.1c0.1,0.1,0.1,0.3,0.2,0.4c0.1,0.1,0.1,0.3,0.1,0.4c0.1,0,0.1,0.1,0.1,0.1
				c0.1,0.1,0.1,0.2,0.2,0.3c0,0.1,0,0.1,0,0.1c0.1,0.1,0.1,0.2,0.2,0.3c0,0,0.1,0.1,0.1,0.1c0.1,0.1,0.1,0.2,0.1,0.3
				c0,0.1,0.1,0.1,0.1,0.1c0.1,0.1,0.1,0.3,0.1,0.3c0.1,0.1,0.1,0.1,0.1,0.2c0,0.1,0.1,0.1,0.1,0.3c0,0.1,0,0.1,0.1,0.1
				c0,0.1,0,0.2,0.1,0.3c0,0.1,0.1,0.1,0.1,0.2c0.1,0.1,0.1,0.2,0.1,0.3c0.1,0,0.1,0.1,0.1,0.2c0,0.1,0.1,0.1,0.1,0.2
				c0,0.1,0.1,0.2,0.1,0.2c0,0.1,0,0.1,0.1,0.2c0.1,0.1,0.1,0.2,0.1,0.2c0,0.1,0.1,0.2,0.1,0.2c0.1,0.1,0.1,0.1,0.1,0.3
				c0.1,0.1,0.1,0.1,0.1,0.1c0,0.1,0.1,0.2,0.1,0.3s0.1,0.1,0.1,0.1c0.1,0.1,0.1,0.3,0.2,0.3c0,0,0,0.1,0.1,0.1
				c0,0.1,0.1,0.3,0.1,0.3c0,0.1,0.1,0.1,0.1,0.1c0.1,0.1,0.1,0.2,0.1,0.3c0,0,0,0.1,0.1,0.1c0.1,0.1,0.1,0.3,0.2,0.3c0,0,0,0,0,0.1
				c0.1,0.1,0.1,0.3,0.2,0.4h0.1c0.1,0.1,0.1,0.3,0.1,0.4c8.9,16.5,20.6,25.3,20.7,25.3c-0.3-4.3-0.5-8.5-0.5-12.5
				c-0.1-54.2,27.8-82.3,27.8-99.3c0-0.7,0-1.3-0.1-1.9c-1.2-8.9-9.1-18.2-19.2-18.2C57.9,38.2,45.4,47.9,35.3,77.7"/>
		</defs>
		<clipPath id="SVGID_00000032619269539865798200000016144142261293989509_">
			<use xlink:href="#SVGID_00000155860723098539355100000015453961923825691288_"  style="overflow:visible;"/>
		</clipPath>
		<g style="clip-path:url(#SVGID_00000032619269539865798200000016144142261293989509_);">
			<defs>
				<rect id="SVGID_00000162310938447305368830000012522105426785979036_" x="19.3" y="33.8" width="76" height="140.6"/>
			</defs>
			<clipPath id="SVGID_00000111883376740982172160000007133949017319094458_">
				<use xlink:href="#SVGID_00000162310938447305368830000012522105426785979036_"  style="overflow:visible;"/>
			</clipPath>
			<g style="clip-path:url(#SVGID_00000111883376740982172160000007133949017319094458_);">
				
					<image style="overflow:visible;" width="20" height="37" xlink:href="84540A8392001690.jpg"  transform="matrix(3.8005 0 0 -3.8005 19.3443 174.424)">
				</image>
			</g>
		</g>
	</g>
	<g>
		<defs>
			<path id="SVGID_00000045586373469756859510000011416491339302097556_" d="M119.7,84.6c0-42.1,34-76.3,76-76.5h0.5h0.5
				c42,0.2,68,32.2,59.9,48.3c-2.7,5.4-5.2,7.1-8.8,7.1c-7.3,0-19.5-7.1-47.6-7.1c-32.5,0-62.7,41.7-74.8,41.7
				C121.7,98.2,119.7,94.4,119.7,84.6 M111.6,84.6c0,46.7,37.9,84.6,84.6,84.6c46.7,0,84.6-37.9,84.6-84.6
				c0-46.8-37.9-84.6-84.6-84.6C149.5,0,111.6,37.9,111.6,84.6"/>
		</defs>
		<clipPath id="SVGID_00000147178293696456248250000015492454922782318746_">
			<use xlink:href="#SVGID_00000045586373469756859510000011416491339302097556_"  style="overflow:visible;"/>
		</clipPath>
		
			<linearGradient id="SVGID_00000034776939515749508690000013574387667197209533_" gradientUnits="userSpaceOnUse" x1="918.6884" y1="1447.3203" x2="980.7812" y2="1447.3203" gradientTransform="matrix(-0.3321 2.7046 -2.7046 -0.3321 4426.0103 -2003.396)">
			<stop  offset="0" style="stop-color:#394CA0"/>
			<stop  offset="0.5046" style="stop-color:#5890C7"/>
			<stop  offset="1" style="stop-color:#75CFEB"/>
		</linearGradient>
		
			<polygon style="clip-path:url(#SVGID_00000147178293696456248250000015492454922782318746_);fill:url(#SVGID_00000034776939515749508690000013574387667197209533_);" points="
			114.1,-20.5 91.1,166.7 278.3,189.7 301.3,2.5 		"/>
	</g>
	<g>
		<defs>
			<rect id="SVGID_00000044865487384279687370000014422746843311938741_" x="190.3" y="3.4" width="11.4" height="11.4"/>
		</defs>
		<clipPath id="SVGID_00000040556638572990512100000015271805704619368104_">
			<use xlink:href="#SVGID_00000044865487384279687370000014422746843311938741_"  style="overflow:visible;"/>
		</clipPath>
		<g style="clip-path:url(#SVGID_00000040556638572990512100000015271805704619368104_);">
			<defs>
				<rect id="SVGID_00000168801109429415592070000000519807191547245467_" x="190.4" y="3.4" width="11.4" height="11.4"/>
			</defs>
			<clipPath id="SVGID_00000062908154011675055870000008681172205334192815_">
				<use xlink:href="#SVGID_00000168801109429415592070000000519807191547245467_"  style="overflow:visible;"/>
			</clipPath>
			<g style="clip-path:url(#SVGID_00000062908154011675055870000008681172205334192815_);">
				
					<image style="overflow:visible;" width="3" height="3" xlink:href="84540A839200169E.jpg"  transform="matrix(3.8005 0 0 -3.8005 190.3691 14.8031)">
				</image>
			</g>
		</g>
	</g>
	<g>
		<defs>
			<path id="SVGID_00000162350757892780454450000002865782104227474593_" d="M119.9,78.2L119.9,78.2c0,0.3,0,0.4,0,0.5v0.1
				c0,0.4,0,0.6-0.1,1c0,0.1,0,0.3,0,0.4c0,0.1,0,0.1,0,0.1c-0.1,0.5-0.1,0.9-0.1,1.4c0,0.2-0.1,0.3-0.1,0.4v0.1c0,0.1,0,0.3,0,0.4
				c0,0.1,0,0.1,0,0.1c0,0.1,0,0.3,0,0.4v0.1c0,0.1,0,0.3,0,0.4v0.3v0.7c0,6.8,0.9,10.7,2.8,12.4c0.8,0.7,1.8,1.1,2.9,1.1
				c3.5,0,8.4-3.5,14.6-8.4c14.6-11.7,35.3-31.6,57.4-33.2c0.1,0,0.1,0,0.2,0c0.9-0.1,1.7-0.1,2.6-0.1c38.9,0,47.1,13.7,54.5,3.2
				c0.6-0.9,1.2-1.9,1.9-3.2c3.5-7,0.6-17.1-7.5-26.3c0,0,0,0-0.1,0c-0.1-0.1-0.1-0.2-0.1-0.3c-0.1-0.1-0.2-0.1-0.2-0.2
				c0-0.1,0-0.1,0-0.1c-0.1-0.1-0.2-0.2-0.2-0.2c-0.1-0.1-0.1-0.1-0.2-0.2c0,0,0-0.1-0.1-0.1c-0.1-0.1-0.1-0.1-0.2-0.2
				c0-0.1,0-0.1-0.1-0.1c-0.1-0.1-0.1-0.1-0.1-0.1c0-0.1-0.1-0.1-0.1-0.1c-0.1-0.1-0.1-0.1-0.1-0.2c-0.1,0-0.1-0.1-0.1-0.1
				c-0.1,0-0.1-0.1-0.1-0.1c-0.1,0-0.1-0.1-0.1-0.1c0-0.1-0.1-0.1-0.1-0.1c0-0.1-0.1-0.1-0.1-0.1c-0.1-0.1-0.1-0.1-0.1-0.1
				c-0.1-0.1-0.1-0.1-0.2-0.1s-0.1-0.1-0.1-0.1c-0.1-0.1-0.1-0.1-0.2-0.2c0-0.1-0.1-0.1-0.1-0.1c-0.1-0.1-0.1-0.2-0.2-0.2
				c0,0-0.1,0-0.1-0.1c0-0.1-0.1-0.1-0.2-0.2c0,0,0,0,0-0.1c-0.1-0.1-0.2-0.1-0.2-0.2l-0.1-0.1C235,16.4,217.7,8.1,196.2,8.1
				C156.1,8.1,123.3,38.9,119.9,78.2"/>
		</defs>
		<clipPath id="SVGID_00000029005636427196389420000006512034607504322218_">
			<use xlink:href="#SVGID_00000162350757892780454450000002865782104227474593_"  style="overflow:visible;"/>
		</clipPath>
		<g style="clip-path:url(#SVGID_00000029005636427196389420000006512034607504322218_);">
			<defs>
				<rect id="SVGID_00000062888988775316784390000010097668843641617547_" x="114.4" y="3.4" width="152" height="98.8"/>
			</defs>
			<clipPath id="SVGID_00000084512217243343358920000005884534879789345457_">
				<use xlink:href="#SVGID_00000062888988775316784390000010097668843641617547_"  style="overflow:visible;"/>
			</clipPath>
			<g transform="matrix(1 0 0 1 0 0)" style="clip-path:url(#SVGID_00000084512217243343358920000005884534879789345457_);">
				
					<image style="overflow:visible;" width="40" height="26" xlink:href="84540A839200169F.jpg"  transform="matrix(3.8005 0 0 -3.8005 114.3581 102.2122)">
				</image>
			</g>
		</g>
	</g>
	<path class="st14" d="M630.3,559.1c-31,0-55.1-14.8-56.6-44.6h41.2c0.8,10.5,6.9,14,14,14c6.9,0,12.2-3.5,12.2-10.1
		c-0.2-22.2-67.7-11.8-67.1-60.2c0-27.2,22.7-41.8,52.1-41.8c32,0,52.9,15.6,54.3,43.2h-42c-0.4-8.7-5.7-12.7-12.8-12.7
		c-5.7-0.2-10.3,3.2-10.3,9.9c0,20.7,66.9,14,66.9,58.6C682.1,540,663.3,559.1,630.3,559.1"/>
	<polygon class="st14" points="789.1,449.6 738.8,449.6 738.8,472.3 783.2,472.3 783.2,501.7 738.8,501.7 738.8,526.8 789.1,526.8 
		789.1,557.8 700.1,557.8 700.1,418.6 789.1,418.6 	"/>
	<path class="st14" d="M866,451h-19.1v29H866c10.4,0,15.8-5.1,15.8-14.6C881.7,456.8,876.4,451,866,451 M869.1,418.6
		c34.5,0,51.9,19.7,51.9,44.6c0,18.2-9.9,34-30.6,40.2l31.4,54.3h-43.2L851,506.4h-4.2v51.3h-38.7V418.6H869.1z"/>
	<polygon class="st14" points="1032.6,418.6 1073.9,418.6 1025.9,557.7 976.4,557.7 928.3,418.6 969.7,418.6 1001.3,519.1 	"/>
	<rect x="1085.8" y="418.6" class="st14" width="38.7" height="139.1"/>
	<path class="st14" d="M1211.1,417.3c35,0,59.8,20.1,66.7,51.7h-41.6c-5-10.4-14.2-16.1-25.7-16.1c-17.8,0-29.4,13.8-29.4,35.1
		c0,21.5,11.6,35.3,29.4,35.3c11.5,0,20.7-5.7,25.7-16.1h41.6c-6.9,31.5-31.7,51.7-66.7,51.7c-41.8,0-69.2-29.2-69.2-70.8
		C1141.9,446.5,1169.3,417.3,1211.1,417.3"/>
	<polygon class="st14" points="1385.1,449.6 1334.8,449.6 1334.8,472.3 1379.2,472.3 1379.2,501.7 1334.8,501.7 1334.8,526.8 
		1385.1,526.8 1385.1,557.8 1296.2,557.8 1296.2,418.6 1385.1,418.6 	"/>
	<path class="st14" d="M1456.7,559.1c-31,0-55-14.8-56.6-44.6h41.3c0.7,10.5,6.9,14,14,14c6.9,0,12.2-3.5,12.2-10.1
		c-0.2-22.2-67.7-11.8-67.1-60.2c0-27.2,22.7-41.8,52.1-41.8c32,0,52.9,15.6,54.3,43.2h-42c-0.4-8.7-5.7-12.7-12.9-12.7
		c-5.7-0.2-10.2,3.2-10.2,9.9c0,20.7,66.9,14,66.9,58.6C1508.6,540,1489.6,559.1,1456.7,559.1"/>
	<path class="st14" d="M1123.1,635.6c-10.7,0-19.1-5.6-19.2-15.4h11.1c0.3,4.2,3,6.9,7.8,6.9c4.9,0,7.8-2.6,7.8-6.3
		c0-11.2-26.7-4.4-26.6-23.2c0-9.4,7.6-15,18.3-15c10.6,0,17.9,5.5,18.5,14.8h-11.4c-0.2-3.4-2.9-6.1-7.4-6.1
		c-4.1-0.2-7.1,1.9-7.1,6.1c0,10.4,26.5,4.6,26.5,22.8C1141.4,628.3,1134.9,635.6,1123.1,635.6"/>
	<path class="st14" d="M1152.5,594h10.4v41h-10.4V594z M1151.4,583c0-3.4,2.7-6.1,6.4-6.1c3.6,0,6.3,2.7,6.3,6.1s-2.7,6.1-6.3,6.1
		C1154.1,589.1,1151.4,586.5,1151.4,583"/>
	<path class="st14" d="M1204,612.4c0-6.6-3.6-10.2-9.1-10.2c-5.7,0-9.3,3.6-9.3,10.2v22.7h-10.4v-41h10.4v5.1
		c2.7-3.5,7.1-5.7,12.4-5.7c9.6,0,16.4,6.3,16.4,17.6v24.1H1204V612.4z"/>
	<path class="st14" d="M1244.1,593.3c10.2,0,17.1,5.3,19.4,14.5h-11.2c-1.2-3.5-3.9-5.7-8.2-5.7c-5.8,0-9.6,4.4-9.6,12.4
		c0,7.9,3.8,12.3,9.6,12.3c4.3,0,7-1.9,8.2-5.7h11.2c-2.2,8.8-9.1,14.5-19.4,14.5c-11.9,0-20.3-8.3-20.3-21.2
		C1223.8,601.7,1232.2,593.3,1244.1,593.3"/>
	<path class="st14" d="M1281.2,610.7h19.5c-0.2-5.5-4.5-8.8-9.8-8.8C1285.9,601.9,1282,605.1,1281.2,610.7 M1291.2,635.7
		c-11.9,0-20.6-8.3-20.6-21.2c0-13,8.4-21.2,20.6-21.2c11.9,0,20.2,8.1,20.2,20.3c0,1.4-0.1,2.7-0.3,4h-30c0.5,6.1,4.7,9.5,9.8,9.5
		c4.5,0,6.9-2.2,8.3-5h11.2C1308.1,629.7,1301.3,635.7,1291.2,635.7"/>
	<polygon class="st14" points="1345.6,590.6 1338.4,590.6 1338.4,581 1356.3,581 1356.3,635.1 1345.6,635.1 	"/>
	<path class="st14" d="M1396.9,597.8c0-5.9-3.4-9.2-8.7-9.2c-5.4,0-8.6,3.7-8.6,9.1c0,4.9,2.7,8.9,9,8.9
		C1393.8,606.5,1396.9,603.1,1396.9,597.8 M1380.7,619.9c0.8,4.3,3.5,6.8,8.4,6.8c6.1,0,8.8-4.5,8.8-16.7c-2.3,3.2-6.7,5-11.4,5
		c-9.4,0-16.8-5.8-16.8-17.3c0-10.8,6.8-17.9,18.3-17.9c14.7,0,19.2,9.9,19.2,27.1c0,18.4-4.1,28.3-18.4,28.3
		c-11.5,0-17-7.3-17.6-15.3H1380.7z"/>
	<path class="st14" d="M1445.3,596c0-4.9-3.2-7.6-8.1-7.6c-4.8,0-8.1,2.7-8.1,7.7c0,4.5,3.4,7.3,8.1,7.3
		C1441.9,603.4,1445.3,600.4,1445.3,596 M1427.7,619.3c0,4.8,3.5,8.4,9.5,8.4c5.9,0,9.4-3.7,9.4-8.4c0-5.3-3.8-8.3-9.4-8.3
		C1431.7,611,1427.7,613.8,1427.7,619.3 M1418.9,594.5c0-7.8,6-14.5,18.3-14.5c12.3,0,18.2,6.8,18.2,14.5c0,5.7-3.1,9.8-7.3,11.9
		c5.3,2.3,8.7,7,8.7,13.3c0,10.3-8.4,16.5-19.6,16.5c-11.1,0-19.5-6.2-19.5-16.5c0-6.4,3.3-11.1,8.6-13.3
		C1421.9,604.2,1418.9,600.4,1418.9,594.5"/>
	<path class="st14" d="M1495.1,596c0-4.9-3.2-7.6-8.1-7.6c-4.8,0-8.1,2.7-8.1,7.7c0,4.5,3.4,7.3,8.1,7.3
		C1491.7,603.4,1495.1,600.4,1495.1,596 M1477.5,619.3c0,4.8,3.5,8.4,9.5,8.4c5.9,0,9.4-3.7,9.4-8.4c0-5.3-3.8-8.3-9.4-8.3
		C1481.6,611,1477.5,613.8,1477.5,619.3 M1468.7,594.5c0-7.8,6-14.5,18.3-14.5c12.3,0,18.2,6.8,18.2,14.5c0,5.7-3.1,9.8-7.3,11.9
		c5.3,2.3,8.7,7,8.7,13.3c0,10.3-8.4,16.5-19.6,16.5c-11.1,0-19.5-6.2-19.5-16.5c0-6.4,3.3-11.1,8.6-13.3
		C1471.7,604.2,1468.7,600.4,1468.7,594.5"/>
	<path d="M634,300.8c-32,0-57-14.8-59-46.2h46.6c0.7,10.3,6.3,12,10.6,12c4.3,0,8.5-2,8.5-6.9c-0.2-18.9-66.1-12-65.3-59.8
		c0-28,23.7-42.6,53.5-42.6c33.8,0,55.4,16.1,56.6,45.2h-47.1c-0.4-8.5-4.9-11.1-9.7-11.1c-3.5,0-6.3,2.4-6.3,7.1
		c0,17.6,64.9,14.6,64.9,57.6C687.3,281.8,667.8,300.8,634,300.8"/>
	<polygon points="813.5,194.6 764.2,194.6 764.2,211.7 807.6,211.7 807.6,244.7 764.2,244.7 764.2,264.5 813.5,264.5 813.5,299.4 
		720.4,299.4 720.4,159.6 813.5,159.6 	"/>
	<path d="M914.1,206.4l-12.6,38.9h25.2L914.1,206.4z M937.4,278.3h-46.6l-6.9,21.1H838l51.1-139.7h50.5l50.9,139.7h-46.2
		L937.4,278.3z"/>
	<polygon points="1010.1,159.7 1127.7,159.7 1127.7,194.4 1090.6,194.4 1090.6,299.4 1046.8,299.4 1046.8,194.4 1010.1,194.4 	"/>
	<polygon points="1149.4,159.7 1267,159.7 1267,194.4 1229.8,194.4 1229.8,299.4 1186.1,299.4 1186.1,194.4 1149.4,194.4 	"/>
	<polygon points="1340.3,159.7 1340.3,266.2 1382.5,266.2 1382.5,299.4 1296.5,299.4 1296.5,159.7 	"/>
	<polygon points="1507.2,194.6 1457.9,194.6 1457.9,211.7 1501.2,211.7 1501.2,244.7 1457.9,244.7 1457.9,264.5 1507.2,264.5 
		1507.2,299.4 1414.1,299.4 1414.1,159.6 1507.2,159.6 	"/>
	<rect x="577.4" y="316.4" class="st15" width="16.9" height="84.3"/>
	<polygon class="st15" points="683.1,316.3 683.1,400.8 666.2,400.8 627.9,342.9 627.9,400.8 611,400.8 611,316.3 627.9,316.3 
		666.2,374.3 666.2,316.3 	"/>
	<polygon class="st15" points="695.3,316.5 757.2,316.5 757.2,330.1 734.7,330.1 734.7,400.8 717.8,400.8 717.8,330.1 695.3,330.1 	
		"/>
	<polygon class="st15" points="818.4,330.1 786.4,330.1 786.4,351.2 814.8,351.2 814.8,364.7 786.4,364.7 786.4,387 818.4,387 
		818.4,400.8 769.5,400.8 769.5,316.3 818.4,316.3 	"/>
	<path class="st15" d="M864.8,330.5h-14.1v24.7h14.1c9.4,0,13.7-4.9,13.7-12.5C878.5,335.1,874.3,330.5,864.8,330.5 M865.5,316.5
		c20.3,0,30.4,11.7,30.4,25.8c0,10.3-5.7,20.7-19.2,24.3l20.2,34.2h-19.6l-18.6-32.9h-7.9v32.9h-17v-84.3H865.5z"/>
	<polygon class="st15" points="983.4,316.3 983.4,400.8 966.5,400.8 928.2,342.9 928.2,400.8 911.3,400.8 911.3,316.3 928.2,316.3 
		966.5,374.3 966.5,316.3 	"/>
	<path class="st15" d="M1035.1,335.9l-12.2,35.3h24.4L1035.1,335.9z M1051.8,384.7h-33.6l-5.6,16.1h-17.8l30.4-84.4h19.7l30.3,84.4
		h-17.9L1051.8,384.7z"/>
	<polygon class="st15" points="1082.1,316.5 1144,316.5 1144,330.1 1121.5,330.1 1121.5,400.8 1104.6,400.8 1104.6,330.1 
		1082.1,330.1 	"/>
	<rect x="1156.4" y="316.4" class="st15" width="17" height="84.3"/>
	<path class="st15" d="M1229.1,386.5c15.2,0,25.7-11,25.7-28.1s-10.5-27.9-25.7-27.9c-15.3,0-25.8,10.7-25.8,27.9
		S1213.7,386.5,1229.1,386.5 M1229.1,401.6c-23.8,0-43.3-17.8-43.3-43.2c0-25.3,19.5-43.2,43.3-43.2c24,0,43.1,17.9,43.1,43.2
		C1272.2,383.8,1253,401.6,1229.1,401.6"/>
	<polygon class="st15" points="1356.9,316.3 1356.9,400.8 1340,400.8 1301.7,342.9 1301.7,400.8 1284.8,400.8 1284.8,316.3 
		1301.7,316.3 1340,374.3 1340,316.3 	"/>
	<path class="st15" d="M1408.6,335.9l-12.2,35.3h24.4L1408.6,335.9z M1425.3,384.7h-33.6l-5.6,16.1h-17.8l30.4-84.4h19.7l30.3,84.4
		h-17.9L1425.3,384.7z"/>
	<polygon class="st15" points="1477.1,316.5 1477.1,387.4 1504.8,387.4 1504.8,400.8 1460.1,400.8 1460.1,316.5 	"/>
</g>
</svg>
