<?xml version="1.0" encoding="utf-8"?>
<!-- Generator: Adobe Illustrator 28.3.0, SVG Export Plug-In . SVG Version: 6.00 Build 0)  -->
<svg version="1.1" id="Layer_1" xmlns="http://www.w3.org/2000/svg" xmlns:xlink="http://www.w3.org/1999/xlink" x="0px" y="0px"
	 viewBox="0 0 734.2 659.6" style="enable-background:new 0 0 734.2 659.6;" xml:space="preserve">
<style type="text/css">
	.st0{fill:#1E1E1E;}
</style>
<g>
	<g>
		<path class="st0" d="M374.8,216.6L572.5,7.4l-0.5-0.4h18.1V0h-45.6v6.9h18.8l-193.7,205c-1.5-1.3-3-2.5-4.5-3.7V6.9h19.3V0h-45.6
			v6.9h19.3v196c-1.2-0.8-2.3-1.7-3.5-2.5c-64.4-42.7-190-17-190-17c-67.9-37.2-54.8-80.7-54.8-80.7s3.5-89.5,99.9-89.5
			c96.4,0,89.5,89.5,89.5,89.5h24.3c0-89.3-98.9-100.1-115.1-100.1S87.7,19.5,87.7,114.2c0,94.7,135.8,104.7,204.8,153
			c56.2,39.4,67,198-88.1,198c-155.1,0-129-161.7-129-161.7H53.8c0,90.1,44.7,170.1,153.2,170.1c108.6,0,147.8-81.2,147.8-128.6
			c0-24.6-6.3-51.3-29-76.8l41.4-43.8c22,19.3,34.6,38.2,34.6,38.2s119.3,167.1,187.8,205.6c46.8,26.3,90.8,5.4,90.8,5.4
			C578.8,487.2,453.1,288.2,374.8,216.6z M211.6,203.2c-17.8-5.8-32.6-12.2-44.8-18.7c12.7,0.2,54.4-1.6,103.4-1.1
			c35.6,0.3,65.7,16.3,88.1,33.9v6.7l-37.2,39.4C299.5,241.5,265.3,220.7,211.6,203.2z"/>
		<rect x="350.8" y="418.4" class="st0" width="36" height="34.7"/>
	</g>
	<g>
		<path class="st0" d="M12.6,591c2,0,4-0.1,5.9-0.2c1.9-0.1,3.9-0.2,6-0.3c0.3,0.3,0.4,0.8,0.4,1.5c0,0.7-0.2,1.2-0.4,1.5
			c-0.4,0-1.2,0.1-2.3,0.2c-1.1,0.1-2.2,0.3-3.2,0.5c-1,0.2-1.5,0.5-1.7,0.9c-0.2,0.7-0.3,1.6-0.4,2.7c0,1.1-0.1,2.3-0.1,3.7
			c0,0.2,0,0.4,0,0.6s0,0.4,0,0.6v43.8c0,0.2,0,0.4,0,0.6c0,0.2,0,0.4,0,0.6c0,1.3,0,2.5,0.1,3.6c0,1.1,0.2,2,0.4,2.7
			c0.1,0.4,0.7,0.7,1.7,0.9c1,0.3,2,0.5,3.2,0.6s1.9,0.2,2.3,0.2c0.2,0.3,0.3,0.8,0.4,1.5c0,0.7-0.1,1.2-0.4,1.5
			c-2.1-0.1-4.1-0.3-6-0.4c-1.9-0.1-3.9-0.2-5.9-0.2c-2,0-4,0.1-6,0.2c-2,0.1-4.1,0.2-6.2,0.4c-0.3-0.3-0.4-0.8-0.4-1.5
			c0-0.7,0.2-1.2,0.4-1.5c0.4,0,1.2-0.1,2.3-0.2s2.2-0.3,3.2-0.6s1.6-0.6,1.6-0.9c0.3-0.8,0.4-1.9,0.5-3.3c0-1.3,0.1-2.8,0.1-4.3
			v-43.8c0-1.5,0-3-0.1-4.4c0-1.4-0.2-2.5-0.5-3.3c-0.1-0.4-0.6-0.7-1.6-0.9c-1-0.2-2.1-0.4-3.2-0.5c-1.1-0.1-1.9-0.2-2.3-0.2
			c-0.2-0.3-0.3-0.8-0.4-1.5c0-0.7,0.1-1.2,0.4-1.5c2.1,0.1,4.2,0.2,6.2,0.3C8.6,591,10.6,591,12.6,591z"/>
		<path class="st0" d="M71,590.7c1.5,0,3.1,0,4.5,0c1.5,0,2.6,0,3.3-0.1c1.1,1.6,2.7,3.9,5,6.8s5,6.3,8.1,10
			c3.1,3.7,6.3,7.6,9.6,11.6c3.3,4,6.5,7.9,9.6,11.8c3.1,3.9,5.7,7.4,8,10.6v-38.9c0-1.8,0-3.3-0.1-4.3c-0.1-1.1-0.4-2-0.9-2.8
			c-0.2-0.4-0.8-0.7-1.9-1c-1.1-0.3-2.2-0.6-3.3-0.7c-1.2-0.2-2-0.3-2.6-0.3c-0.3-0.4-0.4-0.9-0.4-1.5c0-0.7,0.1-1.1,0.2-1.4
			c2,0.1,3.9,0.2,5.7,0.3c1.8,0.1,3.8,0.2,6,0.2c1.6,0,2.9,0,3.9,0c1,0,2.1-0.1,3.2-0.2c1.1-0.1,2.4-0.1,3.9-0.2
			c0.1,0.3,0.2,0.7,0.3,1.3c0.1,0.6,0,1.1-0.3,1.7c-0.4,0-1.2,0.1-2.5,0.2c-1.2,0.1-2.4,0.4-3.5,0.7c-1.1,0.3-1.8,0.7-2.1,1.1
			c-0.5,0.8-0.8,1.6-0.8,2.6c-0.1,1-0.1,2.5-0.1,4.4v41.7c0,2,0,3.7,0,5.2c0,1.5,0,2.9,0.1,4.3c0,1.4,0.1,3,0.2,4.8
			c-0.1,0.3-0.3,0.5-0.6,0.5c-0.4,0.1-0.6,0.1-0.7,0.1c-0.3,0-0.8-0.2-1.4-0.5c-0.7-0.4-1.4-1-2.2-1.9l-44.8-56.6v46.7
			c0,1.8,0,3.2,0.2,4.3c0.1,1,0.4,1.9,0.9,2.8c0.2,0.4,0.8,0.7,1.8,1c1,0.3,2.1,0.6,3.3,0.8c1.2,0.2,2,0.3,2.6,0.3
			c0.3,0.4,0.4,0.8,0.4,1.5s-0.1,1.1-0.2,1.5c-2-0.1-3.9-0.3-5.7-0.4c-1.8-0.1-3.8-0.2-6-0.2c-1.5,0-2.9,0-3.9,0.1
			c-1.1,0.1-2.1,0.1-3.2,0.2c-1,0.1-2.3,0.1-3.9,0.2c-0.1-0.3-0.2-0.7-0.3-1.3c-0.1-0.6,0-1.1,0.3-1.7c0.4,0,1.2-0.1,2.4-0.3
			c1.2-0.2,2.4-0.4,3.5-0.7c1.2-0.3,1.8-0.7,2-1.1c0.5-0.8,0.8-1.6,0.9-2.6c0.1-0.9,0.2-2.4,0.2-4.4v-44.6c0-2-0.1-3.4-0.2-4.4
			c-0.1-1-0.4-1.9-0.9-2.6c-0.2-0.4-0.9-0.8-2-1.1c-1.2-0.3-2.3-0.5-3.5-0.7c-1.2-0.1-2-0.2-2.4-0.2c-0.3-0.6-0.4-1.1-0.3-1.7
			c0.1-0.6,0.2-1,0.3-1.3c2.4,0.1,4.3,0.2,5.8,0.3C67.8,590.7,69.3,590.7,71,590.7z"/>
		<path class="st0" d="M215.3,590.6c0.8,0,1.9-0.2,3.3-0.5c1.3-0.4,2.3-0.7,2.9-0.9c0.6-0.3,0.9-0.4,1.2-0.4s0.5,0.1,0.7,0.2
			c0.4,3.2,0.8,6.2,1.2,9.1s1,5.8,1.5,8.5c-0.1,0.1-0.4,0.3-0.7,0.5c-0.4,0.2-0.8,0.3-1.3,0.2c-0.8,0-1.3-0.2-1.5-0.5
			c-0.7-3.6-1.9-6.6-3.5-8.9c-1.6-2.4-3.7-3.6-6.3-3.6h-13v52.3c0,1.5,0,3,0.1,4.3c0,1.3,0.2,2.4,0.5,3.3c0.1,0.4,0.7,0.7,1.7,0.9
			c1,0.3,2,0.5,3.1,0.6c1.1,0.1,1.8,0.2,2.3,0.2c0.2,0.3,0.3,0.8,0.4,1.5c0,0.7-0.1,1.2-0.4,1.5c-2.1-0.1-4.1-0.3-6-0.4
			s-3.9-0.2-5.9-0.2c-2,0-4,0.1-6,0.2c-2,0.1-4.1,0.2-6.2,0.4c-0.3-0.3-0.4-0.8-0.4-1.5s0.2-1.2,0.4-1.5c0.4,0,1.2-0.1,2.3-0.2
			c1.1-0.1,2.2-0.3,3.2-0.6s1.6-0.6,1.6-0.9c0.3-0.8,0.4-1.9,0.5-3.3c0-1.3,0.1-2.8,0.1-4.3v-52.3h-13.2c-2.6,0-4.7,1.2-6.3,3.6
			c-1.6,2.4-2.8,5.4-3.6,8.9c-0.2,0.4-0.7,0.5-1.5,0.5c-0.5,0.1-0.9,0-1.2-0.2c-0.3-0.2-0.5-0.4-0.7-0.5c0.6-2.7,1.1-5.6,1.5-8.5
			c0.4-2.9,0.8-6,1.2-9.1c0.4-0.1,0.8-0.2,1.3-0.1c0.5,0.1,0.9,0.2,1.2,0.4c0.6,0.3,1.5,0.6,2.7,0.9c1.2,0.3,2.2,0.5,3,0.5H215.3z"
			/>
		<path class="st0" d="M271.6,591c4.8,0,10.2-0.1,16-0.3c5.8-0.2,11.5-0.3,17-0.3c0.4,2.6,0.8,5,1.4,7.1c0.6,2.2,1.1,4.4,1.6,6.7
			c-0.4,0.4-1,0.5-1.8,0.5c-0.9,0-1.4-0.2-1.5-0.7c-1.1-4.1-2.7-6.8-4.7-7.9c-2-1.1-4.4-1.7-7.1-1.7h-8.8c-0.4,0-1.2,0-2.3,0.1
			c-1.1,0-2.2,0.1-3.2,0.3c-1,0.1-1.5,0.4-1.7,0.7c-0.2,0.7-0.3,1.6-0.4,2.7c0,1.1-0.1,2.3-0.1,3.5c0,0.5,0,0.9,0,1.2V622
			c0,0.3,0.5,0.5,1.4,0.5c0.9,0.1,1.9,0.1,3,0.1h5.4c2.5,0,4.4-0.1,5.7-0.2c1.4-0.1,2.4-0.5,3-0.9c0.6-0.5,1.1-1.2,1.5-2.2
			c0.3-1,0.7-2.3,1.2-4c0.1-0.5,0.6-0.7,1.5-0.7c0.8,0,1.4,0.2,1.8,0.5v19.3c-0.3,0.3-0.8,0.4-1.7,0.4c-0.8,0-1.4-0.2-1.6-0.7
			c-0.5-2-0.9-3.4-1.2-4.3c-0.3-0.9-0.6-1.5-0.8-1.8c-0.2-0.3-0.5-0.6-0.9-0.8c-0.4-0.3-1.2-0.5-2.4-0.6c-1.3-0.1-2.6-0.2-4.1-0.2
			c-1.5,0-2.9-0.1-4.3-0.1c-0.9,0-1.9,0-3.1,0.1c-1.2,0-2.2,0.1-3,0.2c-0.8,0.1-1.3,0.3-1.3,0.7V647c0,0.1,0,0.4,0,0.6
			c0,1,0,2.2,0.1,3.8c0,1.5,0.2,2.4,0.5,2.6c0.7,0.5,1.6,0.8,2.6,0.9c1,0.1,2.6,0.2,4.8,0.2h4.9c2.5,0,4.9-0.2,7.2-0.7
			c2.4-0.5,4.3-1.2,5.7-2.1c1.6-1,2.9-2.4,3.8-4.3c0.9-1.9,1.8-3.9,2.6-6c0.1-0.4,0.6-0.6,1.5-0.6c1.3,0,2.1,0.2,2.5,0.6
			c-1,2.8-2.1,5.8-3.2,8.9c-1.2,3.2-1.9,5.9-2.3,8.1c-5.5,0-11-0.1-16.5-0.2c-5.5-0.1-11.6-0.2-18.5-0.2c-2.4,0-4.5,0.1-6.4,0.2
			c-1.9,0.1-3.9,0.2-5.9,0.2c-0.3-0.3-0.4-0.8-0.4-1.5c0-0.7,0.2-1.2,0.4-1.5c0.4,0,1.2-0.1,2.3-0.2c1.1-0.1,2.2-0.3,3.2-0.6
			s1.6-0.6,1.6-0.9c0.3-0.8,0.4-1.9,0.5-3.3c0-1.3,0.1-2.8,0.1-4.3v-43.8c0-1.5,0-3-0.1-4.4c0-1.4-0.2-2.5-0.5-3.3
			c-0.1-0.4-0.6-0.7-1.6-0.9c-1-0.2-2.1-0.4-3.2-0.5c-1.1-0.1-1.9-0.2-2.3-0.2c-0.2-0.3-0.3-0.8-0.4-1.5c0-0.7,0.1-1.2,0.4-1.5
			c2.1,0.1,4.2,0.2,6.2,0.3C267.6,591,269.6,591,271.6,591z"/>
		<path class="st0" d="M373.7,590.8c2.3,0,4.7,0.4,7.1,1.2c2.5,0.8,4.7,1.9,6.8,3.4c2.1,1.5,3.7,3.3,5,5.5c1.3,2.2,1.9,4.8,1.9,7.7
			c0,2.5-0.7,4.8-2,7.1s-3.1,4.3-5.3,6.1c-2.1,1.8-4.4,3-6.7,3.8c1.8,3,3.6,5.8,5.3,8.3c1.7,2.5,3.4,5,5.3,7.5
			c1.8,2.5,3.9,5.2,6.1,8.3c1.5,2,3.1,3.4,4.8,4.4c1.7,1,4,1.6,6.8,1.8c0.3,0.3,0.4,0.8,0.2,1.6c-0.1,0.8-0.3,1.2-0.3,1.4
			c-3.4,0-6.3-0.1-8.6-0.4c-2.3-0.2-3.9-0.5-5-0.9c-0.7-0.3-1.7-0.7-2.9-1.3c-1.3-0.6-2.5-1.7-3.7-3.2c-0.4-0.6-1.2-1.6-2.3-3.3
			c-1.1-1.6-2.5-3.6-4-5.9c-1.5-2.3-3.2-4.8-4.9-7.4c-1.8-2.6-3.4-5.2-5-7.7c-0.6-0.8-1.6-1.3-3.2-1.3h-5.4v19.1c0,0.2,0,0.4,0,0.6
			c0,0.2,0,0.4,0,0.6c0,1.3,0,2.5,0.1,3.6c0,1.1,0.2,2,0.4,2.7c0.1,0.4,0.7,0.7,1.7,0.9c1,0.3,2,0.5,3.2,0.6s1.9,0.2,2.3,0.2
			c0.2,0.3,0.3,0.8,0.4,1.5c0,0.7-0.1,1.2-0.4,1.5c-2.1-0.1-4.1-0.3-6-0.4c-1.9-0.1-3.9-0.2-5.9-0.2c-2,0-4,0.1-6,0.2
			c-2,0.1-4.1,0.2-6.2,0.4c-0.3-0.3-0.4-0.8-0.4-1.5c0-0.7,0.2-1.2,0.4-1.5c0.4,0,1.2-0.1,2.3-0.2c1.1-0.1,2.2-0.3,3.2-0.6
			s1.6-0.6,1.6-0.9c0.3-0.8,0.4-1.9,0.5-3.3c0-1.3,0.1-2.8,0.1-4.3l-0.1-43.8c0-1.5,0-3,0-4.4c0-1.4-0.2-2.5-0.5-3.3
			c-0.1-0.4-0.6-0.7-1.6-0.9c-1-0.2-2.1-0.4-3.2-0.5c-1.1-0.1-1.8-0.2-2.3-0.2c-0.2-0.3-0.3-0.8-0.4-1.5c0-0.7,0.1-1.2,0.4-1.5
			c2.1,0.1,4.1,0.2,6.2,0.3c2,0.1,4,0.2,5.9,0.2c2,0,4.2,0,6.6-0.1C368,590.9,370.6,590.8,373.7,590.8z M384.9,609.5
			c0-4.5-1.2-8.2-3.6-11c-2.4-2.9-6.5-4.3-12.1-4.3c-0.6,0-1.6,0-2.9,0.1c-1.3,0.1-2,0.4-2.3,0.8c-0.3,0.6-0.4,1.7-0.5,3.2
			c0,1.5-0.1,3-0.1,4.6l0.1,21.4h5.5c2.7,0,5.2-0.6,7.6-1.8c2.4-1.2,4.4-2.9,5.9-5.2C384.1,615.2,384.9,612.5,384.9,609.5z"/>
		<path class="st0" d="M450.2,591c2,0,4-0.1,5.9-0.2c1.9-0.1,3.9-0.2,6-0.3c0.3,0.3,0.4,0.8,0.4,1.5c0,0.7-0.2,1.2-0.4,1.5
			c-0.4,0-1.2,0.1-2.3,0.2c-1.1,0.1-2.2,0.3-3.2,0.5c-1,0.2-1.5,0.5-1.7,0.9c-0.2,0.7-0.3,1.6-0.4,2.7c0,1.1-0.1,2.3-0.1,3.7
			c0,0.2,0,0.4,0,0.6s0,0.4,0,0.6v43.8c0,0.2,0,0.4,0,0.6c0,0.2,0,0.4,0,0.6c0,1.3,0,2.5,0.1,3.6c0,1.1,0.2,2,0.4,2.7
			c0.1,0.4,0.7,0.7,1.7,0.9c1,0.3,2,0.5,3.2,0.6s1.9,0.2,2.3,0.2c0.2,0.3,0.3,0.8,0.4,1.5c0,0.7-0.1,1.2-0.4,1.5
			c-2.1-0.1-4.1-0.3-6-0.4c-1.9-0.1-3.9-0.2-5.9-0.2c-2,0-4,0.1-6,0.2c-2,0.1-4.1,0.2-6.2,0.4c-0.3-0.3-0.4-0.8-0.4-1.5
			c0-0.7,0.2-1.2,0.4-1.5c0.4,0,1.2-0.1,2.3-0.2c1.1-0.1,2.2-0.3,3.2-0.6c1-0.3,1.6-0.6,1.6-0.9c0.3-0.8,0.4-1.9,0.5-3.3
			c0-1.3,0.1-2.8,0.1-4.3v-43.8c0-1.5,0-3-0.1-4.4c0-1.4-0.2-2.5-0.5-3.3c-0.1-0.4-0.6-0.7-1.6-0.9c-1-0.2-2.1-0.4-3.2-0.5
			c-1.1-0.1-1.9-0.2-2.3-0.2c-0.2-0.3-0.3-0.8-0.4-1.5c0-0.7,0.1-1.2,0.4-1.5c2.1,0.1,4.2,0.2,6.2,0.3
			C446.2,591,448.2,591,450.2,591z"/>
		<path class="st0" d="M531.2,590.1c4.6,0,8.8,0.8,12.9,2.5c4,1.7,7.6,4.1,10.7,7.2c3.1,3.1,5.5,6.8,7.3,11c1.8,4.2,2.7,8.9,2.7,14
			c0,4.8-0.9,9.3-2.7,13.5c-1.8,4.2-4.2,7.8-7.3,11c-3.1,3.2-6.6,5.7-10.7,7.5c-4,1.8-8.3,2.7-12.9,2.7c-4.5,0-8.7-0.8-12.8-2.5
			c-4-1.7-7.6-4.1-10.6-7.2c-3-3.1-5.5-6.8-7.2-11c-1.8-4.2-2.6-8.9-2.6-13.9c0-4.8,0.9-9.4,2.6-13.6c1.8-4.2,4.2-7.9,7.2-11.1
			c3.1-3.2,6.6-5.7,10.6-7.5C522.5,591,526.8,590.1,531.2,590.1z M529.8,593.6c-3.9,0-7.1,0.9-9.9,2.6c-2.7,1.7-5,4-6.7,6.8
			c-1.7,2.8-3,5.9-3.8,9.4c-0.8,3.4-1.2,6.9-1.2,10.3c0,4,0.5,8,1.6,11.9c1.1,4,2.7,7.6,4.8,10.8c2.1,3.3,4.7,5.9,7.7,7.8
			c3,2,6.6,2.9,10.6,2.9c3.9,0,7.1-0.9,9.9-2.6s5-4,6.7-6.9c1.8-2.9,3-6,3.8-9.5c0.8-3.5,1.2-6.9,1.2-10.4c0-4-0.5-8-1.6-11.9
			c-1.1-3.9-2.7-7.5-4.8-10.7c-2.1-3.2-4.7-5.8-7.8-7.7C537.3,594.5,533.8,593.6,529.8,593.6z"/>
		<path class="st0" d="M627.4,590.8c2.3,0,4.7,0.4,7.1,1.2c2.5,0.8,4.7,1.9,6.8,3.4c2.1,1.5,3.7,3.3,5,5.5c1.3,2.2,1.9,4.8,1.9,7.7
			c0,2.5-0.7,4.8-2,7.1s-3.1,4.3-5.3,6.1c-2.1,1.8-4.4,3-6.7,3.8c1.8,3,3.6,5.8,5.3,8.3c1.7,2.5,3.4,5,5.3,7.5
			c1.8,2.5,3.9,5.2,6.1,8.3c1.5,2,3.1,3.4,4.8,4.4c1.7,1,4,1.6,6.8,1.8c0.3,0.3,0.4,0.8,0.2,1.6c-0.1,0.8-0.3,1.2-0.3,1.4
			c-3.4,0-6.3-0.1-8.6-0.4c-2.3-0.2-3.9-0.5-5-0.9c-0.7-0.3-1.7-0.7-2.9-1.3c-1.3-0.6-2.5-1.7-3.7-3.2c-0.4-0.6-1.2-1.6-2.3-3.3
			c-1.1-1.6-2.5-3.6-4-5.9c-1.5-2.3-3.2-4.8-4.9-7.4c-1.8-2.6-3.4-5.2-5-7.7c-0.6-0.8-1.6-1.3-3.2-1.3h-5.4v19.1c0,0.2,0,0.4,0,0.6
			c0,0.2,0,0.4,0,0.6c0,1.3,0,2.5,0.1,3.6c0,1.1,0.2,2,0.4,2.7c0.1,0.4,0.7,0.7,1.7,0.9c1,0.3,2,0.5,3.2,0.6
			c1.1,0.1,1.9,0.2,2.3,0.2c0.2,0.3,0.3,0.8,0.4,1.5c0,0.7-0.1,1.2-0.4,1.5c-2.1-0.1-4.1-0.3-6-0.4c-1.9-0.1-3.9-0.2-5.9-0.2
			c-2,0-4,0.1-6,0.2c-2,0.1-4.1,0.2-6.2,0.4c-0.3-0.3-0.4-0.8-0.4-1.5c0-0.7,0.2-1.2,0.4-1.5c0.4,0,1.2-0.1,2.3-0.2s2.2-0.3,3.2-0.6
			c1-0.3,1.6-0.6,1.6-0.9c0.3-0.8,0.4-1.9,0.5-3.3c0-1.3,0.1-2.8,0.1-4.3l-0.1-43.8c0-1.5,0-3,0-4.4c0-1.4-0.2-2.5-0.5-3.3
			c-0.1-0.4-0.6-0.7-1.6-0.9c-1-0.2-2.1-0.4-3.2-0.5c-1.1-0.1-1.8-0.2-2.3-0.2c-0.2-0.3-0.3-0.8-0.4-1.5c0-0.7,0.1-1.2,0.4-1.5
			c2.1,0.1,4.1,0.2,6.2,0.3c2,0.1,4,0.2,5.9,0.2c2,0,4.2,0,6.6-0.1C621.7,590.9,624.4,590.8,627.4,590.8z M638.7,609.5
			c0-4.5-1.2-8.2-3.6-11c-2.4-2.9-6.5-4.3-12.1-4.3c-0.6,0-1.6,0-2.9,0.1c-1.3,0.1-2,0.4-2.3,0.8c-0.3,0.6-0.4,1.7-0.5,3.2
			c0,1.5-0.1,3-0.1,4.6l0.1,21.4h5.5c2.7,0,5.2-0.6,7.6-1.8c2.4-1.2,4.4-2.9,5.9-5.2C637.9,615.2,638.7,612.5,638.7,609.5z"/>
		<path class="st0" d="M713.9,590.2c2.2,0,4,0.1,5.4,0.4c1.4,0.2,2.9,0.6,4.4,1c1.5,0.4,3.4,0.9,5.6,1.5c0.4,2.7,0.7,5.4,1,8.3
			c0.2,2.8,0.4,5,0.5,6.4c0.1,0.4-0.2,0.6-0.7,0.8c-0.6,0.2-1,0.3-1.4,0.3c-0.5,0-0.9-0.1-1.2-0.4c-0.1-1.3-0.6-2.7-1.3-4.4
			c-0.7-1.7-1.7-3.3-2.9-4.8c-1.2-1.5-2.7-2.8-4.4-3.8c-1.7-1-3.7-1.5-5.8-1.5c-2.8,0-5,0.6-6.6,1.8s-2.8,2.7-3.5,4.4
			c-0.7,1.8-1.1,3.5-1.1,5.2c0,2.7,0.7,5,2.2,6.8c1.4,1.8,3.3,3.4,5.5,4.8c2.2,1.4,4.4,2.8,6.7,4.3c1.7,1.1,3.5,2.2,5.6,3.5
			c2,1.3,4,2.7,5.9,4.2c1.9,1.5,3.4,3.3,4.6,5.3c1.2,2,1.8,4.3,1.8,6.8c0,3.7-1,7-3.1,9.8c-2.1,2.8-4.7,5-8,6.6
			c-3.3,1.6-6.7,2.4-10.4,2.4c-3.4,0-6.7-0.4-9.9-1.2c-3.2-0.8-6-1.4-8.6-1.9c-0.4-2-0.8-4.2-1.1-6.5c-0.3-2.3-0.6-4.3-0.7-6.1
			c-0.2-1.8-0.3-2.8-0.3-3.3c0.4-0.4,0.8-0.6,1.2-0.9c0.4-0.2,0.9-0.4,1.4-0.4c0.6,0,1,0.3,1.2,0.9c0.2,1,0.6,2.3,1.3,4
			c0.7,1.7,1.6,3.5,2.9,5.3c1.3,1.8,3,3.3,5,4.6c2.1,1.2,4.6,1.8,7.7,1.8c3.3,0,6.2-1.1,8.6-3.3c2.5-2.2,3.7-5.3,3.7-9.3
			c0-2.9-0.6-5.1-1.9-6.7c-1.3-1.6-3-3-5-4.2c-2.1-1.2-4.3-2.5-6.7-3.8c-2.6-1.5-5.3-3.2-8-5.1c-2.8-1.9-5.1-4-7-6.6
			c-1.9-2.5-2.8-5.5-2.8-8.9c0-3.6,1-6.8,2.9-9.5c1.9-2.7,4.4-4.8,7.5-6.3C707.3,590.9,710.5,590.2,713.9,590.2z"/>
	</g>
</g>
</svg>
