<?xml version="1.0" encoding="utf-8"?>
<!-- Generator: Adobe Illustrator 28.3.0, SVG Export Plug-In . SVG Version: 6.00 Build 0)  -->
<svg version="1.1" id="Layer_1" xmlns="http://www.w3.org/2000/svg" xmlns:xlink="http://www.w3.org/1999/xlink" x="0px" y="0px"
	 viewBox="0 0 1508.6 688.1" style="enable-background:new 0 0 1508.6 688.1;" xml:space="preserve">
<style type="text/css">
	
		.st0{clip-path:url(#SVGID_00000127740710207888152670000007254289669383294898_);fill:url(#SVGID_00000002367693261757467470000013643212796514951583_);}
	
		.st1{clip-path:url(#SVGID_00000059296012398285762160000012160381887679360683_);fill:url(#SVGID_00000116928553909391871400000013969197868190412688_);}
	.st2{fill:#2E3192;}
	.st3{fill:#00AEEF;}
	
		.st4{clip-path:url(#SVGID_00000088836039532954390460000002822050023805476779_);fill:url(#SVGID_00000098199812636432104070000017300346088019501975_);}
</style>
<g>
	<g>
		<defs>
			<path id="SVGID_1_" d="M77.1,390.7c0,120.8,88.4,218.9,197.3,218.9c10.7,0,21.2-1,31.4-2.8c-102.2-6-184.8-98.5-187.7-213.6
				c-2.7-110.9,69.5-204.4,165.5-221.1c-3-0.1-6.1-0.2-9.2-0.2C165.5,171.9,77.1,269.8,77.1,390.7"/>
		</defs>
		<clipPath id="SVGID_00000133506207620656697810000008665417232238643625_">
			<use xlink:href="#SVGID_1_"  style="overflow:visible;"/>
		</clipPath>
		
			<linearGradient id="SVGID_00000167361181658287258970000017915478396568281484_" gradientUnits="userSpaceOnUse" x1="498.0044" y1="1391.858" x2="557.6729" y2="1391.858" gradientTransform="matrix(0 -7.3351 -7.3351 0 10400.8965 4262.4751)">
			<stop  offset="0" style="stop-color:#2E3192"/>
			<stop  offset="8.230761e-02" style="stop-color:#2B3998"/>
			<stop  offset="0.213" style="stop-color:#2250A9"/>
			<stop  offset="0.3757" style="stop-color:#1576C5"/>
			<stop  offset="0.5625" style="stop-color:#02A9EC"/>
			<stop  offset="0.5782" style="stop-color:#00AEEF"/>
			<stop  offset="0.5962" style="stop-color:#05A0E4"/>
			<stop  offset="0.6463" style="stop-color:#127ECB"/>
			<stop  offset="0.6999" style="stop-color:#1C62B6"/>
			<stop  offset="0.7573" style="stop-color:#244CA6"/>
			<stop  offset="0.8205" style="stop-color:#2A3D9B"/>
			<stop  offset="0.8936" style="stop-color:#2D3494"/>
			<stop  offset="1" style="stop-color:#2E3192"/>
		</linearGradient>
		
			<rect x="77.1" y="171.9" style="clip-path:url(#SVGID_00000133506207620656697810000008665417232238643625_);fill:url(#SVGID_00000167361181658287258970000017915478396568281484_);" width="228.7" height="437.7"/>
	</g>
	<g>
		<defs>
			<path id="SVGID_00000127762317369361949920000001788880268413104012_" d="M524.8,437c-38.8,146-160.2,213.7-302,176.3
				c-27.3-7.3-52.7-18.1-75.6-31.9c46.7,53,114.7,86.5,190.5,86.5c140.7,0,254.7-115.2,254.7-257.4c0-135.7-104.1-247-236-256.7
				C478.8,195,556.6,317.5,524.8,437"/>
		</defs>
		<clipPath id="SVGID_00000062905616345713434860000015484075515216983218_">
			<use xlink:href="#SVGID_00000127762317369361949920000001788880268413104012_"  style="overflow:visible;"/>
		</clipPath>
		
			<linearGradient id="SVGID_00000144304942400791103030000005473007783197131678_" gradientUnits="userSpaceOnUse" x1="516.0863" y1="1360.5901" x2="575.759" y2="1360.5901" gradientTransform="matrix(0 -8.6155 -8.6155 0 12092.0654 5114.2681)">
			<stop  offset="0" style="stop-color:#2E3192"/>
			<stop  offset="8.230761e-02" style="stop-color:#2B3998"/>
			<stop  offset="0.213" style="stop-color:#2250A9"/>
			<stop  offset="0.3757" style="stop-color:#1576C5"/>
			<stop  offset="0.5625" style="stop-color:#02A9EC"/>
			<stop  offset="0.5782" style="stop-color:#00AEEF"/>
			<stop  offset="0.5962" style="stop-color:#05A0E4"/>
			<stop  offset="0.6463" style="stop-color:#127ECB"/>
			<stop  offset="0.6999" style="stop-color:#1C62B6"/>
			<stop  offset="0.7573" style="stop-color:#244CA6"/>
			<stop  offset="0.8205" style="stop-color:#2A3D9B"/>
			<stop  offset="0.8936" style="stop-color:#2D3494"/>
			<stop  offset="1" style="stop-color:#2E3192"/>
		</linearGradient>
		
			<rect x="147.3" y="153.8" style="clip-path:url(#SVGID_00000062905616345713434860000015484075515216983218_);fill:url(#SVGID_00000144304942400791103030000005473007783197131678_);" width="445.2" height="514.1"/>
	</g>
	<path class="st2" d="M348.4,481.5c-13.5,5.6-30.3,8.4-50.3,8.4c-29.2,0-51.7-6.7-67.4-20.2c-15.7-13.5-25.1-33.2-28.1-59.1
		l45.4-4.4c2.7,15.2,8.3,26.4,16.6,33.6c8.4,7.2,19.7,10.7,33.9,10.7c15,0,26.3-3.2,34-9.5c6-5,9.6-10.6,10.9-16.9
		c-10.9-10.9-25.1-22.9-42.6-36.1c-29.2-22.1-47.4-38-54.5-47.9c-12.4-16.5-18.6-34.4-18.6-53.6c0-1.4,0.1-2.9,0.1-4.4
		c-29.7,25.8-48.5,63.7-48.5,106.1c0,77.6,62.9,140.5,140.5,140.5c9.4,0,18.6-0.9,27.6-2.7c7.2-4.9,12.9-11,17.2-18.1
		c5.4-9.2,8.1-19,8.1-29.3c0-4.1-0.5-8.2-1.5-12.4C365,472.7,357.4,477.8,348.4,481.5"/>
	<path class="st3" d="M319.9,247.8c-15.3,0-30,2.5-43.9,7c-8.1,8.3-12.1,18.4-12.1,30.2c0,7,1.4,13.8,4.1,20.5
		c6.4-7.9,14.9-14.1,25.4-18.7c12.5-5.4,27.7-8.1,45.5-8.1c29,0,50.8,6.4,65.5,19.1c14.7,12.8,22.4,29.7,23.1,51l-46.7,2.1
		c-2-11.9-6.3-20.5-12.9-25.7c-6.6-5.2-16.4-7.8-29.5-7.8c-13.6,0-24.2,2.8-31.9,8.4c-5,3.6-7.5,8.4-7.5,14.4c0,0.4,0.1,0.8,0.1,1.2
		c7.7,6,18.4,14,32.1,24.2c30.3,22.4,51.1,42.3,62.4,59.7c11.2,17.5,16.9,35,16.9,52.6c0,6.7-0.7,13.1-2,19.3
		c31.6-25.8,51.9-65,51.9-109C460.4,310.7,397.5,247.8,319.9,247.8"/>
	<g>
		<defs>
			<path id="SVGID_00000029740887213807947170000011455427639368898472_" d="M198.6,104.9c1.1,3.8,1.7,7.8,1.7,11.8
				c0,23.7-19.3,43-43,43c-13.2,0-25.1-6-32.9-15.5C53.2,195.7,5.4,277.7,0,370.9v35.4C8.5,553,121.8,671.6,266.3,688.1h69.5
				c33.4-3.8,65-13.1,94.2-26.9c-30.2,10.8-62.8,16.7-97,16.7c-153.8,0-278.4-119.9-278.4-267.7c0-147.9,124.6-267.7,278.4-267.7
				c119.5,0,221.4,72.3,260.9,173.9C561.6,184.7,442.7,87,301.1,87C265.1,87,230.6,93.3,198.6,104.9"/>
		</defs>
		<clipPath id="SVGID_00000098935149335429833720000007778333419443011475_">
			<use xlink:href="#SVGID_00000029740887213807947170000011455427639368898472_"  style="overflow:visible;"/>
		</clipPath>
		
			<linearGradient id="SVGID_00000103984039216005404840000002460536960720860828_" gradientUnits="userSpaceOnUse" x1="591.4895" y1="1217.7083" x2="651.1548" y2="1217.7083" gradientTransform="matrix(9.9536 0 0 -9.9536 -5887.4507 12508.1641)">
			<stop  offset="0" style="stop-color:#2E3192"/>
			<stop  offset="8.230761e-02" style="stop-color:#2B3998"/>
			<stop  offset="0.213" style="stop-color:#2250A9"/>
			<stop  offset="0.3757" style="stop-color:#1576C5"/>
			<stop  offset="0.5625" style="stop-color:#02A9EC"/>
			<stop  offset="0.5782" style="stop-color:#00AEEF"/>
			<stop  offset="0.5962" style="stop-color:#05A0E4"/>
			<stop  offset="0.6463" style="stop-color:#127ECB"/>
			<stop  offset="0.6999" style="stop-color:#1C62B6"/>
			<stop  offset="0.7573" style="stop-color:#244CA6"/>
			<stop  offset="0.8205" style="stop-color:#2A3D9B"/>
			<stop  offset="0.8936" style="stop-color:#2D3494"/>
			<stop  offset="1" style="stop-color:#2E3192"/>
		</linearGradient>
		
			<rect y="87" style="clip-path:url(#SVGID_00000098935149335429833720000007778333419443011475_);fill:url(#SVGID_00000103984039216005404840000002460536960720860828_);" width="593.9" height="601.1"/>
	</g>
	<path class="st3" d="M187,116.7c0,16.4-13.3,29.7-29.7,29.7s-29.7-13.3-29.7-29.7S140.9,87,157.3,87S187,100.3,187,116.7"/>
	<path class="st3" d="M179.4,30.1c0,9.8-7.9,17.7-17.7,17.7c-9.8,0-17.7-7.9-17.7-17.7c0-9.7,7.9-17.7,17.7-17.7
		C171.5,12.4,179.4,20.4,179.4,30.1"/>
	<path class="st2" d="M240,65.4c0,13-10.5,23.4-23.4,23.4c-12.9,0-23.5-10.5-23.5-23.4S203.6,42,216.5,42
		C229.5,42,240,52.5,240,65.4"/>
	<path class="st2" d="M228.9,12.4c0,6.9-5.5,12.4-12.4,12.4s-12.4-5.6-12.4-12.4S209.6,0,216.5,0S228.9,5.6,228.9,12.4"/>
	<polygon class="st3" points="210.9,527.6 219.2,530.8 210.9,533.9 207.7,542.3 204.6,533.9 196.2,530.8 204.6,527.6 207.7,519.3 	
		"/>
	<polygon class="st3" points="190.7,502.8 206.3,508.8 190.7,514.7 184.7,530.2 178.8,514.7 163.3,508.8 178.8,502.8 184.7,487.2 	
		"/>
	<polygon class="st2" points="434.4,249 426.2,245.9 434.4,242.7 437.6,234.4 440.8,242.7 449.1,245.9 440.8,249 437.6,257.3 	"/>
	<polygon class="st2" points="454.6,273.8 439.1,267.9 454.6,262 460.6,246.4 466.5,262 482.1,267.9 466.5,273.8 460.6,289.4 	"/>
	<path class="st2" d="M659.5,244.9l26.9-2.6c1.6,9.1,4.9,15.7,9.8,19.9c5,4.2,11.6,6.3,20,6.3c9,0,15.6-1.9,20.2-5.7
		c4.5-3.8,6.7-8.2,6.7-13.2c0-3.2-1-6-2.9-8.3c-1.8-2.3-5.2-4.2-9.9-5.9c-3.3-1.1-10.6-3.1-22.1-6c-14.8-3.7-25.2-8.2-31.2-13.5
		c-8.4-7.5-12.6-16.7-12.6-27.6c0-7,2-13.5,5.9-19.6c4-6,9.7-10.7,17.1-13.8c7.4-3.2,16.4-4.8,26.9-4.8c17.2,0,30.1,3.8,38.8,11.3
		c8.7,7.5,13.2,17.5,13.7,30.1l-27.7,1.2c-1.2-7-3.7-12.1-7.6-15.2c-3.9-3-9.7-4.6-17.5-4.6c-8,0-14.3,1.6-18.9,5
		c-2.9,2.1-4.4,5-4.4,8.5c0,3.2,1.4,6,4.1,8.3c3.5,2.9,11.9,6,25.4,9.2c13.5,3.2,23.4,6.4,29.8,9.8c6.4,3.4,11.5,8,15.2,13.9
		c3.6,5.9,5.4,13.1,5.4,21.8c0,7.9-2.1,15.2-6.5,22.1c-4.4,6.8-10.6,11.9-18.5,15.2c-8,3.3-17.9,5-29.8,5c-17.3,0-30.6-4-39.9-12
		C666.8,271.8,661.3,260.2,659.5,244.9"/>
	<polygon class="st2" points="794,289.4 794,152.5 895.5,152.5 895.5,175.7 821.6,175.7 821.6,206 890.4,206 890.4,229.1 
		821.6,229.1 821.6,266.4 898.1,266.4 898.1,289.4 	"/>
	<path class="st2" d="M994.1,235.2l-18.9-50.8l-18.5,50.8H994.1z M1045,289.4h-30.1l-11.9-31.1h-54.7L937,289.4h-29.4L961,152.5
		h29.2L1045,289.4z"/>
	<polygon class="st2" points="1076.3,289.4 1076.3,175.7 1035.7,175.7 1035.7,152.5 1144.4,152.5 1144.4,175.7 1103.9,175.7 
		1103.9,289.4 	"/>
	<polygon class="st2" points="1193.1,289.4 1193.1,175.7 1152.5,175.7 1152.5,152.5 1261.2,152.5 1261.2,175.7 1220.7,175.7 
		1220.7,289.4 	"/>
	<polygon class="st2" points="1279.8,289.4 1279.8,153.6 1307.5,153.6 1307.5,266.4 1376.2,266.4 1376.2,289.4 	"/>
	<polygon class="st2" points="1395.9,289.4 1395.9,152.5 1497.4,152.5 1497.4,175.7 1423.5,175.7 1423.5,206 1492.3,206 
		1492.3,229.1 1423.5,229.1 1423.5,266.4 1500,266.4 1500,289.4 	"/>
	<path class="st3" d="M659,411.3l24.9-2.4c1.5,8.4,4.5,14.5,9.1,18.4c4.6,3.9,10.7,5.9,18.6,5.9c8.2,0,14.4-1.8,18.6-5.2
		c4.2-3.5,6.3-7.6,6.3-12.2c0-3-0.9-5.6-2.6-7.6c-1.8-2.1-4.8-3.9-9.2-5.5c-3-1.1-9.8-2.9-20.5-5.6c-13.7-3.4-23.3-7.6-28.9-12.5
		c-7.8-7-11.6-15.5-11.6-25.5c0-6.5,1.8-12.5,5.5-18.1c3.6-5.6,9-9.9,15.8-12.8c6.9-2.9,15.2-4.4,24.9-4.4
		c15.9,0,27.9,3.5,35.9,10.4c8.1,7,12.2,16.3,12.6,27.9l-25.6,1.1c-1.1-6.5-3.4-11.2-7-14c-3.6-2.9-9-4.3-16.2-4.3
		c-7.5,0-13.3,1.5-17.5,4.6c-2.7,1.9-4.1,4.6-4.1,7.9c0,3,1.3,5.6,3.8,7.7c3.3,2.7,11.1,5.5,23.6,8.5c12.4,2.9,21.7,6,27.6,9.1
		c6,3.2,10.7,7.5,14,12.9c3.4,5.4,5.1,12.2,5.1,20.2c0,7.2-2,14-6,20.3c-4.1,6.4-9.8,11.1-17.1,14.1c-7.4,3.1-16.6,4.7-27.6,4.7
		c-16,0-28.3-3.7-36.9-11.1C665.8,436.2,660.6,425.5,659,411.3"/>
	<path class="st3" d="M783.4,325.8H809v68.6c0,10.9,0.3,18,1,21.2c1.1,5.2,3.7,9.4,7.8,12.5c4.1,3.2,9.7,4.7,16.9,4.7
		c7.3,0,12.7-1.4,16.4-4.4c3.7-3,5.9-6.6,6.7-10.9c0.7-4.4,1.1-11.5,1.1-21.5v-70.1h25.6v66.5c0,15.2-0.7,26-2.1,32.3
		c-1.4,6.3-3.9,11.6-7.6,15.9c-3.8,4.4-8.7,7.8-14.9,10.4c-6.3,2.6-14.4,3.8-24.4,3.8c-12.1,0-21.3-1.4-27.5-4.2
		c-6.3-2.8-11.2-6.4-14.9-10.9c-3.6-4.5-6-9.1-7.2-14c-1.7-7.3-2.5-18-2.5-32.2V325.8z"/>
	<path class="st3" d="M937,347.2v36h14c10.1,0,16.8-0.7,20.2-2c3.3-1.3,6-3.4,8-6.2c1.9-2.9,2.9-6.1,2.9-9.9c0-4.6-1.4-8.4-4.1-11.4
		c-2.7-3-6.1-4.8-10.3-5.6c-3.1-0.6-9.2-0.9-18.4-0.9H937z M911.4,452.5V325.8h41.1c15.6,0,25.7,0.7,30.4,1.9
		c7.3,1.9,13.4,6,18.3,12.4c4.9,6.4,7.3,14.6,7.3,24.7c0,7.8-1.4,14.3-4.2,19.6c-2.8,5.3-6.4,9.4-10.7,12.5c-4.4,3-8.8,5-13.3,6
		c-6.1,1.3-14.9,1.9-26.6,1.9H937v47.8H911.4z"/>
	<path class="st3" d="M1055.1,347.2v36h14c10.1,0,16.8-0.7,20.2-2c3.3-1.3,6-3.4,8-6.2c1.9-2.9,2.9-6.1,2.9-9.9
		c0-4.6-1.4-8.4-4.1-11.4c-2.7-3-6.1-4.8-10.3-5.6c-3.1-0.6-9.2-0.9-18.4-0.9H1055.1z M1029.5,452.5V325.8h41.1
		c15.6,0,25.7,0.7,30.4,1.9c7.3,1.9,13.4,6,18.3,12.4c4.9,6.4,7.3,14.6,7.3,24.7c0,7.8-1.4,14.3-4.2,19.6
		c-2.8,5.3-6.4,9.4-10.7,12.5c-4.4,3-8.8,5-13.3,6c-6.1,1.3-14.9,1.9-26.6,1.9h-16.6v47.8H1029.5z"/>
	<path class="st3" d="M1168.7,389c0,14.4,3.3,25.2,9.9,32.6c6.7,7.4,15.1,11.2,25.2,11.2c10.2,0,18.6-3.7,25.1-11
		c6.6-7.3,9.8-18.4,9.8-33.1c0-14.6-3.2-25.4-9.5-32.5c-6.4-7.2-14.9-10.7-25.4-10.7c-10.5,0-19,3.6-25.5,10.9
		C1172,363.6,1168.7,374.5,1168.7,389 M1142.4,389.9c0-12.9,1.9-23.7,5.8-32.5c2.9-6.4,6.8-12.2,11.8-17.4c5-5.1,10.4-8.9,16.3-11.4
		c7.9-3.3,17-5,27.3-5c18.7,0,33.6,5.8,44.8,17.4c11.2,11.6,16.8,27.7,16.8,48.3c0,20.5-5.5,36.5-16.6,48
		c-11.2,11.5-26,17.3-44.6,17.3c-18.9,0-33.8-5.7-44.9-17.2C1147.9,425.9,1142.4,410.1,1142.4,389.9"/>
	<path class="st3" d="M1310.9,379.4h18.9c12.3,0,19.9-0.5,23-1.6c3-1,5.4-2.8,7.2-5.3c1.7-2.6,2.6-5.7,2.6-9.5
		c0-4.2-1.1-7.7-3.4-10.3c-2.3-2.6-5.5-4.3-9.7-5c-2-0.3-8.3-0.5-18.7-0.5h-19.9V379.4z M1285.3,452.5V325.8h53.9
		c13.5,0,23.3,1.1,29.5,3.4c6.1,2.3,11,6.3,14.7,12.2c3.7,5.8,5.5,12.5,5.5,20c0,9.5-2.8,17.4-8.4,23.5
		c-5.5,6.2-13.9,10.1-25.1,11.8c5.5,3.2,10.1,6.7,13.7,10.6c3.6,3.9,8.5,10.7,14.6,20.6l15.5,24.7h-30.6l-18.5-27.6
		c-6.6-9.8-11.1-16-13.5-18.6c-2.4-2.6-5-4.4-7.7-5.3c-2.7-1-7-1.4-12.9-1.4h-5.2v52.9H1285.3z"/>
	<polygon class="st3" points="1441.6,452.5 1441.6,347.2 1404,347.2 1404,325.8 1504.8,325.8 1504.8,347.2 1467.2,347.2 
		1467.2,452.5 	"/>
	<path class="st3" d="M658.8,575.7l24.1-2.3c1.5,8,4.4,14,8.8,17.8c4.5,3.8,10.4,5.7,18,5.7c8,0,14-1.7,18.1-5.1
		c4.1-3.3,6.1-7.3,6.1-11.8c0-2.9-0.8-5.4-2.6-7.5c-1.7-2-4.7-3.8-8.9-5.3c-2.9-1-9.5-2.7-19.8-5.4c-13.3-3.3-22.6-7.3-28-12.1
		c-7.5-6.7-11.3-15-11.3-24.7c0-6.3,1.8-12.1,5.3-17.5c3.6-5.4,8.7-9.6,15.3-12.5c6.7-2.8,14.7-4.2,24.2-4.2
		c15.5,0,27,3.3,34.8,10.1c7.8,6.8,11.9,15.8,12.2,27.1l-24.8,1.1c-1.1-6.3-3.3-10.9-6.9-13.6c-3.5-2.7-8.7-4.1-15.7-4.1
		c-7.2,0-12.8,1.4-16.9,4.4c-2.6,1.9-3.9,4.4-3.9,7.6c0,2.9,1.2,5.4,3.6,7.5c3.2,2.6,10.7,5.3,22.8,8.2c12.1,2.9,21,5.8,26.8,8.8
		c5.8,3,10.3,7.2,13.5,12.5c3.3,5.3,4.9,11.7,4.9,19.5c0,7-1.9,13.6-5.8,19.8c-3.9,6.2-9.4,10.7-16.6,13.7c-7.2,3-16.1,4.5-26.7,4.5
		c-15.5,0-27.4-3.6-35.7-10.7C665.3,599.9,660.4,589.4,658.8,575.7"/>
	<polygon class="st3" points="779.5,615.6 779.5,492.8 870.5,492.8 870.5,513.6 804.2,513.6 804.2,540.8 865.9,540.8 865.9,561.5 
		804.2,561.5 804.2,594.9 872.8,594.9 872.8,615.6 	"/>
	<path class="st3" d="M918.7,544.8h18.4c11.9,0,19.3-0.5,22.3-1.5c3-1,5.3-2.7,7-5.2c1.7-2.4,2.5-5.5,2.5-9.2c0-4.2-1.1-7.5-3.3-10
		c-2.1-2.6-5.3-4.2-9.3-4.8c-2-0.3-8.1-0.4-18.1-0.4h-19.4V544.8z M894,615.6V492.8h52.2c13.1,0,22.6,1.1,28.6,3.3
		c6,2.2,10.7,6.1,14.3,11.8c3.6,5.6,5.4,12.1,5.4,19.3c0,9.2-2.7,16.8-8.1,22.8c-5.4,6-13.5,9.8-24.3,11.3
		c5.4,3.1,9.8,6.6,13.2,10.3c3.5,3.8,8.2,10.4,14.1,20l15,23.9h-29.7l-17.9-26.7c-6.4-9.5-10.7-15.6-13.1-18
		c-2.3-2.5-4.8-4.2-7.5-5.1c-2.6-0.9-6.8-1.4-12.5-1.4h-5.1v51.3H894z"/>
	<polygon class="st3" points="1046,615.6 1002.1,492.8 1029,492.8 1060.1,583.7 1090.1,492.8 1116.5,492.8 1072.5,615.6 	"/>
	<rect x="1128.3" y="492.8" class="st3" width="24.8" height="122.8"/>
	<path class="st3" d="M1255.3,570.5l24,7.6c-3.7,13.4-9.8,23.3-18.4,29.8c-8.6,6.5-19.5,9.8-32.6,9.8c-16.3,0-29.7-5.6-40.2-16.7
		c-10.5-11.2-15.8-26.4-15.8-45.7c0-20.5,5.3-36.3,15.9-47.6c10.5-11.3,24.4-16.9,41.6-16.9c15,0,27.2,4.4,36.6,13.3
		c5.5,5.3,9.8,12.8,12.5,22.6l-24.5,5.8c-1.4-6.3-4.5-11.4-9.1-15c-4.7-3.7-10.2-5.6-16.8-5.6c-9.1,0-16.5,3.3-22.1,9.8
		c-5.7,6.6-8.5,17.1-8.5,31.7c0,15.5,2.8,26.6,8.4,33.2c5.5,6.6,12.8,9.9,21.8,9.9c6.6,0,12.2-2.1,17-6.3
		C1249.8,586.1,1253.2,579.5,1255.3,570.5"/>
	<polygon class="st3" points="1300.6,615.6 1300.6,492.8 1391.7,492.8 1391.7,513.6 1325.4,513.6 1325.4,540.8 1387.1,540.8 
		1387.1,561.5 1325.4,561.5 1325.4,594.9 1394,594.9 1394,615.6 	"/>
	<path class="st3" d="M1408.8,575.7l24.1-2.3c1.5,8,4.4,14,8.8,17.8c4.5,3.8,10.4,5.7,18,5.7c8,0,14-1.7,18.1-5.1
		c4.1-3.3,6.1-7.3,6.1-11.8c0-2.9-0.8-5.4-2.6-7.5c-1.7-2-4.7-3.8-8.9-5.3c-2.9-1-9.5-2.7-19.9-5.4c-13.3-3.3-22.6-7.3-28-12.1
		c-7.5-6.7-11.3-15-11.3-24.7c0-6.3,1.8-12.1,5.3-17.5c3.6-5.4,8.7-9.6,15.3-12.5c6.7-2.8,14.7-4.2,24.2-4.2
		c15.5,0,27,3.3,34.8,10.1c7.8,6.8,11.9,15.8,12.2,27.1l-24.8,1.1c-1.1-6.3-3.3-10.9-6.9-13.6c-3.5-2.7-8.7-4.1-15.7-4.1
		c-7.2,0-12.8,1.4-16.9,4.4c-2.6,1.9-3.9,4.4-3.9,7.6c0,2.9,1.2,5.4,3.6,7.5c3.2,2.6,10.7,5.3,22.8,8.2c12.1,2.9,21,5.8,26.8,8.8
		c5.8,3,10.3,7.2,13.5,12.5c3.3,5.3,4.9,11.7,4.9,19.5c0,7-1.9,13.6-5.8,19.8c-3.9,6.2-9.4,10.7-16.6,13.7c-7.2,3-16.1,4.5-26.7,4.5
		c-15.5,0-27.4-3.6-35.7-10.7C1415.3,599.9,1410.4,589.4,1408.8,575.7"/>
</g>
</svg>
