<svg xmlns="http://www.w3.org/2000/svg" width="106.244" height="86.878" viewBox="0 0 106.244 86.878">
  <path id="Path_588" data-name="Path 588" d="M165.237,720.164a3.586,3.586,0,0,1-.468-.035c-5.389-.717-29.4-3.891-36.886-4.874l-.1-.007c-2.236-.244-4.444-.535-6.581-.817l-1.157-.152q-1.914-.252-3.826-.513c-2.186-.3-4.372-.591-6.559-.862a2.2,2.2,0,0,1-1.619-.93q-10.3-13.686-20.62-27.351a2.273,2.273,0,0,1-.463-1.987,3.709,3.709,0,0,0-.547-3.157v-1.545a5.559,5.559,0,0,1,3.6-3.21,4.736,4.736,0,0,1,1.143-.149,3.335,3.335,0,0,1,2.939,1.706,4.888,4.888,0,0,0,2.19,2.057,2.551,2.551,0,0,1,1.624,2.88,1.181,1.181,0,0,0,1.168,1.471,4.951,4.951,0,0,1,3.044,1.106,1.045,1.045,0,0,0,.716.312,1.2,1.2,0,0,0,.861-.463,1.2,1.2,0,0,1,.108-.107,9.819,9.819,0,0,1,6.115-2.477h.11a32.464,32.464,0,0,1,5.628.554,9.4,9.4,0,0,0,1.775.2,4.921,4.921,0,0,0,2.656-.731,1.912,1.912,0,0,1,1.024-.289,2.726,2.726,0,0,1,1.237.328,10.124,10.124,0,0,0,3.882.908c.477.045.955.089,1.431.163.939.146,1.882.272,2.826.4,1.82.244,3.7.5,5.515.894a5.106,5.106,0,0,0,1.091.122,4.756,4.756,0,0,0,1.128-.137,12.854,12.854,0,0,0,4.922-2.524,2.841,2.841,0,0,0,.77-1.038l.084-.163c.831-1.572,1.864-2.3,3.252-2.3.115,0,.232.006.353.015.082.008.163.01.239.01a1.619,1.619,0,0,0,1.752-1.735,3.621,3.621,0,0,1,1.627-3.186,1.627,1.627,0,0,0,.616-1.364c.256-4.262,1.706-6.048,5.742-7.077a2.481,2.481,0,0,0,1.445-1.12c1.214-1.794,2.673-3.521,5.1-4.006a1.729,1.729,0,0,0,1.254-1.58,6.006,6.006,0,0,1,2.111-3.551,7.3,7.3,0,0,0,2.3-3.7,3.8,3.8,0,0,1,2.192-2.656,7.524,7.524,0,0,0,3.2-2.6,8.5,8.5,0,0,1,2.316-2.017l.135-.093a4.816,4.816,0,0,0,2.139-3.572,6.793,6.793,0,0,1,4.343-5.638,3.554,3.554,0,0,1,1.364-.281,3.218,3.218,0,0,1,3.207,3.3l.007.673a12.952,12.952,0,0,0,.6,4.579,1.843,1.843,0,0,1-.121.995,1.723,1.723,0,0,0,.057,1.6,3.439,3.439,0,0,0,1.135.837,3.126,3.126,0,0,1,1.787,3.4,30,30,0,0,0,.374,12.073,4.481,4.481,0,0,1-1.447,4.5,17.235,17.235,0,0,1-2.435,1.98,4.934,4.934,0,0,1-2.619.829,4.181,4.181,0,0,1-3.887-3.061,2.531,2.531,0,0,1-.073-.268c-.1-.4-.295-1.218-1.173-1.218a1.747,1.747,0,0,0-.66.146,2.333,2.333,0,0,0-1.315,1.4,1.732,1.732,0,0,0,.111,1.451,6.137,6.137,0,0,1,.475,4.931,4.09,4.09,0,0,0,.828,4.231,1.569,1.569,0,0,1,.539,1.047c-.135,1.516.925,1.862,1.7,2.115a4.138,4.138,0,0,1,3.046,3.911,4.287,4.287,0,0,1-2.216,4.4,7.873,7.873,0,0,1-4.093,1.061,11.587,11.587,0,0,1-1.915-.168,3.558,3.558,0,0,0-.565-.057,1.029,1.029,0,0,0-.812.323,1.487,1.487,0,0,0-.163,1.257,3.75,3.75,0,0,1-.685,2.854,6.091,6.091,0,0,0-.856,2.836l-.052.409c-.5,3.629-2.344,6.79-4.132,9.846l-.366.628a5.853,5.853,0,0,0-1.023,3.341,40.984,40.984,0,0,1-.12,4.6c-.045.682-.088,1.363-.117,2.046-.063,1.5-.79,2.641-2.433,3.824a1.333,1.333,0,0,1-.827.233m-39.364-8.256a1.733,1.733,0,0,1,.2.012c2.763.348,16.362,2.154,25.361,3.35l8.243,1.09c1.336.172,2.673.345,4,.558a2.7,2.7,0,0,0,.407.035c.608,0,1.346-.275,1.4-1.583.022-.518.055-1.035.088-1.551a35.406,35.406,0,0,0,.1-3.841,9.217,9.217,0,0,1,1.83-6,19.859,19.859,0,0,0,4.014-10.514,4.429,4.429,0,0,1,.965-2.669,1.49,1.49,0,0,0,.264-1.359c-.041-.21-.1-.418-.15-.624s-.1-.393-.142-.592a3.007,3.007,0,0,1,.469-2.508,3.061,3.061,0,0,1,2.364-1.053l.2,0a10.525,10.525,0,0,1,1.748.2c.214.036.428.072.642.1a12.791,12.791,0,0,0,1.873.147,9.8,9.8,0,0,0,.983-.048c.577-.055,1.93-.187,1.96-1.592a2.125,2.125,0,0,0-1.754-2.232,14.136,14.136,0,0,0-1.834-.224,2.278,2.278,0,0,1-1.742-.741,2.2,2.2,0,0,1,.048-1.839,1.785,1.785,0,0,0-.255-1.9,5.315,5.315,0,0,1-.918-4.411,16.679,16.679,0,0,1,.341-1.684,3.6,3.6,0,0,0-.38-2.706,4.573,4.573,0,0,1,.76-5.243,4.787,4.787,0,0,1,3.811-2.1,4.974,4.974,0,0,1,1.038.114,3.965,3.965,0,0,1,3.067,3c.166.531.442,1.42,1.265,1.42a2.272,2.272,0,0,0,1.275-.593c.429-.322.844-.668,1.248-1.023a2.4,2.4,0,0,0,.783-2.435,28.463,28.463,0,0,1-.5-11.317,1.393,1.393,0,0,0-.135-1.107,1.482,1.482,0,0,0-1.037-.508,3.409,3.409,0,0,1-2.686-1.785,2.915,2.915,0,0,1,.542-2.836,2.759,2.759,0,0,0,.541-1.793c-.027-.594-.01-1.211.006-1.808.011-.4.022-.8.02-1.208a2.471,2.471,0,0,0-.73-2.028l-.69-.635-.244.905a16.849,16.849,0,0,1-1.388,3.257c-.347.679-.706,1.382-1,2.112A5.909,5.909,0,0,1,179.725,645a9.162,9.162,0,0,0-3.148,3.1,3.117,3.117,0,0,1-1.942,1.456,2.807,2.807,0,0,0-2.145,2.1,9.646,9.646,0,0,1-2.9,4.407,3.751,3.751,0,0,0-1.273,2.16,4.481,4.481,0,0,1-3.416,3.7,4.846,4.846,0,0,0-2.844,2.117c-1.348,2.043-2.784,3.037-4.654,3.222a2.6,2.6,0,0,0-2.291,2.408c-.081.519-.136,1.044-.19,1.568l-.036.332a3.481,3.481,0,0,1-1.351,2.84,2.6,2.6,0,0,0-1.108,2.421,3.261,3.261,0,0,1-.923,2.394,3.966,3.966,0,0,1-2.9,1.126h-.129a2.137,2.137,0,0,0-2.278,1.581,2.863,2.863,0,0,1-1.077,1.351c-2.135,1.66-4.744,3.355-7.912,3.355l-.269,0a39.24,39.24,0,0,1-5.757-.552c-.415-.075-.827-.158-1.235-.241a20.335,20.335,0,0,0-4.028-.532,10.05,10.05,0,0,0-1.1.059,1.719,1.719,0,0,1-.176.01,3.865,3.865,0,0,1-1.973-.8,2.5,2.5,0,0,0-1.417-.478,2.462,2.462,0,0,0-1.233.358,3.511,3.511,0,0,1-1.826.438,12.878,12.878,0,0,1-1.585-.134l-.539-.066-1.693-.187c-1.03-.113-2.061-.225-3.09-.351a7.455,7.455,0,0,0-.886-.055,7.043,7.043,0,0,0-4.587,1.757c-.3.25-.7.575-1.121.869a3.647,3.647,0,0,1-2.032.774,3.216,3.216,0,0,1-2.16-1.045,4.056,4.056,0,0,0-2.489-1.076c-1.581-.163-2.424-.635-2.91-1.63l-.11-.213c-.126-.243-.269-.518-.228-.666a2.439,2.439,0,0,0-1.473-2.9,2.527,2.527,0,0,1-1.121-1.262,1.283,1.283,0,0,0-1.214-.959,1.484,1.484,0,0,0-.444.072,1.27,1.27,0,0,0-.8.639,1.507,1.507,0,0,0,.008,1.207,5.383,5.383,0,0,1,.347,2.791,1.334,1.334,0,0,0,.412,1.117c.037.042.073.084.105.126l3.97,5.271q7.595,10.08,15.182,20.168a2.143,2.143,0,0,0,1.577.9q6.728.844,13.451,1.739l.984.129Z" transform="translate(-86.407 -633.286)" fill="#3B543C"/>
</svg>