<svg xmlns="http://www.w3.org/2000/svg" width="97.621" height="98.913" viewBox="0 0 97.621 98.913">
  <g id="Group_666" data-name="Group 666" transform="translate(-59.354 -425.189)">
    <path id="Path_590" data-name="Path 590" d="M146.227,446.1a18.2,18.2,0,1,0-7.062,1.426,18.079,18.079,0,0,0,7.062-1.426M123.672,429.38a15.493,15.493,0,1,1,15.493,15.493,15.51,15.51,0,0,1-15.493-15.493" transform="translate(-31 13.951)" fill="#3B543C"/>
    <path id="Path_591" data-name="Path 591" d="M119.351,480.54a59.009,59.009,0,0,0-2.933-13.271c-1.287-3.327-5.921-9.1-10.828-15.206-3.286-4.093-6.685-8.325-9.136-11.9a33.461,33.461,0,0,1-2.781-4.661c-.761-1.647-.685-2.3-.644-2.458.749-2.9,5.057-2.6,13.246-1.757,2.7.278,5.762.593,9.043.771a1.325,1.325,0,0,0,.144-2.646c-3.218-.174-6.245-.486-8.916-.761a54.6,54.6,0,0,0-10.262-.494,8.2,8.2,0,0,0-3.667,1.154,5.057,5.057,0,0,0-2.154,3.072c-.489,1.9.649,4.675,3.806,9.279,2.507,3.655,5.938,7.927,9.256,12.058,4.564,5.683,9.283,11.559,10.421,14.5,2.769,7.161,3.456,19.8,3.463,19.925a1.325,1.325,0,0,0,1.322,1.256h.07a1.326,1.326,0,0,0,1.254-1.392c-.007-.134-.176-3.319-.7-7.473" transform="translate(-31 13.951)" fill="#3B543C"/>
    <path id="Path_592" data-name="Path 592" d="M125.981,451.116l-.045-.016a42.179,42.179,0,0,1-15.475-9.583,6.657,6.657,0,0,1-.58-.626,5.051,5.051,0,0,1,1.183-.134c.942-.023,2.149.072,3.427.173.774.062,1.574.125,2.4.169.024,0,.048,0,.072,0a1.325,1.325,0,0,0,.071-2.648c-.787-.042-1.571-.1-2.329-.164a28.982,28.982,0,0,0-4.381-.145,5.006,5.006,0,0,0-1.854.465,2.522,2.522,0,0,0-1.357,1.642c-.309,1.2.589,2.276,1.508,3.168A45.1,45.1,0,0,0,125.057,453.6l.045.016a1.325,1.325,0,0,0,.879-2.5" transform="translate(-31 13.951)" fill="#3B543C"/>
    <path id="Path_593" data-name="Path 593" d="M187.866,432.385a5.054,5.054,0,0,0-2.154-3.071,8.19,8.19,0,0,0-3.666-1.154,54.525,54.525,0,0,0-10.263.494c-2.671.275-5.7.586-8.915.761a1.325,1.325,0,0,0,.143,2.646c3.282-.178,6.343-.493,9.043-.771,8.19-.842,12.5-1.147,13.246,1.757.041.16.117.811-.643,2.458a33.582,33.582,0,0,1-2.782,4.661c-2.45,3.573-5.849,7.805-9.136,11.9-1.53,1.9-2.975,3.705-4.339,5.453a1.324,1.324,0,1,0,2.088,1.63c1.353-1.733,2.793-3.526,4.317-5.423,3.318-4.131,6.748-8.4,9.255-12.059,3.157-4.6,4.3-7.378,3.806-9.279" transform="translate(-31 13.951)" fill="#3B543C"/>
    <path id="Path_594" data-name="Path 594" d="M161.445,441.1c.819-.045,1.619-.108,2.394-.169,1.278-.1,2.485-.2,3.427-.174a5.033,5.033,0,0,1,1.183.135,6.658,6.658,0,0,1-.58.626A42.2,42.2,0,0,1,152.4,451.1l-.045.016a1.325,1.325,0,0,0,.438,2.575,1.342,1.342,0,0,0,.441-.076l.044-.016a45.1,45.1,0,0,0,16.441-10.181c.919-.891,1.817-1.965,1.507-3.167a2.516,2.516,0,0,0-1.356-1.642,5.024,5.024,0,0,0-1.854-.466,29.128,29.128,0,0,0-4.381.146c-.758.06-1.541.121-2.33.164a1.325,1.325,0,1,0,.145,2.646" transform="translate(-31 13.951)" fill="#3B543C"/>
    <path id="Path_595" data-name="Path 595" d="M175.225,468.607a24.263,24.263,0,1,0,5.215,7.735,24.256,24.256,0,0,0-5.215-7.735M158.017,507.5A21.686,21.686,0,1,1,179.7,485.815,21.71,21.71,0,0,1,158.017,507.5" transform="translate(-31 13.951)" fill="#3B543C"/>
    <path id="Path_596" data-name="Path 596" d="M170.6,484.491h-8.212a4.59,4.59,0,0,0-3.051-3.052V469.276a1.325,1.325,0,1,0-2.65,0v12.163a4.572,4.572,0,1,0,5.7,5.7H170.6a1.324,1.324,0,1,0,0-2.648m-12.588,3.246a1.922,1.922,0,1,1,1.922-1.922,1.924,1.924,0,0,1-1.922,1.922" transform="translate(-31 13.951)" fill="#3B543C"/>
  </g>
</svg>