<svg xmlns="http://www.w3.org/2000/svg" width="85.164" height="85.185" viewBox="0 0 85.164 85.185">
  <g id="Group_667" data-name="Group 667" transform="translate(-447.328 -637.119)">
    <path id="Path_597" data-name="Path 597" d="M479.018,692.392a3.363,3.363,0,0,1-2.039-.718c-1.224-.9-1.637-2.181-1.3-4.032.265-1.441.51-2.887.754-4.331s.491-2.913.759-4.366a1.782,1.782,0,0,0-.612-1.764c-.859-.814-1.711-1.636-2.564-2.456-1.271-1.225-2.542-2.449-3.833-3.652A3.616,3.616,0,0,1,472.3,664.7c1.713-.219,3.422-.477,5.131-.734,1.344-.2,2.688-.4,4.035-.589a1.458,1.458,0,0,0,1.195-.974c.555-1.147,1.066-2.206,1.575-3.264.815-1.69,1.629-3.38,2.458-5.061a3.528,3.528,0,0,1,3.191-2.056,3.821,3.821,0,0,1,1.739.43,3.312,3.312,0,0,1,1.5,1.6l1.408,2.849c.911,1.835,1.82,3.672,2.712,5.516a1.894,1.894,0,0,0,1.609,1.115c2.762.351,5.975.766,9.161,1.238a3.578,3.578,0,0,1,1.911,5.989c-2.243,2.2-4.488,4.406-6.758,6.58a1.844,1.844,0,0,0-.577,1.862c.487,2.552.942,5.109,1.4,7.667l.194,1.093a5.638,5.638,0,0,1,.063.619l.01.153a3.636,3.636,0,0,1-1.067,2.591,3.43,3.43,0,0,1-2.413,1.052,3.12,3.12,0,0,1-1.251-.263,84.454,84.454,0,0,1-7.985-4.15,3.355,3.355,0,0,0-1.69-.508,3.266,3.266,0,0,0-1.671.506c-1.323.768-2.7,1.5-4.039,2.205-.987.522-1.973,1.044-2.948,1.586a4.517,4.517,0,0,1-2.165.64m9.009-34.23q-1.436,2.994-2.859,5.98a3.715,3.715,0,0,1-3.055,2.257c-2.2.309-4.4.636-6.44.938l-3.561.527s1.983,2.147,2.565,2.784c1.427,1.556,2.9,3.165,4.419,4.729a4.031,4.031,0,0,1,1.219,3.726q-.2,1.143-.4,2.285-.187,1.05-.371,2.1c-.193,1.127-.381,2.255-.569,3.393l-.347,2.085.771-.005a1.936,1.936,0,0,0,1.044-.33l.127-.073,1.917-1c1.794-.932,3.588-1.863,5.361-2.832a4.255,4.255,0,0,1,2.06-.578,4.212,4.212,0,0,1,2.039.57c1.963,1.066,3.944,2.1,5.927,3.127l1.578.822a1.34,1.34,0,0,0,.767.3,1.027,1.027,0,0,0,.408-.086l.395-.168v-.429a2,2,0,0,0-.011-.45l-.386-2.262c-.35-2.064-.7-4.129-1.085-6.187a4.1,4.1,0,0,1,1.254-4.071c1.589-1.491,3.165-3.042,4.69-4.543l1.29-1.268c.032-.031.068-.059.105-.089a1.394,1.394,0,0,0,.6-.954l.07-.624-3.245-.485c-2.188-.33-4.37-.66-6.556-.954a3.74,3.74,0,0,1-3.085-2.217q-1.889-3.839-3.789-7.673c-.025-.051-.048-.106-.07-.161a1.8,1.8,0,0,0-.65-.885l-.625-.425Z" fill="#3B543C"/>
    <path id="Path_598" data-name="Path 598" d="M523.911,722.281a3.472,3.472,0,0,1-1.617-.444l-1.27-.663c-1.621-.847-3.243-1.694-4.852-2.566a2.082,2.082,0,0,0-1.015-.289,2.053,2.053,0,0,0-1,.284c-2.041,1.112-4.216,2.287-6.418,3.362a2.972,2.972,0,0,1-1.314.309,3.127,3.127,0,0,1-2.211-.951,3.473,3.473,0,0,1-.968-2.531c.087-.479.184-1.078.281-1.694.25-1.569.508-3.191.853-4.813a2.988,2.988,0,0,0-1.055-3.2,39.805,39.805,0,0,1-4.736-4.687,2.826,2.826,0,0,1-.727-2.272,3.032,3.032,0,0,1,2.588-2.744c2.063-.351,4.273-.674,6.756-.986a2.467,2.467,0,0,0,2.182-1.539l.188-.422a49.625,49.625,0,0,1,2.8-5.64A3.136,3.136,0,0,1,514.4,689.1a3.619,3.619,0,0,1,.768-.085,3.1,3.1,0,0,1,2.823,1.776c1.1,2.166,2.176,4.373,3.172,6.434A1.729,1.729,0,0,0,522.6,698.3c1.022.134,2.04.287,3.058.438,1.188.178,2.375.354,3.566.5a3.286,3.286,0,0,1,3.093,2.238,3.2,3.2,0,0,1-1.1,3.571c-.884.84-1.756,1.693-2.626,2.546q-1.085,1.065-2.178,2.121a1.809,1.809,0,0,0-.619,1.754c.148.877.313,1.75.478,2.624.264,1.4.537,2.845.727,4.273a3.509,3.509,0,0,1-.6,2.722,3.185,3.185,0,0,1-2.161,1.174,2.646,2.646,0,0,1-.318.019m-12.378-22.917a3.179,3.179,0,0,1-2.552,1.868q-1.191.168-2.381.345l-5.3.8.839.9c.4.426.789.864,1.181,1.3.89.995,1.81,2.022,2.822,2.948a4.208,4.208,0,0,1,1.428,4.519c-.309,1.322-.509,2.636-.721,4.029-.092.608-.185,1.222-.289,1.847l-.216,1.287,1.157-.6c.579-.3,1.151-.592,1.716-.878,1.294-.654,2.516-1.273,3.717-1.986a4.3,4.3,0,0,1,2.217-.681,4.5,4.5,0,0,1,2.277.7c1.182.693,2.385,1.3,3.658,1.953.565.288,1.139.58,1.723.885l1.155.6-.959-5.795c-.121-.74-.242-1.48-.386-2.217a3.3,3.3,0,0,1,1.063-3.149c1.064-1.095,2.106-2.216,3.129-3.317l2.048-2.194-1-.3a4.209,4.209,0,0,0-.534-.123l-1.586-.24c-1.4-.214-2.8-.428-4.2-.6a3.447,3.447,0,0,1-2.893-2.144c-.639-1.345-1.3-2.677-1.995-4.061l-1.5-3.015s-2.932,5.919-3.622,7.321" fill="#3B543C"/>
    <path id="Path_599" data-name="Path 599" d="M473.393,722.3a3.109,3.109,0,0,1-1.446-.387l-1.441-.754c-1.59-.83-3.181-1.661-4.757-2.514a2.309,2.309,0,0,0-1.116-.322,2.177,2.177,0,0,0-1.066.3c-2.453,1.354-4.465,2.41-6.335,3.325a2.941,2.941,0,0,1-1.3.306,3.126,3.126,0,0,1-2.213-.956,3.5,3.5,0,0,1-.97-2.559c.09-.483.188-1.085.29-1.706.263-1.61.536-3.274.881-4.95a2.711,2.711,0,0,0-.918-2.838l-.468-.422a40.731,40.731,0,0,1-4.461-4.448,2.779,2.779,0,0,1-.721-2.2,3.081,3.081,0,0,1,2.63-2.8c2.047-.338,4.25-.658,6.931-1.007a2.155,2.155,0,0,0,1.836-1.328c.528-1.133,1.084-2.251,1.64-3.37.433-.871.866-1.742,1.286-2.62a3.232,3.232,0,0,1,5.955,0c.436.916.889,1.825,1.342,2.735.549,1.105,1.1,2.211,1.621,3.331a2.008,2.008,0,0,0,1.721,1.232c2.2.286,4.407.6,6.608.913a3.216,3.216,0,0,1,2.984,3.76,2.936,2.936,0,0,1-.959,1.764l-1.605,1.57q-1.742,1.7-3.492,3.4a1.694,1.694,0,0,0-.546,1.7c.316,1.678.6,3.365.877,5.051l.326,1.945a2.991,2.991,0,0,1-1.225,3.144,3.16,3.16,0,0,1-1.887.7M461.008,699.4a3.124,3.124,0,0,1-2.345,1.808c-.531.1-1.066.17-1.6.242q-.461.06-.919.127l-5.327.8,2.126,2.284c1.049,1.131,2.111,2.278,3.2,3.4a3.279,3.279,0,0,1,1.051,2.937c-.1.637-.205,1.273-.312,1.909l-1.035,6.3,1.153-.6c.591-.309,1.169-.6,1.735-.89,1.284-.654,2.5-1.271,3.682-1.97a4.361,4.361,0,0,1,2.236-.683,4.431,4.431,0,0,1,2.26.689c1.2.7,2.417,1.324,3.7,1.981.556.284,1.119.571,1.688.869l1.158.607-.216-1.289q-.17-1.02-.327-2.01c-.245-1.535-.477-2.984-.768-4.451a3.638,3.638,0,0,1,1.2-3.577c1.059-1.045,2.081-2.141,3.07-3.2q.641-.688,1.28-1.366l.773-.816-1.092-.262a3.841,3.841,0,0,0-.539-.128q-3.012-.442-6.024-.875a3.093,3.093,0,0,1-2.47-1.735c-.4-.777-.785-1.561-1.17-2.346l-2.531-5.094Z" fill="#3B543C"/>
    <path id="Path_600" data-name="Path 600" d="M489.888,646.428a1.588,1.588,0,0,1-1.54-1.731c-.012-.683-.009-1.367-.007-2.05v-1.875c0-.652-.006-1.3.008-1.957a1.6,1.6,0,0,1,1.548-1.7,1.583,1.583,0,0,1,1.559,1.651c.034,1.9.035,3.908,0,5.972a1.569,1.569,0,0,1-1.548,1.686Z" fill="#3B543C"/>
    <path id="Path_601" data-name="Path 601" d="M477.813,654.517a1.484,1.484,0,0,1-1.028-.461c-1.205-1.169-2.388-2.363-3.571-3.556l-.966-.972a1.344,1.344,0,0,1-.45-1.051,1.577,1.577,0,0,1,.99-1.457,1.449,1.449,0,0,1,.64-.163,1.3,1.3,0,0,1,.914.414c1.729,1.682,3.247,3.2,4.645,4.652a1.384,1.384,0,0,1-.065,2.075,1.57,1.57,0,0,1-1.109.519" fill="#3B543C"/>
    <path id="Path_602" data-name="Path 602" d="M501.892,654.511a1.649,1.649,0,0,1-1.336-.982,1.224,1.224,0,0,1,.21-1.548c1.749-1.807,3.227-3.284,4.651-4.646a1.36,1.36,0,0,1,.951-.422,1.58,1.58,0,0,1,1.074.488,1.368,1.368,0,0,1,.149,2.062c-1.327,1.4-2.734,2.783-4.1,4.119l-.609.6a1.3,1.3,0,0,1-.995.332" fill="#3B543C"/>
  </g>
</svg>