<svg xmlns="http://www.w3.org/2000/svg" width="106.342" height="103.755" viewBox="0 0 106.342 103.755">
  <g id="Group_668" data-name="Group 668" transform="translate(-655.936 -3634.128)">
    <path id="Path_603" data-name="Path 603" d="M463.738,491.872c-4.583,0-7.32-2.755-7.323-7.366V471.982a2.326,2.326,0,0,0-.018-.239l-.129-1.365-.78.782c-.358.356-.708.7-1.053,1.039-.818.8-1.589,1.555-2.318,2.367-.258.287-.361.306-.366.307s-.091-.025-.316-.3a5.931,5.931,0,0,0-.779-.739c-.277-.234-.7-.587-.711-.767-.018-.255.445-.621.819-.914a7.192,7.192,0,0,0,.656-.562q2.1-2.126,4.214-4.228,1.281-1.278,2.558-2.559c3.852-3.869,4.05-8.687.528-12.892a1.33,1.33,0,0,1,.1-2.17q3.81-3.845,7.654-7.659a2.723,2.723,0,0,0,.936-2.588A2.447,2.447,0,0,0,465,437.518a2.839,2.839,0,0,0-1.988.853c-2.3,2.257-4.758,4.692-7.18,7.2-.341.355-.446.365-.457.365s-.112-.005-.427-.34l-.1-.111c-.6-.639-1.078-1.144-1.07-1.362.007-.236.622-.8,1.162-1.3a4.062,4.062,0,0,0,1.508-3.646,25.743,25.743,0,0,1-.017-3.59l.008-.169a1.349,1.349,0,0,0-.292-1.015,1.273,1.273,0,0,0-.95-.322h-.111c-.544.016-1.088.021-1.633.021l-2.091-.008-.664,0a4.135,4.135,0,0,0-4.335,4.333c-.011,4.989-.024,10.148.015,15.351a2.577,2.577,0,0,1-.867,2.1c-.985.9-1.9,1.848-2.658,2.659a1.224,1.224,0,0,1-.1.1,1.649,1.649,0,0,1-.153-.13c-.862-.8-1.464-1.366-1.465-1.653s.663-.931,1.43-1.661a3.735,3.735,0,0,0,1.248-3.018c-.05-3.605-.04-7.274-.031-10.822l.007-2.709c.006-4.316,2.8-7.113,7.11-7.124.377,0,.753-.005,1.129-.009.429,0,.857-.008,1.284-.008.578,0,1.159.007,1.736.035l.151,0a1.259,1.259,0,0,0,.923-.313,1.461,1.461,0,0,0,.319-1.092c-.026-3.826-.022-7.651-.017-11.474l0-1.611c.005-4.371,2.811-7.2,7.148-7.2h74.917c4.354,0,7.167,2.818,7.169,7.178l0,14.9q0,17.034.013,34.069c0,.429-.036.539-.058.566a.752.752,0,0,1-.376.054l-.237-.005a4.036,4.036,0,0,1-1.751-.212,4.7,4.7,0,0,1-.167-1.91V417.335c0-3.346-1.559-4.9-4.906-4.9H463.819c-3.25,0-4.828,1.592-4.828,4.868v21.648l.9-.983c.221-.243.415-.46.589-.657.326-.369.584-.661.862-.919a5.335,5.335,0,0,1,3.614-1.464,5.016,5.016,0,0,1,3.583,1.522,5.067,5.067,0,0,1,0,7.192c-1.851,1.928-3.79,3.838-5.667,5.685l-.7.692a1.275,1.275,0,0,0-.26,1.832,11.3,11.3,0,0,1-1.67,14.513,3.91,3.91,0,0,0-1.279,3.118c.059,1.827.048,3.693.038,5.5-.005.87-.01,1.741-.009,2.61a4.153,4.153,0,0,0,4.529,4.489l16.363.005q11.789,0,23.579-.029c.516,0,.611.072.625.087s.084.11.068.592l-.005.157a4.018,4.018,0,0,1-.2,1.618,4.5,4.5,0,0,1-1.738.146l-12.251,0q-8.37,0-16.744-.024a1.7,1.7,0,0,0-1.263.379,1.659,1.659,0,0,0-.35,1.249v.122c.063,2.7.293,2.919,3.085,2.919l12.485,0q8.2,0,16.4-.025c.444,0,.514.067.516.068s.065.072.056.5l0,.118a4.2,4.2,0,0,1-.2,1.748,4.616,4.616,0,0,1-1.849.162H463.738Zm-4.686-7.659a4.823,4.823,0,0,0,1.044,3.776,4.71,4.71,0,0,0,3.6,1.308h2.141c2.974,0,3.216-.234,3.234-3.139v-.088c.007-1.16-.566-1.415-1.429-1.442-.2-.006-.4-.009-.6-.009-.5,0-1,.016-1.5.032s-.978.032-1.466.032a8.665,8.665,0,0,1-4.266-.887l-.708-.387Z" transform="translate(214.811 3231.517)" fill="#3B543C"/>
    <path id="Path_604" data-name="Path 604" d="M520.784,506.366c-.834,0-.963-.112-1.023-.228a6.758,6.758,0,0,1-.154-2.121l0-.951c0-.7-.006-1.393.006-2.088a4.273,4.273,0,0,0-2.059-3.849q-2.208-1.452-4.4-2.934a9.081,9.081,0,0,1,1.062-16.117,2.758,2.758,0,0,0,1.821-2.9c-.078-3.259-.064-6.578-.049-9.788q.006-1.643.01-3.286c.005-3.068,2.059-5.3,4.886-5.3s4.9,2.221,4.909,5.281l0,.147a1.754,1.754,0,0,1,0,.24,1.666,1.666,0,0,0,.226,1.358,1.128,1.128,0,0,0,.884.337,3.38,3.38,0,0,0,.637-.07,4.419,4.419,0,0,1,.84-.082,4.546,4.546,0,0,1,3.474,1.773,1.313,1.313,0,0,0,1.016.582,1.609,1.609,0,0,0,.552-.109,5.936,5.936,0,0,1,2.048-.382c2.577,0,4.491,1.894,4.763,4.711a3.338,3.338,0,0,0,.061.348l.124.641.513-.1a8.23,8.23,0,0,1,1.581-.164,4.712,4.712,0,0,1,3.607,1.439,5.98,5.98,0,0,1,1.337,4.105c0,.615,0,1.228.005,1.843A48.457,48.457,0,0,1,546.6,490.2a33.187,33.187,0,0,1-2.052,6.3,7.521,7.521,0,0,0-.715,3.482c.028,1.074.023,2.151.019,3.227,0,.915-.008,1.833.008,2.748a1.379,1.379,0,0,1-.02.362h-.009c-.029,0-.113.016-.28.017h-.313c-.829,0-1.612,0-1.783-.2a5,5,0,0,1-.182-2.045V504c0-.086,0-.174,0-.26-.186-4.3.3-7.373,1.639-10.265,1.383-3,1.992-6.465,1.974-11.238,0-.8,0-1.594,0-2.391,0-1.16.005-2.32-.006-3.48a2.329,2.329,0,1,0-4.641-.035c-.006.189-.005.377,0,.566l0,.24c0,2.267-.167,2.267-.964,2.267a13.57,13.57,0,0,1-1.6-.147l-.027,0,0-.045a2.309,2.309,0,0,0,.013-.233c-.008-1.791-.007-3.584-.006-5.376V471.19c-.016-1.723-.872-2.763-2.292-2.784h0c-1.459,0-2.345,1.048-2.353,2.736l0,.746c-.008,1.747-.015,3.5.014,5.244a1.305,1.305,0,0,1-.017.3H533c-.03,0-.1.012-.231.013-.363.005-.615.008-.842.008-1.486,0-1.486,0-1.486-2.3l0-1.777c0-1.365,0-2.728,0-4.093-.008-1.625-.879-2.653-2.273-2.683h0c-1.455,0-2.361,1.067-2.368,2.721l0,.45c-.007,1.847-.016,3.693.012,5.54a1.681,1.681,0,0,1-.014.321l-.014,0c-.03,0-.1.01-.218.011,0,0-.638.009-.87.009-.85,0-1.2-.057-1.3-.213a5.845,5.845,0,0,1-.166-2.074s0-8.464,0-11.174c0-1.717-.844-2.769-2.254-2.812h0c-1.5,0-2.386,1.082-2.387,2.823l0,4.181q0,9.758.022,19.515c0,.451-.062.523-.066.525s-.068.057-.407.057l-.212,0a4.208,4.208,0,0,1-1.749-.2,4.6,4.6,0,0,1-.161-1.838v-4.084l-.665.194a5.378,5.378,0,0,0-3.231,2.818,6.638,6.638,0,0,0-.359,5.233,6.544,6.544,0,0,0,2.6,3.294l4.682,3.13a6.7,6.7,0,0,1,3.156,5.941l0,1.619c0,1.193-.008,2.387.015,3.58a1.416,1.416,0,0,1,0,.152,1.386,1.386,0,0,1-.184.017c-.513.02-.9.034-1.221.034" transform="translate(214.811 3231.517)" fill="#3B543C"/>
    <path id="Path_605" data-name="Path 605" d="M523.986,452.151a1.49,1.49,0,0,1-1.114-.609q-.786-.9-1.592-1.771a2.243,2.243,0,0,0-1.64-.818,2.322,2.322,0,0,0-1.683.843c-.269.29-.532.583-.795.876-.289.322-.578.643-.872.959a1.386,1.386,0,0,1-1.017.518,1.633,1.633,0,0,1-.641-.149c-.575-.248-1.156-.483-1.736-.718-.565-.23-1.13-.459-1.69-.7a1.275,1.275,0,0,1-.871-1.355c.02-.4.034-.792.048-1.188.015-.431.03-.861.054-1.29a2.4,2.4,0,0,0-.579-1.828,2.1,2.1,0,0,0-1.571-.622c-.088,0-.181.005-.274.013-1.022.092-1.673.142-2.186.142-1.3,0-1.392-.226-2.093-1.975-.149-.372-.32-.8-.53-1.287-.1-.228-.19-.458-.282-.689l-.138-.342a1.323,1.323,0,0,1,.35-1.665c.472-.423.94-.849,1.409-1.275l.432-.394a2.092,2.092,0,0,0,.014-3.343c-.556-.514-1.12-1.018-1.685-1.524l-.16-.144a1.318,1.318,0,0,1-.368-1.66c.368-.9.743-1.8,1.118-2.7l.3-.725a1.231,1.231,0,0,1,1.246-.872s.761.03,1.093.041c.492.018.986.036,1.478.063q.1.006.2.006a2.228,2.228,0,0,0,1.671-.636,2.322,2.322,0,0,0,.554-1.773c-.016-.3-.025-.607-.036-.911-.013-.453-.027-.9-.065-1.356a1.436,1.436,0,0,1,1.044-1.655c1.125-.433,2.217-.9,3.137-1.294a1.95,1.95,0,0,1,.757-.178,1.4,1.4,0,0,1,1.081.564q.783.9,1.592,1.77a2.315,2.315,0,0,0,1.681.846,2.268,2.268,0,0,0,1.657-.832c.56-.612,1.12-1.224,1.672-1.843a1.328,1.328,0,0,1,1.008-.513,1.739,1.739,0,0,1,.651.142c.507.206,1.012.417,1.517.627.6.251,1.2.5,1.811.746a1.426,1.426,0,0,1,.987,1.6l-.121,1.8a2.976,2.976,0,0,0,.5,2.251,2.535,2.535,0,0,0,1.894.62c.142,0,.291-.005.45-.014l1.165-.057v-.008l.326,0c.179,0,.359,0,.537-.014l.116,0a1.256,1.256,0,0,1,1.25.855c.3.694.584,1.4.867,2.1.194.478.387.956.585,1.432a1.268,1.268,0,0,1-.385,1.563c-.326.307-.657.606-.99.9-.282.253-.563.506-.841.765a2.3,2.3,0,0,0-.86,1.688,2.351,2.351,0,0,0,.9,1.706l.652.586c1.927,1.724,1.927,1.724.976,3.965-.123.291-.261.614-.411.977-.795,1.929-.923,2.064-1.957,2.064-.347,0-.767-.029-1.288-.07l-.318-.025c-.235-.02-.471-.04-.706-.052-.069-.005-.137-.006-.2-.006a2.13,2.13,0,0,0-2.283,2.5c.292,3.4.292,3.4-2.1,4.351-.287.114-1.234.5-1.234.5-.26.105-.52.21-.774.327a1.7,1.7,0,0,1-.7.173m-4.066-5.788a3.475,3.475,0,0,1,3.377,1.75,1.593,1.593,0,0,0,1.35.995,1.77,1.77,0,0,0,.617-.123,1.422,1.422,0,0,0,.966-1.66c-.005-.089-.012-.179-.011-.271a6.856,6.856,0,0,0-.072-.924c-.081-.648-.149-1.207.184-1.6l.326-.387c1.107-1.318,2.152-2.563,3.791-2.563a3.976,3.976,0,0,1,1.011.14,1.448,1.448,0,0,0,.359.039s.088,0,.107,0a1.456,1.456,0,0,0,.325.039,1.29,1.29,0,0,0,1.153-.948,1.268,1.268,0,0,0-.363-1.687c-.326-.264-.636-.547-.945-.829-.185-.169-.37-.338-.558-.5a1.466,1.466,0,0,1-.6-.977c-.174-2.311-.324-4.306,1.853-5.543a1.451,1.451,0,0,0,.313-.255.845.845,0,0,1,.087-.083,1.053,1.053,0,0,0,.253-1.417,1.516,1.516,0,0,1-.068-.162,1.148,1.148,0,0,0-1.084-.922,1.22,1.22,0,0,0-.176.012c-.215.027-.432.037-.648.048-.152.008-.3.015-.454.028-.118.009-.236.013-.353.013a4.529,4.529,0,0,1-3.24-1.4,4.349,4.349,0,0,1-1.24-3.2l.008-.125a2.463,2.463,0,0,0,.01-.384,1.922,1.922,0,0,1,.028-.381,1.416,1.416,0,0,0-.929-1.758,1.793,1.793,0,0,0-.637-.128,1.633,1.633,0,0,0-1.367.944l-.109.164a3.343,3.343,0,0,1-2.888,1.626,4.506,4.506,0,0,1-.681-.053,3.094,3.094,0,0,0-.463-.031c-.17,0-.34.01-.509.021-.1.006-.161.008-.221.008a1.927,1.927,0,0,1-1.637-.807,6.5,6.5,0,0,0-.5-.56,4.243,4.243,0,0,1-.512-.593,1.349,1.349,0,0,0-1.146-.692,2.469,2.469,0,0,0-.922.236,1.153,1.153,0,0,0-.723,1.4,1.525,1.525,0,0,1,.019.209,6.839,6.839,0,0,0,.078,1.031,2.194,2.194,0,0,1-.249,1.81c-1.234,1.467-2.354,2.8-4.061,2.8a4.086,4.086,0,0,1-1.13-.172,1.15,1.15,0,0,0-.336-.042h-.117a2.429,2.429,0,0,0-.261-.019,1.1,1.1,0,0,0-1.018.852l-.077.187a1.129,1.129,0,0,0,.244,1.477c.3.249.588.513.875.776.236.217.473.434.716.644a1.563,1.563,0,0,1,.648,1.068c.168,2.287.311,4.231-1.8,5.462a1.426,1.426,0,0,0-.667,1.951,1.263,1.263,0,0,0,1.278.877c.079,0,.161,0,.245-.008.068,0,.212-.008.212-.008a7.521,7.521,0,0,0,.992-.08,6.386,6.386,0,0,1,.817-.073,1.238,1.238,0,0,1,.843.253l.4.336c1.625,1.334,3.028,2.488,2.4,4.772a1.468,1.468,0,0,0,.855,1.978,1.7,1.7,0,0,0,.658.147,1.483,1.483,0,0,0,1.121-.614c.052-.057.1-.115.162-.171a6.831,6.831,0,0,0,.634-.747c.412-.533.768-.994,1.307-1.043l.444-.04c.567-.053,1.154-.109,1.706-.109" transform="translate(214.811 3231.517)" fill="#3B543C"/>
    <path id="Path_606" data-name="Path 606" d="M469.506,473.84c-.353,0-.431-.051-.433-.055a1.182,1.182,0,0,1-.041-.469l0-.105c.035-1.954.035-1.954,1.3-1.954.234,0,.5.006.8.01h.1a1.516,1.516,0,0,0,1.149-.375,1.6,1.6,0,0,0,.306-1.233c-.037-.613-.029-1.251-.022-1.866.008-.578.015-1.157-.012-1.734a1,1,0,0,1,.011-.241.041.041,0,0,0,.023,0c.039,0,.124-.01.276-.013l.741,0c1.54,0,1.54,0,1.54,2.227,0,2.968.234,3.209,3.14,3.231h.1a1.477,1.477,0,0,0,1.1-.342,1.492,1.492,0,0,0,.323-1.129c-.021-1.271-.02-2.543-.017-3.813,0-1.135,0-2.27-.012-3.406a1.559,1.559,0,0,1,.021-.367h.01c.029,0,.113-.014.275-.016h.351c.778,0,1.581,0,1.75.2a4.99,4.99,0,0,1,.181,2.036l0,1.534c.005,1.292.01,2.581-.016,3.871a1.438,1.438,0,0,0,.3,1.1,1.4,1.4,0,0,0,1.038.336h.349c2.8,0,2.97-.37,2.97-3.272l.005-2.884c.008-2.569.014-5.226-.03-7.84-.006-.369.049-.449.051-.452a1.022,1.022,0,0,1,.395-.04h.183a4.181,4.181,0,0,1,1.8.2,4.643,4.643,0,0,1,.17,1.918l0,2.888c.007,2.6.014,5.289-.029,7.931a1.594,1.594,0,0,0,.346,1.2,1.519,1.519,0,0,0,1.138.353h.2c2.764-.048,2.987-.284,2.987-3.153l0-1.553c0-1.328.01-2.656-.017-3.983a1.533,1.533,0,0,1,.019-.366h.009c.029,0,.113-.016.276-.017h.352c.778,0,1.583,0,1.751.2a5,5,0,0,1,.181,2.037l0,1.51c0,1.3.009,2.6-.017,3.894a1.436,1.436,0,0,0,.3,1.1,1.392,1.392,0,0,0,1.036.336h.352c2.8,0,2.968-.37,2.968-3.272a4.677,4.677,0,0,1,.183-1.995,4.427,4.427,0,0,1,1.928-.2l.105,0a.9.9,0,0,1,.367.043h0a2.812,2.812,0,0,1,.007.365c-.025.573-.02,1.147-.013,1.72s.014,1.189-.018,1.772a1.582,1.582,0,0,0,.309,1.227,1.245,1.245,0,0,0,.953.342c.076,0,.158,0,.246-.01.154-.013.319-.032.488-.05a9.149,9.149,0,0,1,.976-.074c.451,0,.6.086.639.125.167.151.113.654.066,1.1a4.9,4.9,0,0,0-.034,1.161.744.744,0,0,1,0,.293s0-.005-.012-.005a3.569,3.569,0,0,1-.385.021c-2.85-.014-5.669-.017-8.49-.017l-19.533,0q-4.9,0-9.8.029Z" transform="translate(214.811 3231.517)" fill="#3B543C"/>
    <path id="Path_607" data-name="Path 607" d="M473.145,405.231c-.374,0-.455-.049-.463-.055a1.132,1.132,0,0,1-.04-.452l0-.121a4.186,4.186,0,0,1,.2-1.8,4.587,4.587,0,0,1,1.9-.168h16.208q13.5,0,27.008-.025c.491,0,.571.068.578.076s.074.081.06.542l0,.146a4.121,4.121,0,0,1-.2,1.68,4.535,4.535,0,0,1-1.788.154l-31.091,0q-6.176,0-12.351.025Z" transform="translate(214.811 3231.517)" fill="#3B543C"/>
    <path id="Path_608" data-name="Path 608" d="M467.6,430.5a.878.878,0,0,1-.351-.039,2.138,2.138,0,0,1-.024-.359c.007-1.1.012-1.834.2-2.011a4.776,4.776,0,0,1,2.016-.183l11.028,0q7.066,0,14.134-.024c.393,0,.473.049.481.055a1.1,1.1,0,0,1,.041.452l0,.12a4.2,4.2,0,0,1-.2,1.8,4.6,4.6,0,0,1-1.9.168l-18.533,0q-3.428,0-6.857.022Z" transform="translate(214.811 3231.517)" fill="#3B543C"/>
    <path id="Path_609" data-name="Path 609" d="M474.934,437.73c-.359,0-.438-.048-.446-.054a1.15,1.15,0,0,1-.04-.457l0-.117a4.178,4.178,0,0,1,.2-1.8,4.6,4.6,0,0,1,1.9-.168l13.584.007c1.529,0,3.058-.005,4.587-.025h0a1.035,1.035,0,0,1,.372.037,2.574,2.574,0,0,1,.024.364c-.007,1.1-.012,1.832-.2,2.009a4.781,4.781,0,0,1-2.017.183l-8.687-.005q-4.628,0-9.255.027Z" transform="translate(214.811 3231.517)" fill="#3B543C"/>
    <path id="Path_610" data-name="Path 610" d="M478.321,423.278a1.063,1.063,0,0,1-.247-.02c.008-.015-.009-.092-.011-.265a4.911,4.911,0,0,1,.165-2.113,4.662,4.662,0,0,1,2.037-.191l7.025.005q3.709,0,7.418-.022h0a1.042,1.042,0,0,1,.388.039h0a1.965,1.965,0,0,1,.025.352v.092a4.386,4.386,0,0,1-.2,1.926,4.719,4.719,0,0,1-2.009.184l-10.826-.006c-1.245,0-2.489,0-3.733.019Z" transform="translate(214.811 3231.517)" fill="#3B543C"/>
    <path id="Path_611" data-name="Path 611" d="M474.711,444.943a1.067,1.067,0,0,1-.247-.02c.007-.015-.009-.091-.011-.262a4.913,4.913,0,0,1,.165-2.117,4.674,4.674,0,0,1,2.034-.19l7.123.005q3.66,0,7.321-.021h0a1.056,1.056,0,0,1,.388.038,2.225,2.225,0,0,1,.024.351v.093a4.386,4.386,0,0,1-.2,1.926,4.732,4.732,0,0,1-2.007.183l-10.79,0c-1.256,0-2.513,0-3.769.019Z" transform="translate(214.811 3231.517)" fill="#3B543C"/>
    <path id="Path_612" data-name="Path 612" d="M524.41,405.209a4.463,4.463,0,0,1-1.141-.068,5.3,5.3,0,0,1-.051-1.09,4.509,4.509,0,0,1,.089-1.329,4.39,4.39,0,0,1,1.295-.087,4.46,4.46,0,0,1,1.14.068,5.287,5.287,0,0,1,.051,1.089,4.467,4.467,0,0,1-.09,1.33,4.369,4.369,0,0,1-1.293.087" transform="translate(214.811 3231.517)" fill="#3B543C"/>
    <path id="Path_613" data-name="Path 613" d="M472.17,423.264a4.506,4.506,0,0,1-1.242-.079,4.657,4.657,0,0,1-.069-1.185,4.567,4.567,0,0,1,.078-1.242,4.676,4.676,0,0,1,1.187-.069,4.3,4.3,0,0,1,1.229.081,4.731,4.731,0,0,1,.081,1.3,4.287,4.287,0,0,1-.07,1.135,5.163,5.163,0,0,1-1.194.063" transform="translate(214.811 3231.517)" fill="#3B543C"/>
    <path id="Path_614" data-name="Path 614" d="M519.623,441.319a6.171,6.171,0,0,1-6.15-6.144A6.074,6.074,0,0,1,519.567,429,6.2,6.2,0,0,1,524,430.814a6.16,6.16,0,0,1-4.373,10.505Zm-.083-9.738a3.53,3.53,0,0,0-3.483,3.555,3.6,3.6,0,0,0,1.049,2.568,3.512,3.512,0,0,0,2.5,1.038,3.62,3.62,0,0,0,3.6-3.646,3.547,3.547,0,0,0-3.606-3.516h-.065Z" transform="translate(214.811 3231.517)" fill="#3B543C"/>
  </g>
</svg>