<svg xmlns="http://www.w3.org/2000/svg" width="29.009" height="35.603" viewBox="0 0 29.009 35.603">
  <path id="Path_1010" data-name="Path 1010" d="M958.587,632.257a7.965,7.965,0,0,1-3.817,7.424,5.042,5.042,0,0,1-3.143.788c-.227-.009-.191-.134-.2-.27a7.323,7.323,0,0,1,2.058-5.394A8.105,8.105,0,0,1,958,632.326c.047-.009.09-.013.1-.069Z" transform="translate(-936.966 -632.257)" fill="#fff"/>
  <path id="Path_1011" data-name="Path 1011" d="M936.972,651.7a11.676,11.676,0,0,1,1.99-7.02,8.436,8.436,0,0,1,6.053-3.708,7.229,7.229,0,0,1,3.113.376c.871.275,1.706.643,2.565.951a2.959,2.959,0,0,0,2.162-.085,16.514,16.514,0,0,1,3.82-1.221c3.289-.423,6.117.429,8.215,3.154.155.2.151.288-.071.436a7.766,7.766,0,0,0-3,3.422c-1.153,2.73-.815,7.245,2.783,9.576a9.451,9.451,0,0,0,1.167.68c.215.1.242.209.166.424a21.9,21.9,0,0,1-3.005,5.64,13.493,13.493,0,0,1-2.047,2.4,4.438,4.438,0,0,1-4.519.818c-.705-.223-1.4-.488-2.09-.74a6.435,6.435,0,0,0-4.449.05c-.882.308-1.741.678-2.655.9a3.715,3.715,0,0,1-3.033-.588,8.853,8.853,0,0,1-2.012-1.9,22.52,22.52,0,0,1-4.934-11,14.121,14.121,0,0,1-.221-2.56" transform="translate(-936.966 -632.257)" fill="#fff"/>
</svg>
