<svg xmlns="http://www.w3.org/2000/svg" width="12.683" height="12.643" viewBox="0 0 12.683 12.643">
  <path id="Path_719" data-name="Path 719" d="M777.345,724.815c.037-.009.034-.044.043-.068a.776.776,0,0,1,.684-.544,1.476,1.476,0,0,1,.185-.006q5.023,0,10.047,0c.122,0,.145-.031.144-.147q-.006-2.546,0-5.091a.482.482,0,0,0-.433-.526.457.457,0,0,0-.384.132c-.2.2-.4.4-.607.6-.044.043-.041.068,0,.108a.3.3,0,0,1,.088.3c-.087.419-.168.84-.253,1.26a.264.264,0,0,1-.194.219.279.279,0,0,1-.288-.1q-.333-.342-.665-.684c-.279-.287-.557-.576-.838-.861a.311.311,0,0,1-.115-.318.3.3,0,0,1,.275-.2c.411-.066.822-.135,1.233-.2a.267.267,0,0,1,.259.082c.054.061.085.055.141,0a8.9,8.9,0,0,1,.673-.657.947.947,0,0,1,1.024-.135.959.959,0,0,1,.6.84c.006.066.007.132.007.2q0,2.49,0,4.98c0,.189,0,.191.186.188a.816.816,0,0,1,.682.285.784.784,0,0,1-.3,1.236.2.2,0,0,0-.131.155q-.318,1.123-.642,2.244a1.858,1.858,0,0,1-1.7,1.362.4.4,0,0,0-.046.01c.107.214.212.422.314.632a.275.275,0,0,1-.035.342.259.259,0,0,1-.429-.092c-.133-.256-.263-.513-.386-.774a.174.174,0,0,0-.185-.119q-2.62.006-5.24,0a.166.166,0,0,0-.178.109c-.125.264-.256.526-.391.785a.259.259,0,0,1-.429.088.273.273,0,0,1-.037-.332c.089-.185.184-.368.275-.553.014-.028.041-.054.028-.093a1.867,1.867,0,0,1-1.212-.513,1.843,1.843,0,0,1-.514-.844q-.323-1.128-.643-2.257a.2.2,0,0,0-.133-.153.749.749,0,0,1-.441-.472c-.009-.029-.007-.068-.045-.081Zm3.016,3.61a.265.265,0,0,0,.286-.231.242.242,0,0,0-.222-.285.34.34,0,0,1-.318-.306.479.479,0,0,0-.013-.047c-.1-.344-.194-.688-.3-1.031a.262.262,0,1,0-.51.121c.117.424.233.848.367,1.266a.774.774,0,0,0,.707.512" transform="translate(-777.345 -717.898)" fill="#3b543c"/>
</svg>
