<svg xmlns="http://www.w3.org/2000/svg" width="45.083" height="45.201" viewBox="0 0 45.083 45.201">
  <g id="Group_1220" data-name="Group 1220" transform="translate(-342.772 -1437.312)">
    <path id="Path_887" data-name="Path 887" d="M169.047,1204.8c6.1,0,10.277,0,16.372,0a10.245,10.245,0,0,1,10.242,8.335,8.821,8.821,0,0,1,.192,1.782q0,7.219,0,14.437a2,2,0,0,1-1.209,1.95,2.056,2.056,0,0,1-2.895-1.8c-.01-.341.008-.685-.007-1.027a1.042,1.042,0,0,0-1.093-1.085c-.192-.009-.385,0-.577,0H156.639c-1.534,0-1.755.2-1.731,1.724a2.155,2.155,0,0,1-1.118,2.141,2.042,2.042,0,0,1-2.993-1.9c-.012-3.529-.019-7.059,0-10.588a42.334,42.334,0,0,1,.1-5.062,10.231,10.231,0,0,1,10.007-8.9c6.223-.03,1.919-.008,8.143-.008Z" transform="translate(192 250.999)" fill="#3b543c"/>
    <path id="Path_888" data-name="Path 888" d="M182.178,1186.321a7.185,7.185,0,0,1,7.515,7.486q.008,4.3,0,8.6c0,.807-.182.946-.96.753a12.075,12.075,0,0,0-3.361-.4.738.738,0,0,1-.883-.68,4.063,4.063,0,0,0-4.287-3.434c-2.224,0-11.564,0-13.746,0a4.061,4.061,0,0,0-4.291,3.428.738.738,0,0,1-.879.686,12.194,12.194,0,0,0-3.424.414c-.7.173-.9.021-.906-.693,0-2.972-.018-5.947,0-8.919a7.158,7.158,0,0,1,7.246-7.234c5.112-.022,12.947-.007,17.973,0" transform="translate(192 250.999)" fill="#3b543c"/>
  </g>
</svg>
