<svg xmlns="http://www.w3.org/2000/svg" width="13.063" height="13.064" viewBox="0 0 13.063 13.064">
  <path id="Path_726" data-name="Path 726" d="M180.678,782.4v12.678a.468.468,0,0,1-.455.181q-.842-.009-1.683,0c-.117,0-.135-.033-.135-.139q0-4.841,0-9.68c0-.317-.091-.408-.41-.408h-7.7c-.317,0-.407.091-.407.41q0,4.84,0,9.68c0,.113-.028.137-.138.136-.578-.006-1.156,0-1.734,0-.313,0-.4-.088-.4-.4q0-6.1,0-12.205a.473.473,0,0,1,.18-.455h12.653a.432.432,0,0,1,.23.2m-5.4.938a.263.263,0,0,0-.251.165.279.279,0,0,0,.069.326c.178.182.356.364.541.54a.285.285,0,0,0,.439-.009c.174-.168.345-.34.514-.513a.289.289,0,0,0,.027-.429.293.293,0,0,0-.43.029q-.147.141-.287.289c-.038.041-.061.039-.1,0-.093-.1-.191-.193-.287-.288a.306.306,0,0,0-.235-.107m-2.812,0a.308.308,0,0,0-.254.109c-.168.168-.338.335-.5.5a.287.287,0,1,0,.406.395c.091-.089.182-.178.269-.271.045-.048.073-.053.12,0,.088.1.183.189.278.28a.286.286,0,1,0,.4-.4c-.169-.173-.341-.344-.513-.514a.285.285,0,0,0-.2-.1m6.792,4.54a.286.286,0,0,0-.282.283.3.3,0,0,0,.289.28.287.287,0,0,0,.273-.28.278.278,0,0,0-.28-.283m0,1.7a.278.278,0,0,0,.28-.283.287.287,0,0,0-.273-.28.3.3,0,0,0-.289.28.287.287,0,0,0,.282.284" transform="translate(-167.615 -782.194)" fill="#3b543c"/>
  <path id="Path_727" data-name="Path 727" d="M174.932,795.515q0-2.2,0-4.4c0-.108.02-.143.137-.142q1.574.008,3.149,0c.109,0,.13.031.13.134q0,4.411,0,8.823c0,.1-.017.137-.128.136q-1.581-.008-3.162,0c-.1,0-.125-.029-.125-.128q0-2.212,0-4.424" transform="translate(-172.093 -787.569)" fill="#3b543c"/>
  <path id="Path_728" data-name="Path 728" d="M188.593,795.523c0,1.466,0,2.933,0,4.4,0,.117-.029.147-.146.146q-1.568-.007-3.136,0c-.1,0-.134-.022-.134-.13q0-4.418,0-8.836c0-.1.022-.127.124-.127q1.581.006,3.162,0c.11,0,.13.035.129.137q-.005,2.206,0,4.411" transform="translate(-178.367 -787.569)" fill="#3b543c"/>
</svg>
