<svg xmlns="http://www.w3.org/2000/svg" width="32.659" height="32.67" viewBox="0 0 32.659 32.67">
  <g id="Group_1224" data-name="Group 1224" transform="translate(-1131.948 -2623.016)">
    <path id="Path_1005" data-name="Path 1005" d="M969.607,561.62a6.769,6.769,0,0,0-.187,1.21,16.3,16.3,0,0,1-5.843,10.185.426.426,0,0,1-.085.043c-.133-.106-.268-.209-.4-.316l-4.908-4.008a9.974,9.974,0,0,0,3.437-3.429,12.964,12.964,0,0,0,.644-1.279c.1-.224.054-.288-.2-.286-1.4.009-2.8,0-4.207,0-1.306,0-2.613-.006-3.92.006-.241,0-.3-.072-.3-.307q.013-2.933,0-5.864c0-.252.088-.294.313-.294q7.538.009,15.075,0c.225,0,.309.056.342.29.07.484.142.965.176,1.452.005.061-.009.131.06.169Z" transform="translate(195 2079)" fill="#518ef7"/>
    <path id="Path_1006" data-name="Path 1006" d="M938.786,552.861a13.971,13.971,0,0,1,2.2-3.261,16.2,16.2,0,0,1,9.306-5.311c.5-.1,1.009-.139,1.513-.208.069-.01.153.023.2-.065h2.551a6,6,0,0,0,1.206.186,16.3,16.3,0,0,1,7.773,3.435c.136.109.147.161,0,.277q-2.484,2.022-4.957,4.06c-.152.125-.253.082-.391,0a9.58,9.58,0,0,0-5.045-1.332,9.7,9.7,0,0,0-8.93,6.229c-.038.1-.085.194-.127.29q-.877-.708-1.753-1.417-1.776-1.44-3.548-2.884" transform="translate(195 2079)" fill="#f04336"/>
    <path id="Path_1007" data-name="Path 1007" d="M958.185,568.734l4.908,4.007c.131.108.266.211.4.317a14.547,14.547,0,0,1-3.59,2.21,15.593,15.593,0,0,1-8.17,1.323,16.115,16.115,0,0,1-12.8-8.458.3.3,0,0,1-.019-.06l5.271-4.3a10.061,10.061,0,0,0,2.705,3.877,9.711,9.711,0,0,0,11.046,1.22c.084-.045.169-.087.254-.131" transform="translate(195 2079)" fill="#28b346"/>
    <path id="Path_1008" data-name="Path 1008" d="M944.18,563.768l-5.271,4.3a14.881,14.881,0,0,1-1.685-4.742,16.206,16.206,0,0,1,1.362-10.112c.058-.123.133-.238.2-.357l3.547,2.884q.876.71,1.753,1.417a11.432,11.432,0,0,0-.51,2.9,10.439,10.439,0,0,0,.6,3.708" transform="translate(195 2079)" fill="#faba01"/>
  </g>
</svg>
