<svg xmlns="http://www.w3.org/2000/svg" width="33.859" height="33.859" viewBox="0 0 33.859 33.859">
  <path id="Path_873" data-name="Path 873" d="M1197.557,3300.848h.661a2.491,2.491,0,0,1,1.057.622q7.486,7.5,14.979,14.984a1.706,1.706,0,0,1,.01,2.641q-7.5,7.5-15.005,15a1.7,1.7,0,0,1-2.615-.012l-14.354-14.346a4.917,4.917,0,0,1-1.264-1.568v-.794a4.927,4.927,0,0,1,1.264-1.568q6.883-6.885,13.769-13.768a4.571,4.571,0,0,1,1.5-1.2m3.775,9.3c0,1.363-.009,2.639.007,3.914,0,.282-.077.338-.346.337-2.656-.011-5.311-.008-7.967,0a1.68,1.68,0,0,0-1.843,1.814c-.01,2.127,0,4.254-.008,6.38,0,.217.06.277.277.274.926-.012,1.852-.016,2.777,0,.269,0,.351-.059.348-.339-.014-1.5-.005-3-.008-4.5,0-.155-.009-.26.212-.259q3.174.014,6.347,0c.235,0,.2.123.2.267q0,1.785,0,3.57v.377c.1-.086.156-.129.206-.18q2.771-2.769,5.544-5.535c.16-.159.14-.236-.009-.382q-1.924-1.908-3.836-3.831c-.615-.614-1.229-1.229-1.905-1.906" transform="translate(-1181.026 -3300.848)" fill="#e1e1e1"/>
</svg>
