<svg xmlns="http://www.w3.org/2000/svg" width="30.272" height="26.926" viewBox="0 0 30.272 26.926">
  <path id="Path_892" data-name="Path 892" d="M1442.364,1632.012c-.115.09-.089.23-.1.347a10.485,10.485,0,0,1-1.671,4.333,26.1,26.1,0,0,1-4.6,5.125c-2.438,2.207-4.968,4.308-7.455,6.46a1.761,1.761,0,0,1-2.505.061c-2.813-2.435-5.7-4.79-8.411-7.339a23.123,23.123,0,0,1-3.7-4.272,9.939,9.939,0,0,1-1.178-9.2,8,8,0,0,1,6.312-5.461,8.354,8.354,0,0,1,8.029,3.287c.124.171.191.192.328.006a8.8,8.8,0,0,1,2.2-2.119,7.57,7.57,0,0,1,5.506-1.23,8.04,8.04,0,0,1,5.788,3.767,9.4,9.4,0,0,1,1.4,4.057c.008.059-.032.144.065.173Zm-28.474-1.494a9.017,9.017,0,0,0,1.517,5.268,21.922,21.922,0,0,0,3.45,3.948c2.635,2.473,5.439,4.753,8.158,7.132.181.158.277.144.452-.008,2.346-2.042,4.741-4.027,7.053-6.108a26.375,26.375,0,0,0,4.522-4.922,8.394,8.394,0,0,0,1.487-5.811,6.969,6.969,0,0,0-3.289-5.418,6.148,6.148,0,0,0-6.784.2,8.387,8.387,0,0,0-2.157,2.359,1.424,1.424,0,0,1-.567.584,1.12,1.12,0,0,1-1.494-.493,9.711,9.711,0,0,0-1.761-2.09,6.217,6.217,0,0,0-8.307.237,7.242,7.242,0,0,0-2.28,5.12" transform="translate(-1412.092 -1621.906)" fill="#040404"/>
</svg>
