<svg xmlns="http://www.w3.org/2000/svg" width="46.785" height="46.623" viewBox="0 0 46.785 46.623">
  <g id="Group_1221" data-name="Group 1221" transform="translate(-1267.241 -1545.87)">
    <path id="Path_881" data-name="Path 881" d="M1098.613,1341.495a23.312,23.312,0,1,1,23.413-23.129,23.2,23.2,0,0,1-23.413,23.129m-15.346-10.438c2.552-6.863,7.427-10.883,14.79-11.1,7.892-.238,13.044,3.95,15.957,11.1a19.818,19.818,0,0,0-1.158-27.071,20.113,20.113,0,0,0-29.043.623,19.772,19.772,0,0,0-.546,26.45" transform="translate(192 250.999)" fill="#3b543c"/>
    <path id="Path_882" data-name="Path 882" d="M1089.929,1309.377a8.7,8.7,0,1,1,8.675,8.722,8.649,8.649,0,0,1-8.675-8.722" transform="translate(192 250.999)" fill="#3b543c"/>
  </g>
</svg>
