<svg xmlns="http://www.w3.org/2000/svg" width="34.063" height="34.063" viewBox="0 0 34.063 34.063">
  <g id="Group_892" data-name="Group 892" transform="translate(-1632.911 -109.937)">
    <g id="Group_1226" data-name="Group 1226">
      <path id="Path_842" data-name="Path 842" d="M1666.974,128.174a17.032,17.032,0,1,1-17.032-17.032,17.031,17.031,0,0,1,17.032,17.032" transform="translate(0 -1.205)" fill="#3b543c"/>
      <path id="Path_843" data-name="Path 843" d="M1645.322,136.823a.655.655,0,0,0-.274-.081,1.587,1.587,0,0,1-.241-.058,2.435,2.435,0,0,1-1.812-2.225,8.521,8.521,0,0,1,.566-4.018,3.362,3.362,0,0,1,1.5-1.807,3.214,3.214,0,0,1,1.51-.374.85.85,0,0,1,.447.158l.742.473a3.928,3.928,0,0,0,4.378,0l.1-.062c.166-.1.337-.208.491-.324a1.184,1.184,0,0,1,.744-.236,2.073,2.073,0,0,1,.287.021,3.072,3.072,0,0,1,2.333,1.663,7.206,7.206,0,0,1,.774,2.731,10.529,10.529,0,0,1,.063,1.444,2.629,2.629,0,0,1-2.412,2.673l-.153.019,0,.017Zm7.167-.755c.558,0,1.12,0,1.677-.008a1.9,1.9,0,0,0,1.995-2.038,10.94,10.94,0,0,0-.1-1.607,6.254,6.254,0,0,0-.621-2.06,2.3,2.3,0,0,0-1.917-1.318h-.01a.522.522,0,0,0-.309.077l-.147.1c-.177.116-.354.232-.535.342a4.652,4.652,0,0,1-4.638.287,6.158,6.158,0,0,1-.778-.458c-.169-.111-.292-.191-.417-.266a.447.447,0,0,0-.188-.084,2.183,2.183,0,0,0-1.525.614,3.357,3.357,0,0,0-.744,1.184,8.626,8.626,0,0,0-.5,3.39,1.755,1.755,0,0,0,.837,1.518,2.319,2.319,0,0,0,1.317.329l3.95,0Z" transform="translate(0 -1.205)" fill="#fff"/>
      <path id="Path_844" data-name="Path 844" d="M1649.939,128.007a3.987,3.987,0,0,1-.012-7.974,3.987,3.987,0,1,1,.023,7.974Zm.026-7.21a3.224,3.224,0,0,0-.038,6.447,3.266,3.266,0,0,0,2.3-.956,3.211,3.211,0,0,0,.03-4.506A3.221,3.221,0,0,0,1650,120.8Z" transform="translate(0 -1.205)" fill="#fff"/>
    </g>
  </g>
</svg>
