<svg xmlns="http://www.w3.org/2000/svg" width="23.948" height="23.948" viewBox="0 0 23.948 23.948">
  <g id="Group_1223" data-name="Group 1223" transform="translate(-1329.638 -1821.62)">
    <path id="Path_905" data-name="Path 905" d="M1180.586,1470.594a11.974,11.974,0,1,1-11.974-11.974,11.974,11.974,0,0,1,11.974,11.974" transform="translate(173 363)" fill="#3b543c"/>
    <path id="Path_906" data-name="Path 906" d="M1168.951,1473.655h-1.216v-1.4a1.691,1.691,0,0,1,.211-.836,3.708,3.708,0,0,1,.515-.71,8.1,8.1,0,0,1,.659-.633,5.885,5.885,0,0,0,.651-.651,3.975,3.975,0,0,0,.5-.734,1.912,1.912,0,0,0,.2-.9,1.88,1.88,0,0,0-.549-1.4,1.946,1.946,0,0,0-1.428-.541,2.058,2.058,0,0,0-1.427.507,2.275,2.275,0,0,0-.718,1.335l-1.268-.153a3.459,3.459,0,0,1,.4-1.182,3.068,3.068,0,0,1,.744-.887,3.117,3.117,0,0,1,1.022-.549,3.953,3.953,0,0,1,1.234-.186,4.026,4.026,0,0,1,1.267.194,2.944,2.944,0,0,1,1.022.566,2.57,2.57,0,0,1,.676.929,3.515,3.515,0,0,1,.042,2.467,3.261,3.261,0,0,1-.507.854,4.76,4.76,0,0,1-.659.65,6.334,6.334,0,0,0-.659.617,3.064,3.064,0,0,0-.506.751,2.357,2.357,0,0,0-.2,1.031Zm.406,2.433a.912.912,0,0,1-.253.633.915.915,0,0,1-1.318,0,.917.917,0,0,1,0-1.267.918.918,0,0,1,1.318,0,.916.916,0,0,1,.253.634" transform="translate(173 363)" fill="#efefef"/>
  </g>
</svg>
