<svg xmlns="http://www.w3.org/2000/svg" width="36.151" height="32.146" viewBox="0 0 36.151 32.146">
  <g id="Group_1220" data-name="Group 1220" transform="translate(-494.235 -450.963)">
    <path id="Path_968" data-name="Path 968" d="M330.386,151.029c-.137.108-.106.275-.125.414a11.858,11.858,0,0,1-.823,2.983,13.623,13.623,0,0,1-1.171,2.19c-.279.434-.573.854-1.081,1.519a28.751,28.751,0,0,1-2.1,2.394c-.593.619-1.445,1.42-2.313,2.206-.473.428-.948.852-1.675,1.494-.6.528-1.473,1.287-2.447,2.124-.423.364-.869.745-1.57,1.344-.855.73-2.035,1.735-3.207,2.749a2.1,2.1,0,0,1-2.991.074c-.511-.442-1.258-1.082-2.221-1.9-.9-.769-1.981-1.687-1.981-1.687s-.983-.843-2.442-2.12c-.976-.854-2.42-2.133-3.4-3.05-.786-.738-1.548-1.5-2.47-2.531a21.336,21.336,0,0,1-1.954-2.57,14.568,14.568,0,0,1-1.5-3.057,12.476,12.476,0,0,1-.637-2.983,10.407,10.407,0,0,1,.119-2.662,12.32,12.32,0,0,1,.614-2.286,12.474,12.474,0,0,1,.865-1.858,10.33,10.33,0,0,1,1.841-2.332,8.586,8.586,0,0,1,2.763-1.736,10.464,10.464,0,0,1,2.068-.593,11.354,11.354,0,0,1,1.476-.172,9.444,9.444,0,0,1,2.77.292,8.609,8.609,0,0,1,3.187,1.614,11.393,11.393,0,0,1,1.456,1.347,9.161,9.161,0,0,1,.7.842c.149.205.229.23.392.007a10.512,10.512,0,0,1,2.628-2.529,9.425,9.425,0,0,1,3.814-1.491,9.024,9.024,0,0,1,2.759.022,10.514,10.514,0,0,1,2.423.669,10.041,10.041,0,0,1,1.952,1.087,8.572,8.572,0,0,1,1.431,1.29,10.977,10.977,0,0,1,2.129,3.509,11.6,11.6,0,0,1,.652,2.786c.008.071-.039.172.077.207Z" transform="translate(200 312)" fill="#d80019"/>
  </g>
</svg>
