<svg xmlns="http://www.w3.org/2000/svg" width="46.784" height="46.783" viewBox="0 0 46.784 46.783">
  <path id="Path_883" data-name="Path 883" d="M485.954,1292.288l-33.464,0a7,7,0,0,0-1.706.185,6.386,6.386,0,0,0-4.935,6.391q-.008,5.606,0,11.211v10.534q0,5.914,0,11.831a6.428,6.428,0,0,0,6.645,6.629l16.731,0,16.732,0a6.379,6.379,0,0,0,6.67-6.659q.006-16.733,0-33.464a6.378,6.378,0,0,0-6.672-6.655M465.07,1331.48a1.793,1.793,0,0,1-1.539.767h-4.966q-2,0-4-.005a1.778,1.778,0,0,1-1.9-1.876q-.02-4.483,0-8.968a1.818,1.818,0,0,1,1.819-1.9,2.028,2.028,0,0,1,1.3.509,1.986,1.986,0,0,1,.562,1.425c.006,1.331.005,2.663,0,3.994v.516l5.65-5.648a3.645,3.645,0,0,1,.561-.493,1.84,1.84,0,0,1,2.573,2.51,3.553,3.553,0,0,1-.5.59c-1.9,1.9-3.781,3.784-5.658,5.659q2.268.006,4.536,0h0a1.825,1.825,0,0,1,1.71,1.037,1.767,1.767,0,0,1-.157,1.883m20.739-21.6a2.026,2.026,0,0,1-.571,1.486,1.788,1.788,0,0,1-1.266.495h-.043a1.847,1.847,0,0,1-1.806-2.027q0-1.956,0-3.912v-.5l-5.672,5.671a3.835,3.835,0,0,1-.4.368,1.889,1.889,0,0,1-1.161.409,1.817,1.817,0,0,1-1.293-.55,1.836,1.836,0,0,1-.137-2.455,4.125,4.125,0,0,1,.355-.381l5.685-5.684h-4.133c-.16,0-.321,0-.482-.005a1.848,1.848,0,0,1-1.832-1.891,1.807,1.807,0,0,1,1.866-1.786c1.237-.01,2.476-.008,3.714-.008h2.587c.871,0,1.742,0,2.613,0a1.806,1.806,0,0,1,1.974,1.97q.012,4.4,0,8.8" transform="translate(-445.845 -1292.285)" fill="#3b543c"/>
</svg>
