<svg xmlns="http://www.w3.org/2000/svg" width="48.554" height="48.563" viewBox="0 0 48.554 48.563">
  <path id="Path_891" data-name="Path 891" d="M731.9,1333.267c0-.837.011-1.675-.006-2.512-.006-.268.071-.343.339-.339.932.017,1.865-.014,2.8.017.389.013.49-.081.489-.482-.016-5.087-.01-10.174-.01-15.261,0-3.887.006-7.773-.009-11.66,0-.38.069-.5.477-.5q5.736.027,11.47,0c.4,0,.484.1.484.488q-.02,13.437-.02,26.874c0,.421.089.564.529.537.677-.042,1.358-.02,2.038-.006.225,0,.319-.06.289-.29a2.628,2.628,0,0,1,0-.332q0-16.542-.009-33.083c0-.409.069-.57.523-.544.756.044,1.516,0,2.274.02.327.01.426-.077.423-.415-.017-1.848,0-3.7-.017-5.545,0-.339.092-.418.418-.41.948.023,1.9,0,2.844.015.29.006.374-.071.371-.367-.016-1.454.006-2.907-.017-4.361-.006-.355.117-.408.428-.4.662.023,1.327.027,1.99,0,.345-.015.453.065.446.433-.025,1.405.008,2.812-.021,4.218-.009.412.12.489.5.477.915-.028,1.832.007,2.748-.017.322-.009.383.1.381.4-.013,1.848.006,3.7-.016,5.545-.005.368.1.442.447.431.773-.027,1.549.016,2.321-.019.4-.018.455.125.455.477q-.016,7.631.005,15.261c0,.449-.144.5-.53.5-2.876-.015-5.751,0-8.627-.017-.368,0-.462.09-.461.461q.018,8.555,0,17.11c0,.369.09.479.461.461a18.259,18.259,0,0,1,1.943,0c.393.022.456-.121.455-.475-.011-4.708,0-9.416-.018-14.124,0-.45.071-.6.571-.6q7.654.034,15.309,0c.4,0,.483.1.482.491-.014,4.74,0,9.48-.02,14.219,0,.4.1.492.49.481,1.042-.03,2.085-.01,3.128-.01,0,.869-.008,1.738.006,2.607,0,.2-.039.279-.243.239a1,1,0,0,0-.19,0Zm41.375-8.531c0-1.783,0-3.567.006-5.351,0-.276-.048-.389-.358-.379-.709.025-1.42.022-2.13,0-.293-.008-.371.08-.37.372q.015,5.351,0,10.7c0,.26.059.357.338.35.71-.02,1.421-.024,2.13,0,.315.011.393-.084.39-.391-.014-1.768-.007-3.536-.007-5.3m-6.391,0c0-1.783-.005-3.566.005-5.348,0-.268-.031-.392-.349-.379-.725.027-1.452.022-2.177,0-.284-.008-.329.1-.328.35q.011,5.373,0,10.744c0,.286.1.332.35.326.71-.015,1.421-.025,2.13,0,.327.013.379-.1.377-.4-.013-1.767-.006-3.534-.006-5.3m-23.8-3.593c0-.458-.009-.837,0-1.216.007-.209-.072-.277-.273-.272-.379.01-.759-.009-1.137.006-.47.018-1.1-.2-1.363.089-.232.254-.073.871-.074,1.327s-.162,1.07.069,1.33c.264.3.889.086,1.357.091s1.057.2,1.328-.071c.293-.29.046-.9.089-1.284m17.348-26.354c0-.378-.009-.757,0-1.134.007-.206-.024-.316-.274-.312-.772.015-1.544.013-2.317,0-.212,0-.264.071-.261.271q.015,1.158,0,2.317c0,.207.065.269.27.266q1.158-.016,2.317,0c.211,0,.272-.073.266-.274-.013-.378,0-.757,0-1.135m-4.592,4.914c-.394,0-.788.008-1.182,0-.206-.006-.27.069-.267.273.01.756.014,1.512,0,2.267-.005.258.088.318.327.313.74-.012,1.48-.01,2.221,0,.206,0,.313-.028.308-.275-.014-.772-.012-1.544,0-2.315,0-.213-.071-.269-.272-.262-.377.013-.755,0-1.133,0m6.339.027c-.465.023-1.086-.238-1.352.07-.229.265-.083.869-.072,1.322s-.206,1.089.1,1.353c.261.23.87.071,1.324.071s1.062.157,1.323-.072c.3-.263.091-.884.091-1.349s.207-1.088-.088-1.348c-.256-.225-.867-.047-1.321-.047m-19.095,7.774c0-.394-.011-.788,0-1.182.008-.208-.061-.271-.267-.269q-1.16.015-2.318,0c-.2,0-.271.053-.268.264q.018,1.158,0,2.317c0,.2.05.275.262.271q1.159-.016,2.318,0c.2,0,.28-.053.272-.266-.015-.378,0-.756,0-1.135m12.753-1.448c-.379,0-.757.015-1.135-.005-.256-.013-.317.083-.312.325.014.74.016,1.481,0,2.221-.006.263.1.313.33.309.74-.012,1.481-.016,2.221,0,.265.006.308-.1.3-.328-.012-.74-.016-1.481,0-2.221.007-.26-.086-.319-.322-.307-.362.017-.725,0-1.087,0m4.913,1.4c0,.378.014.756-.005,1.134-.012.247.066.327.317.322q1.11-.023,2.221,0c.247.005.323-.065.318-.315q-.024-1.11,0-2.221c0-.241-.054-.327-.31-.321-.74.017-1.481.014-2.221,0-.238,0-.34.053-.325.312.021.361.005.725.005,1.087m-20.511,6.809c0,.394.008.788,0,1.181-.005.2.055.277.266.274q1.156-.015,2.314,0c.206,0,.274-.068.272-.272q-.013-1.158,0-2.314c0-.21-.071-.269-.271-.267q-1.156.014-2.314,0c-.2,0-.276.057-.268.265.015.377,0,.755,0,1.133m1.44,12.2c-.378,0-.756.009-1.134,0-.207-.006-.315.03-.311.277.014.771.012,1.543,0,2.315,0,.213.072.264.271.261q1.158-.015,2.315,0c.207,0,.27-.066.267-.271q-.015-1.156,0-2.315c0-.21-.074-.273-.275-.266-.378.012-.756,0-1.134,0" transform="translate(-731.891 -1284.716)" fill="#3b543c"/>
</svg>
