<svg xmlns="http://www.w3.org/2000/svg" width="106.1" height="106" viewBox="0 0 116.837 100.077">
  <path id="Path_279" data-name="Path 279" d="M1246.257,1638.66a24.447,24.447,0,0,1-10.2-2.345,21.038,21.038,0,0,0-8.79-2.015,20.618,20.618,0,0,0-8.64,1.972,24.662,24.662,0,0,1-10.312,2.378,24.269,24.269,0,0,1-10.312-2.408,18.929,18.929,0,0,0-8.166-1.865c-1.3,0-2.026-.579-2.033-1.59s.711-1.6,1.97-1.611h.179a20.289,20.289,0,0,1,8.885,1.96,21.617,21.617,0,0,0,9.426,2.259,23.016,23.016,0,0,0,9.593-2.236,21.837,21.837,0,0,1,18.8-.029,23.261,23.261,0,0,0,9.663,2.25,21.661,21.661,0,0,0,9.471-2.278,20.394,20.394,0,0,1,8.962-1.943q.635,0,1.273.031c.094,0,.182.007.265.007a1.528,1.528,0,0,0,1.137-.371,1.784,1.784,0,0,0,.37-1.319c-.094-3.872-.092-7.08.007-10.1a1.975,1.975,0,0,0-.391-1.459,2,2,0,0,0-1.522-.425c-6.413.021-12.776.026-19.142.026l-56.4-.005-.623.008a3.548,3.548,0,0,1-.6-.041,1.568,1.568,0,0,1-1.315-1.625,1.519,1.519,0,0,1,1.374-1.521,3.187,3.187,0,0,1,.579-.043c.124,0,.64.014.773.014l25.835,0q24.762,0,49.525.032a1.579,1.579,0,0,0,1.9-1.943l-.005-.166c-.088-2.924-.309-3.129-3.372-3.129l-74.477.006c-.155,0-.307,0-.46-.012a1.616,1.616,0,0,1-1.677-1.555,1.557,1.557,0,0,1,.417-1.141,1.725,1.725,0,0,1,1.246-.494c1.6-.019,3.2-.033,4.8-.033q2.26,0,4.52.042h.1a1.64,1.64,0,0,0,1.31-.446,1.541,1.541,0,0,0,.217-1.283,1.765,1.765,0,0,1,0-.33c0-.081.007-.161.007-.241,0-.213.021-.44.042-.665a2.8,2.8,0,0,0-.206-1.792,1.308,1.308,0,0,0-1.17-.556,5.434,5.434,0,0,0-.618.048,4.981,4.981,0,0,1-.521.041,1.329,1.329,0,0,1-.143-.007,1.592,1.592,0,0,1-1.579-1.671c-.038-2.935-.038-5.642,0-8.271a1.509,1.509,0,0,1,1.737-1.665c.083,0,.168,0,.256.008.142.01.274.015.4.015a1.891,1.891,0,0,0,1.4-.468,2.322,2.322,0,0,0,.434-1.727c-.091-2.079-.07-4.2-.048-6.261.006-.711.013-1.421.016-2.131.006-1.535.537-2.08,2.032-2.082q6.082-.006,12.165-.006t12.166.006c1.582,0,2.091.524,2.1,2.154l0,1.174c.008,2.587.016,5.174-.016,7.762a1.583,1.583,0,0,0,.331,1.21,1.509,1.509,0,0,0,1.111.351h.149c2.387,0,2.633.26,2.633,2.779l0,2.063c0,1.547,0,3.094,0,4.642-.008,1.743-.686,2.094-1.779,2.094-.1,0-.211,0-.323-.012-.128-.009-.248-.013-.362-.013a1.826,1.826,0,0,0-1.356.452,2.253,2.253,0,0,0-.42,1.708l.01.218c.111,2.662.347,2.877,3.17,2.877l5.442,0q2.867,0,5.734.012h.016a1.438,1.438,0,0,0,1.088-.313,1.391,1.391,0,0,0,.323-1.007c-.022-11.08-.021-22.159-.02-33.3v-8.128l-.649.2a6.518,6.518,0,0,0-4.55,5.847c-.148,1.8-.989,2.01-1.608,2.01-.639-.005-1.483-.221-1.625-2.037a6.814,6.814,0,0,0-13.6.019c-.059.755-.341,2.022-1.586,2.022l-.133-.005c-1.242-.084-1.5-1.2-1.5-2.116.039-13.121,10.626-24.82,23.6-26.08,1.041-.1,1.725-.452,1.676-1.835a3.144,3.144,0,0,1,.516-2.252,1.694,1.694,0,0,1,2.12,0,3.129,3.129,0,0,1,.519,2.246c-.047,1.392.632,1.743,1.667,1.844,11.859,1.154,22.126,11.365,23.375,23.246.111,1.056.2,2.009.223,2.969a2.121,2.121,0,0,1-.495,1.559,1.465,1.465,0,0,1-1.088.423c-1.223,0-1.555-1.023-1.618-1.881a6.884,6.884,0,0,0-4.631-6.182,6.849,6.849,0,0,0-8.984,6.159c-.055.862-.377,1.893-1.595,1.9s-1.558-1.018-1.626-1.873a6.518,6.518,0,0,0-4.552-5.986l-.648-.2v9.985q0,15.457-.026,30.912a2.031,2.031,0,0,0,.406,1.482,1.716,1.716,0,0,0,1.253.394l.18,0c1.247-.045,2.5-.059,3.744-.059,1.469,0,2.938.02,4.405.042l.118,0a1.5,1.5,0,0,0,1.165-.358,1.439,1.439,0,0,0,.293-1.095,8.023,8.023,0,0,1,.2-2.7,5.877,5.877,0,0,1,5.611-4.29,5.8,5.8,0,0,1,.641.036,5.871,5.871,0,0,1,5.157,5.532c.12,2.646.344,2.86,2.992,2.86,1.985,0,2.213-.226,2.222-2.2.019-3.6,2.467-6.218,5.821-6.218,3.364.024,5.787,2.632,5.808,6.2.012,1.987.238,2.215,2.2,2.215l12.493,0c.967,0,2.12.279,2.13,1.593a1.444,1.444,0,0,1-.388,1.068,2.376,2.376,0,0,1-1.714.545l-6.576.01q-3.285,0-6.57-.026h0a1.328,1.328,0,0,0-1.6,1.556v.116c.023,3.322.263,3.554,3.667,3.554l11.047,0c.967,0,2.123.279,2.138,1.586a1.443,1.443,0,0,1-.387,1.073,2.361,2.361,0,0,1-1.707.547l-6.5.009q-3.322,0-6.644-.024h0a1.658,1.658,0,0,0-1.251.359,1.625,1.625,0,0,0-.356,1.189c.05,4.563.051,9.383,0,14.326a1.622,1.622,0,0,0,.322,1.186.922.922,0,0,0,.684.262,2.647,2.647,0,0,0,.729-.13,29.023,29.023,0,0,0,3.538-1.367,21.935,21.935,0,0,1,9.335-2.184c.141,0,.283,0,.425.006,1.127.03,1.839.673,1.816,1.638a1.574,1.574,0,0,1-1.741,1.555h-.175a21.4,21.4,0,0,0-8.792,2.09,23.308,23.308,0,0,1-19.812-.08,20.671,20.671,0,0,0-17.919.017,23.845,23.845,0,0,1-9.944,2.264m25.58-8.525a.839.839,0,0,0-.858.85,1.017,1.017,0,0,0,.858,1.115l.132.043c.246.093.5.173.747.254a8.782,8.782,0,0,1,.95.341,26.467,26.467,0,0,0,7.943,2.57l.132.014a13.488,13.488,0,0,0,1.393.119c1.47,0,1.47-.955,1.47-2.686,0-.12-.005-.226-.01-.33a2.343,2.343,0,0,1,.01-.509,1.536,1.536,0,0,0-.211-1.32,1.586,1.586,0,0,0-1.282-.448c-.077,0-.158,0-.242,0-.7.03-1.39.039-2.084.039-.5,0-2.5-.018-3-.018l-2.751,0c-.921,0-1.839,0-2.758.015a.842.842,0,0,1-.121-.017,1.887,1.887,0,0,0-.314-.033m.365-10.495a1.069,1.069,0,0,0-1.238,1.251c.041,1.844.041,3.339,0,4.7a1.4,1.4,0,0,0,.3,1.055,1.315,1.315,0,0,0,.99.331c.867-.021,1.636-.027,2.407-.027l3.066.01,3.127-.01c.794,0,1.588.006,2.38.027h.02a1.167,1.167,0,0,0,1.364-1.393c-.05-1.515-.032-3.028-.007-4.575a1.394,1.394,0,0,0-.289-1.068,1.257,1.257,0,0,0-.924-.31c-1.832.018-3.635.026-5.438.026q-2.878,0-5.757-.021Zm.01-10.525a1.273,1.273,0,0,0-.955.318,1.319,1.319,0,0,0-.295.995c.043,1.5.043,3.083,0,4.7a1.343,1.343,0,0,0,.3,1,1.313,1.313,0,0,0,.98.32c1.866-.015,3.7-.021,5.545-.021s3.677.006,5.516.02h0a1.345,1.345,0,0,0,1.022-.32,1.317,1.317,0,0,0,.294-.99c-.043-1.5-.043-3.084,0-4.705a1.349,1.349,0,0,0-.3-1.009,1.274,1.274,0,0,0-.94-.317c-.87.02-1.665.025-2.461.025l-3.122-.009-3.1.008c-.8,0-1.606,0-2.409-.022Zm9.366-3.2a1.034,1.034,0,0,1,.279.03l.2.06.184-.107a.337.337,0,0,1,.148-.021,3.107,3.107,0,0,1,.415.043,4.175,4.175,0,0,0,.564.053,1.183,1.183,0,0,0,.908-.352,1.881,1.881,0,0,0,.351-1.481c-.058-.847-.238-3.423-2.625-3.423-2.1.019-2.515,1.9-2.649,3.314a1.916,1.916,0,0,0,.336,1.537,1.351,1.351,0,0,0,1.049.391c.144,0,.3-.012.45-.023.13-.01.26-.021.385-.021m-16.495-5.2c-2.031.063-2.433,1.833-2.557,3.367a1.91,1.91,0,0,0,.345,1.513,1.212,1.212,0,0,0,.944.365,4.228,4.228,0,0,0,.549-.048,3.314,3.314,0,0,1,.393-.037.4.4,0,0,1,.127.014l.083.03h.088a4.786,4.786,0,0,0,2.189-.23c.525-.305.525-.859.524-1.559,0-3.084-1.806-3.416-2.582-3.416h-.1Zm-57.79-.005c-3.421,0-3.663.232-3.681,3.553a1.756,1.756,0,0,0,.357,1.313,1.6,1.6,0,0,0,1.187.363c2.907-.022,5.778-.027,8.65-.027l8.211.005c1.748,0,2.623,0,3.167-.55s.533-1.424.514-3.164c-.013-1.083-.43-1.511-1.4-1.511-1.526.02-3,.025-4.467.025l-5.047-.007Zm-4.338-8.418c-3.26,0-3.493.221-3.554,3.376l0,.136a1.769,1.769,0,0,0,.366,1.33,1.747,1.747,0,0,0,1.31.39c4.576-.023,9.113-.029,13.651-.029l11.5,0c3.423,0,3.664-.232,3.684-3.551a1.762,1.762,0,0,0-.359-1.316,1.589,1.589,0,0,0-1.175-.361c-2.276.022-4.5.027-6.734.027l-6.982-.006Zm2.1-12.644a1.225,1.225,0,0,0-1.443,1.45c.049,2.174.049,4.377,0,6.55a1.492,1.492,0,0,0,.322,1.109,1.446,1.446,0,0,0,1.069.342c1.527-.02,3-.025,4.467-.025l5.05.007,5.144-.006c1.527,0,3.053.005,4.579.024h.005a1.224,1.224,0,0,0,1.443-1.45c-.05-2.174-.05-4.377,0-6.55a1.223,1.223,0,0,0-1.425-1.451c-3.192.015-6.361.022-9.533.022q-4.841,0-9.678-.022m24.314-20.026a10.954,10.954,0,0,1,6.416,2.246l.735.519.053-.9a26.67,26.67,0,0,1,.678-5.017,23.932,23.932,0,0,1,3.535-8.558l-.4.2-.349-.142.764-.637-.073-.11-.04-.021a1.083,1.083,0,0,0-.783-.342,1.747,1.747,0,0,0-.768.225c-.069.033-.138.067-.2.09a23.448,23.448,0,0,0-13.669,11.532,1.062,1.062,0,0,1-.064.1,1.086,1.086,0,0,0-.078,1.288l.215.345.383-.139a10.586,10.586,0,0,1,3.65-.684m22.179-12.138a30.739,30.739,0,0,1,4.359,14l.066.886.724-.516a10.645,10.645,0,0,1,6.3-2.194,12.1,12.1,0,0,1,4.094.767l1.176.419-.562-1.115a24.175,24.175,0,0,0-15.588-12.99l-1.23-.356Zm-5.327-.649a2.062,2.062,0,0,0-1.449.87c-3.465,3.921-4.346,8.812-4.9,13.087l-.128,1,.874-.5a11.164,11.164,0,0,1,5.622-1.643,10.716,10.716,0,0,1,5.441,1.58l.606.349.174-.866a.951.951,0,0,0,.038-.377l-.036-.277c-.066-.522-.133-1.042-.222-1.559-.567-3.263-1.6-7.441-4.6-10.827a2.024,2.024,0,0,0-1.419-.835" transform="translate(-1187.803 -1538.583)" fill="#47664D"/>
</svg>
