<svg xmlns="http://www.w3.org/2000/svg" width="106.1" height="106" viewBox="0 0 124.037 65.339">
  <path id="Path_278" data-name="Path 278" d="M836.676,1627.587c-.3-.016-.594-.021-.892-.021l-1.431.013c-.205,0-.41,0-.615-.01a1.815,1.815,0,0,1-1.381-.495,1.855,1.855,0,0,1-.245-1.476q.228-1.581.446-3.164c.318-2.285.646-4.649,1.029-6.959a1.571,1.571,0,0,0-.2-1.282,1.28,1.28,0,0,0-1.027-.366c-.082,0-.17,0-.264.008-.421.022-.843.032-1.266.032q-.744,0-1.489-.04a3.226,3.226,0,0,1-3.151-3.21c-.039-2.46-.039-5.05,0-7.92a3.047,3.047,0,0,1,2.493-3.09c1.333-.24,1.433-1.051,1.422-1.862-.038-2.752-.025-5.553-.013-8.261v-.153a5.309,5.309,0,0,1,5.57-5.552c2.04-.015,2.25-.23,2.25-2.294v-4.067q0-4.742,0-9.482a5.275,5.275,0,0,1,5.681-5.672l14.959,0q12.664,0,25.327-.009a5.294,5.294,0,0,1,3.458,1.032,1.323,1.323,0,0,0,.835.338,1.516,1.516,0,0,0,.909-.381,5.235,5.235,0,0,1,3.24-.986q9.425.006,18.836,0,10.911,0,21.823.007a5.216,5.216,0,0,1,5.479,5.505c.019,4.6.033,9.5-.018,14.4a1.7,1.7,0,0,0,.359,1.265,1.675,1.675,0,0,0,1.232.37h.128c4.179,0,6.126,1.974,6.127,6.216v2.055c0,2,0,4,.007,6,0,.05-.006.1-.011.156a.982.982,0,0,0,.94,1.23c1.3.132,2.193.868,2.973,2.457v9.549c-.75,1.7-2.04,2.423-4.292,2.423-.258,0-.521-.009-.789-.025-.333-.019-.612-.033-.843-.033a1.539,1.539,0,0,0-1.228.389c-.371.426-.281,1.057-.132,2.1q.508,3.565,1.039,7.127l.318,2.165a1.817,1.817,0,0,1-.244,1.451,1.84,1.84,0,0,1-1.405.5c-.333.011-.665.014-1,.014l-1.587-.008-.583,0a1.685,1.685,0,0,1-1.769-1.2c-.771-1.841-1.56-3.674-2.349-5.508-.83-1.929-1.66-3.856-2.469-5.794a1.8,1.8,0,0,0-1.9-1.246q-21.139.015-42.273.015-21.65,0-43.3-.016a1.8,1.8,0,0,0-1.885,1.269c-.724,1.736-1.467,3.464-2.21,5.191-.844,1.96-1.688,3.92-2.5,5.893a1.9,1.9,0,0,1-1.932,1.41Zm1.021-13.769a1.373,1.373,0,0,0-1.409,1.419c-.254,2.007-.543,4.008-.831,6.01l-.347,2.418c-.2.782.143,1.057.466,1.165a.99.99,0,0,0,.312.054.937.937,0,0,0,.846-.72c1.077-2.506,4.422-10.319,4.422-10.319H840.4c-.307,0-.6.006-.871.012-.246,0-.481.009-.71.009-.293,0-.576-.008-.857-.035-.094-.009-.181-.013-.263-.013m99.736.025c-.4,0-.877.017-1.447.037l-.73.026.283.671,4.117,9.581a.963.963,0,0,0,.855.724.952.952,0,0,0,.234-.031c.28-.073.725-.308.554-1.063l-.3-2.134c-.2-1.45-.4-2.9-.609-4.347-.382-2.591-.511-3.464-2.958-3.464M830.41,1602.085a1.651,1.651,0,0,0-1.25.379,1.591,1.591,0,0,0-.335,1.2c.081,2.205.079,4.013-.006,5.69a1.871,1.871,0,0,0,.357,1.422,1.91,1.91,0,0,0,1.447.431q18.4-.036,36.775-.028l70.7,0q3.933,0,7.868.024h0a1.662,1.662,0,0,0,1.253-.374,1.6,1.6,0,0,0,.335-1.2c-.066-1.905-.067-3.906,0-5.945a1.632,1.632,0,0,0-.34-1.221,1.6,1.6,0,0,0-1.188-.375c-1,.011-1.942.031-2.885.051-1.416.029-2.832.059-4.246.059-1.759,0-3.219-.045-4.6-.144-.74-.053-1.468-.079-2.163-.079a19.328,19.328,0,0,0-11.732,3.554,1.4,1.4,0,0,1-.216.116l-.152.075a19.682,19.682,0,0,1-9.217,2.4,20.729,20.729,0,0,1-7.97-1.685q-15.858-6.6-31.735-13.15l-15.453-6.392a4.6,4.6,0,0,0-1.816-.447q-5.121.013-10.23.009-3.918,0-7.839,0c-2.024,0-3.011,1-3.019,3.041,0,.928,0,1.857.006,2.784.008,1.806.016,3.672-.035,5.5a1.733,1.733,0,0,0,.36,1.288,1.781,1.781,0,0,0,1.337.392q10.827-.024,21.62-.02l17.7.005a4.544,4.544,0,0,1,1.084.09,1.3,1.3,0,0,1,.854.66,1.275,1.275,0,0,1,.039,1.063c-.247.624-.707.855-1.7.855-2.174-.007-4.32-.009-6.466-.009l-19.44.005q-8.847,0-17.694-.021Zm33.706-14.679.658.325c.224.113.449.226.681.322l12.214,5.042q13.23,5.459,26.45,10.943a17.418,17.418,0,0,0,6.7,1.409,16.875,16.875,0,0,0,7.931-2.072q8.992-4.758,17.978-9.527l5.683-3.015a1.959,1.959,0,0,0,.934-2.914,2.621,2.621,0,0,0-2.537-1.474l-11.039,0q-2.966,0-5.933-.006a1.955,1.955,0,0,1-1.406-.432,1.214,1.214,0,0,1-.311-.9c.009-.863.6-1.308,1.767-1.326l.51-.012a2.523,2.523,0,0,1,.276.013,2.376,2.376,0,0,0,.287.019,1.012,1.012,0,0,0,.842-.346,1.383,1.383,0,0,0,.111-1.213,4.536,4.536,0,0,0-4.4-3.609q-4.356-.024-8.711-.024-4.5,0-9,.023a4.516,4.516,0,0,0-4.261,3.1c-.208.629-.357,1.183-.058,1.6s.87.447,1.53.448l8.026,0q3.128,0,6.256.008a1.816,1.816,0,0,1,1.3.456,1.221,1.221,0,0,1,.345.887c0,.8-.625,1.291-1.664,1.315H864.353Zm68.481,11.661,1.7.141c2.692.224,5.321.228,7.864.232h.408a1.075,1.075,0,0,0,.808-.274,1.087,1.087,0,0,0,.263-.831c-.029-.95-.024-1.9-.018-2.924l.005-2.194Zm-62.357-15.3c1.762,0,3.524.009,5.285.048h.013a1.551,1.551,0,0,0,1.289-.44,1.607,1.607,0,0,0,.085-1.409,4.539,4.539,0,0,0-4.363-3.333q-4.383-.021-8.764-.021-4.456,0-8.915.023a4.516,4.516,0,0,0-4.326,3.341,1.544,1.544,0,0,0,.04,1.391,1.467,1.467,0,0,0,1.235.44c1.856-.029,3.634-.035,5.413-.035l6.481.01c1.088,0,5.44-.015,6.527-.015m62.13-.011c.6,0,1.19.012,1.784.045.086.005.168.008.245.008a1.455,1.455,0,0,0,1.064-.353,1.725,1.725,0,0,0,.365-1.275c-.039-3.285-.034-6.571-.029-9.857l0-4.173c0-2.287-.931-3.219-3.206-3.22l-29.978,0-10.055,0c-2.472,0-3,1.439-3.014,2.646-.025,3.025-.024,6.048-.023,9.073q0,2.971-.006,5.942a1.225,1.225,0,0,0,.293.907,1.16,1.16,0,0,0,.854.29c.824-.014,1.6-.02,2.375-.02q1.209,0,2.417.019h0a1.124,1.124,0,0,0,1.244-1.112c.658-4.4,3.359-6.719,7.81-6.721h16.355c4.385,0,7.143,2.367,7.766,6.659.151,1.033.723,1.175,1.318,1.175l.52-.01c.633-.012,1.266-.025,1.9-.025m-49.07,0c.611,0,1.222.013,1.831.044.088.005.171.007.25.007a1.509,1.509,0,0,0,1.121-.368,1.787,1.787,0,0,0,.381-1.307c-.044-3.243-.039-6.543-.033-9.734q0-2.027,0-4.05c0-2.554-.852-3.416-3.37-3.416l-30.528,0-9.384,0c-1.883,0-2.969.985-2.979,2.7-.014,2.425-.014,4.851-.014,7.275,0,2.538,0,5.077-.015,7.615a1.321,1.321,0,0,0,.31.966,1.269,1.269,0,0,0,.95.305h.115c.763-.016,1.528-.03,2.292-.03.649,0,1.3.01,1.946.038l.155,0c1.093,0,1.338-.675,1.441-1.4a7.132,7.132,0,0,1,7.467-6.44q4.476-.009,8.949-.011,4.068,0,8.136.013a7.1,7.1,0,0,1,7.332,6.545c.1.892.519,1.29,1.373,1.29l.116,0c.717-.022,1.436-.039,2.154-.039" transform="translate(-826.164 -1562.253)" fill="#47664D"/>
</svg>
