<svg xmlns="http://www.w3.org/2000/svg" width="106.1" height="106" viewBox="0 0 106.1 106">
  <path id="Path_274" data-name="Path 274" d="M532.832,1533.083c1.638.446,3.337.568,4.984,1.005a29.563,29.563,0,0,1,21.527,24.606,29.234,29.234,0,0,1-4.248,19.56c-1.408,2.283-2.824,4.561-4.3,6.8-.455.686-.38.963.328,1.356,4.986,2.769,9.942,5.593,14.929,8.36a3.639,3.639,0,0,1,1.749,2.031q7.392,19.555,14.838,39.091c.11.288.065.682.458.819v.206c0,.69.269,1.648-.076,1.993s-1.3.076-1.993.076c-.04-.052-.07-.122-.123-.152q-12.082-6.8-24.159-13.615a1.535,1.535,0,0,0-1.753-.022c-5.643,3.214-11.316,6.378-16.958,9.593-2.431,1.384-4.95,2.616-7.268,4.2h-1.241c-.055-.071-.094-.169-.166-.209q-12.168-6.859-24.329-13.728a1.121,1.121,0,0,0-1.3.088c-3.409,1.93-6.825,3.845-10.234,5.774q-7.122,4.032-14.237,8.075c-.689,0-1.648.269-1.993-.076s-.075-1.3-.075-1.993v-.206c.4-.135.347-.531.457-.818q7.434-19.542,14.842-39.092a3.475,3.475,0,0,1,1.664-1.968c5.021-2.779,10-5.63,15.017-8.417.721-.4.763-.683.323-1.364-1.754-2.714-3.55-5.41-5.127-8.227-9.936-17.745,1.031-40.2,21.129-43.373.515-.082,1.092.015,1.542-.366Zm-29.049,29.459a25.971,25.971,0,0,0,4.057,14.085q10.332,16.421,20.69,32.824c1.025,1.624,2.2,1.617,3.232-.019q10.326-16.362,20.638-32.733a26.06,26.06,0,0,0,3.841-17.78,26.353,26.353,0,0,0-52.458,3.623m-21.944,71.142c.286.151.414-.012.546-.086q10.066-5.664,20.134-11.328a1.472,1.472,0,0,0,.732-1.142c.946-4.476,3.586-16.553,4.553-21.023.257-1.189.976-1.693,1.948-1.445.912.233,1.292.988,1.052,2.119-.9,4.239-3.472,16.085-4.41,20.315a1.22,1.22,0,0,0,.72,1.6c6.758,3.76,13.489,7.571,20.231,11.361a2.765,2.765,0,0,0,1.242.554c0-6.9,0-13.759,0-20.615a.667.667,0,0,0-.453-.706,5.314,5.314,0,0,1-2.251-2.2q-6.123-9.744-12.273-19.47c-.188-.3-.395-.581-.7-1.032-.079.351-.109.475-.135.6-.738,3.465-1.468,6.931-2.218,10.393-.27,1.251-1.008,1.83-1.959,1.6-.924-.222-1.308-1.022-1.055-2.22.412-1.952.832-3.9,1.242-5.854.376-1.792.742-3.586,1.129-5.454a2.648,2.648,0,0,0-.435.127c-4.493,2.53-8.979,5.073-13.483,7.584a1.851,1.851,0,0,0-.809,1.122q-5.34,14.065-10.683,28.128c-.9,2.359-1.781,4.723-2.667,7.073m49.859,1.075c.469-.256.737-.4,1-.546,6.8-3.829,13.579-7.678,20.4-11.464a1.329,1.329,0,0,0,.769-1.761c-1.593-7.322-3.138-14.654-4.7-21.982-.583-2.74-1.169-5.478-1.761-8.251-.447.187-.532.548-.705.822q-6.117,9.676-12.215,19.367a5.024,5.024,0,0,1-2.016,2.152,1.229,1.229,0,0,0-.787,1.349c.025,6.407.015,12.815.015,19.223Zm18.735-45.2a3.2,3.2,0,0,0,0,.523q3.316,15.637,6.633,31.274a1.384,1.384,0,0,0,.814.964q9.888,5.549,19.762,11.124c.221.124.419.336.792.276-.066-.212-.113-.4-.182-.583q-6.612-17.427-13.229-34.855a1.481,1.481,0,0,0-.648-.879c-4.617-2.583-9.223-5.184-13.945-7.844" transform="translate(-477.093 -1533.083)" fill="#3B543C"/>
</svg>
