<svg xmlns="http://www.w3.org/2000/svg" width="165.331" height="61.408" viewBox="0 0 165.331 61.408">
  <g id="Group_664" data-name="Group 664" transform="translate(-964.364 -4497.181)">
    <path id="Path_304" data-name="Path 304" d="M1061.606,4523.07c0-6.466-5.152-10.663-12.3-10.663h-13.214v31h6.595v-9.631h.825a21.5,21.5,0,0,0,17.978,9.608v-6.031a15.507,15.507,0,0,1-10.214-3.807,24.252,24.252,0,0,0,3.847-.871c4.123-1.353,6.481-5.091,6.481-9.608m-12.527,4.655h-6.367v-9.31h6.367c3.321,0,6,1.789,6,4.655.023,2.821-2.679,4.655-6,4.655" fill="#00162c"/>
    <path id="Path_305" data-name="Path 305" d="M1083.363,4530.637l-11.566-18.253h-4.74v31.025h6.664l-.091-16.968,7.786,12.268v.045h3.871l7.741-12.176v16.831h6.6v-31.025h-4.7Z" fill="#00162c"/>
    <path id="Path_306" data-name="Path 306" d="M1120.236,4525.432l-3.825-.78c-2.817-.55-4.374-1.467-4.374-3.554,0-2.408,1.649-3.783,4.878-3.783,3.733,0,4.466,1.834,4.878,4.563h6.505c-.733-8.026-6.688-10.159-11.887-10.159-7.1,0-11.336,3.967-11.336,9.929,0,4.839,2.679,7.889,8.84,9.127l5.061.963c3.138.6,3.871,1.926,3.871,3.187,0,2.087-1.832,3.325-5.107,3.325-4.146,0-6.871-1.949-7.375-5.113h-6.55c.55,6.925,6.092,10.892,13.581,10.892,7.42,0,12.3-3.921,12.3-9.837-.023-5.206-3.527-7.476-9.459-8.76" fill="#00162c"/>
    <path id="Path_307" data-name="Path 307" d="M995.03,4497.181a30.716,30.716,0,0,0-30.62,29.259c-.023.482-.046.963-.046,1.445s.023.963.046,1.444a30.661,30.661,0,1,0,30.62-32.148m11.932,30.681a11.909,11.909,0,1,1-11.909-11.924,11.922,11.922,0,0,1,11.909,11.924m-11.932-13.873a13.9,13.9,0,0,0,0,27.792,13.686,13.686,0,0,0,5.336-1.078,15.03,15.03,0,1,1-7.832-27.861,14.722,14.722,0,0,1,7.832,2.225,13.285,13.285,0,0,0-5.336-1.078m-2.473-3.119a16.992,16.992,0,1,0,6.756,32.585A17.846,17.846,0,0,1,990.06,4546a18.138,18.138,0,1,1,9.253-33.731,17.13,17.13,0,0,0-6.756-1.4m18.184,16.992a23.219,23.219,0,0,0-23.177-23.206,25.142,25.142,0,0,0-3.733.3,23.282,23.282,0,0,1,6.206-.825,23.733,23.733,0,0,1,0,47.466,24.01,24.01,0,0,1-6.206-.825,22.124,22.124,0,0,0,3.71.3,23.194,23.194,0,0,0,23.2-23.206m-44.362-1.078a21.252,21.252,0,0,1,21.185-20.156,20.922,20.922,0,0,1,10.649,2.889,19.884,19.884,0,0,0-8.176-1.742,20.11,20.11,0,0,0,0,40.22,19.869,19.869,0,0,0,8.176-1.743,21.2,21.2,0,0,1-31.856-17.267c-.023-.366-.023-.733-.023-1.1,0-.39.023-.734.045-1.1m23.681,26.806a25.716,25.716,0,0,0,0-51.433,26.355,26.355,0,0,0-4.282.366,26.234,26.234,0,1,1,0,50.677,23.927,23.927,0,0,0,4.282.39m4.97,3.027a28.857,28.857,0,0,1-7.352-.963,28.2,28.2,0,1,0,0-55.538,28.725,28.725,0,1,1,7.352,56.5" fill="#13c1c9"/>
  </g>
</svg>