<svg fill="#3B543C" width='106.1'  height="106" xmlns="http://www.w3.org/2000/svg" data-name="Layer 1" viewBox="0 0 100 125" x="0px" y="0px"><title>Artboard 26</title><path d="M39.25,50.29,41.3,38.35l-8.68-8.46a2.35,2.35,0,0,1,1.31-4l12-1.74,5.36-10.87a2.36,2.36,0,0,1,4.22,0l5.36,10.87,12,1.74a2.35,2.35,0,0,1,1.31,4l-8.68,8.46,2,11.94a2.35,2.35,0,0,1-3.42,2.48L53.39,47.14,42.67,52.77A2.36,2.36,0,0,1,39.25,50.29Zm58.6,10.25a4.53,4.53,0,0,1-.68,6.86L73.83,83.81A23.65,23.65,0,0,1,60.32,88q-.7,0-1.41,0L22.19,85.57H22a3.36,3.36,0,0,1-2.2-.83A4.61,4.61,0,0,1,16,87.16l-8.65.39a5.15,5.15,0,0,1-5.46-4.79l-1-19.2a5.09,5.09,0,0,1,5-5.26l8.65-.39a4.67,4.67,0,0,1,4.16,2.15c4-1.26,11.47-3.65,24,1A49.33,49.33,0,0,0,54.87,63.6l9.9.73a3.92,3.92,0,0,1-.12,7.83l-16.73.3A1.09,1.09,0,0,0,48,74.63h0l16.34-.08a12,12,0,0,0,5.95-1.74S84.69,64.17,92,59.69a4.61,4.61,0,0,1,5.73.75ZM13.58,80.31a2.95,2.95,0,1,0-3,2.77A2.89,2.89,0,0,0,13.58,80.31Zm75.2-22a4.32,4.32,0,0,0-5-.6l-13.56,7a6.61,6.61,0,0,1,.91,4.31C75.82,66.28,82.73,62,88.77,58.36ZM68.31,62.77l11.89-5.92A4.27,4.27,0,0,0,76,56.47l-12.79,5,1.69.12A6.6,6.6,0,0,1,68.31,62.77Z"/></svg>