<svg xmlns="http://www.w3.org/2000/svg" width="114.328" height="120.937" viewBox="0 0 114.328 120.937">
  <g id="Group_665" data-name="Group 665" transform="translate(-1441.098 -1535.083)">
    <path id="Path_276" data-name="Path 276" d="M1608.755,1645.85c-2.463.116-5.011-.973-7.629-1.7q-6.228-1.737-12.425-3.589a7.982,7.982,0,0,0-6.045.522c-1.422.7-2.842,1.411-4.284,2.07-.566.259-.7.505-.415,1.1a8.424,8.424,0,0,1,.98,3.127,5.16,5.16,0,0,1-3.177,4.93q-3.862,1.668-7.772,3.228a5.115,5.115,0,0,1-7.087-3q-5.043-12.039-10.042-24.094c-1.094-2.628-2.2-5.251-3.271-7.887a5.123,5.123,0,0,1,2.964-7.1q3.711-1.559,7.44-3.076a5.122,5.122,0,0,1,7.1,2.964c.653,1.52.653,1.519,2.164.8,4.812-2.284,9.618-4.583,14.439-6.849,6.172-2.9,12.255-2.592,17.913,1.131,3.065,2.016,6.444,2.809,9.834,3.752,2.7.752,5.419,1.469,8.132,2.189a8.328,8.328,0,0,1,5.186,3.8c.423.7.792.682,1.473.482,7.22-2.121,14.44-4.245,21.684-6.278a17.889,17.889,0,0,1,8.708-.47c5.379,1.168,7.976,5.642,6.3,10.9a11.247,11.247,0,0,1-6.91,7.43q-17.518,6.765-35.059,13.478a28.3,28.3,0,0,1-10.2,2.137m.294-3.449a19.01,19.01,0,0,0,6.551-1.192c12.657-4.564,25.142-9.579,37.691-14.428a7.407,7.407,0,0,0,4.509-5.583c.765-3.3-1.016-5.654-4.459-6.049a16.23,16.23,0,0,0-5.949.4c-7.167,1.855-14.21,4.144-21.341,6.123-1.345.374-2.208.783-1.984,2.342a2.616,2.616,0,0,1-.165.955,8.733,8.733,0,0,1-10.728,6.416c-4.257-1.082-8.492-2.252-12.736-3.385-2.436-.651-4.877-1.284-7.3-1.971a1.7,1.7,0,1,1,.783-3.307c.239.044.472.12.708.183q9.549,2.551,19.1,5.1a5.382,5.382,0,1,0,2.8-10.38c-1.568-.436-3.148-.825-4.717-1.256-5.23-1.437-10.529-2.526-15.218-5.625-3.654-2.415-7.876-2.515-11.979-.9-5.833,2.294-11.322,5.344-17.022,7.931-.57.259-.429.572-.267.961q4.367,10.465,8.723,20.937c.228.549.447.623.967.354,1.3-.673,2.643-1.259,3.944-1.928a11.57,11.57,0,0,1,9-.757c4.436,1.342,8.9,2.6,13.355,3.871,1.95.554,3.858,1.35,5.737,1.191m-49.062-29.061c-.22.074-.612.183-.985.337q-3.493,1.441-6.979,2.9c-1.509.634-1.811,1.349-1.177,2.875q6.581,15.816,13.178,31.625c.645,1.546,1.345,1.835,2.865,1.213q3.555-1.456,7.1-2.941c1.492-.625,1.8-1.368,1.173-2.887-1.237-3.006-2.491-6.006-3.739-9.008q-4.683-11.258-9.362-22.516c-.362-.872-.79-1.627-2.07-1.6" transform="translate(-106)" fill="#3B543C"/>
    <path id="Path_277" data-name="Path 277" d="M1615.8,1535.083a1.934,1.934,0,0,1,1.865,1.51q2.578,6.588,5.174,13.168a11.552,11.552,0,0,1,.773,2.051c.374,2.067,1.66,2.529,3.594,2.6,5.419.207,10.83.629,16.245.938.936.054,1.688.279,1.987,1.27a1.861,1.861,0,0,1-.888,2.088c-4.6,3.782-9.175,7.59-13.8,11.339a1.415,1.415,0,0,0-.55,1.735c1.506,5.7,2.956,11.424,4.46,17.129.251.949.309,1.785-.567,2.408-.85.6-1.611.208-2.366-.274-4.976-3.178-9.97-6.328-14.924-9.54a1.411,1.411,0,0,0-1.823,0c-4.927,3.179-9.885,6.31-14.825,9.468-.784.5-1.553.979-2.468.348-.953-.658-.809-1.557-.557-2.521,1.493-5.708,2.938-11.428,4.458-17.128a1.32,1.32,0,0,0-.552-1.621c-4.584-3.735-9.13-7.518-13.707-11.261-.758-.62-1.3-1.282-.96-2.291.327-.976,1.161-1.1,2.072-1.158,5.9-.354,11.8-.762,17.709-1.087a1.425,1.425,0,0,0,1.472-1.087c2.126-5.5,4.3-10.98,6.441-16.471.328-.84.742-1.551,1.737-1.62m14.325,50.852a1.725,1.725,0,0,0-.086-1.163c-1.181-4.568-2.33-9.145-3.557-13.7a2.275,2.275,0,0,1,.875-2.664c2.1-1.682,4.163-3.409,6.24-5.12,1.843-1.52,3.683-3.042,5.679-4.691-.662-.077-1.1-.149-1.536-.175-4.559-.276-9.117-.576-13.678-.794a2.5,2.5,0,0,1-2.545-1.813c-1.639-4.333-3.368-8.633-5.081-12.938-.155-.389-.2-.86-.632-1.165-1.874,4.748-3.762,9.464-5.586,14.2a2.374,2.374,0,0,1-2.369,1.7c-4.561.23-9.119.517-13.678.8a2.85,2.85,0,0,0-1.525.3c3.961,3.267,7.812,6.474,11.7,9.632a2.434,2.434,0,0,1,.9,2.878c-1.248,4.592-2.4,9.211-3.589,13.819a1.149,1.149,0,0,0-.029.927c4.307-2.745,8.576-5.435,12.806-8.186a2.335,2.335,0,0,1,2.91.006c1.649,1.12,3.352,2.163,5.035,3.234q3.855,2.451,7.739,4.913" transform="translate(-106)" fill="#3B543C"/>
  </g>
</svg>