<?xml version="1.0" encoding="utf-8"?>
<!-- Generator: Adobe Illustrator 28.3.0, SVG Export Plug-In . SVG Version: 6.00 Build 0)  -->
<svg version="1.1" id="layer" xmlns="http://www.w3.org/2000/svg" xmlns:xlink="http://www.w3.org/1999/xlink" x="0px" y="0px"
	 viewBox="0 0 599.9 305.7" style="enable-background:new 0 0 599.9 305.7;" xml:space="preserve">
<style type="text/css">
	.st0{fill:#FCB716;}
	.st1{fill:#EE363F;}
	.st2{fill:#07AF56;}
	.st3{fill:#04A9DF;}
	.st4{fill:#A1479A;}
	.st5{fill:#5A5B5B;}
</style>
<g>
	<path class="st0" d="M175.6,216.7c-24.5,0-44.5,20-44.5,44.5s20,44.5,44.5,44.5s44.5-20,44.5-44.5S200.1,216.7,175.6,216.7"/>
	<path class="st1" d="M51.2,216.7c-24.5,0-44.5,20-44.5,44.5s20,44.5,44.5,44.5s44.5-20,44.5-44.5S75.7,216.7,51.2,216.7"/>
	<path class="st2" d="M300,216.7c-24.5,0-44.5,20-44.5,44.5s20,44.5,44.5,44.5s44.5-20,44.5-44.5S324.5,216.7,300,216.7"/>
	<path class="st3" d="M548.8,216.7c-24.5,0-44.5,20-44.5,44.5s20,44.5,44.5,44.5s44.5-20,44.5-44.5S573.3,216.7,548.8,216.7"/>
	<path class="st4" d="M424.4,216.7c-24.5,0-44.5,20-44.5,44.5s20,44.5,44.5,44.5s44.5-20,44.5-44.5S448.9,216.7,424.4,216.7"/>
	<path class="st5" d="M0,90.6c0-28.9,23.2-50.7,51.8-50.7c28.9,0,51.8,21.6,51.8,50.5v44.4c0,4.5-3.1,7.7-7.9,7.7
		c-4.9,0-7.9-3.1-7.9-7.7v-13H87c-6.1,10.4-18.3,19.4-36.3,19.4C22.9,141.3,0,119.7,0,90.6 M88.3,90.6c0-20.8-15.7-36.5-36.5-36.5
		S15.3,69.8,15.3,90.6s15.7,36.5,36.5,36.5S88.3,111.4,88.3,90.6 M144.1,174.1c-4.1-2-6.1-5.5-4.5-9.6c1.6-4.3,5.5-6.1,9.6-4.1
		c7.1,3.3,15.9,5.7,25.3,5.7c23.4,0,37.5-13.9,37.5-37.7v-6.5h-0.8c-6.1,10.4-18.3,19.4-36.3,19.4c-27.9,0-50.8-21.6-50.8-50.7
		c0-28.9,23.2-50.7,51.8-50.7c28.9,0,51.8,21.6,51.8,50.5v36.9c0,31.8-20.4,53.2-53.8,53.2C163.7,180.5,153.5,178.6,144.1,174.1
		 M212.4,90.6c0-20.8-15.7-36.5-36.5-36.5s-36.5,15.7-36.5,36.5s15.7,36.5,36.5,36.5S212.4,111.4,212.4,90.6 M248.1,90.6
		c0-28.9,23-50.7,51.8-50.7c28.9,0,51.8,21.8,51.8,50.7s-23,50.7-51.8,50.7C271.1,141.3,248.1,119.5,248.1,90.6 M336.5,90.6
		c0-20.8-15.7-36.5-36.5-36.5s-36.5,15.7-36.5,36.5s15.7,36.5,36.5,36.5C320.8,127.1,336.5,111.4,336.5,90.6 M372.2,90.6
		c0-28.9,22.8-50.7,50.8-50.7c18.1,0,30.2,9,36.3,19.4h0.8V7.7c0-4.5,3.1-7.7,7.9-7.7c4.9,0,7.9,3.1,7.9,7.7v83
		c0,28.9-23,50.5-51.8,50.5C395.4,141.3,372.2,119.5,372.2,90.6 M460.6,90.6c0-20.8-15.7-36.5-36.5-36.5s-36.5,15.7-36.5,36.5
		s15.7,36.5,36.5,36.5C444.8,127.1,460.6,111.4,460.6,90.6 M496.3,90.6c0-28.9,23.2-50.7,51.8-50.7c28.9,0,51.8,21.6,51.8,50.5v44.4
		c0,4.5-3.1,7.7-7.9,7.7c-4.9,0-7.9-3.1-7.9-7.7v-13h-0.8c-6.1,10.4-18.3,19.4-36.3,19.4C519.3,141.3,496.3,119.7,496.3,90.6
		 M584.6,90.6c0-20.8-15.7-36.5-36.5-36.5s-36.5,15.7-36.5,36.5s15.7,36.5,36.5,36.5S584.6,111.4,584.6,90.6"/>
</g>
</svg>
