<?xml version="1.0" encoding="utf-8"?>
<!-- Generator: Adobe Illustrator 28.3.0, SVG Export Plug-In . SVG Version: 6.00 Build 0)  -->
<svg version="1.1" id="Layer_1" xmlns="http://www.w3.org/2000/svg" xmlns:xlink="http://www.w3.org/1999/xlink" x="0px" y="0px"
	 viewBox="0 0 2500 424" style="enable-background:new 0 0 2500 424;" xml:space="preserve">
<style type="text/css">
	.st0{fill:#273B7D;}
	.st1{fill:#499FDD;}
</style>
<g>
	<g>
		<path class="st0" d="M981.8,43.2c0-20.9,16.9-37.8,37.8-37.8c20.9,0,37.8,16.9,37.8,37.8c-0.8,20.9-18.3,37.2-39.2,36.4
			C998.4,78.8,982.6,63,981.8,43.2"/>
		<path class="st1" d="M1578.6,295.4c0-21,16.9-38,37.7-38c20.9,0,37.9,17,37.9,38c0,20.9-17,37.9-37.9,37.9
			C1595.5,333.3,1578.6,316.3,1578.6,295.4"/>
		<path class="st0" d="M361.1,279c-32.6,0-55.2-25.9-55.2-62.8c0-37,22.7-62.8,55.2-62.8c32.7,0,55.6,25.8,55.6,62.8
			C416.8,253.7,394.4,279,361.1,279z M361.1,98.1c-68.9,0-118.9,49.6-118.9,118c0,68.4,50,118,118.9,118
			c69.2,0,119.4-49.6,119.4-118C480.5,147.8,430.3,98.1,361.1,98.1 M908.6,222.1c-2.4-4.6-5.4-8.9-9-12.7l-2.1-2.2l2.2-2.1
			c3.2-3.3,6.4-7.3,9.5-11.9l60.8-90.4h-73.9l-45.7,70.7c-2.6,3.8-7.8,5.7-15.6,5.7h-10.4V45.5c0-26.7-16.7-30.4-34.7-30.4H759
			l0.1,315.6h65.4V236h6.1c7.5,0,12.5,0.9,14.9,4.9l36.1,68.1c10.1,18.5,20.1,21.6,39,21.6h50.1L933.4,269L908.6,222.1 M1226.2,97.6
			c-33.3,0-54.5,14.8-66.4,27.3l-4,4l-1.4-5.5c-3.5-13.4-15.3-20.8-33-20.8h-29.3l0.2,227.9h65v-105c0-10.3,1.3-19.2,4.1-27.3
			c7.2-24.6,27.4-39.9,52.6-39.9c20.3,0,28.2,10.7,28.2,38.4V296c0,23.6,10.9,34.6,34.6,34.6h30.9l-0.1-145
			C1307.4,128.1,1279.3,97.6,1226.2,97.6 M1020.4,102.8h-30.8l0.2,176.2v51.7h32.8l1.2,0.1l15.3-0.1h15.2v-0.1h0.1l0.1-193.2
			C1054.7,114.1,1043.5,102.8,1020.4,102.8 M616.3,279c-32.6,0-55.2-25.9-55.2-62.8c0-37,22.7-62.8,55.3-62.8
			c32.7,0,55.6,25.8,55.6,62.8C672,253.7,649.6,279,616.3,279L616.3,279z M616.3,98.1c-69,0-119,49.6-119,118c0,68.4,50,118,119,118
			c69.1,0,119.4-49.6,119.4-118C735.7,147.8,685.4,98.1,616.3,98.1"/>
	</g>
	<g>
		<path class="st1" d="M2008.9,279c-32.6,0-55.3-25.9-55.3-62.8c0-37,22.7-62.8,55.3-62.8c32.7,0,55.7,25.8,55.7,62.8
			C2064.6,253.7,2042.2,279,2008.9,279z M2008.9,98.1c-69,0-119,49.6-119,118c0,68.4,50,118,119,118c69.1,0,119.4-49.6,119.4-118
			C2128.3,147.8,2078,98.1,2008.9,98.1"/>
		<path class="st0" d="M1444.4,269c-35.5,0-48.2-31-48.2-60c0-12.8,3.2-54.5,44.8-54.5c20.6,0,48.1,5.9,48.1,56.6
			C1489.1,258.9,1464.8,269,1444.4,269z M1522.9,102.2c-12.3,0-21.8,4.9-26.6,13.9l-1.8,3.5l-3-2.6c-10.5-9.1-29.3-19.8-59.8-19.8
			c-60.8,0-101.7,45.6-101.7,113.5c0,67.8,42.3,115.3,102.9,115.3c20.7,0,37-4.8,50-14.6l5-3.8v6.3c0,30.4-19.7,47.3-55.4,47.3
			c-17.4,0-33.1-4.2-43.7-8.1c-13.7-4.2-21.9-0.7-27.4,13.1l-5.2,12.7l-7.3,18.6l4.5,2.4c22.9,12.1,52.6,19.4,79.5,19.4
			c55.3,0,119.9-28.3,119.9-108l0.2-209L1522.9,102.2"/>
	</g>
	<g>
		<path class="st0" d="M119.2,276.4l-52.9-0.1v-63.2c0-13.5,5.2-20.5,16.8-22.2h36.1c25.7,0,42.4,16.2,42.4,42.5
			C161.6,260.4,145.3,276.4,119.2,276.4L119.2,276.4z M66.3,105.8V89.2c0-14.6,6.2-21.5,19.7-22.4H113c23.2,0,37.1,13.9,37.1,37.1
			c0,17.7-9.5,38.4-36.3,38.4H66.3V105.8z M186.7,168.9l-9.6-5.4l8.3-7.1c9.7-8.3,26-27.1,26-59.5c0-49.6-38.5-81.6-98-81.6H37.8
			C20.1,15.9,6,30.3,5.8,48v281.6h109c66.2,0,108.9-36,108.9-91.8C223.7,207.7,209.9,182,186.7,168.9"/>
		<path class="st1" d="M2418.6,98.4c-27.2,0.1-52.8,12.5-69.7,33.8l-4.7,6l-3.7-6.7c-12.1-21.9-32.8-33.1-61.6-33.1
			c-30.2,0-50.5,16.9-59.9,26.9l-6.2,6.7l-2.4-8.8c-3.4-12.6-14.7-19.6-31.7-19.6h-27.3l-0.3,227h62V230.4c0-8.8,1.1-17.5,3.3-26.5
			c5.9-24.2,22.2-50.3,49.6-47.7c16.9,1.6,25.1,14.7,25.1,39.8v134.6h62.5V230.4c0-11,1-19.2,3.5-27.4c5-23.1,22-46.8,48.4-46.8
			c19.1,0,26.2,10.8,26.2,39.9v101.4c0,22.9,10.2,33.2,33.2,33.2h29.2l0.1-144.9C2494.2,127.7,2468.7,98.4,2418.6,98.4 M1854,251.8
			c-0.2,0.2-26.9,28.4-62,28.4c-32,0-64.4-19.6-64.4-63.5c0-37.9,25.1-64.3,61-64.3c11.6,0,24.9,4.2,27,11.2l0.3,1.2
			c2.7,10,11.8,16.8,22.1,16.8l34,0.1v-29.7c0-39.2-49.9-53.4-83.4-53.4c-71.7,0-123.8,49.9-123.8,118.7
			c0,68.7,51.5,118.6,122.5,118.6c61.6,0,95.1-40.5,95.4-40.9l1.8-2.2l-26.9-44.6L1854,251.8"/>
	</g>
</g>
</svg>
