<?xml version="1.0" encoding="utf-8"?>
<!-- Generator: Adobe Illustrator 28.3.0, SVG Export Plug-In . SVG Version: 6.00 Build 0)  -->
<svg version="1.1" id="Layer_1" xmlns="http://www.w3.org/2000/svg" xmlns:xlink="http://www.w3.org/1999/xlink" x="0px" y="0px"
	 viewBox="0 0 279.3 87.6" style="enable-background:new 0 0 279.3 87.6;" xml:space="preserve">
<style type="text/css">
	.st0{fill:#212223;}
	.st1{fill:#BB2025;}
</style>
<g>
	<path class="st0" d="M184.5,51.8c-1.4,1.1-2.3,2.6-3.8,4.6s-3.2,4.2-5,6.6c-1.8,2.4-3.6,5.1-5.3,7.7s-3.4,4.9-4.8,7.7H185v7.8
		h-30.1v-5.9c1.4-2.1,2.4-4.4,4-6.8c1.6-2.5,3.2-4.9,4.9-7.4s3.3-4.9,5-7.2s3.1-4.1,4.4-6h-17.4v-7.8h28.7L184.5,51.8L184.5,51.8
		L184.5,51.8z"/>
	<path class="st0" d="M220.1,51.8c-0.9,1.1-2.2,2.6-3.7,4.6c-1.5,2-3.2,4.2-4.9,6.6c-1.8,2.4-3.5,5.1-5.3,7.7
		c-1.8,2.6-3.4,4.9-4.8,7.7h19.1v7.8h-29.6v-5.9c1.4-2.1,2.4-4.4,4-6.8c1.6-2.5,3.2-4.9,4.9-7.4c1.7-2.5,3.3-4.9,4.9-7.2
		c1.6-2.2,3.1-4.1,4.4-6h-17.2v-7.8h28.2L220.1,51.8L220.1,51.8L220.1,51.8z"/>
	<path class="st0" d="M236.9,26C236.9,26,236.8,26,236.9,26c-1.6,0-8.1,1.2-9.5,2.6c0,0,0,0,0,0v57.5h9.6V26L236.9,26L236.9,26z"/>
	<path class="st0" d="M274.5,49.3c-3.2-3.5-7.6-5.3-13.2-5.3c-2.4,0-4.8,0.5-7.1,1.4c-2.3,0.9-4.3,2.3-6.1,4.1
		c-1.8,1.8-3.2,4.1-4.3,6.8c-1.1,2.7-1.6,5.9-1.6,9.5l0,0c0,3.1,0.4,5.9,1.3,8.5s2.1,4.8,3.8,6.8c1.7,1.9,3.9,3.4,6.6,4.5
		c2.7,1.1,5.8,1.6,9.4,1.6c1.4,0,2.8-0.1,4.2-0.2c1.4-0.2,2.6-0.4,3.8-0.6c1.2-0.2,2.2-0.5,3.1-0.8c0.9-0.3,1.6-0.6,2.2-0.8
		l-1.2-7.8c-1.1,0.5-2.6,0.9-4.5,1.3c-1.9,0.4-4,0.6-6.3,0.6c-3.9,0-6.9-0.9-9-2.8c-2.1-1.8-3.2-4.1-3.5-7.8h27.1
		c0.1-0.6,0.1-1.1,0.1-1.7c0-0.6,0-1.1,0-1.7C279.3,58.1,277.7,52.8,274.5,49.3L274.5,49.3z M269.8,61.5h-17.6
		c0.2-1.4,0.4-2.4,0.9-3.5c0.4-1.1,1-2.1,1.8-3c0.8-0.9,1.7-1.6,2.8-2.2c1.1-0.6,2.4-0.8,3.8-0.8s2.6,0.2,3.6,0.7
		c1,0.5,1.9,1.2,2.6,2s1.2,1.9,1.6,3C269.6,59,269.8,60.1,269.8,61.5L269.8,61.5L269.8,61.5z"/>
	<path class="st0" d="M71.1,45.1v21.5c0,4.4-0.5,7.5-1.8,9.4c-1.3,1.9-3.5,2.8-6.6,2.8S57.3,77.9,56,76s-1.8-5-1.8-9.4V45.1h-9.6v23
		c0,2.8,0.2,5.3,0.8,7.6c0.6,2.3,1.5,4.3,2.8,6s3.1,3,5.3,3.9s5.7,1.4,9,1.4l0,0c3.3,0,6.8-0.5,9-1.4c2.2-0.9,4-2.2,5.3-3.9
		s2.2-3.7,2.8-6c0.6-2.3,0.8-4.9,0.8-7.6v-23L71.1,45.1L71.1,45.1z"/>
	<path class="st0" d="M36.8,26c-1.5,0-8,1.2-9.5,2.6c0,0,0,0,0,0v17.9c-0.9-0.6-2.4-1.1-4-1.6s-3.3-0.7-5.3-0.7
		c-2.9,0-5.4,0.5-7.7,1.5s-4.2,2.5-5.7,4.4S2,54.2,1.2,56.9C0.4,59.5,0,62.4,0,65.6l0,0c0,3.3,0.5,6.3,1.4,8.9s2.4,4.9,4.2,6.8
		c1.8,1.9,4,3.3,6.5,4.3c2.6,1,5.5,1.5,8.7,1.5s6.1-0.2,9-0.7s5.3-1,7.1-1.6L36.8,26C36.9,26,36.9,26,36.8,26L36.8,26z M27.3,78.3
		c-0.5,0.2-1.5,0.3-2.6,0.4c-1.1,0.1-2.3,0.2-3.8,0.2c-3.5,0-6.2-1.2-8.2-3.6s-3-5.7-3-9.8l0,0c0-4,0.8-7.2,2.4-9.6
		c1.6-2.4,4.1-3.5,7.6-3.5c1.6,0,3,0.2,4.4,0.7c1.4,0.5,2.4,1,3.3,1.6V78.3L27.3,78.3z"/>
	<path class="st0" d="M124.1,56.9L124.1,56.9c-0.8-2.6-2-4.9-3.5-6.8s-3.4-3.3-5.7-4.4c-2.3-1-4.8-1.5-7.7-1.5
		c-1.9,0-3.7,0.2-5.3,0.7c-1.6,0.5-3.1,1-4,1.6V26c0,0-0.1,0-0.1,0c-1.5,0-7.9,1.2-9.4,2.6c0,0,0,0,0,0v56.2
		c1.8,0.6,4.2,1.1,7.1,1.6s5.8,0.7,9,0.7s6.1-0.5,8.7-1.5c2.6-1,4.7-2.4,6.5-4.3s3.2-4.1,4.2-6.8c1-2.6,1.4-5.6,1.4-8.9
		S124.9,59.6,124.1,56.9L124.1,56.9z M112.6,75.3L112.6,75.3c-2,2.4-4.7,3.6-8.2,3.6c-1.5,0-2.8-0.1-3.8-0.2
		c-1.1-0.1-2.1-0.3-2.6-0.4V54.7c0.9-0.6,1.9-1.1,3.3-1.6c1.4-0.5,2.8-0.7,4.4-0.7c3.4,0,6,1.2,7.6,3.5c1.6,2.4,2.4,5.5,2.4,9.6
		S114.6,73,112.6,75.3L112.6,75.3z"/>
	<path class="st0" d="M139.5,45.1c0,0-4.4,0-5.7,0.8c-1.5,1-2.4,2.3-2.4,4c0,1.6,0.5,14.6,0.7,15.8c0.2,1.3,1.5,0.4,2.1,3.6
		s1.9,17,2.2,17.3c0.5,0.5,2.6,0.9,3.1,0.9s2.6-0.4,3.1-0.9c0.3-0.3,1.7-14.1,2.2-17.3c0.6-3.2,1.9-2.4,2.1-3.6s0.7-14.2,0.7-15.8
		c0-1.7-0.9-3-2.4-4c-1.2-0.8-5.1-0.8-5.7-0.8L139.5,45.1"/>
	<path class="st0" d="M145.1,37.8c0,3-2.4,5.5-5.5,5.5s-5.5-2.4-5.5-5.5s2.4-5.4,5.5-5.4S145.1,34.8,145.1,37.8"/>
	<path class="st1" d="M136.6,17.6c2.9-2.4,7.3-6.8,7.3-10.2c0-5.1-2.7-7.5-2.7-7.5s1.2,4.1-8.1,12.6c-8,7.4-6.9,14.1-6.9,14.6
		c0.3,4.1,2,8.9,5,11c-1.2-1.8-1.9-4-1.9-6.3C129.2,31.2,128.6,24.3,136.6,17.6"/>
	<path class="st1" d="M151.9,32.5c-0.2-4.1-1.5-4.4-3-8c-2.1-5.8,1.5-10.8-2.6-17c-1.2,7.9-7.1,10.2-11.4,15.2
		c-3.3,3.9-4.2,9-2.6,12.6c1.1-3.1,4-5.3,7.4-5.3c4.3,0,7.8,3.5,7.8,7.8c0,1.6-0.5,3.1-1.3,4.3C149.9,40.8,152,36.4,151.9,32.5"/>
</g>
</svg>
