<?xml version="1.0" encoding="utf-8"?>
<!-- Generator: Adobe Illustrator 28.3.0, SVG Export Plug-In . SVG Version: 6.00 Build 0)  -->
<svg version="1.1" id="Layer_1" xmlns="http://www.w3.org/2000/svg" xmlns:xlink="http://www.w3.org/1999/xlink" x="0px" y="0px"
	 viewBox="0 0 381.3 106" style="enable-background:new 0 0 381.3 106;" xml:space="preserve">
<style type="text/css">
	.st0{fill:#F7B916;}
	.st1{fill:#1F3562;}
	.st2{fill:#1F3561;}
</style>
<g>
	<g id="g5075" transform="matrix(0.99999234,0,0,0.99999234,58.570296,28.348268)">
		<path id="path5077" class="st0" d="M-2.5,48.8L25.8,0.7c-0.5-1.3-1-2.6-1.6-3.9l-50.2-21.2l-32.1,46c0.1,0.7,0.2,1.5,0.4,2.2
			L-2.5,48.8z"/>
	</g>
	<g id="g5007" transform="matrix(0.99999234,0,0,0.99999234,91.655842,17.067454)">
		<path id="path5009" class="st1" d="M88.5,65.8H76.8c0,0-0.1,0-0.1-0.1L66.7,53.5L56.6,65.8c0,0-0.1,0.1-0.1,0.1h-9.3
			c-0.1,0-0.1,0-0.1-0.1c0,0,0-0.1,0-0.2l14.8-18.2l-14.6-18c0-0.1,0-0.1,0-0.2c0,0,0.1-0.1,0.1-0.1H59c0,0,0.1,0,0.1,0.1l8.8,10.9
			l9-10.9c0,0,0.1-0.1,0.1-0.1h9.5c0.1,0,0.1,0,0.1,0.1c0,0.1,0,0.1,0,0.2L72.7,46.1l15.9,19.5c0,0,0,0.1,0,0.2
			C88.6,65.8,88.5,65.8,88.5,65.8"/>
	</g>
	<g id="g5011" transform="matrix(0.99999234,0,0,0.99999234,108.01112,24.892494)">
		<path id="path5013" class="st1" d="M135.3,27.8c-5.2,0-8.7,3.1-9.7,8.6h17.6V36C143.1,31.7,139.9,27.8,135.3,27.8 M152.2,42
			c0,0-0.1,0.1-0.1,0.1h-26.7c0.6,6.2,4.6,9.8,11.1,9.8c4,0,8.3-1.4,14.3-4.6c0.1-0.1,0.2,0,0.2,0.2l0,8.2c0,0.1,0,0.1-0.1,0.1
			c-5.6,2.4-11.3,4-15.7,4c-11.5,0-19.8-8.4-19.8-19.9c0-11.5,8.3-19.9,19.8-19.9c10.5,0,17.2,7.1,17.2,16.8
			C152.5,38.2,152.2,41.9,152.2,42"/>
	</g>
	<g id="g5015" transform="matrix(0.99999234,0,0,0.99999234,126.44348,28.526166)">
		<path id="path5017" class="st1" d="M188,10.1c-3.3,0-5.9-2.6-5.9-5.8c0-3.3,2.7-6,5.9-6c3.3,0,5.9,2.7,5.9,6
			C193.9,7.5,191.3,10.1,188,10.1 M183.2,54.4c-0.1,0-0.1-0.1-0.1-0.2V17.9c0-0.1,0-0.1,0.1-0.1h9.6c0.1,0,0.1,0.1,0.1,0.1v36.4
			c0,0.1-0.1,0.2-0.1,0.2H183.2z"/>
	</g>
	<g id="g5019" transform="matrix(0.99999234,0,0,0.99999234,96.227507,18.485543)">
		<path id="path5021" class="st1" d="M101.6,59c-1.8,0-3.5-0.2-5.6-0.8l0-23.3c2.4-0.8,4.5-1.1,6.5-1.1c6.7,0,11.2,4.9,11.2,12.3
			C113.7,53.9,108.9,59,101.6,59 M104.2,26.3c-2.7,0-5.5,0.5-8.3,1.5h-9.6c-0.1,0-0.1,0.1-0.1,0.1v59.6c2.9-0.4,6.4-1.4,9.9-3.9
			l0-18.1c2.4,0.3,4.3,0.6,6.2,0.6c13.1,0,21.7-7.9,21.7-20.1C123.8,34.4,115.7,26.3,104.2,26.3"/>
	</g>
	<g id="g5023" transform="matrix(0.99999234,0,0,0.99999234,120.65292,19.267337)">
		<path id="path5025" class="st1" d="M171.4,55.2c-3,1.6-5.7,2.3-8.2,2.3c-6,0-9.5-4.2-9.5-11.2c0-8.1,4.6-13.4,11.6-13.4
			c1.9,0,3.8,0.5,6.1,1.5V55.2z M171.4,7.7v19c-2.8-0.8-5.3-1.2-7.8-1.2c-11.4,0-20.1,8.6-20.1,20.1c0,11.4,7.6,19.6,18.1,19.6
			c3.6,0,7-0.9,11-3l0,3.3c2.6-0.5,5.7-1.6,8.7-3.7V3.8C178.4,4.2,174.9,5.2,171.4,7.7"/>
	</g>
	<g id="g5027" transform="matrix(0.99999234,0,0,0.99999234,136.3726,19.287037)">
		<path id="path5029" class="st1" d="M216.4,55.1c-2.9,1.7-5.4,2.5-7.6,2.5c-6.4,0-10.2-4.2-10.2-11.3c0-8,4.5-13.4,11.2-13.4
			c1.8,0,4,0.7,6.6,2.1V55.1z M226.3,26.5c0-0.2-0.2-0.4-0.4-0.4l-7.8,0c-0.2,0-0.4,0.2-0.4,0.4v1.3h-0.2c-3.6-1.6-6.7-2.3-9.7-2.3
			c-10.8,0-19.2,8.9-19.2,20.4c0,11.6,7.6,19.3,18.8,19.3c3,0,6.9-0.2,10.5-4.4v4.7c2.6-0.5,5.6-1.6,8.4-3.7L226.3,26.5z"/>
	</g>
	<g id="g5031" transform="matrix(0.99999234,0,0,0.99999234,74.047377,19.455736)">
		<path id="path5033" class="st1" d="M38.1,54.2l24.2,0c-0.4,2.7-1.3,5.9-3.4,9.1H38.2H34h-0.3c-3.1,0-5.6-2.4-5.9-5.4
			c0,0,0-0.1,0-0.1V33V10.2c0,0,0-0.1,0-0.1c0.3-3,2.8-5.4,5.9-5.4c0.1,0,0.2,0,0.3,0l28.2,0c-0.4,2.7-1.3,5.9-3.4,9.1H38.1v13h20.5
			c0.1,0,0.2,0.1,0.2,0.1v9c0,0.1-0.1,0.1-0.2,0.1H38.1V54.2L38.1,54.2z"/>
	</g>
	<g id="g5035" transform="matrix(0.99999234,0,0,0.99999234,91.656642,17.068254)">
		<path id="path5037" class="st1" d="M88.5,65.8H76.8c0,0-0.1,0-0.1,0l-10-12.3L56.6,65.8c0,0-0.1,0-0.1,0h-9.3
			c-0.1,0-0.1,0-0.1-0.1c0,0,0-0.1,0-0.2l14.8-18.2l-14.6-18c0-0.1,0-0.1,0-0.2c0,0,0.1-0.1,0.1-0.1H59c0,0,0.1,0,0.1,0.1l8.8,10.9
			l9-10.9c0,0,0.1-0.1,0.1-0.1h9.5c0.1,0,0.1,0,0.1,0.1c0,0.1,0,0.1,0,0.2L72.7,46.1l15.9,19.5c0,0,0.1,0.1,0,0.2
			C88.6,65.8,88.5,65.8,88.5,65.8"/>
	</g>
	<g id="g5039" transform="matrix(0.99999234,0,0,0.99999234,108.01112,24.893294)">
		<path id="path5041" class="st1" d="M135.3,27.8c-5.2,0-8.7,3.1-9.7,8.6h17.6V36C143.1,31.7,139.9,27.8,135.3,27.8 M152.2,42
			c0,0-0.1,0.1-0.1,0.1h-26.7c0.5,6.2,4.6,9.8,11.1,9.8c4,0,8.3-1.4,14.3-4.6c0.1-0.1,0.2,0,0.2,0.2l0,8.2c0,0.1,0,0.1-0.1,0.1
			c-5.6,2.4-11.3,4-15.7,4c-11.5,0-19.8-8.4-19.8-19.9c0-11.5,8.3-19.9,19.8-19.9c10.5,0,17.2,7.1,17.2,16.8
			C152.5,38.2,152.2,41.9,152.2,42"/>
	</g>
	<g id="g5043" transform="matrix(0.99999234,0,0,0.99999234,126.44428,28.526166)">
		<path id="path5045" class="st1" d="M188,10.1c-3.3,0-5.9-2.6-5.9-5.8c0-3.3,2.7-6,5.9-6c3.3,0,5.9,2.7,5.9,6
			C193.9,7.5,191.3,10.1,188,10.1 M183.2,54.4c-0.1,0-0.1-0.1-0.1-0.1V17.9c0-0.1,0-0.1,0.1-0.1h9.6c0.1,0,0.1,0.1,0.1,0.1v36.4
			c0,0.1-0.1,0.1-0.1,0.1H183.2z"/>
	</g>
	<g id="g5047" transform="matrix(0.99999234,0,0,0.99999234,96.227507,18.486343)">
		<path id="path5049" class="st1" d="M101.6,59c-1.7,0-3.5-0.2-5.6-0.8l0-23.3c2.4-0.8,4.5-1.1,6.5-1.1c6.7,0,11.2,4.9,11.2,12.3
			C113.7,53.9,108.9,59,101.6,59 M104.2,26.3c-2.7,0-5.5,0.5-8.3,1.5h-9.6c-0.1,0-0.1,0.1-0.1,0.2v59.6c2.9-0.4,6.4-1.4,9.9-3.9
			l0-18.1c2.4,0.3,4.3,0.6,6.2,0.6c13.1,0,21.7-7.9,21.7-20.1C123.8,34.4,115.7,26.3,104.2,26.3"/>
	</g>
	<g id="g5051" transform="matrix(0.99999234,0,0,0.99999234,120.65292,19.267337)">
		<path id="path5053" class="st1" d="M171.4,55.2c-3,1.6-5.7,2.3-8.2,2.3c-6,0-9.5-4.2-9.5-11.3c0-8.1,4.6-13.4,11.6-13.4
			c1.9,0,3.8,0.5,6.1,1.5V55.2z M171.4,7.7v19c-2.8-0.8-5.3-1.2-7.8-1.2c-11.4,0-20.1,8.6-20.1,20.1c0,11.4,7.6,19.6,18.1,19.6
			c3.6,0,7-0.9,11-3l0,3.3c2.6-0.5,5.7-1.6,8.7-3.7V3.8C178.4,4.2,174.9,5.2,171.4,7.7"/>
	</g>
	<g id="g5055" transform="matrix(0.99999234,0,0,0.99999234,136.3726,19.287937)">
		<path id="path5057" class="st1" d="M216.4,55.1c-2.9,1.7-5.4,2.5-7.6,2.5c-6.4,0-10.2-4.2-10.2-11.3c0-8,4.5-13.4,11.2-13.4
			c1.8,0,4,0.7,6.6,2.1V55.1z M226.3,26.5c0-0.2-0.2-0.4-0.4-0.4l-7.8,0c-0.2,0-0.4,0.2-0.4,0.4v1.3h-0.2c-3.6-1.6-6.7-2.3-9.7-2.3
			c-10.8,0-19.2,8.9-19.2,20.4c0,11.6,7.6,19.3,18.8,19.3c3,0,6.9-0.2,10.5-4.4v4.7c2.6-0.5,5.6-1.6,8.4-3.7L226.3,26.5z"/>
	</g>
	<g id="g5059" transform="matrix(0.99999234,0,0,0.99999234,74.048277,19.456636)">
		<path id="path5061" class="st1" d="M38.1,54.2l24.2,0c-0.4,2.7-1.3,5.9-3.4,9.1H38.2H34h-0.3c-3.1,0-5.6-2.4-5.9-5.4
			c0,0,0-0.1,0-0.1V33V10.2c0,0,0-0.1,0-0.1c0.3-3,2.8-5.4,5.9-5.4c0.1,0,0.2,0,0.3,0l28.2,0c-0.4,2.7-1.3,5.9-3.4,9.1H38.1v13h20.5
			c0.1,0,0.2,0.1,0.2,0.1v9c0,0.1-0.1,0.1-0.2,0.1H38.1V54.2L38.1,54.2z"/>
	</g>
	<g id="g5063" transform="matrix(0.99999234,0,0,0.99999234,141.60596,26.930779)">
		<path id="path5065" class="st1" d="M231.4,17.9h1.1c1.3,0,1.8-0.4,1.8-1.2c0-0.9-0.6-1.3-1.9-1.3h-1V17.9z M232.7,14.3
			c2.2,0,3.4,0.8,3.4,2.2c0,1.2-0.6,1.9-1.8,2.2l1.8,3.6h-1.9l-1.6-3.3h-1.2v3.3h-1.7v-7.9H232.7z M228.4,14.1
			c-1.2,1.2-1.8,2.7-1.8,4.3c0,1.6,0.6,3.1,1.7,4.2c1.2,1.2,2.7,1.8,4.2,1.8c1.7,0,3.2-0.6,4.4-1.8c1.1-1.1,1.8-2.6,1.8-4.2
			c0-1.7-0.6-3.2-1.7-4.3c-1.2-1.2-2.6-1.8-4.3-1.8C230.9,12.4,229.5,13,228.4,14.1 M237.6,13.5c1.3,1.3,2,3.1,2,5
			c0,2-0.7,3.7-2.1,5c-1.4,1.4-3.2,2.1-5,2.1c-1.9,0-3.7-0.8-5-2.1c-1.3-1.4-2.1-3.1-2.1-5c0-1.9,0.8-3.7,2.1-5.1c1.3-1.3,3-2,4.9-2
			C234.5,11.4,236.3,12.1,237.6,13.5"/>
	</g>
	<g id="g5067" transform="matrix(0.99999234,0,0,0.99999234,58.159199,29.901056)">
		<path id="path5069" class="st2" d="M-7.4,3.5l-1.7-4.9l-14.8-19.8l2.7-0.7L4.3,0.1l15.1-4.3c1.8-0.5,3.8-0.6,5.3-0.5
			C19.9-14.9,11.3-23.3-0.1-27.4C-22.7-35.4-47.6-23.6-55.6-1c-2.5,7-3.1,14.2-2,21.1l36.1-12.5L-7.4,3.5z"/>
	</g>
	<g id="g5071" transform="matrix(0.99999234,0,0,0.99999234,66.864432,31.007047)">
		<path id="path5073" class="st2" d="M17.6-1.9c-1.3,0.8-3.3,2-5.2,2.6L-2.7,5l-10.1,32.3l-2.6,0.9l2.1-24.7l-1.2-5.1l-14.1,4
			L-66,21.2c3,14.4,13.1,26.9,28,32.2c22.6,8.1,47.4-3.8,55.5-26.4C21,17.3,20.7,7.1,17.6-1.9"/>
	</g>
	<g id="g5079" transform="matrix(0.99999234,0,0,0.99999234,66.227037,16.871356)">
		<path id="path5081" class="st2" d="M15.7,66.8c-2.4,0-3.9-1.9-3.9-4.1c0-2.4,1.7-4.2,3.9-4.2c2.2,0,3.8,1.7,3.8,4.2
			C19.6,65.1,17.9,66.8,15.7,66.8 M15.7,58c-2.4,0-4.5,1.8-4.5,4.6c0,2.6,1.9,4.6,4.5,4.6c2.4,0,4.5-1.8,4.5-4.6
			C20.2,59.9,18.1,58,15.7,58"/>
	</g>
	<g id="g5083" transform="matrix(0.99999234,0,0,0.99999234,65.945939,18.043847)">
		<path id="path5085" class="st2" d="M14.9,61.1v-1.7h1.1c0.6,0,1.3,0.1,1.3,0.8c0,0.8-0.6,0.9-1.3,0.9H14.9z M18.2,60.3
			c0-1.1-0.7-1.6-2-1.6h-2.1v5.5H15v-2.3h0.8l1.4,2.3h1l-1.5-2.4C17.6,61.7,18.2,61.3,18.2,60.3"/>
	</g>
</g>
</svg>
