<?xml version="1.0" encoding="utf-8"?>
<!-- Generator: Adobe Illustrator 28.3.0, SVG Export Plug-In . SVG Version: 6.00 Build 0)  -->
<svg version="1.1" id="Layer_1" xmlns="http://www.w3.org/2000/svg" xmlns:xlink="http://www.w3.org/1999/xlink" x="0px" y="0px"
	 viewBox="0 0 921.5 178.2" style="enable-background:new 0 0 921.5 178.2;" xml:space="preserve">
<style type="text/css">
	.st0{fill:#EE2842;}
</style>
<g id="Layer_2_00000072261674413110963890000010367059106957832628_">
	<path class="st0" d="M897.8,53.8c-0.8-0.1-1.5-0.8-1.5-1.6V41.8h-3c-0.7,0-1.3-0.6-1.3-1.3l0,0c-0.1-0.7,0.4-1.3,1.1-1.4
		c0,0,0.1,0,0.1,0h9c0.8,0,1.4,0.6,1.4,1.4l0,0c-0.1,0.7-0.7,1.3-1.4,1.3h-3v10.4C899.3,53,898.7,53.7,897.8,53.8z M920,53.8
		c-0.9,0-1.6-0.7-1.6-1.6v-9l-3.8,10c0,0.4-0.4,0.8-0.8,0.8c-0.4,0-0.8-0.4-0.8-0.8l-3.9-10v9c0.1,0.8-0.5,1.5-1.4,1.6c0,0,0,0,0,0
		c-0.9,0-1.6-0.7-1.6-1.6V41.5c0-1.4,1.1-2.5,2.5-2.5l0,0c1,0,1.9,0.7,2.3,1.6l2.9,7.6l2.9-7.6c0.4-1,1.3-1.6,2.3-1.6
		c1.4,0,2.5,1.1,2.5,2.5l0,0v10.7C921.5,53,920.9,53.7,920,53.8z"/>
	<path class="st0" d="M109,34.4c0-4.9,1.5-9.8,4.4-13.8c-8.4,2.4-14.2,10.1-14.3,18.9v15.9h9.9L109,34.4L109,34.4z"/>
	<path class="st0" d="M99.1,143.5c0,8.8,5.9,16.5,14.3,19c-2.9-4.1-4.4-9-4.4-14.1v-29.7h-9.9L99.1,143.5L99.1,143.5z"/>
	<path class="st0" d="M123.8,118.8h-9.9v29.7c0,8.8,5.9,16.5,14.3,19c-2.9-4.1-4.4-9-4.4-14.1v-34.6L123.8,118.8L123.8,118.8z"/>
	<path class="st0" d="M123.8,29.6c0-5,1.5-9.9,4.4-13.9c-8.4,2.4-14.2,10.1-14.3,18.8v21.7h9.9L123.8,29.6L123.8,29.6z"/>
	<path class="st0" d="M12.1,22.9C4.5,27.5-0.1,35.6,0,44.5v93.7c0,8.7,4.6,16.8,12.1,21.2c-1.5-3.7-2.2-7.6-2.2-11.5V34.4
		C9.9,30.5,10.6,26.6,12.1,22.9z"/>
	<path class="st0" d="M24.8,24.7c0-4,0.7-7.9,2.3-11.5c-7.6,4.4-12.2,12.5-12.2,21.3v114c0.1,10.3,6.5,19.5,16.2,23
		c-4.1-5.2-6.4-11.6-6.3-18.2C24.8,153.3,24.8,24.7,24.8,24.7z"/>
	<path class="st0" d="M148.6,9.8c-10.9,0-19.8,8.9-19.8,19.8l0,0v32.3l-49.5-2.5V24.8C79.3,11.1,68.2,0,54.5,0
		C40.8,0,29.7,11.1,29.7,24.8v128.7c0,13.7,11.1,24.8,24.8,24.8c13.7,0,24.8-11.1,24.8-24.8l0,0v-39.6h49.5v39.6
		c0,10.9,8.9,19.8,19.8,19.8c10.9,0,19.8-8.9,19.8-19.8V29.6C168.4,18.7,159.5,9.8,148.6,9.8z"/>
	<path class="st0" d="M319.7,130.4V93.8h-53.4v36.6c0,4-3.2,7.2-7.1,7.3c-4,0-7.3-3.2-7.4-7.3V46.8c0.1-4,3.3-7.2,7.3-7.3
		c4,0,7.3,3.2,7.3,7.3v33.8h53.4V46c0-4,3.2-7.3,7.3-7.3c4,0,7.3,3.2,7.3,7.3v83.6c0,4-3.2,7.3-7.3,7.3c-4,0-7.3-3.2-7.3-7.3V130.4z
		"/>
	<path class="st0" d="M344.4,101.8c-1.1-19.6,13.8-36.3,33.4-37.4c19.6-1.1,36.3,13.8,37.4,33.4c0.1,1.3,0.1,2.7,0,4
		c1.1,19.6-13.8,36.3-33.4,37.4c-19.6,1.1-36.3-13.8-37.4-33.4C344.4,104.5,344.4,103.2,344.4,101.8z M402,101.8
		c1.5-12-7-22.9-19-24.5c-12-1.5-22.9,7-24.5,19c-0.2,1.8-0.2,3.7,0,5.5c-2,12,6.2,23.3,18.2,25.3c12,2,23.3-6.2,25.3-18.2
		C402.4,106.6,402.4,104.2,402,101.8z"/>
	<path class="st0" d="M491.1,65.2c18.5-0.6,34,13.9,34.6,32.5c0,0.7,0,1.4,0,2.1c0,3.9-2.8,6.2-7.7,6.2h-48.2
		c0.7,12.5,11.3,22.2,23.8,21.8c6.2,0,12.3-2,17.4-5.6c0.9-0.5,1.9-0.8,2.9-0.7c2.9-0.1,5.2,2.2,5.3,5.1c0,1.8-0.9,3.5-2.4,4.5
		c-7.2,5.1-15.8,7.7-24.5,7.5c-19.1,0.9-35.3-13.8-36.2-32.8c-0.1-1.3-0.1-2.7,0-4c-0.8-19.4,14.2-35.8,33.6-36.6c0.3,0,0.6,0,1,0
		L491.1,65.2z M469.6,96.8h42.7c0.1-11.4-9-20.7-20.4-20.9c-0.3,0-0.6,0-0.9,0C479.5,75.9,470,85.2,469.6,96.8z"/>
	<path class="st0" d="M533.5,131.2V46c-0.1-3.6,2.8-6.5,6.3-6.6c0.1,0,0.2,0,0.2,0c3.6,0.1,6.5,3,6.6,6.6v85.2
		c-0.1,3.6-3,6.5-6.6,6.5c-3.6,0.1-6.5-2.8-6.6-6.3C533.5,131.3,533.5,131.2,533.5,131.2z"/>
	<path class="st0" d="M554.9,126.6c-0.1-3,2.4-5.6,5.4-5.6c0.1,0,0.2,0,0.2,0c1.2,0,2.3,0.4,3.2,1c5.7,4.2,12.6,6.5,19.7,6.7
		c9.9,0,15.1-4.1,15.1-10c0-5.9-7.9-9.3-16.9-11.5c-11.5-2.8-25.8-6-25.8-21.1c0-11.5,9.6-20.7,26.7-20.7c8.3-0.1,16.3,2.4,23,7.3
		c1.4,1,2.3,2.6,2.3,4.4c-0.1,2.9-2.4,5.2-5.3,5.3c-1,0-2.1-0.4-2.9-1c-5-3.6-11.1-5.4-17.3-5.3c-8.9,0-14.4,3.5-14.4,9.1
		c0,5.6,7.6,8.2,16.2,10.1c12.2,2.8,26.7,6.1,26.7,22.2c0,11.5-9.9,21.4-28.3,21.4c-9.1,0.3-18.1-2.4-25.5-7.8
		c-1.5-1-2.5-2.8-2.5-4.6L554.9,126.6z"/>
	<path class="st0" d="M628.4,120.5c5,0.1,9,4,9.1,9c0,5-4.1,9.1-9.1,9.1c-5,0-9.1-4.1-9.1-9.1C619.3,124.5,623.4,120.5,628.4,120.5z
		"/>
	<path class="st0" d="M705.2,101.8c0-19.5,15.8-35.4,35.3-35.4c19.5,0,35.4,15.8,35.4,35.3c0,0,0,0,0,0c0,19.5-15.8,35.4-35.4,35.4
		C721.1,137.2,705.2,121.4,705.2,101.8C705.2,101.9,705.2,101.8,705.2,101.8z M762.8,101.8c1.5-12-7-22.9-19-24.5
		c-12-1.5-22.9,7-24.5,19c-0.2,1.8-0.2,3.7,0,5.5c-2,12,6.2,23.3,18.2,25.3c12,2,23.3-6.2,25.3-18.2
		C763.2,106.6,763.2,104.2,762.8,101.8z"/>
	<path class="st0" d="M884,86.4v44.8c-0.1,3.6-3.1,6.5-6.7,6.5c-3.5-0.1-6.3-2.9-6.3-6.5V90.3c0-8.2-3.7-11.5-12.2-11.5
		c-8.5,0-14.1,7.5-17.9,12.6v39.9c-0.5,3.6-3.8,6.1-7.4,5.6c-2.9-0.4-5.2-2.7-5.6-5.6V90.3c0-8.2-3.6-11.5-12.3-11.5
		c-6.9,0-13.7,8.5-17.2,13.6v38.8c-0.1,3.6-3,6.5-6.6,6.5c-3.6,0-6.5-2.9-6.5-6.5V72.7c0-3.5,2.8-6.4,6.3-6.5c3.6,0,6.6,2.9,6.7,6.5
		v4.1c5.6-7.1,14-11.3,23-11.5c8.8-1,17,4.4,19.5,12.9c5.3-7.7,13.8-12.5,23-13c12.9,0,19.7,7.1,19.7,21.2L884,86.4L884,86.4z"/>
	<path class="st0" d="M676.5,65.2c8.2-0.3,16.2,2.6,22.3,8.1c1.2,1.1,2,2.7,2.1,4.4c0.1,3.2-2.5,5.9-5.8,6h0c-1.5,0.1-2.9-0.5-4-1.5
		c-3.8-3.6-8.9-5.5-14.2-5.3c-12.7,0-23.1,10.2-23.1,23c0,0.7,0,1.4,0.1,2c-1.3,12.7,8,24,20.6,25.2c0.8,0.1,1.6,0.1,2.4,0.1
		c11.3-1.2,21.3-8.1,26.3-18.3c1-1.9,2.2-3.8,3.5-5.6c2.1-2.8,3.6-1.5,4.8,0c2.1,3.3,2.4,7.4,0.8,10.9c-2.9,5.8-6.8,11-11.5,15.4
		c-6.5,6.1-15.2,9.4-24.1,9.2c-19.1,0.6-35-14.3-35.7-33.4c0-1.1,0-2.3,0.1-3.4c-1.2-19.1,13.4-35.4,32.4-36.6
		c1.1-0.1,2.1-0.1,3.2,0L676.5,65.2z"/>
	<path class="st0" d="M465.4,126.6c0,2.4-7.1,8-12.2,10.5c-3.1,1.4-6.6,2.1-10,2c-8.4,1-16-5-17-13.4c-0.2-1.4-0.1-2.8,0.1-4.2V78.3
		h-6.7c-3.2-0.1-5.7-2.6-5.8-5.8c0.1-3.1,2.6-5.6,5.8-5.6h6.7V53.6c0.1-3.6,3-6.5,6.6-6.5s6.5,2.9,6.6,6.5v13.4h9.9
		c3.2,0,5.8,2.6,5.8,5.8c0,3.2-2.6,5.8-5.8,5.8h-9.1v40.1c0,5,2.3,8.6,6.8,8.6c7.9,0,14.3-12.4,17.7-12.4c3.5,0,1.3,8.3,1.3,11.5
		L465.4,126.6z"/>
</g>
</svg>
