<?xml version="1.0" encoding="utf-8"?>
<!-- Generator: Adobe Illustrator 28.3.0, SVG Export Plug-In . SVG Version: 6.00 Build 0)  -->
<svg version="1.1" id="Layer_1" xmlns="http://www.w3.org/2000/svg" xmlns:xlink="http://www.w3.org/1999/xlink" x="0px" y="0px"
	 viewBox="0 0 1078 438" style="enable-background:new 0 0 1078 438;" xml:space="preserve">
<style type="text/css">
	.st0{fill:#EF5E4E;}
</style>
<path class="st0" d="M144.3,0.7C223.6,0.7,288,65.5,288,145.5c0,12.5-1.6,24.6-4.5,36.2c-3.3,12.8-8.3,25-14.7,36.2
	c-6.3,11-14,21.1-22.9,30c-26,26.2-61.9,42.4-101.5,42.4v-1.9c-1.4-41.3-19.1-78.4-46.7-105c-25.4-24.5-59.4-40.1-96.8-41.9
	c1-38.4,16.9-73,42-98.4C68.7,16.9,104.6,0.7,144.3,0.7z M0.7,435.1c79.3,0,143.7-64.8,143.7-144.8H0.7V435.1L0.7,435.1z
	 M651.6,435.4h21V299l-22,4v45.5c-7.6-6.8-17.4-10.8-28-10.8c-25.6,0-47.3,22.4-47.3,50.1s21.4,50.1,46.9,50.1
	c11.4,0,21.6-4.6,29.4-12.2L651.6,435.4L651.6,435.4z M779.6,417l-17.8-12.6c-5.2,8-14,12.4-23.6,12.4c-13.8,0-24.6-9-27.6-21.2
	h71.7c0.4-3.2,0.6-6,0.6-9.4c0-27.6-19-48.5-46.5-48.5c-29.2,0-49.1,22.4-49.1,50.1s21.6,50.1,50.7,50.1
	C755.3,437.8,770.4,429.8,779.6,417L779.6,417z M854.7,360.7v-20.6c-3.4-0.6-6-1-9.4-1c-12.8,0-23,6.4-26.2,16.6v-16.6l-21.6,4v92.3
	h22v-74.7H854.7z M517,358.7c13.6,0,21.6,8.4,21.6,25.6v51.1h22v-54.1c0-23.8-12.8-43.7-38.7-43.7c-12,0-22.4,4.6-30.2,12.2V339
	l-21,4v92.3h22v-63.9C497.8,363.7,506.4,358.7,517,358.7L517,358.7z M626.4,416.8c-16,0-28.6-13-28.6-29s12.6-29,28.6-29
	c10.2,0,19.2,5.4,24.2,13.6v30.8C645.6,411.4,636.6,416.8,626.4,416.8z M736.3,357.7c12.6,0,21.4,8,23.6,20h-49.5
	C713.3,366.1,722.5,357.7,736.3,357.7z M430.7,435.4h22v-95.3h-22V435.4z M335.5,300v135.4h23v-54.1h49.1v-22.2h-49.1v-36.9h55.7
	V300H335.5z M441.5,298.2c-8,0-14.8,6.6-14.8,14.8c0,8.2,6.8,15,14.8,15c8.2,0,15.2-6.8,15.2-15S449.7,298.2,441.5,298.2z
	 M669.6,239.8c25.6,0,47.3-22.4,47.3-50.1c0-27.6-21.4-50.1-46.9-50.1c-11.2,0-21.4,4.6-29.2,12V141l-21,4v128.6h22v-44.5
	C649.4,235.8,659,239.8,669.6,239.8L669.6,239.8z M821.8,218.9L804,206.3c-5.2,8-14,12.4-23.6,12.4c-13.6,0-24.2-8.8-27.6-20.8h71.7
	c0.4-3.4,0.6-6.2,0.6-9.8c0-27.6-19-48.5-46.5-48.5c-29.2,0-49.1,22.4-49.1,50.1c0,27.6,21.6,50.1,50.7,50.1
	C797.6,239.8,812.6,231.8,821.8,218.9L821.8,218.9z M501.2,162.7V142c-3.4-0.6-6-1-9.4-1c-12.6,0-22.8,6.4-26,16.6V141l-21.6,4v92.3
	H466v-74.7h35.2L501.2,162.7L501.2,162.7z M897,162.7V142c-3.4-0.6-6-1-9.4-1c-12.6,0-22.8,6.4-26,16.6V141l-21.8,4v92.3h22v-74.7
	H897V162.7L897,162.7z M972.9,233.4l-8.6-19c-4.2,2-10,4.4-16.8,4.4c-11.8,0-17.8-7.4-17.8-19v-37.1H966V142h-36.3v-27.6l-21.8,4
	v81.3c0,24.4,13.4,40.1,38.9,40.1C957.6,239.8,966.7,236.2,972.9,233.4z M555.5,218.7c-15.2,0-27.4-12.6-27.4-29s12.2-29,27.4-29
	c15,0,27.4,12.6,27.4,29S570.5,218.7,555.5,218.7z M665.8,218.7c-10,0-19-5.2-24-13.2v-31.6c5-8,14-13.2,24-13.2
	c16,0,28.6,13,28.6,29S681.8,218.7,665.8,218.7z M778.6,159.8c12.8,0,21.4,8,23.6,19.8h-49.5C755.6,168.3,764.8,159.8,778.6,159.8z
	 M1021.7,273.6l56.1-131.6h-24.4l-26.8,64.9L999.2,142h-24.6l40.3,91.3l-17,40.3H1021.7L1021.7,273.6z M555.5,239.8
	c27.2,0,49.7-22,49.7-50.1c0-28-22.4-50.1-49.7-50.1c-27.4,0-49.9,22-49.9,50.1C505.6,217.7,528,239.8,555.5,239.8L555.5,239.8z
	 M384.6,124.2c12.6,0,21.8,8.8,21.8,20.2c0,11.6-9.4,21-22.2,21h-25.4v-41.3h25.8L384.6,124.2L384.6,124.2z M385.4,102h-49.9v135.4
	h23.2v-49.7h25.8c25.2,0,45.7-19,45.7-43.3C430.3,120.4,410.2,102,385.4,102L385.4,102z"/>
</svg>
