<?xml version="1.0" encoding="utf-8"?>
<!-- Generator: Adobe Illustrator 28.3.0, SVG Export Plug-In . SVG Version: 6.00 Build 0)  -->
<svg version="1.1" id="Layer_1" xmlns="http://www.w3.org/2000/svg" xmlns:xlink="http://www.w3.org/1999/xlink" x="0px" y="0px"
	 viewBox="0 0 1670.7 620.6" style="enable-background:new 0 0 1670.7 620.6;" xml:space="preserve">
<style type="text/css">
	.st0{fill:#001C39;}
	.st1{fill:#00CCD5;}
</style>
<g>
	<path class="st0" d="M982.7,261.6c0-65.3-52.1-107.7-124.3-107.7H724.9v313.3h66.6v-97.3h8.3c40.7,60.9,108.1,97.1,181.7,97.1V406
		c-38.6,0-75-13.9-103.2-38.5c11.3-1.6,25-4.4,38.9-8.8C958.8,345,982.7,307.3,982.7,261.6 M856.1,308.7h-64.3v-94.1h64.3
		c33.6,0,60.6,18.1,60.6,47C916.9,290.1,889.6,308.7,856.1,308.7"/>
	<polygon class="st0" points="1202.5,338.1 1085.7,153.6 1037.7,153.6 1037.7,467.1 1105.1,467.1 1104.2,295.7 1182.9,419.6 
		1182.9,420.1 1222,420.1 1300.2,297.1 1300.2,467.1 1366.8,467.1 1366.8,153.6 1319.4,153.6 	"/>
	<path class="st0" d="M1575.1,285.5l-38.6-7.9c-28.5-5.6-44.2-14.8-44.2-35.9c0-24.3,16.7-38.2,49.3-38.2
		c37.7,0,45.1,18.5,49.3,46.1h65.7c-7.4-81.1-67.6-102.6-120.1-102.6c-71.7,0-114.6,40.1-114.6,100.3c0,48.9,27.1,79.7,89.3,92.2
		l51.1,9.7c31.7,6,39.1,19.5,39.1,32.2c0,21.1-18.5,33.6-51.6,33.6c-41.9,0-69.4-19.7-74.5-51.7h-66.2
		c5.6,70,61.5,110.1,137.2,110.1c75,0,124.3-39.6,124.3-99.4C1670.5,321.4,1635.1,298.5,1575.1,285.5"/>
	<path class="st1" d="M309.9,0C144,0,8.1,131.4,0.5,295.7c-0.2,4.9-0.5,9.7-0.5,14.6c0,4.9,0.2,9.7,0.5,14.6
		C8.1,489.2,144,620.6,309.9,620.6c170.8,0,309.9-139.3,309.9-310.3C619.8,139,480.9,0,309.9,0 M430.5,310
		c0,66.5-53.9,120.5-120.3,120.5c-66.4,0-120.3-54-120.3-120.5c0-66.5,53.9-120.5,120.3-120.5C376.5,189.6,430.5,243.8,430.5,310
		 M309.9,169.9c-77.3,0-140.3,63-140.3,140.4c0,77.4,63,140.4,140.3,140.4c19.2,0,37.5-3.9,53.9-10.9
		c-23.1,14.1-50.2,22.5-79.1,22.5c-83.8,0-151.8-68.1-151.8-152c0-83.9,68-152,151.8-152c28.9,0,56.2,8.1,79.1,22.5
		C347.4,173.6,329.1,169.9,309.9,169.9 M284.9,138.3c-94.7,0-171.5,77.2-171.5,171.7c0,94.5,77.1,171.7,171.5,171.7
		c24.3,0,47.4-5.1,68.3-14.1c-27.3,16.4-59.2,25.7-93.5,25.7c-100.9,0-183.1-82.3-183.1-183.3s82.2-183.3,183.1-183.3
		c34,0,66.2,9.5,93.5,25.7C332.1,143.4,309,138.3,284.9,138.3 M468.7,310c0-129.3-105.1-234.5-234.2-234.5c-12.7,0-25.4,1.2-37.7,3
		c20.1-5.6,41.2-8.3,62.7-8.3C391.6,70.2,499,178,499,310c0,132.1-107.6,239.8-239.5,239.8c-21.7,0-42.8-3-62.7-8.3
		c12.3,2.1,24.8,3,37.5,3C363.6,544.8,468.7,439.6,468.7,310 M20.4,299.2c5.8-113.3,99.5-203.7,214.1-203.7
		c39.4,0,76.1,10.7,107.6,29.2c-25.2-11.4-53.2-17.6-82.6-17.6c-112,0-203,91.1-203,203.2c0,111.9,91,203.2,203,203.2
		c29.4,0,57.4-6.3,82.6-17.6c-31.7,18.5-68.5,29.2-107.8,29.2c-114.6,0-208.5-90.4-214.1-203.7c-0.2-3.7-0.2-7.4-0.2-11.1
		C19.9,306.3,20.1,302.9,20.4,299.2 M259.7,570c143,0,259.4-116.6,259.4-259.8c0-143.2-116.4-260-259.4-260
		c-14.8,0-29.2,1.4-43.3,3.7c21.8-5.8,44.9-9,68.5-9c146,0,264.8,118.9,264.8,265.1S430.9,575.1,284.9,575.1
		c-23.6,0-46.8-3.3-68.5-9C230.5,568.6,244.9,570,259.7,570 M309.9,600.6c-25.7,0-50.5-3.5-74.3-9.7c16,2.8,32.4,4.4,49.1,4.4
		c156.9,0,284.7-127.9,284.7-285c0-157.1-127.7-285-284.7-285c-16.7,0-33.1,1.6-49.1,4.4c23.6-6.3,48.6-9.7,74.3-9.7
		c159.9,0,290,130.2,290,290.4C600.1,470.2,469.8,600.6,309.9,600.6"/>
</g>
</svg>
