<?xml version="1.0" encoding="utf-8"?>
<!-- Generator: Adobe Illustrator 28.3.0, SVG Export Plug-In . SVG Version: 6.00 Build 0)  -->
<svg version="1.1" id="Layer_1" xmlns="http://www.w3.org/2000/svg" xmlns:xlink="http://www.w3.org/1999/xlink" x="0px" y="0px"
	 viewBox="0 0 3274.7 696.6" style="enable-background:new 0 0 3274.7 696.6;" xml:space="preserve">
<style type="text/css">
	.st0{fill:#34E0A1;}
</style>
<g>
	<path d="M3256.2,465.4c-10.2,0-18.4,8.2-18.4,18.4s8.2,18.4,18.4,18.4c10.2,0,18.4-8.2,18.4-18.4c0,0,0,0,0,0
		C3274.6,473.7,3266.4,465.5,3256.2,465.4z M3256.2,499.4c-8.6,0-15.5-7-15.5-15.5s7-15.5,15.5-15.5c8.6,0,15.5,6.9,15.5,15.5
		C3271.8,492.4,3264.8,499.4,3256.2,499.4z M3262.2,480.7c0-3.3-2.4-5.3-5.9-5.3h-5.9v16.8h2.9v-6.1h3.1l3,6.1h3.1l-3.4-6.7
		C3261.2,484.6,3262.3,482.8,3262.2,480.7L3262.2,480.7z M3256.2,483.5h-2.9v-5.5h2.9c1.9,0,3.1,1,3.1,2.8
		S3258.2,483.5,3256.2,483.5L3256.2,483.5z M1038.3,279.2v-44.5H970v264.9h68.3V340.7c0-28.8,18.5-42.9,47.2-42.9h37.3v-63.2h-31.9
		C1066,234.7,1044.2,247.7,1038.3,279.2z M1186.8,129.9c-23.3,0-41.2,18.5-41.2,41.8c0.4,22.8,19.1,41,41.9,40.6
		c22.3-0.3,40.3-18.3,40.6-40.6C1228.1,148.3,1210.1,129.9,1186.8,129.9z M1152.8,499.5h68.1V234.7h-68.1V499.5z M1545.3,367.1
		c0,75.6-61.3,136.9-136.9,136.9c-29,0.1-57.3-9.3-80.4-26.9v100.1h-68.1V234.7h68.1v22.4c23.1-17.5,51.3-27,80.3-26.8
		C1483.9,230.2,1545.2,291.5,1545.3,367.1L1545.3,367.1z M1476.7,367.1c0-41.1-33.3-74.4-74.4-74.4c-41.1,0-74.4,33.3-74.4,74.4
		s33.3,74.4,74.4,74.4c0,0,0,0,0,0C1443.4,441.5,1476.8,408.2,1476.7,367.1C1476.8,367.1,1476.8,367.1,1476.7,367.1L1476.7,367.1z
		 M2728.9,343.9l-39.7-10.9c-26.1-6.8-36.3-14.8-36.3-28.6c0-13.5,14.3-22.9,34.8-22.9c19.5,0,34.8,12.8,34.8,29.1v1.5h62.8v-1.5
		c0-48.1-39.2-80.4-97.6-80.4c-57.8,0-99.8,32.3-99.8,76.7c0,34.6,22.9,60.6,62.9,71.5l38,10.4c28.9,8,39.6,16.9,39.6,32.8
		c0,16.8-15.5,28.1-38.6,28.1c-24.1,0-40.3-15.2-40.3-37.9v-1.5h-66.6v1.5c0,54.3,43.7,92.3,106.4,92.3
		c60.4,0,104.2-37.1,104.2-88.1C2793.5,390.9,2782.3,358.1,2728.9,343.9L2728.9,343.9z M1786.8,234.7h68.1v264.9h-68.1v-22.4
		c-23.1,17.6-51.4,27-80.4,26.9c-75.6-0.6-136.4-62.5-135.7-138.1c0.6-74.7,61-135.1,135.7-135.7c29-0.1,57.3,9.3,80.4,26.9V234.7z
		 M1786.8,367.1L1786.8,367.1c0-41.1-33.3-74.4-74.4-74.4s-74.4,33.3-74.4,74.4c0,41.1,33.3,74.4,74.4,74.4
		C1753.6,441.5,1786.8,408.2,1786.8,367.1C1786.8,367.1,1786.8,367.1,1786.8,367.1L1786.8,367.1z M2100.9,140.4h68.1v359.1h-68.1
		v-22.4c-23.1,17.6-51.4,27-80.4,26.9c-75.6,0.6-137.4-60.1-138.1-135.7c-0.6-75.6,60.1-137.4,135.7-138.1c0.8,0,1.6,0,2.3,0
		c29-0.1,57.3,9.3,80.4,26.9V140.4z M2100.9,367.1c0-41.1-33.3-74.4-74.4-74.4c-41.1,0-74.4,33.3-74.4,74.4s33.3,74.4,74.4,74.4
		S2100.9,408.2,2100.9,367.1C2100.9,367.1,2100.9,367.1,2100.9,367.1z M2485.2,499.5h68.1V234.7h-68.1V499.5z M2519.2,129.9
		c-23.3,0-41.2,18.5-41.2,41.8c0,22.8,18.5,41.2,41.2,41.2s41.2-18.5,41.2-41.2C2560.4,148.3,2542.5,129.9,2519.2,129.9
		L2519.2,129.9z M3087.8,367.1c0,75.6-61.2,136.9-136.9,137c-75.6,0-136.9-61.2-137-136.9s61.2-136.9,136.9-137c0,0,0.1,0,0.1,0
		C3026.6,230.2,3087.9,291.5,3087.8,367.1L3087.8,367.1z M3025.3,367.1c0-41.1-33.3-74.4-74.4-74.4c-41.1,0-74.4,33.3-74.4,74.4
		s33.3,74.4,74.4,74.4C2992,441.5,3025.3,408.2,3025.3,367.1C3025.3,367.1,3025.3,367.1,3025.3,367.1L3025.3,367.1z M1003.4,140.4
		H742.2v60.8h96.7v298.4h67.8V201.1h96.7V140.4z M2324.6,427L2264,234.7h-71.5l90.9,264.9h82l91.4-264.9h-71.5L2324.6,427z
		 M3187.7,279.2v-44.5h-68.3v264.9h68.3V340.7c0-28.8,18.5-42.9,47.2-42.9h37.3v-63.2h-31.9C3215.4,234.7,3193.6,247.7,3187.7,279.2
		z"/>
	<circle class="st0" cx="348.3" cy="348.3" r="348.3"/>
	<path d="M563.4,280.3l42-45.8h-93.2c-98.8-67.3-228.8-67.3-327.6,0H91.2l42,45.8c-52.2,48-55.7,129.3-7.6,181.6
		c48,52.2,129.3,55.7,181.6,7.6l41.2,44.8l41.2-44.8c52.1,48.2,133.4,44.9,181.6-7.2c48.2-52.1,44.9-133.4-7.2-181.6
		C563.7,280.6,563.6,280.5,563.4,280.3z M219.8,462.2c-48,0-87-39-87-87s39-87,87-87s87,39,87,87l0,0
		C306.8,423.3,267.8,462.2,219.8,462.2z M348.3,372.8c0-57.2-41.6-106.3-96.5-127.3c61.8-25.7,131.2-25.7,193,0
		C389.9,266.5,348.3,315.6,348.3,372.8L348.3,372.8z M476.8,462.2c-48,0-87-39-87-87s39-87,87-87s87,39,87,87l0,0
		C563.8,423.3,524.8,462.2,476.8,462.2z M476.8,329.7c-25.2,0-45.6,20.4-45.6,45.6c0,25.2,20.4,45.6,45.6,45.6
		c25.2,0,45.6-20.4,45.6-45.6c0,0,0,0,0,0C522.3,350.1,501.9,329.7,476.8,329.7L476.8,329.7z M265.4,375.2
		c0,25.2-20.4,45.6-45.5,45.6c-25.2,0-45.6-20.4-45.6-45.5c0-25.2,20.4-45.6,45.5-45.6S265.4,350.1,265.4,375.2L265.4,375.2z"/>
</g>
</svg>
